<svg xmlns="http://www.w3.org/2000/svg" viewBox="0 0 24 24"><g id="it-network"><path fill="currentColor" id="it-7" d="M7,22.75H6.75a5.69,5.69,0,0,1-4.19-2.1,5.94,5.94,0,0,1,.53-7.9l2.65-2.65a1.75,1.75,0,0,1,2.47,0l.72.72a1.76,1.76,0,0,1,0,2.48l-2.8,2.79A1.27,1.27,0,0,0,6.3,18,1.35,1.35,0,0,0,8,17.79l2.71-2.72A1.74,1.74,0,0,1,12,14.56h0a1.74,1.74,0,0,1,1.24.51l.72.72A1.72,1.72,0,0,1,14.42,17a1.74,1.74,0,0,1-.51,1.24l-2.8,2.8A5.82,5.82,0,0,1,7,22.75ZM7,11.08a.29.29,0,0,0-.18.07L4.15,13.8a4.43,4.43,0,0,0-.43,5.88,4.24,4.24,0,0,0,3.1,1.57A4.32,4.32,0,0,0,10.05,20l2.8-2.8a.26.26,0,0,0,.07-.18.24.24,0,0,0-.07-.17l-.72-.72c-.13-.13-.23-.13-.35,0h0L9.06,18.85a2.85,2.85,0,0,1-3.63.38A2.76,2.76,0,0,1,5.07,15l2.8-2.79a.23.23,0,0,0,.07-.18.22.22,0,0,0-.07-.18l-.72-.72A.22.22,0,0,0,7,11.08Zm4.26,4.52h0Zm5.65-1A1.75,1.75,0,0,1,15.65,14l-.72-.71a1.76,1.76,0,0,1,0-2.48l2.94-2.93A1.27,1.27,0,0,0,17.7,6a1.35,1.35,0,0,0-1.7.22L13.15,9.07a1.76,1.76,0,0,1-2.48,0L10,8.35a1.73,1.73,0,0,1,0-2.47l2.93-2.94a5.81,5.81,0,0,1,4.36-1.68,5.69,5.69,0,0,1,4.19,2.1,5.94,5.94,0,0,1-.53,7.9L18.12,14A1.74,1.74,0,0,1,16.89,14.55ZM17,4.29a2.68,2.68,0,0,1,1.55.48A2.76,2.76,0,0,1,18.93,9L16,11.91a.26.26,0,0,0-.07.18.24.24,0,0,0,.07.17l.72.72a.24.24,0,0,0,.35,0l2.79-2.78a4.44,4.44,0,0,0,.43-5.89,4.26,4.26,0,0,0-3.1-1.56A4.32,4.32,0,0,0,14,4L11,6.94a.22.22,0,0,0-.08.17.24.24,0,0,0,.08.18l.71.72a.21.21,0,0,0,.36,0l2.85-2.86A3,3,0,0,1,17,4.29ZM6.07,7.76a.75.75,0,0,0-.49-.94l-2.1-.66a.74.74,0,0,0-.94.49A.76.76,0,0,0,3,7.59l2.09.66.23,0A.76.76,0,0,0,6.07,7.76ZM8.56,5.3a.74.74,0,0,0,.64-.84L9,3a.75.75,0,0,0-.85-.64.74.74,0,0,0-.64.84l.2,1.44a.76.76,0,0,0,.74.64Zm7.85,15.43a.76.76,0,0,0,.58-.89l-.44-2.15a.77.77,0,0,0-.89-.58.75.75,0,0,0-.58.89l.44,2.15a.74.74,0,0,0,.73.59Zm4.51-4.8a.76.76,0,0,0-.55-.91L19,14.68a.75.75,0,1,0-.36,1.45l1.4.35a.55.55,0,0,0,.18,0A.75.75,0,0,0,20.92,15.93Z"/></g></svg>