<svg xmlns="http://www.w3.org/2000/svg" viewBox="0 0 24 24"><g id="it-network"><path fill="currentColor" id="it-6" d="M21.06,2.94a5.78,5.78,0,0,0-8.17,0L9.34,6.5A5.53,5.53,0,0,0,8.18,8.2,5.54,5.54,0,0,0,6.49,9.34L2.94,12.89a5.78,5.78,0,0,0,8.17,8.17l3.55-3.55a5.78,5.78,0,0,0,1.16-1.7,6,6,0,0,0,1.69-1.15l3.55-3.55a5.78,5.78,0,0,0,0-8.17Zm-6.4,6.4a6.24,6.24,0,0,0-1-.79l2.41-2.42a1.27,1.27,0,0,1,1.79,0,1.29,1.29,0,0,1,0,1.79l-2.42,2.41A5.29,5.29,0,0,0,14.66,9.34Zm-4.32,6.11L7.92,17.87a1.31,1.31,0,0,1-1.79,0,1.29,1.29,0,0,1,0-1.79l2.42-2.41a5.29,5.29,0,0,0,.79,1A5.43,5.43,0,0,0,10.34,15.45ZM10.05,20A4.28,4.28,0,0,1,4,14L7.56,10.4l.1-.1a.75.75,0,0,0,0,.15c0,.14,0,.27,0,.41a4.2,4.2,0,0,0,.06.62,3.58,3.58,0,0,0,.09.45,2.8,2.8,0,0,0,.06.28L5.07,15a2.79,2.79,0,0,0,0,3.91,2.84,2.84,0,0,0,3.91,0l3.55-3.56a2.75,2.75,0,0,0,0-3.9,1.26,1.26,0,0,1,0-1.78l0,0a4.27,4.27,0,0,1,1,6.8Zm10-9.95L16.44,13.6s-.08.06-.12.1a5.77,5.77,0,0,0-.23-1.89L18.93,9a2.79,2.79,0,0,0,0-3.91,2.78,2.78,0,0,0-3.91,0L11.88,8.22l-.41.41a2.75,2.75,0,0,0,0,3.9,1.24,1.24,0,0,1,.37.89,1.22,1.22,0,0,1-.37.89l0,0a4.23,4.23,0,0,1-1-.75,4,4,0,0,1-1-1.56,4.22,4.22,0,0,1,0-2.91,4.3,4.3,0,0,1,1-1.57L14,4A4.28,4.28,0,0,1,20,10.05Z"/></g></svg>