<svg xmlns="http://www.w3.org/2000/svg" viewBox="0 0 24 24"><g id="it-network"><path fill="currentColor" id="it-3" d="M16.19,22.75H7.81a6.56,6.56,0,0,1-6.56-6.56V7.81A6.56,6.56,0,0,1,7.81,1.25h8.38a6.56,6.56,0,0,1,6.56,6.56v8.38A6.56,6.56,0,0,1,16.19,22.75Zm-8.38-20A5.07,5.07,0,0,0,2.75,7.81v8.38a5.07,5.07,0,0,0,5.06,5.06h8.38a5.07,5.07,0,0,0,5.06-5.06V7.81a5.07,5.07,0,0,0-5.06-5.06ZM7.64,15.57l2.79-4.14a.76.76,0,0,0,0-.83L7.65,6.28a.76.76,0,0,0-1-.23.75.75,0,0,0-.22,1L8.91,11,6.39,14.74a.75.75,0,0,0,.21,1,.76.76,0,0,0,.41.13A.75.75,0,0,0,7.64,15.57Zm10.09,1.74a.75.75,0,0,0-.75-.75h-5.9a.75.75,0,0,0,0,1.5H17A.74.74,0,0,0,17.73,17.31Z"/></g></svg>