<svg xmlns="http://www.w3.org/2000/svg" viewBox="0 0 24 24"><defs><style>.cls-1{opacity:0.3;}</style></defs><g id="devices"><g id="bluetooth"><path d="M12.15,19.32a.76.76,0,0,1-.33-.08.73.73,0,0,1-.42-.67V14.08L8.49,16.77a.75.75,0,0,1-1.06,0,.75.75,0,0,1,0-1.06L11.4,12v-.1L7.48,8.44a.75.75,0,0,1,1-1.12L11.4,9.93V5.27a.75.75,0,0,1,1.21-.59l4.17,3.24a.76.76,0,0,1,.29.56.75.75,0,0,1-.24.58L13.68,12l3.14,2.81a.78.78,0,0,1,.25.58.8.8,0,0,1-.29.57l-4.17,3.23A.74.74,0,0,1,12.15,19.32Zm.75-6V17l2.25-1.75Zm0-6.48v3.85l2.26-2.09Z"/><rect class="cls-1" x="2" y="2" width="19.99" height="19.99" rx="5.24"/></g></g></svg>