<svg xmlns="http://www.w3.org/2000/svg" viewBox="0 0 24 24"><defs><style>.cls-1{opacity:0.3;}</style></defs><g id="devices"><g id="calculatoror"><rect class="cls-1" x="3" y="2" width="18" height="20" rx="4.07"/><rect x="6" y="5" width="12" height="6" rx="1.74"/><circle cx="16.5" cy="15.33" r="1"/><circle cx="14.49" cy="17.48" r="1"/><path d="M8.06,18.23A.74.74,0,0,1,7.51,18a.75.75,0,0,1,0-1.06l2.27-2.15a.73.73,0,0,1,1,0,.75.75,0,0,1,0,1.06L8.57,18A.72.72,0,0,1,8.06,18.23Z"/><path d="M10.32,18.23a.72.72,0,0,1-.51-.2L7.54,15.87a.75.75,0,0,1,0-1.06.75.75,0,0,1,1.06,0l2.27,2.15a.75.75,0,0,1,0,1.06A.7.7,0,0,1,10.32,18.23Z"/></g></g></svg>