<svg xmlns="http://www.w3.org/2000/svg" viewBox="0 0 24 24"><defs><style>.cls-1{opacity:0.3;}</style></defs><g id="devices"><g id="devices-2"><path class="cls-1" d="M16.54,22H7.46A4.46,4.46,0,0,1,3,17.54V6.46A4.46,4.46,0,0,1,7.46,2h5.71a4.45,4.45,0,0,1,3.32,1.48l3.37,3.75a4.49,4.49,0,0,1,1.14,3v7.33A4.46,4.46,0,0,1,16.54,22Z"/><path d="M9.55,18.73A.76.76,0,0,1,9,18.52l-2-2a.75.75,0,0,1,0-1.06l2-2a.75.75,0,1,1,1.06,1.06L8.6,16l1.47,1.46a.75.75,0,0,1-.52,1.28Z"/><path d="M14.45,18.73a.75.75,0,0,1-.52-1.28L15.4,16l-1.48-1.47A.75.75,0,1,1,15,13.46l2,2a.75.75,0,0,1,0,1.06l-2,2A.74.74,0,0,1,14.45,18.73Z"/></g></g></svg>