<svg xmlns="http://www.w3.org/2000/svg" viewBox="0 0 24 24"><defs><style>.cls-1{opacity:0.3;}</style></defs><g id="devices"><g id="external-drive"><path d="M7.67,7.27H6.45a.75.75,0,1,1,0-1.5H7.67a.75.75,0,0,1,0,1.5Z"/><path d="M7.67,9.77H6.45a.75.75,0,1,1,0-1.5H7.67a.75.75,0,0,1,0,1.5Z"/><path d="M7.67,12.27H6.45a.75.75,0,1,1,0-1.5H7.67a.75.75,0,0,1,0,1.5Z"/><path class="cls-1" d="M7.45,2h9.11A3.95,3.95,0,0,1,20.5,5.95v7.12a1.1,1.1,0,0,1-1.1,1.1H4.6a1.1,1.1,0,0,1-1.1-1.1V5.95A3.95,3.95,0,0,1,7.45,2Z"/><path d="M19.4,15.75H4.6a1.1,1.1,0,0,0-1.1,1.1v1.33A3.82,3.82,0,0,0,7.32,22h9.36a3.82,3.82,0,0,0,3.82-3.82V16.85A1.1,1.1,0,0,0,19.4,15.75Zm-2.9,4a1,1,0,1,1,1-1A1,1,0,0,1,16.5,19.75Z"/></g></g></svg>