<svg xmlns="http://www.w3.org/2000/svg" viewBox="0 0 24 24"><defs><style>.cls-1{opacity:0.3;}</style></defs><g id="devices"><g id="keyboard"><path d="M12.75,8.84V7.74a1.38,1.38,0,0,1,1.38-1.39h.49A2.88,2.88,0,0,0,17.5,3.47V2.82a.75.75,0,0,0-1.5,0v.65a1.38,1.38,0,0,1-1.38,1.38h-.49a2.89,2.89,0,0,0-2.88,2.89v1.1Z"/><path class="cls-1" d="M20.8,8.84H3.2A1.2,1.2,0,0,0,2,10V20.73a1.2,1.2,0,0,0,1.2,1.2H20.8a1.2,1.2,0,0,0,1.2-1.2V10A1.2,1.2,0,0,0,20.8,8.84Zm-5.07,7a.73.73,0,1,1-.73-.73A.73.73,0,0,1,15.73,15.84ZM14,12.11a.73.73,0,1,1-.73.73A.73.73,0,0,1,14,12.11Zm-1.27,3.73a.73.73,0,1,1-.73-.73A.73.73,0,0,1,12.73,15.84ZM11,12.11a.73.73,0,1,1-.73.73A.73.73,0,0,1,11,12.11Zm-6,0a.73.73,0,1,1-.73.73A.73.73,0,0,1,5,12.11Zm1.12,7.48H4.88a.75.75,0,1,1,0-1.5H6.12a.75.75,0,1,1,0,1.5Zm0-3H4.88a.75.75,0,1,1,0-1.5H6.12a.75.75,0,1,1,0,1.5Zm1.15-3.75a.73.73,0,1,1,.73.73A.73.73,0,0,1,7.27,12.84ZM9,15.11a.73.73,0,1,1-.73.73A.73.73,0,0,1,9,15.11Zm7,4.48H9.15a.75.75,0,0,1,0-1.5H16a.75.75,0,0,1,0,1.5Zm3,0a.73.73,0,1,1,.73-.73A.73.73,0,0,1,19,19.57Zm0-3H17.77a.75.75,0,0,1,0-1.5H19a.75.75,0,0,1,0,1.5Zm.12-3H17a.75.75,0,0,1,0-1.5h2.12a.75.75,0,0,1,0,1.5Z"/></g></g></svg>