<svg xmlns="http://www.w3.org/2000/svg" viewBox="0 0 24 24"><defs><style>.cls-1{opacity:0.3;}</style></defs><g id="devices"><g id="monitor-mobbile"><path class="cls-1" d="M16.85,2H5.78A3.81,3.81,0,0,0,2,5.83v7a3.81,3.81,0,0,0,3.78,3.83h4.44v2.63H7.28a.75.75,0,0,0,0,1.5h8.07a.75.75,0,1,0,0-1.5H12.41V16.63h4.44a3.81,3.81,0,0,0,3.77-3.83v-7A3.81,3.81,0,0,0,16.85,2Z"/><path d="M20.07,9.5h-6a2,2,0,0,0-1.94,2V20a2,2,0,0,0,1.94,2h6A2,2,0,0,0,22,20V11.47A2,2,0,0,0,20.07,9.5Zm-3,10.83a1.11,1.11,0,1,1,1.09-1.1A1.09,1.09,0,0,1,17.07,20.33Z"/></g></g></svg>