<svg xmlns="http://www.w3.org/2000/svg" viewBox="0 0 24 24"><defs><style>.cls-1{opacity:0.3;}</style></defs><g id="devices"><g id="printer"><rect class="cls-1" x="3" y="7" width="18" height="11" rx="2.8"/><path d="M10.25,2h3.51A3.25,3.25,0,0,1,17,5.25V7a0,0,0,0,1,0,0H7A0,0,0,0,1,7,7V5.25A3.25,3.25,0,0,1,10.25,2Z"/><path d="M8,15h8a0,0,0,0,1,0,0v3.92A3.08,3.08,0,0,1,12.92,22H11.08A3.08,3.08,0,0,1,8,18.92V15A0,0,0,0,1,8,15Z"/><path d="M10,11.75H7a.75.75,0,0,1,0-1.5h3a.75.75,0,0,1,0,1.5Z"/><path d="M17,15.75H7a.75.75,0,0,1,0-1.5H17a.75.75,0,0,1,0,1.5Z"/></g></g></svg>