<svg xmlns="http://www.w3.org/2000/svg" viewBox="0 0 24 24"><defs><style>.cls-1{opacity:0.3;}</style></defs><g id="devices"><g id="simcard-2"><path class="cls-1" d="M12.53,22H5.36a3.53,3.53,0,0,1-3.52-3.52V9.74A3.52,3.52,0,0,1,5.36,6.22H9.87a3.51,3.51,0,0,1,2.62,1.16l2.66,3a3.5,3.5,0,0,1,.9,2.35v5.79A3.52,3.52,0,0,1,12.53,22Z"/><path d="M21.26,6.12l-2.66-3A3.54,3.54,0,0,0,16,2H11.47A3.52,3.52,0,0,0,8,5.51v.71H9.87a3.51,3.51,0,0,1,2.62,1.16l2.66,3a3.5,3.5,0,0,1,.9,2.35v5.08h2.59a3.52,3.52,0,0,0,3.52-3.52V8.47A3.52,3.52,0,0,0,21.26,6.12Z"/></g></g></svg>