<svg xmlns="http://www.w3.org/2000/svg" viewBox="0 0 24 24"><defs><style>.cls-1{opacity:0.3;}</style></defs><g id="devices"><g id="simcard"><path class="cls-1" d="M16.54,22H7.46A4.46,4.46,0,0,1,3,17.54V6.46A4.46,4.46,0,0,1,7.46,2h5.71a4.45,4.45,0,0,1,3.32,1.48l3.37,3.75a4.49,4.49,0,0,1,1.14,3v7.33A4.46,4.46,0,0,1,16.54,22Z"/><path d="M11.5,13.5v-4H9.91A2.91,2.91,0,0,0,7,12.41V13.5Z"/><path d="M12.5,13.5H17V12.41A2.91,2.91,0,0,0,14.09,9.5H12.5Z"/><path d="M12.5,14.5v4h1.59A2.91,2.91,0,0,0,17,15.59V14.5Z"/><path d="M11.5,14.5H7v1.09A2.91,2.91,0,0,0,9.91,18.5H11.5Z"/></g></g></svg>