<svg xmlns="http://www.w3.org/2000/svg" viewBox="0 0 24 24"><defs><style>.cls-1{opacity:0.3;}</style></defs><g id="devices"><g id="wi-fi"><circle cx="12" cy="20" r="2"/><g class="cls-1"><path d="M8.58,14.77l.87,1.33a4.61,4.61,0,0,1,5.1,0l.87-1.33a1,1,0,0,0-.4-1.45,7.34,7.34,0,0,0-6,0A1,1,0,0,0,8.58,14.77Z"/><path d="M2.73,5.8l.89,1.37a15.29,15.29,0,0,1,16.76,0l.89-1.37a1,1,0,0,0-.36-1.43,17.93,17.93,0,0,0-17.82,0A1,1,0,0,0,2.73,5.8Z"/><path d="M5.65,10.28l.89,1.35a10,10,0,0,1,10.92,0l.89-1.35A1,1,0,0,0,18,8.84a12.6,12.6,0,0,0-12,0A1,1,0,0,0,5.65,10.28Z"/></g></g></g></svg>