<svg xmlns="http://www.w3.org/2000/svg" viewBox="0 0 24 24"><g id="it-network"><path fill="currentColor" id="it-5" d="M14.84,21.75a2.23,2.23,0,0,1-2.07-1.38L11.6,17.61a15.66,15.66,0,0,0-1.52,1.05,1.79,1.79,0,0,1-1.85.2,1.77,1.77,0,0,1-1-1.58V5a1.75,1.75,0,0,1,3-1.24l8.68,8.69a1.74,1.74,0,0,1,.42,1.81,1.78,1.78,0,0,1-1.46,1.17,14.52,14.52,0,0,0-2.15.4l1.18,2.8a2.23,2.23,0,0,1-1.2,2.94A2.15,2.15,0,0,1,14.84,21.75Zm-2.88-6a.79.79,0,0,1,.69.46l1.5,3.55a.77.77,0,0,0,1,.4.75.75,0,0,0,.4-1L14,15.64A.72.72,0,0,1,14,15a.74.74,0,0,1,.45-.4,17.15,17.15,0,0,1,3.22-.7.24.24,0,0,0,.21-.16.25.25,0,0,0-.06-.26L9.18,4.82a.26.26,0,0,0-.28-.05A.25.25,0,0,0,8.75,5V17.28a.24.24,0,0,0,.14.23.22.22,0,0,0,.26,0,17.21,17.21,0,0,1,2.45-1.6A.68.68,0,0,1,12,15.78ZM14.8,5l.95-1.75a.75.75,0,0,0-.3-1,.73.73,0,0,0-1,.3l-1,1.76a.74.74,0,0,0,.3,1,.69.69,0,0,0,.36.09A.75.75,0,0,0,14.8,5Zm3,3.54,1.79-.9a.75.75,0,1,0-.68-1.34l-1.79.9a.75.75,0,0,0,.34,1.42A.68.68,0,0,0,17.79,8.49ZM5.53,10a.74.74,0,0,0-.74-.76l-2,0A.76.76,0,0,0,2,10a.75.75,0,0,0,.74.76l2,0h0A.75.75,0,0,0,5.53,10ZM3.6,16.09l1.79-.89a.74.74,0,0,0,.34-1,.75.75,0,0,0-1-.34l-1.79.89a.75.75,0,0,0,.33,1.42A.78.78,0,0,0,3.6,16.09Z"/></g></svg>