<svg xmlns="http://www.w3.org/2000/svg" viewBox="0 0 24 24"><g id="it-network"><path fill="currentColor" id="it-12" d="M15.25,5.75a2,2,0,0,0,2,2h3.42a2,2,0,0,0,2-2V4.29a2,2,0,0,0-2-2H17.29a2,2,0,0,0-2,2H9.75V4.08A2.83,2.83,0,0,0,6.92,1.25H4.08A2.83,2.83,0,0,0,1.25,4.08V5.92A2.83,2.83,0,0,0,4.08,8.75H6.92A2.83,2.83,0,0,0,9.75,5.92V5.75h2V17.82a2.93,2.93,0,0,0,2.93,2.93h.57a2,2,0,0,0,2,2h3.42a2,2,0,0,0,2-2V19.29a2,2,0,0,0-2-2H17.29a2,2,0,0,0-2,2h-.57a1.43,1.43,0,0,1-1.43-1.43V13.25h2a2,2,0,0,0,2,2h3.42a2,2,0,0,0,2-2V11.79a2,2,0,0,0-2-2H17.29a2,2,0,0,0-2,2h-2v-6Zm1.5-1.46a.54.54,0,0,1,.54-.54h3.42a.54.54,0,0,1,.54.54V5.71a.54.54,0,0,1-.54.54H17.29a.54.54,0,0,1-.54-.54ZM8.25,5.92A1.34,1.34,0,0,1,6.92,7.25H4.08A1.34,1.34,0,0,1,2.75,5.92V4.08A1.34,1.34,0,0,1,4.08,2.75H6.92A1.34,1.34,0,0,1,8.25,4.08Zm8.5,13.37a.54.54,0,0,1,.54-.54h3.42a.54.54,0,0,1,.54.54v1.42a.54.54,0,0,1-.54.54H17.29a.54.54,0,0,1-.54-.54Zm0-7.5a.54.54,0,0,1,.54-.54h3.42a.54.54,0,0,1,.54.54v1.42a.54.54,0,0,1-.54.54H17.29a.54.54,0,0,1-.54-.54Z"/></g></svg>