<svg xmlns="http://www.w3.org/2000/svg" viewBox="0 0 24 24"><g id="it-network"><path fill="currentColor" id="it-9" d="M20.78,17.75H13.22a.75.75,0,1,1,0-1.5h7.56a.75.75,0,0,1,0,1.5ZM18.57,21a.76.76,0,0,0-.75-.75h-4.6a.75.75,0,1,0,0,1.5h4.6A.76.76,0,0,0,18.57,21Zm3-7.82s0,0,0,.05a.4.4,0,0,1,0,.15.65.65,0,0,1,0,.13.76.76,0,0,1-.08.11l-.1.12,0,0-.11.05-.08,0a.66.66,0,0,1-.27.06H13.22a.66.66,0,0,1-.27-.06l-.08,0-.11-.05,0,0-.1-.12a.76.76,0,0,1-.08-.11.65.65,0,0,1,0-.13.4.4,0,0,1,0-.15s0,0,0-.05V3.2a.43.43,0,0,0,0-.05.35.35,0,0,1,0-.14.74.74,0,0,1,0-.14.76.76,0,0,1,.08-.11l.1-.12,0,0,.08,0L13,2.5l.15,0,.09,0h7.56l.09,0,.15,0,.14.07.08,0,0,0,.1.12a.76.76,0,0,1,.08.11.74.74,0,0,1,0,.14.35.35,0,0,1,0,.14.43.43,0,0,0,0,.05ZM14,5.43V11l2.09-2.76ZM17,7l2.27-3H14.73Zm-2.27,5.48h4.54L17,9.43ZM20,11V5.43L17.94,8.19ZM9.85,3.18V21s0,0,0,0a1,1,0,0,1,0,.17l0,.12s-.06.08-.08.12-.05.08-.09.11a.41.41,0,0,1-.11.07.6.6,0,0,1-.13.09s0,0,0,0a.77.77,0,0,1-.25,0H2.8a.73.73,0,0,1-.25,0h0a.67.67,0,0,1-.14-.09.41.41,0,0,1-.11-.07.5.5,0,0,1-.08-.12.76.76,0,0,1-.08-.11.5.5,0,0,1,0-.13.75.75,0,0,1,0-.16V3.18a.94.94,0,0,1,0-.16.53.53,0,0,1,0-.12.5.5,0,0,1,.08-.12l.08-.12.11-.06a.42.42,0,0,1,.14-.09h0a.51.51,0,0,1,.13,0l.12,0H9.11a.53.53,0,0,1,.12,0,.69.69,0,0,1,.13,0h0a.57.57,0,0,1,.13.08,1.05,1.05,0,0,1,.11.07.94.94,0,0,1,.09.12,1.25,1.25,0,0,1,.08.12l0,.12A.9.9,0,0,1,9.85,3.18ZM3.55,7.57v9.07L5.16,12.1ZM6,9.86,8,4H3.86ZM3.86,20.25H8L6,14.35Zm4.5-3.61V7.57L6.75,12.1Z"/></g></svg>