<svg xmlns="http://www.w3.org/2000/svg" viewBox="0 0 24 24"><g id="it-network"><path fill="currentColor" id="it-2" d="M16.19,22.75H7.81a6.56,6.56,0,0,1-6.56-6.56V7.81A6.56,6.56,0,0,1,7.81,1.25h8.38a6.56,6.56,0,0,1,6.56,6.56v8.38A6.56,6.56,0,0,1,16.19,22.75Zm-8.38-20A5.07,5.07,0,0,0,2.75,7.81v8.38a5.07,5.07,0,0,0,5.06,5.06h8.38a5.07,5.07,0,0,0,5.06-5.06V7.81a5.07,5.07,0,0,0-5.06-5.06Zm.94,14.11a.75.75,0,0,0,.2-1L6.43,12.08,9,8.17a.74.74,0,0,0-.23-1,.74.74,0,0,0-1,.22L4.9,11.68a.76.76,0,0,0,0,.83l2.8,4.14a.74.74,0,0,0,.62.34A.83.83,0,0,0,8.75,16.86Zm7.54-.21,2.8-4.14a.76.76,0,0,0,0-.83L16.3,7.36a.74.74,0,0,0-1-.22.74.74,0,0,0-.23,1l2.53,3.91-2.52,3.74a.75.75,0,0,0,.2,1,.83.83,0,0,0,.42.13A.74.74,0,0,0,16.29,16.65Zm-4.52-.24,2.05-8.47a.75.75,0,0,0-1.46-.35l-2,8.47a.74.74,0,0,0,.55.9A.57.57,0,0,0,11,17,.75.75,0,0,0,11.77,16.41Z"/></g></svg>