<svg xmlns="http://www.w3.org/2000/svg" viewBox="0 0 24 24"><g id="it-network"><path fill="currentColor" id="it-8" d="M4.88,22.77H4.79a3.65,3.65,0,0,1-2.64-1.22,3.76,3.76,0,0,1,.25-5.16l4.65-4.64a2.29,2.29,0,0,0,.67-1.91,7.54,7.54,0,0,1,7.61-8.61,1.82,1.82,0,0,1,1.25,3.11L13.71,7.21a.82.82,0,0,0-.18.92,4.88,4.88,0,0,0,2.33,2.33.82.82,0,0,0,.91-.18L19.65,7.4a1.82,1.82,0,0,1,3.1,1.25,7.54,7.54,0,0,1-8.61,7.61,2.3,2.3,0,0,0-1.91.68L7.47,21.69A3.65,3.65,0,0,1,4.88,22.77Zm10.3-20a6,6,0,0,0-6,6.9,3.79,3.79,0,0,1-1.1,3.18L3.46,17.45a2.29,2.29,0,0,0-.19,3.1,2.14,2.14,0,0,0,1.55.72,2.2,2.2,0,0,0,1.59-.64l4.76-4.75a3.73,3.73,0,0,1,3.18-1.1,6,6,0,0,0,6.9-6.1h0a.31.31,0,0,0-.2-.29.3.3,0,0,0-.34.07l-2.88,2.88a2.31,2.31,0,0,1-2.63.47,6.43,6.43,0,0,1-3-3,2.32,2.32,0,0,1,.47-2.64l2.87-2.87a.29.29,0,0,0,.07-.34.32.32,0,0,0-.29-.2ZM5.55,19.81l5.52-5.52a1,1,0,0,0,0-1.38,1,1,0,0,0-1.37,0L4.17,18.44a1,1,0,0,0,0,1.37A1,1,0,0,0,5.55,19.81Z"/></g></svg>