<svg xmlns="http://www.w3.org/2000/svg" viewBox="0 0 24 24"><g id="devices"><path fill="currentColor" id="airpod" d="M17.18,1.25H6.82A5.07,5.07,0,0,0,1.75,6.32V17.68a5.07,5.07,0,0,0,5.07,5.07H17.18a5.07,5.07,0,0,0,5.07-5.07V6.32A5.07,5.07,0,0,0,17.18,1.25ZM6.82,2.75H17.18a3.57,3.57,0,0,1,3.57,3.57V7.87H18.06A3.17,3.17,0,0,0,15,5.45H9A3.17,3.17,0,0,0,5.94,7.87H3.25V6.32A3.57,3.57,0,0,1,6.82,2.75Zm9.84,5.87A1.67,1.67,0,0,1,15,10.29H9A1.67,1.67,0,0,1,9,7h6A1.67,1.67,0,0,1,16.66,8.62Zm.52,12.63H6.82a3.57,3.57,0,0,1-3.57-3.57V9.37H5.94A3.17,3.17,0,0,0,9,11.79h6a3.17,3.17,0,0,0,3.07-2.42h2.69v8.31A3.57,3.57,0,0,1,17.18,21.25Z"/></g></svg>