<svg xmlns="http://www.w3.org/2000/svg" viewBox="0 0 24 24"><g id="devices"><path fill="currentColor" id="electronic-clock" d="M19.27,7.55a1.77,1.77,0,0,0-1.35-1.24,2.74,2.74,0,0,0-2-2l-.24-1.43a2,2,0,0,0-2-1.66H8.82a2,2,0,0,0-2,1.66L6.62,4.34A2.74,2.74,0,0,0,4.52,7V17a2.74,2.74,0,0,0,2.1,2.66l.24,1.43a2,2,0,0,0,2,1.66h4.9a2,2,0,0,0,2-1.66l.24-1.43A2.74,2.74,0,0,0,18,17V11.67a1.77,1.77,0,0,0,1.25-1.22h0A5.11,5.11,0,0,0,19.27,7.55ZM8.34,3.15a.48.48,0,0,1,.48-.4h4.9a.48.48,0,0,1,.48.41l.18,1.09H8.16ZM14.2,20.84a.48.48,0,0,1-.48.41H8.82a.48.48,0,0,1-.48-.4l-.18-1.1h6.22ZM16.52,17a1.25,1.25,0,0,1-1.25,1.25h-8A1.25,1.25,0,0,1,6,17V7A1.25,1.25,0,0,1,7.27,5.75h8A1.25,1.25,0,0,1,16.52,7V17Z"/></g></svg>