<svg xmlns="http://www.w3.org/2000/svg" viewBox="0 0 24 24"><g id="devices"><path d="M21.37,9.11V5.83a4.56,4.56,0,0,0-4.52-4.58H5.78A4.56,4.56,0,0,0,1.25,5.83v7a4.56,4.56,0,0,0,4.53,4.58h5.53l.07,0v1.91H7.28a.75.75,0,0,0,0,1.5h4.07a.5.5,0,0,0,.13,0,2.7,2.7,0,0,0,2.59,2h6A2.7,2.7,0,0,0,22.75,20V11.47A2.71,2.71,0,0,0,21.37,9.11Zm-10,2.36v4.42H5.78a3.06,3.06,0,0,1-3-3.08v-7a3.06,3.06,0,0,1,3-3.08H16.85a3,3,0,0,1,3,3.08V8.75h-5.8A2.71,2.71,0,0,0,11.38,11.47ZM21.25,20a1.2,1.2,0,0,1-1.18,1.21h-6A1.2,1.2,0,0,1,12.88,20V11.47a1.21,1.21,0,0,1,1.19-1.22h6a1.2,1.2,0,0,1,1.18,1.22Z"/><circle cx="17.21" cy="19.46" r="0.93"/></g></svg>