<svg xmlns="http://www.w3.org/2000/svg" viewBox="0 0 24 24"><g id="devices"><path fill="currentColor" id="printer" d="M10,11.75H7a.75.75,0,0,1,0-1.5h3a.75.75,0,0,1,0,1.5ZM21.75,9.8v5.4a3.55,3.55,0,0,1-3.55,3.55H16.75v.17a3.84,3.84,0,0,1-3.83,3.83H11.08a3.84,3.84,0,0,1-3.83-3.83v-.17H5.8A3.55,3.55,0,0,1,2.25,15.2V9.8A3.55,3.55,0,0,1,5.8,6.25h.45v-1a4,4,0,0,1,4-4h3.5a4,4,0,0,1,4,4v1h.45A3.55,3.55,0,0,1,21.75,9.8Zm-14-3.55h8.5v-1a2.5,2.5,0,0,0-2.5-2.5h-3.5a2.5,2.5,0,0,0-2.5,2.5Zm7.5,9.5H8.75v3.17a2.34,2.34,0,0,0,2.33,2.33h1.84a2.34,2.34,0,0,0,2.33-2.33Zm5-5.95A2.05,2.05,0,0,0,18.2,7.75H5.8a2.05,2.05,0,0,0-2,2.05v5.4A2.05,2.05,0,0,0,5.8,17.25H7.25v-1.5H7a.75.75,0,0,1,0-1.5H17a.75.75,0,0,1,0,1.5h-.25v1.5H18.2a2.05,2.05,0,0,0,2.05-2.05Z"/></g></svg>