<svg xmlns="http://www.w3.org/2000/svg" viewBox="0 0 24 24"><g id="devices"><path fill="currentColor" id="router" d="M6,15.42a1,1,0,1,0,1,1A1,1,0,0,0,6,15.42Zm4,0a1,1,0,1,0,1,1A1,1,0,0,0,10,15.42Zm4,0a1,1,0,1,0,1,1A1,1,0,0,0,14,15.42Zm6-3.75H17.85V3.33a.75.75,0,1,0-1.5,0v8.34H4a2.75,2.75,0,0,0-2.75,2.75v4A2.74,2.74,0,0,0,3.39,21.1a1.75,1.75,0,0,0,3.19.07H17.42a1.75,1.75,0,0,0,3.19-.07,2.75,2.75,0,0,0,2.14-2.68v-4A2.75,2.75,0,0,0,20,11.67Zm1.25,6.75A1.25,1.25,0,0,1,20,19.67a.76.76,0,0,0-.75.75c0,.28-.5.28-.5,0a.76.76,0,0,0-.75-.75H6a.76.76,0,0,0-.75.75c0,.28-.5.28-.5,0A.76.76,0,0,0,4,19.67a1.25,1.25,0,0,1-1.25-1.25v-4A1.25,1.25,0,0,1,4,13.17H20a1.25,1.25,0,0,1,1.25,1.25Z"/></g></svg>