<svg xmlns="http://www.w3.org/2000/svg" viewBox="0 0 24 24"><g id="it-network"><path fill="currentColor" id="it-11" d="M16.72,1.25H7.28a6,6,0,0,0-6,6v9.44a6,6,0,0,0,6,6h9.44a6,6,0,0,0,6-6V7.28A6,6,0,0,0,16.72,1.25Zm0,1.5a4.53,4.53,0,0,1,.91.09l.33.1a5.25,5.25,0,0,1,.52.17,2.64,2.64,0,0,1,.37.2c.13.07.27.13.4.21l.35.29c.1.09.22.17.32.27s.19.23.29.35a3.88,3.88,0,0,1,.26.31c.08.13.14.26.21.39s.15.25.21.38.08.27.12.4a3.36,3.36,0,0,1,.14.45c0,.13,0,.27.05.41a3.87,3.87,0,0,1,.05.49H2.75a4.07,4.07,0,0,1,0-.49c0-.13,0-.28,0-.41s.09-.29.14-.43a3.38,3.38,0,0,1,.13-.42,3.47,3.47,0,0,1,.18-.33c.08-.15.15-.3.24-.44l.2-.24a5,5,0,0,1,.35-.43L4.3,3.9a5.32,5.32,0,0,1,.45-.38L5,3.38a5,5,0,0,1,.51-.27c.13-.06.26-.08.39-.13s.3-.11.46-.14a4.53,4.53,0,0,1,.91-.09Zm0,18.5H7.28a4.53,4.53,0,0,1-4.53-4.53v-8h18.5v8A4.53,4.53,0,0,1,16.72,21.25ZM8.93,17.76a.79.79,0,0,1-.53-.22l-2-2A.74.74,0,0,1,6.17,15a.83.83,0,0,1,.23-.54l2-1.92a.75.75,0,1,1,1,1.08L8,15l1.46,1.43a.75.75,0,0,1,0,1.06A.78.78,0,0,1,8.93,17.76Zm6.14,0a.78.78,0,0,1-.54-.23.75.75,0,0,1,0-1.06L16,15l-1.45-1.39a.75.75,0,0,1,1-1.08l2,1.92a.83.83,0,0,1,.23.54.74.74,0,0,1-.23.54l-2,2A.79.79,0,0,1,15.07,17.76Z"/></g></svg>