<svg xmlns="http://www.w3.org/2000/svg" viewBox="0 0 24 24"><g id="it-network"><path fill="currentColor" id="it" d="M12.55,22.75h-1.1A1.87,1.87,0,0,1,9.6,21.18l-.13-.81a9.29,9.29,0,0,1-1.6-.66l-.66.47A1.86,1.86,0,0,1,4.79,20L4,19.21a1.86,1.86,0,0,1-.19-2.42l.47-.66a9.29,9.29,0,0,1-.66-1.6l-.81-.13a1.87,1.87,0,0,1-1.57-1.85v-1.1A1.87,1.87,0,0,1,2.82,9.6l.81-.13a9.29,9.29,0,0,1,.66-1.6l-.47-.66A1.86,1.86,0,0,1,4,4.79L4.79,4a1.87,1.87,0,0,1,2.42-.2l.66.48a9.29,9.29,0,0,1,1.6-.66l.13-.81a1.86,1.86,0,0,1,1.85-1.57h1.1A1.86,1.86,0,0,1,14.4,2.82l.13.81a9.29,9.29,0,0,1,1.6.66l.66-.47A1.87,1.87,0,0,1,19.21,4l.78.78a1.87,1.87,0,0,1,.2,2.42l-.48.66a9.29,9.29,0,0,1,.66,1.6l.81.13a1.86,1.86,0,0,1,1.57,1.85v1.1a1.87,1.87,0,0,1-1.57,1.85l-.81.13a9.29,9.29,0,0,1-.66,1.6l.47.66A1.86,1.86,0,0,1,20,19.21l-.78.78a1.86,1.86,0,0,1-2.42.19l-.66-.47a9.29,9.29,0,0,1-1.6.66l-.13.81A1.87,1.87,0,0,1,12.55,22.75ZM7.82,18.06a.72.72,0,0,1,.4.12,7.21,7.21,0,0,0,2.09.86.76.76,0,0,1,.57.61l.2,1.29a.38.38,0,0,0,.37.31h1.1a.38.38,0,0,0,.37-.31l.2-1.29a.76.76,0,0,1,.57-.61,7.21,7.21,0,0,0,2.09-.86.76.76,0,0,1,.84,0l1.05.76a.37.37,0,0,0,.48,0l.78-.78a.37.37,0,0,0,0-.48l-.76-1.05a.76.76,0,0,1,0-.84A7.21,7.21,0,0,0,19,13.69a.76.76,0,0,1,.61-.57l1.29-.2a.38.38,0,0,0,.31-.37v-1.1a.37.37,0,0,0-.31-.37l-1.29-.2a.76.76,0,0,1-.61-.57,7.21,7.21,0,0,0-.86-2.09.76.76,0,0,1,0-.84l.76-1a.37.37,0,0,0,0-.48l-.78-.78a.37.37,0,0,0-.48,0l-1.05.76a.76.76,0,0,1-.84,0A7.21,7.21,0,0,0,13.69,5a.76.76,0,0,1-.57-.61l-.2-1.29a.38.38,0,0,0-.37-.31h-1.1a.38.38,0,0,0-.37.31l-.2,1.29a.76.76,0,0,1-.57.61,7.21,7.21,0,0,0-2.09.86.76.76,0,0,1-.84,0L6.33,5a.37.37,0,0,0-.48,0l-.78.78a.37.37,0,0,0,0,.48l.76,1a.76.76,0,0,1,0,.84A7.21,7.21,0,0,0,5,10.31a.76.76,0,0,1-.61.57l-1.29.2a.37.37,0,0,0-.31.37v1.1a.38.38,0,0,0,.31.37l1.29.2a.76.76,0,0,1,.61.57,7.21,7.21,0,0,0,.86,2.09.76.76,0,0,1,0,.84L5,17.67a.37.37,0,0,0,0,.48l.78.78a.37.37,0,0,0,.48,0l1-.76A.75.75,0,0,1,7.82,18.06ZM12,16.25A4.25,4.25,0,1,1,16.25,12,4.26,4.26,0,0,1,12,16.25Zm0-7A2.75,2.75,0,1,0,14.75,12,2.75,2.75,0,0,0,12,9.25Z"/></g></svg>