<svg xmlns="http://www.w3.org/2000/svg" viewBox="0 0 24 24"><g id="it-network"><path fill="currentColor" id="it-10" d="M12,22.76A2,2,0,0,1,10.45,22L8.71,19.92a.47.47,0,0,0-.36-.18H6.62a5.37,5.37,0,0,1-5.37-5.36V6.61A5.37,5.37,0,0,1,6.62,1.25H17.38a5.37,5.37,0,0,1,5.37,5.36v7.77a5.37,5.37,0,0,1-5.37,5.36H15.5a.45.45,0,0,0-.37.19L13.53,22a2,2,0,0,1-1.53.77Zm-5.35-20A3.87,3.87,0,0,0,2.75,6.61v7.77a3.87,3.87,0,0,0,3.87,3.86H8.35A2,2,0,0,1,9.87,19l1.74,2.12a.51.51,0,0,0,.37.17.49.49,0,0,0,.36-.19L13.94,19a2,2,0,0,1,1.56-.77h1.88a3.87,3.87,0,0,0,3.87-3.86V6.61a3.87,3.87,0,0,0-3.87-3.86ZM8.55,13.22a.75.75,0,0,0,0-1.06L7.08,10.73,8.53,9.34a.75.75,0,1,0-1-1.08l-2,1.92a.76.76,0,0,0-.23.54.77.77,0,0,0,.22.54l2,2a.7.7,0,0,0,.52.22A.76.76,0,0,0,8.55,13.22Zm8,0,2-2a.77.77,0,0,0,.22-.54.76.76,0,0,0-.23-.54l-2-1.92a.75.75,0,1,0-1,1.08l1.45,1.39-1.46,1.43A.75.75,0,0,0,16,13.45.7.7,0,0,0,16.51,13.23Zm-4.71,0,1.87-4.49a.75.75,0,1,0-1.38-.58l-1.87,4.49a.75.75,0,0,0,.4,1,.72.72,0,0,0,.29.06A.76.76,0,0,0,11.8,13.23Z"/></g></svg>