<svg xmlns="http://www.w3.org/2000/svg" viewBox="0 0 24 24"><g id="it-network"><path fill="currentColor" id="it-1" d="M21.39,17.39,16,6a1.8,1.8,0,0,1-.08-.21h4.25a1.49,1.49,0,0,0,1.21-.62,1.52,1.52,0,0,0,.2-1.35A3.76,3.76,0,0,0,18,1.25H6A3.76,3.76,0,0,0,2.61,6.61L8,18a1.8,1.8,0,0,1,.08.21H4.23a1.74,1.74,0,0,0-1.49.85,1.66,1.66,0,0,0,0,1.67,3.74,3.74,0,0,0,3.3,2H18a3.76,3.76,0,0,0,3.39-5.36ZM18,2.75a2.28,2.28,0,0,1,2.14,1.5H10A.42.42,0,0,1,9.61,4,3.55,3.55,0,0,0,9,2.75ZM4,20.06a.17.17,0,0,1,0-.19.24.24,0,0,1,.2-.12H8.11s0,.05,0,.07L8,20a1.71,1.71,0,0,1-.13.23.75.75,0,0,1-.07.12l-.2.25s0,0,0,.05a2.48,2.48,0,0,1-.3.25l-.09,0L6.93,21l-.12.05a1.31,1.31,0,0,1-.28.09l-.12,0a2.71,2.71,0,0,1-.41,0A2.23,2.23,0,0,1,4,20.06Zm14,1.19H9l.06-.09L9.18,21a3,3,0,0,0,.21-.4,1.47,1.47,0,0,0,.1-.22c0-.14.1-.29.14-.44s0-.14,0-.21a4.05,4.05,0,0,0,.07-.7,3.75,3.75,0,0,0-.36-1.61L4,6a2.11,2.11,0,0,1-.22-1,2.25,2.25,0,0,1,4.42-.6A1.9,1.9,0,0,0,10,5.75h4.31a3.93,3.93,0,0,0,.28.86L20,18a2.11,2.11,0,0,1,.22,1A2.25,2.25,0,0,1,18,21.25Z"/></g></svg>