<svg xmlns="http://www.w3.org/2000/svg" viewBox="0 0 24 24"><g id="general"><path fill="currentColor" id="cup" d="M19.32,4.67a.52.52,0,0,0-.52.53v.36a.52.52,0,0,0,.52.53A1.29,1.29,0,0,1,20.57,7.4a5,5,0,0,1-4.6,5A14.05,14.05,0,0,0,18.33,4a1.82,1.82,0,0,0-1.71-1.9H7.41A1.82,1.82,0,0,0,5.7,4a14.21,14.21,0,0,0,2.51,8.42,5,5,0,0,1-4.83-5A1.3,1.3,0,0,1,4.63,6.09h0a.56.56,0,0,0,.56-.57h0V5.26a.57.57,0,0,0-.55-.59h0A2.67,2.67,0,0,0,2,7.34a6.39,6.39,0,0,0,6.26,6.53H9.72a3.55,3.55,0,0,0,.62.38.9.9,0,0,1,.46,1,20.56,20.56,0,0,1-2.08,5.36A.9.9,0,0,0,9,21.85a.89.89,0,0,0,.42.12H14.7a.79.79,0,0,0,.88-.69.88.88,0,0,0-.12-.55,29,29,0,0,1-1.84-5.61.89.89,0,0,1,.41-.95,2.6,2.6,0,0,0,.45-.28h1.18A6.38,6.38,0,0,0,22,7.41v0A2.67,2.67,0,0,0,19.32,4.67Zm-4.08,8.55"/></g></svg>