<svg xmlns="http://www.w3.org/2000/svg" viewBox="0 0 24 24"><g id="general"><path fill="currentColor" id="paper-clip" d="M19,11.17l-3.91,7.52A5.87,5.87,0,0,1,10,22a4.87,4.87,0,0,1-2.26-.55,5,5,0,0,1-2.55-3.27,6,6,0,0,1,.53-4.31l3.64-7h0l1.17-2.24a4.29,4.29,0,0,1,5.69-2.08,4.31,4.31,0,0,1,1.58,5.86l-1.87,3.58h0L14,15.57a3.07,3.07,0,0,1-2.68,1.69,2.56,2.56,0,0,1-1.2-.29,2.64,2.64,0,0,1-1.36-1.74A3.09,3.09,0,0,1,9,13l2.82-5.43a.75.75,0,0,1,1.34.69l-2.83,5.43a1.66,1.66,0,0,0-.14,1.17,1.19,1.19,0,0,0,.59.78,1.43,1.43,0,0,0,1.85-.75l1.56-3h0l2.2-4.24a2.8,2.8,0,0,0-.93-3.82,2.81,2.81,0,0,0-3.67,1.43L9.64,9.44h0L7,14.51a4.55,4.55,0,0,0-.41,3.24,3.57,3.57,0,0,0,1.78,2.31A4.06,4.06,0,0,0,13.71,18l3.91-7.52a.76.76,0,0,1,1-.32A.75.75,0,0,1,19,11.17Z"/></g></svg>