<svg xmlns="http://www.w3.org/2000/svg" viewBox="0 0 24 24"><g id="general"><path fill="currentColor" id="picture" d="M22.05,16.45A6,6,0,0,1,16.11,22H7.81A6,6,0,0,1,2.62,19L6.29,16a2.44,2.44,0,0,1,3.15.05,3,3,0,0,0,4.27-.19l0,0,2-2.18a2.42,2.42,0,0,1,1.74-.79,2.36,2.36,0,0,1,1.77.72Zm0-8.44v6.31l-1.78-1.78a3.93,3.93,0,0,0-5.6,0l-.1.11-2,2.18a1.55,1.55,0,0,1-2.18.1,3.93,3.93,0,0,0-5-.14L2,17.44A5.86,5.86,0,0,1,1.89,16V8A6,6,0,0,1,7.81,2h8.31A6,6,0,0,1,22.05,8Zm-12.34.1a2,2,0,1,0-2,2,2,2,0,0,0,2-2v0Z"/></g></svg>