<svg xmlns="http://www.w3.org/2000/svg" viewBox="0 0 24 24"><g id="general"><path fill="currentColor" id="ranking" d="M15.23,22H8.77V12.29a1.93,1.93,0,0,1,1.94-1.94h2.58a1.93,1.93,0,0,1,1.94,1.94ZM7.77,14.23H4.23a1.94,1.94,0,0,0-1.94,1.94V22H7.77Zm7.46,2.91h0V22h0Zm4.54,0H16.23V22h5.48V19.08A1.94,1.94,0,0,0,19.77,17.14ZM14.29,7.55l-.09-1a.77.77,0,0,1,.2-.6l.7-.75a.78.78,0,0,0-.4-1.28l-1-.23a.76.76,0,0,1-.51-.38l-.5-.89a.77.77,0,0,0-1.34,0l-.52.88a.79.79,0,0,1-.52.37l-1,.2A.78.78,0,0,0,8.87,5.1l.68.77a.73.73,0,0,1,.19.6l-.12,1a.77.77,0,0,0,1.07.8l.94-.4a.79.79,0,0,1,.64,0l.93.44A.77.77,0,0,0,14.29,7.55Z"/></g></svg>