<svg xmlns="http://www.w3.org/2000/svg" viewBox="0 0 24 24"><g id="general"><path fill="currentColor" id="rocket" d="M20,2l-3.55.65a10.26,10.26,0,0,0-4.7,2.73A19.44,19.44,0,0,0,9.33,8.69h0C5.8,8,2,13.8,2,13.8l4.55.1-.12.26a1.33,1.33,0,0,0,.29,1.53l.53.51,1,1,.49.47a1.35,1.35,0,0,0,1.56.22l.69-.38L11.37,22s5.65-4.12,4.71-7.6a21.56,21.56,0,0,0,2.61-2.07,9.6,9.6,0,0,0,2.64-5L22,4A1.71,1.71,0,0,0,20.6,2,1.79,1.79,0,0,0,20,2ZM17.66,9.19a2,2,0,0,1-2.83.05,2,2,0,0,1-.06-2.81,2,2,0,0,1,2.89,2.76Z"/></g></svg>