<svg xmlns="http://www.w3.org/2000/svg" viewBox="0 0 24 24"><g id="weather"><path fill="currentColor" id="night-day" d="M18.23,12A6.23,6.23,0,1,0,12,18.23a6.11,6.11,0,0,0,1.88-.29h0A6.23,6.23,0,0,0,18.23,12Zm-1.5,0a4.72,4.72,0,0,1-3.06,4.41,5.45,5.45,0,0,1,.14-8.78A4.74,4.74,0,0,1,16.73,12ZM7.27,12a4.72,4.72,0,0,1,4.67-4.72,7,7,0,0,0-.16,9.43A4.73,4.73,0,0,1,7.27,12Zm4-8V2.77a.75.75,0,1,1,1.5,0V4a.75.75,0,0,1-1.5,0Zm1.5,16.1v1.18a.75.75,0,1,1-1.5,0V20.05a.75.75,0,1,1,1.5,0ZM4.94,6A.76.76,0,1,1,6,4.94l.83.84a.75.75,0,0,1,0,1.06.75.75,0,0,1-1.06,0ZM19.06,18a.75.75,0,0,1-.54,1.28.74.74,0,0,1-.53-.22l-.83-.83a.75.75,0,1,1,1.06-1.06ZM4.7,12a.75.75,0,0,1-.75.75H2.77a.75.75,0,1,1,0-1.5H4A.75.75,0,0,1,4.7,12ZM22,12a.76.76,0,0,1-.75.75H20.05a.75.75,0,1,1,0-1.5h1.18A.76.76,0,0,1,22,12ZM6.84,17.16a.75.75,0,0,1,0,1.06L6,19.05A.75.75,0,1,1,4.94,18l.84-.83A.75.75,0,0,1,6.84,17.16ZM19.05,4.94a.76.76,0,0,1,0,1.07l-.84.83a.75.75,0,0,1-1.06,0,.75.75,0,0,1,0-1.06L18,4.94A.75.75,0,0,1,19.05,4.94Z"/></g></svg>