<svg xmlns="http://www.w3.org/2000/svg" viewBox="0 0 24 24"><g id="weather"><path d="M12.76,21.75a10,10,0,0,1-2-.2A9.88,9.88,0,0,1,4.13,16.8a10,10,0,0,1,5-14.41,2.1,2.1,0,0,1,2.23.49A2,2,0,0,1,11.82,5a6.8,6.8,0,0,0,.85,6.68A6.89,6.89,0,0,0,19,14.41h0a1.94,1.94,0,0,1,1.95,1,2.08,2.08,0,0,1-.11,2.28,9.63,9.63,0,0,1-2.08,2.1A10,10,0,0,1,12.76,21.75Zm-2.85-18a.52.52,0,0,0-.21,0A8.5,8.5,0,0,0,5.42,16a8.52,8.52,0,0,0,12.44,2.52,8.78,8.78,0,0,0,1.77-1.78.57.57,0,0,0,0-.64.46.46,0,0,0-.47-.25A8.34,8.34,0,0,1,10.43,4.46a.49.49,0,0,0-.11-.53A.58.58,0,0,0,9.91,3.75Z"/></g></svg>