<svg xmlns="http://www.w3.org/2000/svg" viewBox="0 0 24 24"><g id="weather"><g id="sun"><path d="M12,2a.76.76,0,0,0-.75.75V4a.75.75,0,0,0,1.5,0V2.77A.76.76,0,0,0,12,2Z"/><path d="M18.52,4.72a.79.79,0,0,0-.53.22l-.83.84a.75.75,0,0,0,0,1.06.75.75,0,0,0,1.06,0L19.06,6a.76.76,0,0,0,0-1.07.75.75,0,0,0-.53-.22Z"/><path d="M5.47,4.72a.79.79,0,0,0-.53.22A.77.77,0,0,0,4.94,6l.84.83a.75.75,0,0,0,1.06,0,.75.75,0,0,0,0-1.06L6,4.94a.79.79,0,0,0-.54-.22Z"/><path d="M21.23,11.25H20.05a.75.75,0,1,0,0,1.5h1.18a.75.75,0,1,0,0-1.5Z"/><path d="M4,11.25H2.77a.75.75,0,1,0,0,1.5H4a.75.75,0,0,0,0-1.5Z"/><path d="M17.69,16.94a.74.74,0,0,0-.53.22.75.75,0,0,0,0,1.06l.83.83a.76.76,0,0,0,1.07,0,.75.75,0,0,0,0-1.06l-.84-.83a.74.74,0,0,0-.53-.22Z"/><path d="M6.31,16.94a.74.74,0,0,0-.53.22L4.94,18a.75.75,0,0,0,0,1.06.76.76,0,0,0,1.07,0l.83-.83a.75.75,0,0,0,0-1.06.74.74,0,0,0-.53-.22Z"/><path d="M12,19.3a.75.75,0,0,0-.75.75v1.18a.75.75,0,1,0,1.5,0V20.05A.75.75,0,0,0,12,19.3Z"/><path d="M12,7.67A4.32,4.32,0,1,1,7.68,12,4.33,4.33,0,0,1,12,7.67m0-1.5A5.82,5.82,0,1,0,17.82,12,5.83,5.83,0,0,0,12,6.17Z"/></g></g></svg>