<svg xmlns="http://www.w3.org/2000/svg" viewBox="0 0 24 24"><g id="weather"><path fill="currentColor" id="sun" d="M12,4.7A.75.75,0,0,1,11.25,4V2.77a.75.75,0,1,1,1.5,0V4A.75.75,0,0,1,12,4.7Zm.75,16.53V20.05a.75.75,0,1,0-1.5,0v1.18a.75.75,0,1,0,1.5,0ZM6.84,6.84a.75.75,0,0,0,0-1.06L6,5A.75.75,0,0,0,5,6l.83.83a.75.75,0,0,0,1.06,0ZM19.05,19.06a.74.74,0,0,0,0-1.06l-.83-.84a.75.75,0,1,0-1.06,1.06l.83.84a.79.79,0,0,0,.53.22A.75.75,0,0,0,19.05,19.06ZM4.7,12A.75.75,0,0,0,4,11.25H2.77a.75.75,0,1,0,0,1.5H4A.75.75,0,0,0,4.7,12ZM22,12a.76.76,0,0,0-.75-.75H20.05a.75.75,0,1,0,0,1.5h1.18A.76.76,0,0,0,22,12ZM6,19.06l.83-.84a.75.75,0,1,0-1.06-1.06L5,18a.74.74,0,0,0,0,1.06.75.75,0,0,0,.53.22A.79.79,0,0,0,6,19.06ZM18.22,6.84,19.05,6A.75.75,0,0,0,18,5l-.83.83a.75.75,0,0,0,0,1.06.75.75,0,0,0,1.06,0ZM12,6.38A5.62,5.62,0,1,0,17.62,12,5.62,5.62,0,0,0,12,6.38Z"/></g></svg>