<svg xmlns="http://www.w3.org/2000/svg" viewBox="0 0 24 24"><g id="design"><path fill="currentColor" id="design-2" d="M21,1.25H19A1.76,1.76,0,0,0,17.25,3v.25H8.67A5.42,5.42,0,0,0,3.25,8.67v8.58H3A1.76,1.76,0,0,0,1.25,19v2A1.76,1.76,0,0,0,3,22.75H13A1.76,1.76,0,0,0,14.75,21V18.75H17A1.76,1.76,0,0,0,18.75,17V14.75H21A1.76,1.76,0,0,0,22.75,13V3A1.76,1.76,0,0,0,21,1.25ZM18.75,3A.25.25,0,0,1,19,2.75h2a.25.25,0,0,1,.25.25V9a.25.25,0,0,1-.25.25H18.75Zm-1.5,10a.25.25,0,0,1-.25.25H14.75V11a.25.25,0,0,1,.25-.25h2.25ZM4.75,8.67A3.93,3.93,0,0,1,8.67,4.75h8.58v4.5H15A1.76,1.76,0,0,0,13.25,11v2.25H11A1.76,1.76,0,0,0,9.25,15v2.25H4.75ZM13.25,17a.25.25,0,0,1-.25.25H10.75V15a.25.25,0,0,1,.25-.25h2.25ZM7.11,21.25H3A.25.25,0,0,1,2.75,21V19A.25.25,0,0,1,3,18.75H9.25V21a.25.25,0,0,1-.25.25Zm5.89,0H10.72a1,1,0,0,0,0-.25V18.75H13a1,1,0,0,0,.25,0V21A.25.25,0,0,1,13,21.25Zm4-4H14.72a1,1,0,0,0,0-.25V14.75H17a1,1,0,0,0,.25,0V17A.25.25,0,0,1,17,17.25Zm4-4H18.72a1,1,0,0,0,0-.25V10.75H21a1,1,0,0,0,.25,0V13A.25.25,0,0,1,21,13.25Z"/></g></svg>