<svg xmlns="http://www.w3.org/2000/svg" viewBox="0 0 24 24"><g id="design"><path fill="currentColor" id="paintbucket" d="M20.34,8.81,14.8,3.27a3.08,3.08,0,0,0-4.35,0L2.9,10.82a3.08,3.08,0,0,0,0,4.35l5.54,5.54a3.08,3.08,0,0,0,4.35,0l7.55-7.55A3.08,3.08,0,0,0,20.34,8.81ZM11.51,4.33a1.53,1.53,0,0,1,1.11-.46,1.57,1.57,0,0,1,1.12.46l5.53,5.54a1.55,1.55,0,0,1,.4.7,41.75,41.75,0,0,0-15.22.82Zm.22,15.31a1.56,1.56,0,0,1-2.23,0L4,14.11a1.59,1.59,0,0,1-.43-.83h0C6.9,11.88,14.25,11.32,19.33,12a.2.2,0,0,1-.06.07Zm8.86-3.37a1,1,0,0,0-.82-.4,1.05,1.05,0,0,0-.83.41,5.94,5.94,0,0,0-1.42,3.23,2.24,2.24,0,0,0,4.48,0A5.74,5.74,0,0,0,20.59,16.27Zm-.83,3.86a.69.69,0,0,1-.74-.62,3.79,3.79,0,0,1,.75-1.82,3.61,3.61,0,0,1,.73,1.82A.69.69,0,0,1,19.76,20.13Z"/></g></svg>