<svg xmlns="http://www.w3.org/2000/svg" viewBox="0 0 24 24"><g id="design"><path fill="currentColor" id="text" d="M12,22.75a2.61,2.61,0,0,1-2-.85,3.27,3.27,0,0,1-.76-2.33V6H5.66a2.9,2.9,0,0,1-2-.65,2.27,2.27,0,0,1-.75-1.74,2.27,2.27,0,0,1,.78-1.78,3,3,0,0,1,2-.62H18.32a3,3,0,0,1,2,.65,2.29,2.29,0,0,1,.75,1.75,2.27,2.27,0,0,1-.77,1.75,3,3,0,0,1-2,.64h-3.6V19.57A3.34,3.34,0,0,1,14,21.91,2.58,2.58,0,0,1,12,22.75Zm-6.34-20a1.57,1.57,0,0,0-1,.26.75.75,0,0,0-.26.64.78.78,0,0,0,.25.63,1.56,1.56,0,0,0,1,.26h5.09v15a1.93,1.93,0,0,0,.36,1.32,1.15,1.15,0,0,0,.89.36,1.1,1.1,0,0,0,.87-.35,2,2,0,0,0,.35-1.33v-15h5.1a1.53,1.53,0,0,0,1-.27.74.74,0,0,0,.26-.62A.79.79,0,0,0,19.35,3a1.6,1.6,0,0,0-1-.26Z"/></g></svg>