<svg xmlns="http://www.w3.org/2000/svg" viewBox="0 0 24 24"><g id="devices"><path fill="currentColor" id="calculatoror" d="M16.93,2H7.07A4.07,4.07,0,0,0,3,6.07V17.93A4.07,4.07,0,0,0,7.07,22h9.86A4.07,4.07,0,0,0,21,17.93V6.07A4.07,4.07,0,0,0,16.93,2ZM10.84,16.94a.75.75,0,0,1,0,1.06.71.71,0,0,1-.54.24A.77.77,0,0,1,9.8,18l-.61-.59L8.58,18a.77.77,0,0,1-.52.21.75.75,0,0,1-.52-1.3l.56-.53-.56-.54a.75.75,0,1,1,1-1.08l.61.58.61-.58a.75.75,0,0,1,1,1.08l-.56.54Zm3.65,1.54a1,1,0,1,1,1-1A1,1,0,0,1,14.49,18.48Zm2-2.15a1,1,0,1,1,1-1A1,1,0,0,1,16.5,16.33ZM18,9.26A1.74,1.74,0,0,1,16.26,11H7.74A1.74,1.74,0,0,1,6,9.26V6.74A1.74,1.74,0,0,1,7.74,5h8.52A1.74,1.74,0,0,1,18,6.74Z"/></g></svg>