<svg xmlns="http://www.w3.org/2000/svg" viewBox="0 0 24 24"><g id="devices"><path fill="currentColor" id="external-drive" d="M16.55,2H7.45A4,4,0,0,0,3.5,6v7.11a1.11,1.11,0,0,0,1.1,1.11H19.4a1.11,1.11,0,0,0,1.1-1.11V6A4,4,0,0,0,16.55,2ZM7.67,12.27H6.45a.75.75,0,1,1,0-1.5H7.67a.75.75,0,0,1,0,1.5Zm0-2.5H6.45a.75.75,0,1,1,0-1.5H7.67a.75.75,0,0,1,0,1.5Zm0-2.5H6.45a.75.75,0,1,1,0-1.5H7.67a.75.75,0,0,1,0,1.5ZM19.4,15.75H4.6a1.1,1.1,0,0,0-1.1,1.1v1.33A3.82,3.82,0,0,0,7.32,22h9.36a3.82,3.82,0,0,0,3.82-3.82V16.85A1.1,1.1,0,0,0,19.4,15.75Zm-2.9,4a1,1,0,1,1,1-1A1,1,0,0,1,16.5,19.75Z"/></g></svg>