<svg xmlns="http://www.w3.org/2000/svg" viewBox="0 0 24 24"><g id="devices"><path fill="currentColor" id="keyboard" d="M11.25,8.84V7.74a2.89,2.89,0,0,1,2.88-2.89h.49A1.38,1.38,0,0,0,16,3.47V2.82a.75.75,0,0,1,1.5,0v.65a2.88,2.88,0,0,1-2.88,2.88h-.49a1.38,1.38,0,0,0-1.38,1.39v1.1ZM22,10V20.73a1.2,1.2,0,0,1-1.2,1.2H3.2A1.2,1.2,0,0,1,2,20.73V10a1.2,1.2,0,0,1,1.2-1.2H20.8A1.2,1.2,0,0,1,22,10Zm-7,5.07a.73.73,0,1,0,.73.73A.73.73,0,0,0,15,15.11Zm-1.73-2.27a.73.73,0,1,0,.73-.73A.73.73,0,0,0,13.27,12.84ZM12,15.11a.73.73,0,1,0,.73.73A.73.73,0,0,0,12,15.11Zm-1.73-2.27a.73.73,0,1,0,.73-.73A.73.73,0,0,0,10.27,12.84Zm-6,0A.73.73,0,1,0,5,12.11.73.73,0,0,0,4.27,12.84Zm2.6,6a.75.75,0,0,0-.75-.75H4.88a.75.75,0,1,0,0,1.5H6.12A.76.76,0,0,0,6.87,18.84Zm0-3a.75.75,0,0,0-.75-.75H4.88a.75.75,0,1,0,0,1.5H6.12A.76.76,0,0,0,6.87,15.84ZM8,13.57a.73.73,0,1,0-.73-.73A.73.73,0,0,0,8,13.57Zm.27,2.27A.73.73,0,1,0,9,15.11.73.73,0,0,0,8.27,15.84Zm8.48,3a.75.75,0,0,0-.75-.75H9.15a.75.75,0,0,0,0,1.5H16A.76.76,0,0,0,16.75,18.84Zm3,0a.73.73,0,1,0-.73.73A.73.73,0,0,0,19.73,18.84Zm0-3a.75.75,0,0,0-.75-.75H17.77a.75.75,0,0,0,0,1.5H19A.76.76,0,0,0,19.75,15.84Zm.12-3a.75.75,0,0,0-.75-.75H17a.75.75,0,0,0,0,1.5h2.12A.76.76,0,0,0,19.87,12.84Z"/></g></svg>