<svg xmlns="http://www.w3.org/2000/svg" viewBox="0 0 24 24"><g id="archive"><path d="M17,23.49H7a5.74,5.74,0,0,1-5.73-5.74v-10A5.74,5.74,0,0,1,7,2H17a5.74,5.74,0,0,1,5.73,5.74v10A5.74,5.74,0,0,1,17,23.49ZM7,3.5A4.24,4.24,0,0,0,2.76,7.74v10A4.24,4.24,0,0,0,7,22H17a4.24,4.24,0,0,0,4.23-4.24v-10A4.24,4.24,0,0,0,17,3.5Zm11.48,3A1.92,1.92,0,0,0,16.91,6a14.51,14.51,0,0,0-4.77,1.73.24.24,0,0,1-.29,0A13.78,13.78,0,0,0,7.06,6.07,1.9,1.9,0,0,0,4.87,8v7.92a1.86,1.86,0,0,0,1.58,1.86,16.8,16.8,0,0,1,4.74,1.61,2.34,2.34,0,0,0,.83.15,1.83,1.83,0,0,0,.85-.19,15.74,15.74,0,0,1,4.7-1.54,1.89,1.89,0,0,0,1.56-1.87v-8A1.88,1.88,0,0,0,18.47,6.47ZM6.69,16.25a.38.38,0,0,1-.32-.38V8a.41.41,0,0,1,.14-.31.37.37,0,0,1,.25-.09h.06A12.38,12.38,0,0,1,11.1,9.06l.15.06v8.59A18,18,0,0,0,6.69,16.25Zm10.94-.36a.39.39,0,0,1-.31.39,17.56,17.56,0,0,0-4.57,1.42V9.12a.75.75,0,0,0,.13-.06,13,13,0,0,1,4.26-1.55.43.43,0,0,1,.35.1.38.38,0,0,1,.14.29Z"/></g></svg>