<svg xmlns="http://www.w3.org/2000/svg" viewBox="0 0 24 24"><g id="archive"><path fill="currentColor" id="save-2" d="M18.47,1.25H11.59A4.33,4.33,0,0,0,7.26,5.13H5.53A4.33,4.33,0,0,0,1.16,9.41V20.58a2.17,2.17,0,0,0,1.08,1.87,2.25,2.25,0,0,0,2.23,0l4.14-2.33a.71.71,0,0,1,.72,0l4.14,2.33a2.29,2.29,0,0,0,1.1.29,2.2,2.2,0,0,0,1.13-.32,2.13,2.13,0,0,0,1.08-1.86V17l2.75,1.54a2.22,2.22,0,0,0,2.23,0,2.13,2.13,0,0,0,1.08-1.87V5.53A4.33,4.33,0,0,0,18.47,1.25Zm-3.19,14.5v4.83a.66.66,0,0,1-.34.57.71.71,0,0,1-.73,0l-4.14-2.33a2.25,2.25,0,0,0-2.19,0L3.73,21.16a.73.73,0,0,1-.73,0,.66.66,0,0,1-.34-.57V9.41A2.83,2.83,0,0,1,5.53,6.63h6.88a2.83,2.83,0,0,1,2.87,2.78Zm6.06.94a.68.68,0,0,1-.34.58.71.71,0,0,1-.73,0l-3.49-1.95V9.41a4.33,4.33,0,0,0-4.37-4.28H8.75a2.84,2.84,0,0,1,2.84-2.38h6.88a2.83,2.83,0,0,1,2.87,2.78Z"/></g></svg>