<svg xmlns="http://www.w3.org/2000/svg" viewBox="0 0 24 24"><g id="general"><path fill="currentColor" id="crown-2" d="M16.8,20H7.1A1.81,1.81,0,0,1,5.38,18.8l-4-11.62a1.74,1.74,0,0,1,.62-2,1.75,1.75,0,0,1,2.11,0l4,2.88A.14.14,0,0,0,8.26,8l2-5.23a1.78,1.78,0,0,1,1.66-1.14h0a1.77,1.77,0,0,1,1.66,1.16L15.55,8a.14.14,0,0,0,.09.08.16.16,0,0,0,.13,0L19.9,5A1.79,1.79,0,0,1,22,5a1.73,1.73,0,0,1,.62,2L18.51,18.81A1.81,1.81,0,0,1,16.8,20ZM3,6.32a.29.29,0,0,0-.17.07.24.24,0,0,0-.09.29l4,11.63a.32.32,0,0,0,.3.21h9.7a.34.34,0,0,0,.3-.21L21.23,6.53a.27.27,0,0,0-.09-.31.3.3,0,0,0-.34,0L16.66,9.3a1.63,1.63,0,0,1-2.51-.74l-2-5.26a.31.31,0,0,0-.26-.18.28.28,0,0,0-.26.18l-2,5.23a1.64,1.64,0,0,1-1.06,1,1.62,1.62,0,0,1-1.43-.25l-4-2.88A.32.32,0,0,0,3,6.32Zm12.23,8a.75.75,0,0,0-.76-.75h-5a.75.75,0,1,0,0,1.5h5A.76.76,0,0,0,15.26,14.29Zm2.62,7.34a.75.75,0,0,0-.76-.75H6.88a.75.75,0,1,0,0,1.5H17.12A.76.76,0,0,0,17.88,21.63Z"/></g></svg>