<svg xmlns="http://www.w3.org/2000/svg" viewBox="0 0 24 24"><g id="general"><path fill="currentColor" id="disk" d="M12,1.25A10.75,10.75,0,1,0,22.75,12,10.76,10.76,0,0,0,12,1.25Zm0,20A9.25,9.25,0,1,1,21.25,12,9.26,9.26,0,0,1,12,21.25Zm7.62-7.32a7.83,7.83,0,0,1-5.1,5.52,1,1,0,0,1-.24,0,.74.74,0,0,1-.71-.5A.76.76,0,0,1,14,18a6.43,6.43,0,0,0,4.13-4.46.74.74,0,0,1,.91-.54A.74.74,0,0,1,19.62,13.93Zm-9.46-8a6.34,6.34,0,0,0-4.41,4.91.75.75,0,0,1-.73.61H4.88a.75.75,0,0,1-.6-.88A7.82,7.82,0,0,1,9.73,4.47a.75.75,0,1,1,.43,1.44ZM15.31,12A3.31,3.31,0,1,0,12,15.31,3.31,3.31,0,0,0,15.31,12ZM12,13.81A1.81,1.81,0,1,1,13.81,12,1.81,1.81,0,0,1,12,13.81Z"/></g></svg>