<svg xmlns="http://www.w3.org/2000/svg" viewBox="0 0 24 24"><g id="general"><path fill="currentColor" id="emoji-happy" d="M16.47,22.75H7.53a6.29,6.29,0,0,1-6.28-6.28V7.53A6.29,6.29,0,0,1,7.53,1.25h8.94a6.29,6.29,0,0,1,6.28,6.28v8.94A6.29,6.29,0,0,1,16.47,22.75Zm-8.94-20A4.78,4.78,0,0,0,2.75,7.53v8.94a4.78,4.78,0,0,0,4.78,4.78h8.94a4.79,4.79,0,0,0,4.78-4.78V7.53a4.79,4.79,0,0,0-4.78-4.78Zm1,8.13a2.63,2.63,0,1,1,2.63-2.63A2.63,2.63,0,0,1,8.5,10.88Zm0-3.76A1.13,1.13,0,1,0,9.63,8.25,1.14,1.14,0,0,0,8.5,7.12Zm6.94,3.76a2.63,2.63,0,1,1,2.63-2.63A2.63,2.63,0,0,1,15.44,10.88Zm0-3.76a1.13,1.13,0,1,0,1.13,1.13A1.14,1.14,0,0,0,15.44,7.12ZM12,19.83A5.64,5.64,0,0,1,6.38,14.2a2,2,0,0,1,2-2h7.21a2,2,0,0,1,2,2A5.63,5.63,0,0,1,12,19.83ZM8.41,13.67a.53.53,0,0,0-.53.53,4.13,4.13,0,1,0,8.26,0,.52.52,0,0,0-.52-.53Z"/></g></svg>