<svg xmlns="http://www.w3.org/2000/svg" viewBox="0 0 24 24"><g id="general"><path fill="currentColor" id="filter-search" d="M11,22.77a2.82,2.82,0,0,1-1.29-.31A2.78,2.78,0,0,1,8.17,20V14.75a3.08,3.08,0,0,0-.89-2.18L3.52,8.76a3,3,0,0,1-.86-2.08V4.19a3,3,0,0,1,3-3H18.37a3,3,0,0,1,3,3v2.4a3,3,0,0,1-1,2.22l-1,.92a.76.76,0,0,1-1.06-.06.75.75,0,0,1,.06-1.06l1-.92a1.48,1.48,0,0,0,.48-1.1V4.19a1.46,1.46,0,0,0-1.46-1.46H5.63A1.46,1.46,0,0,0,4.16,4.19V6.68a1.44,1.44,0,0,0,.43,1l3.76,3.81a4.6,4.6,0,0,1,1.32,3.23V20a1.29,1.29,0,0,0,2,1.05l1.37-1a.74.74,0,0,1,1,.18.75.75,0,0,1-.18,1.05l-1.36,1A2.79,2.79,0,0,1,11,22.77ZM19.8,19.4a.75.75,0,0,1-1.06,0l-.92-.92,0-.06a4.25,4.25,0,1,1,1-1l.06,0,.92.92A.75.75,0,0,1,19.8,19.4ZM18.09,15a2.74,2.74,0,1,0-2.73,2.73A2.74,2.74,0,0,0,18.09,15Z"/></g></svg>