<svg xmlns="http://www.w3.org/2000/svg" viewBox="0 0 24 24"><g id="general"><path fill="currentColor" id="ghost" d="M12,12.26a3.13,3.13,0,1,1,3.13-3.13A3.13,3.13,0,0,1,12,12.26ZM12,7.5a1.63,1.63,0,1,0,1.63,1.63A1.64,1.64,0,0,0,12,7.5Zm4.32,7.22a.75.75,0,1,0-.86-1.23,6.36,6.36,0,0,1-7,0h0a.75.75,0,0,0-1,.18.76.76,0,0,0,.19,1.05,8.77,8.77,0,0,0,4.55,1.35A7.3,7.3,0,0,0,16.32,14.72ZM8.71,22.61a1.6,1.6,0,0,1-1.05-.38l-2.2-1.87a.14.14,0,0,0-.16,0L3.91,21.51a1.59,1.59,0,0,1-1.72.23,1.61,1.61,0,0,1-.94-1.47V12.13a10.75,10.75,0,0,1,21.5,0v8.14a1.61,1.61,0,0,1-.94,1.47,1.59,1.59,0,0,1-1.72-.23L18.7,20.35a.14.14,0,0,0-.16,0l-2.15,1.83a1.62,1.62,0,0,1-2.11,0l-2.15-1.83a.12.12,0,0,0-.16,0L9.76,22.23A1.62,1.62,0,0,1,8.71,22.61ZM5.38,18.82a1.61,1.61,0,0,1,1,.39l2.2,1.87a.12.12,0,0,0,.16,0L11,19.21a1.62,1.62,0,0,1,2.1,0l2.15,1.83a.12.12,0,0,0,.16,0l2.16-1.84a1.62,1.62,0,0,1,2.09,0l1.39,1.16a.1.1,0,0,0,.13,0,.11.11,0,0,0,.07-.11V12.13a9.25,9.25,0,0,0-18.5,0v8.14a.11.11,0,0,0,.07.11.12.12,0,0,0,.13,0L4.34,19.2A1.63,1.63,0,0,1,5.38,18.82Z"/></g></svg>