<svg xmlns="http://www.w3.org/2000/svg" viewBox="0 0 24 24"><g id="general"><path fill="currentColor" id="gift" d="M19.84,5H18.71a1.73,1.73,0,0,0,.12-.64,1.62,1.62,0,0,0-.49-1.18L16.91,1.74a1.67,1.67,0,0,0-2.36,0L12,4.29,9.45,1.74a1.71,1.71,0,0,0-2.36,0L5.66,3.18a1.62,1.62,0,0,0-.49,1.18A1.73,1.73,0,0,0,5.29,5H4.16A1.66,1.66,0,0,0,2.5,6.66V8.33a1.67,1.67,0,0,0,.75,1.39v9.4a3.63,3.63,0,0,0,3.62,3.63H17.13a3.63,3.63,0,0,0,3.62-3.63V9.72a1.67,1.67,0,0,0,.75-1.39V6.66A1.66,1.66,0,0,0,19.84,5ZM15.61,2.8a.18.18,0,0,1,.24,0l1.43,1.44a.18.18,0,0,1,0,.24L16.77,5H13.42ZM6.72,4.48a.18.18,0,0,1,0-.24L8.15,2.8a.21.21,0,0,1,.24,0L10.58,5H7.23ZM4,6.66a.16.16,0,0,1,.16-.16H19.84a.16.16,0,0,1,.16.16V8.33a.17.17,0,0,1-.16.17H4.16A.17.17,0,0,1,4,8.33ZM9.74,10h4.52v5.09a.24.24,0,0,1-.13.22.22.22,0,0,1-.25,0l-.76-.51a2,2,0,0,0-2.23,0l-.77.51a.22.22,0,0,1-.25,0,.24.24,0,0,1-.13-.22Zm7.39,11.25H6.87a2.13,2.13,0,0,1-2.12-2.13V10H8.24v5.09A1.75,1.75,0,0,0,10,16.84a1.78,1.78,0,0,0,1-.29l.76-.51a.55.55,0,0,1,.58,0l.76.51a1.75,1.75,0,0,0,2.71-1.46V10h3.49v9.12A2.13,2.13,0,0,1,17.13,21.25Z"/></g></svg>