<svg xmlns="http://www.w3.org/2000/svg" viewBox="0 0 24 24"><g id="general"><path fill="currentColor" id="home-2" d="M18,22.73h0c-1.1,0-3.55,0-6,0H6a4.72,4.72,0,0,1-3.37-1.38A4.59,4.59,0,0,1,1.21,18l0-5.66A7.35,7.35,0,0,1,3.79,6.82l5.1-4.41a4.83,4.83,0,0,1,6.3,0l5.07,4.45a7.35,7.35,0,0,1,2.5,5.55l0,5.62a4.58,4.58,0,0,1-1.41,3.31A4.72,4.72,0,0,1,18,22.73Zm-3-1.5h3a3.28,3.28,0,0,0,2.3-.93,3.14,3.14,0,0,0,.95-2.25l0-5.62a5.85,5.85,0,0,0-2-4.41L14.2,3.57a3.31,3.31,0,0,0-4.33,0L4.77,8l-.49-.57L4.77,8a5.84,5.84,0,0,0-2,4.4l0,5.66a3.16,3.16,0,0,0,.93,2.26A3.29,3.29,0,0,0,6,21.22h9ZM12.75,19.1V16.24a.75.75,0,1,0-1.5,0V19.1a.75.75,0,0,0,1.5,0Z"/></g></svg>