<svg xmlns="http://www.w3.org/2000/svg" viewBox="0 0 24 24"><g id="general"><path fill="currentColor" id="icin" d="M12,1.25A10.75,10.75,0,1,0,22.75,12,10.76,10.76,0,0,0,12,1.25ZM21.25,12c0,.19,0,.38,0,.57a14.32,14.32,0,0,1-3.06-2.1,1.86,1.86,0,0,0,.2-.81,1.82,1.82,0,0,0-1.82-1.81A1.92,1.92,0,0,0,16,8a14.06,14.06,0,0,1-2.14-5A9.27,9.27,0,0,1,21.25,12Zm-9-9.24A15.6,15.6,0,0,0,14.86,9a1.67,1.67,0,0,0-.13.67,1.82,1.82,0,0,0,1.81,1.82,2.22,2.22,0,0,0,.45-.06,16,16,0,0,0,4,2.7,9.19,9.19,0,0,1-.61,1.74,23.81,23.81,0,0,1-3.71.3,25.58,25.58,0,0,1-3.52-.25,1.81,1.81,0,0,0-1.78-1.47l-.2,0A25.23,25.23,0,0,1,9.2,9a1.8,1.8,0,0,0-.55-3.19C8.57,5,8.52,4.25,8.51,3.44A9.24,9.24,0,0,1,12,2.75ZM7,4.21c0,.61.06,1.22.13,1.82a1.8,1.8,0,0,0-.85,1.53A1.82,1.82,0,0,0,7.73,9.33a26.58,26.58,0,0,0,2.15,5.89A25.07,25.07,0,0,1,2.76,11.9,9.21,9.21,0,0,1,7,4.21ZM2.93,13.78a26.6,26.6,0,0,0,6.69,2.89,1.81,1.81,0,0,0,1.76,1.4h.17a28.27,28.27,0,0,0,2.37,3,9.25,9.25,0,0,1-11-7.27Zm12.58,6.77a24,24,0,0,1-2.61-3.17,26.17,26.17,0,0,0,3.78.28,27.43,27.43,0,0,0,2.74-.16A9.25,9.25,0,0,1,15.51,20.55Z"/></g></svg>