<svg xmlns="http://www.w3.org/2000/svg" viewBox="0 0 24 24"><g id="general"><g id="information"><path d="M21.92,10,20.51,8.58a.3.3,0,0,1-.08-.2v-2A2.83,2.83,0,0,0,17.6,3.56h-2a.28.28,0,0,1-.2-.08L14,2.06a2.91,2.91,0,0,0-4,0L8.59,3.48a.28.28,0,0,1-.2.08h-2A2.83,2.83,0,0,0,3.57,6.38v2a.32.32,0,0,1-.08.2L2.08,10a2.82,2.82,0,0,0,0,4L3.49,15.4a.27.27,0,0,1,.08.19v2A2.83,2.83,0,0,0,6.4,20.42h2a.24.24,0,0,1,.2.08L10,21.91a2.82,2.82,0,0,0,4,0l1.41-1.41a.24.24,0,0,1,.2-.08h2a2.83,2.83,0,0,0,2.83-2.83v-2a.27.27,0,0,1,.08-.19L21.92,14A2.82,2.82,0,0,0,21.92,10Zm-1.06,2.93-1.41,1.42a1.73,1.73,0,0,0-.52,1.25v2a1.34,1.34,0,0,1-1.33,1.33h-2a1.74,1.74,0,0,0-1.26.52l-1.41,1.41a1.37,1.37,0,0,1-1.88,0L9.65,19.44a1.75,1.75,0,0,0-1.26-.52h-2a1.34,1.34,0,0,1-1.33-1.33v-2a1.73,1.73,0,0,0-.52-1.25L3.14,12.92a1.32,1.32,0,0,1,0-1.87L4.55,9.64a1.77,1.77,0,0,0,.52-1.26v-2A1.33,1.33,0,0,1,6.4,5.06h2a1.8,1.8,0,0,0,1.26-.52l1.41-1.42a1.37,1.37,0,0,1,1.88,0l1.41,1.42a1.8,1.8,0,0,0,1.26.52h2a1.33,1.33,0,0,1,1.33,1.32v2a1.8,1.8,0,0,0,.52,1.26l1.41,1.41A1.32,1.32,0,0,1,20.86,12.92Z"/><path d="M12,13.4a1,1,0,0,0,1-1V7.74a1,1,0,0,0-2,0V12.4A1,1,0,0,0,12,13.4Z"/><circle cx="12" cy="16.01" r="1.25"/></g></g></svg>