<svg xmlns="http://www.w3.org/2000/svg" viewBox="0 0 24 24"><g id="general"><path fill="currentColor" id="picture" d="M16.11,1.25H7.89A6.72,6.72,0,0,0,1.25,8v8a6.74,6.74,0,0,0,.48,2.5h0v0a5.78,5.78,0,0,0,.4.83l.1.18c.13.21.26.4.4.59l.17.22c.15.18.31.35.47.51l.29.27.38.3c.14.11.29.21.44.31s.31.19.46.27l.32.16c.21.09.42.18.64.25l.21.07a6.11,6.11,0,0,0,.74.17l.24,0a6.67,6.67,0,0,0,.89.07h8.22A6.72,6.72,0,0,0,22.75,16V8A6.72,6.72,0,0,0,16.11,1.25ZM21.25,16a5.19,5.19,0,0,1-5.14,5.24H7.89A5.64,5.64,0,0,1,7,21.15l-.21,0a5.1,5.1,0,0,1-1.69-.73L5,20.3a5.18,5.18,0,0,1-.67-.57l0,0A5.89,5.89,0,0,1,3.66,19l-.1-.17c-.07-.11-.13-.24-.19-.36l3-2.43a2.37,2.37,0,0,1,3.11.09,3,3,0,0,0,4.26-.21l2-2.18a2.39,2.39,0,0,1,3.48-.08l2.06,2.09Zm0-2.43-1-1a3.89,3.89,0,0,0-2.85-1.16,3.83,3.83,0,0,0-2.79,1.29l-2,2.17a1.51,1.51,0,0,1-2.15.11,3.86,3.86,0,0,0-5-.15L2.84,16.92A4.7,4.7,0,0,1,2.75,16V8A5.19,5.19,0,0,1,7.89,2.78h8.22A5.19,5.19,0,0,1,21.25,8ZM7.79,5.32a2.8,2.8,0,1,0,2.75,2.8A2.77,2.77,0,0,0,7.79,5.32Zm0,4.08A1.28,1.28,0,1,1,9,8.12,1.27,1.27,0,0,1,7.79,9.4Z"/></g></svg>