<svg xmlns="http://www.w3.org/2000/svg" viewBox="0 0 24 24"><g id="general"><path fill="currentColor" id="rocket" d="M16.08,4.84a2.82,2.82,0,0,0-1.89,4.85,2.82,2.82,0,0,0,3.9-4.07A2.87,2.87,0,0,0,16.08,4.84Zm1,3.73a1.32,1.32,0,1,1-1.9-1.82,1.29,1.29,0,0,1,.92-.41h0a1.3,1.3,0,0,1,.91.37,1.28,1.28,0,0,1,.4.92A1.32,1.32,0,0,1,17.09,8.57ZM22,2a2.46,2.46,0,0,0-2.17-.67l-3.59.63a11.25,11.25,0,0,0-5.07,2.9A19.45,19.45,0,0,0,9,7.71C5.11,7.36,1.51,13,1.36,13.29a.69.69,0,0,0,0,.72.74.74,0,0,0,.64.36H2l3.59,0a2,2,0,0,0,.62,1.58h0l2.07,1.94a2,2,0,0,0,2,.47l.37,3.77a.72.72,0,0,0,.43.58.79.79,0,0,0,.29.06.77.77,0,0,0,.44-.14c.24-.18,5.64-4.25,4.91-8a23.32,23.32,0,0,0,2.48-1.95,10.17,10.17,0,0,0,2.86-5.3l.64-3.27A2.36,2.36,0,0,0,22,2Zm-16,11H3.35C4.46,11.49,6.27,9.57,8,9.17l-.75,1.47C6.8,11.5,6.39,12.29,6.08,12.93ZM12,20.62l-.26-2.68,3.63-2.24C15.11,17.45,13.34,19.4,12,20.62Zm9.31-16.8-.64,3.3a8.86,8.86,0,0,1-2.43,4.51A43.05,43.05,0,0,1,10,17a.63.63,0,0,1-.71-.1l-2.07-2a.6.6,0,0,1-.13-.69l.07-.15A.61.61,0,0,0,7.2,14l1.39-2.72a26.91,26.91,0,0,1,3.67-5.43,9.8,9.8,0,0,1,4.31-2.49l3.56-.63A1,1,0,0,1,21,3,.92.92,0,0,1,21.28,3.82Z"/></g></svg>