<svg xmlns="http://www.w3.org/2000/svg" viewBox="0 0 24 24"><g id="general"><path fill="currentColor" id="verify" d="M12,22.75a2.83,2.83,0,0,1-2-.83L8.59,20.51a.28.28,0,0,0-.2-.08h-2A2.83,2.83,0,0,1,3.57,17.6v-2a.28.28,0,0,0-.08-.2L2.08,14a2.84,2.84,0,0,1,0-4L3.49,8.59a.28.28,0,0,0,.08-.2v-2A2.83,2.83,0,0,1,6.4,3.57h2a.28.28,0,0,0,.2-.08L10,2.08a2.84,2.84,0,0,1,4,0l1.41,1.41a.28.28,0,0,0,.2.08h2A2.83,2.83,0,0,1,20.43,6.4v2a.28.28,0,0,0,.08.2L21.92,10a2.84,2.84,0,0,1,0,4l-1.41,1.41a.28.28,0,0,0-.08.2v2a2.83,2.83,0,0,1-2.83,2.83h-2a.28.28,0,0,0-.2.08L14,21.92A2.83,2.83,0,0,1,12,22.75ZM6.4,5.07A1.34,1.34,0,0,0,5.07,6.4v2a1.74,1.74,0,0,1-.52,1.26L3.14,11.06a1.33,1.33,0,0,0,0,1.88l1.41,1.41a1.75,1.75,0,0,1,.52,1.26v2A1.34,1.34,0,0,0,6.4,18.93h2a1.74,1.74,0,0,1,1.26.52l1.41,1.41a1.33,1.33,0,0,0,1.88,0l1.41-1.41a1.75,1.75,0,0,1,1.26-.52h2a1.34,1.34,0,0,0,1.33-1.33v-2a1.74,1.74,0,0,1,.52-1.26l1.41-1.41a1.33,1.33,0,0,0,0-1.88L19.45,9.65a1.8,1.8,0,0,1-.52-1.26v-2A1.34,1.34,0,0,0,17.6,5.07h-2a1.75,1.75,0,0,1-1.26-.52L12.94,3.14a1.33,1.33,0,0,0-1.88,0L9.65,4.55a1.74,1.74,0,0,1-1.26.52ZM11.27,15l4.91-4.79a.75.75,0,0,0,0-1.06.75.75,0,0,0-1.06,0L10.75,13.4,8.91,11.53a.75.75,0,1,0-1.07,1.05L10.21,15a.75.75,0,0,0,.53.23A.74.74,0,0,0,11.27,15Z"/></g></svg>