<svg xmlns="http://www.w3.org/2000/svg" viewBox="0 0 24 24"><g id="general"><path fill="currentColor" id="wifi-home" d="M6.35,22.58a4.23,4.23,0,0,1-4.2-3.74l-.88-7.52A4.25,4.25,0,0,1,2.88,7.47L9.58,2.3a4.27,4.27,0,0,1,5.32.11l6.35,5.35a4.22,4.22,0,0,1,1.45,4L21.45,19a4.22,4.22,0,0,1-4.17,3.52l-10.92,0Zm10.93-.77h0ZM12.17,2.92a2.72,2.72,0,0,0-1.67.57L3.8,8.66a2.7,2.7,0,0,0-1,2.48l.88,7.53a2.73,2.73,0,0,0,2.71,2.41h0l10.92,0A2.72,2.72,0,0,0,20,18.79l1.25-7.33a2.72,2.72,0,0,0-.93-2.55L13.93,3.56A2.74,2.74,0,0,0,12.17,2.92ZM12,15.48a1,1,0,1,0,1,1A1,1,0,0,0,12,15.48ZM14.51,15a.75.75,0,0,0,0-1.06,3.58,3.58,0,0,0-5.22,0A.75.75,0,0,0,10.34,15a2.11,2.11,0,0,1,3.11,0,.75.75,0,0,0,1.06,0Zm2.14-2.45a.75.75,0,0,0-.08-1.06c-4.77-4.13-9.32,0-9.37,0a.75.75,0,1,0,1,1.1,5.45,5.45,0,0,1,7.37,0,.76.76,0,0,0,1.06-.08Z"/></g></svg>