<svg xmlns="http://www.w3.org/2000/svg" viewBox="0 0 24 24"><g id="general"><path fill="currentColor" id="wifi-square" d="M16.05,22.75H8a6.71,6.71,0,0,1-6.7-6.7V8A6.71,6.71,0,0,1,8,1.25h8.1A6.71,6.71,0,0,1,22.75,8v8.1A6.71,6.71,0,0,1,16.05,22.75ZM8,2.75A5.2,5.2,0,0,0,2.75,8v8.1A5.2,5.2,0,0,0,8,21.25h8.1a5.21,5.21,0,0,0,5.2-5.2V8a5.21,5.21,0,0,0-5.2-5.2Zm6.87,13.34a.74.74,0,0,0-.18-1,4.4,4.4,0,0,0-5.23,0,.75.75,0,0,0,.93,1.18,2.91,2.91,0,0,1,3.43,0,.79.79,0,0,0,.44.14A.75.75,0,0,0,14.82,16.09Zm2.25-3a.75.75,0,0,0-.15-1A8,8,0,0,0,7.19,12a.75.75,0,1,0,1,1.16,6.39,6.39,0,0,1,7.88.16.78.78,0,0,0,.45.15A.74.74,0,0,0,17.07,13.12Zm1.47-3.25a.74.74,0,0,0-.17-1,10.66,10.66,0,0,0-12.78,0,.75.75,0,0,0,1,1.16,9,9,0,0,1,11,0,.76.76,0,0,0,.43.14A.72.72,0,0,0,18.54,9.87Z"/></g></svg>