<svg xmlns="http://www.w3.org/2000/svg" viewBox="0 0 24 24"><defs><style>.cls-1{opacity:0.3;}</style></defs><g id="text"><g id="text-circle"><path d="M20.6,5.9H9.23a.75.75,0,0,1,0-1.5H20.6a.75.75,0,0,1,0,1.5Z"/><path d="M15.44,10.9H9.23a.75.75,0,0,1,0-1.5h6.21a.75.75,0,0,1,0,1.5Z"/><path class="cls-1" d="M20.6,15.9H9.23a.75.75,0,0,1,0-1.5H20.6a.75.75,0,0,1,0,1.5Z"/><path class="cls-1" d="M15.44,20.9H9.23a.75.75,0,0,1,0-1.5h6.21a.75.75,0,1,1,0,1.5Z"/><circle cx="4.7" cy="5.15" r="1.3"/><circle cx="4.7" cy="15.15" r="1.3"/></g></g></svg>