<svg xmlns="http://www.w3.org/2000/svg" viewBox="0 0 24 24"><defs><style>.cls-1{opacity:0.3;}</style></defs><g id="text"><g id="text-number"><path d="M20.53,6.46H9.16a.75.75,0,0,1,0-1.5H20.53a.75.75,0,0,1,0,1.5Z"/><path d="M15.36,11.46H9.16a.75.75,0,0,1,0-1.5h6.2a.75.75,0,0,1,0,1.5Z"/><path class="cls-1" d="M20.53,16.46H9.16a.75.75,0,0,1,0-1.5H20.53a.75.75,0,0,1,0,1.5Z"/><path class="cls-1" d="M15.36,21.46H9.16a.75.75,0,0,1,0-1.5h6.2a.75.75,0,0,1,0,1.5Z"/><path d="M5.16,8.87a.75.75,0,0,1-.75-.75V5.47l-.35.44A.75.75,0,0,1,2.88,5L4.57,2.83a.75.75,0,0,1,.83-.25.76.76,0,0,1,.51.71V8.12A.76.76,0,0,1,5.16,8.87Z"/><path d="M6.11,18.83H3.78a.76.76,0,0,1-.66-.38.75.75,0,0,1,0-.75l2-3.32a.44.44,0,0,0-.43-.3.46.46,0,0,0-.45.46.75.75,0,0,1-1.5,0,2,2,0,1,1,3.91,0,.76.76,0,0,1-.11.38L5.09,17.33h1a.75.75,0,0,1,0,1.5Z"/></g></g></svg>