<svg xmlns="http://www.w3.org/2000/svg" viewBox="0 0 24 24"><g id="text"><path fill="currentColor" id="text-circle" d="M20.6,5.9H9.23a.75.75,0,0,1,0-1.5H20.6a.75.75,0,0,1,0,1.5Zm-4.41,4.25a.76.76,0,0,0-.75-.75H9.23a.75.75,0,0,0,0,1.5h6.21A.76.76,0,0,0,16.19,10.15Zm5.16,5a.75.75,0,0,0-.75-.75H9.23a.75.75,0,0,0,0,1.5H20.6A.75.75,0,0,0,21.35,15.15Zm-5.16,5a.76.76,0,0,0-.75-.75H9.23a.75.75,0,0,0,0,1.5h6.21A.76.76,0,0,0,16.19,20.15ZM4.7,3.85A1.3,1.3,0,1,0,6,5.15,1.3,1.3,0,0,0,4.7,3.85Zm0,10A1.3,1.3,0,1,0,6,15.15,1.3,1.3,0,0,0,4.7,13.85Z"/></g></svg>