<svg xmlns="http://www.w3.org/2000/svg" viewBox="0 0 24 24"><g id="design"><path fill="currentColor" id="brush" d="M22.06,2a2.34,2.34,0,0,0-2.89-.35A42.36,42.36,0,0,0,10.11,8.9h0A34.24,34.24,0,0,0,6,14.1c-3.41.53-4.39,4.74-4.72,6.16a2,2,0,0,0,.54,1.88,2,2,0,0,0,1.42.59,1.75,1.75,0,0,0,.46-.05c1.42-.32,5.59-1.29,6.16-4.65a34.71,34.71,0,0,0,5.24-4.12,42.36,42.36,0,0,0,7.29-9.06h0A2.35,2.35,0,0,0,22.06,2ZM3.39,21.22a.52.52,0,0,1-.49-.14.53.53,0,0,1-.14-.48c.92-4,2.33-4.84,3.42-5L8.41,17.8C8.23,18.9,7.36,20.31,3.39,21.22ZM9.33,16.6,7.41,14.68a33.68,33.68,0,0,1,3.26-4.19l1.43,1.43,1.42,1.42A32.08,32.08,0,0,1,9.33,16.6ZM21.13,4.06a41.7,41.7,0,0,1-6.51,8.26l-1.46-1.46L11.7,9.4A40.78,40.78,0,0,1,20,2.89.84.84,0,0,1,21,3,.85.85,0,0,1,21.13,4.06Z"/></g></svg>