<svg xmlns="http://www.w3.org/2000/svg" viewBox="0 0 24 24"><g id="design"><path fill="currentColor" id="bucket-square" d="M16.7,1.25H7.3a6.06,6.06,0,0,0-6,6.05v9.4a6.06,6.06,0,0,0,6,6.05h9.4a6.06,6.06,0,0,0,6-6.05V7.3A6.06,6.06,0,0,0,16.7,1.25ZM21.24,16.7a4.55,4.55,0,0,1-4.54,4.55H7.3A4.55,4.55,0,0,1,2.76,16.7V7.3A4.55,4.55,0,0,1,7.3,2.75h9.4A4.55,4.55,0,0,1,21.24,7.3Zm-5.79-5.44L11.72,7.53,10,5.84A.75.75,0,0,0,9,5.83.75.75,0,0,0,9,6.89l.61.62L6.42,10.66a2.13,2.13,0,0,0,0,3l2.26,2.26a2.12,2.12,0,0,0,3,0l3.75-3.75A.66.66,0,0,0,15.45,11.26Zm-4.81,3.61a.66.66,0,0,1-.45.19.64.64,0,0,1-.45-.19L7.48,12.61a.64.64,0,0,1,0-.89l3.15-3.15,0,0,.06.06h0l3,3Zm6-1.81a1.46,1.46,0,0,0-1.16.57,4.58,4.58,0,0,0-1.14,2.69,2.3,2.3,0,0,0,4.59,0,4.67,4.67,0,0,0-1.13-2.7A1.38,1.38,0,0,0,16.66,13.06Zm0,4a.76.76,0,0,1-.79-.71,3.58,3.58,0,0,1,.78-1.77,3.18,3.18,0,0,1,.81,1.77A.76.76,0,0,1,16.65,17Z"/></g></svg>