<svg xmlns="http://www.w3.org/2000/svg" viewBox="0 0 24 24"><g id="design"><path fill="currentColor" id="bucket" d="M6.56,18a3.91,3.91,0,0,0,5.52,0l5.55-5.55a1.71,1.71,0,0,0,0-2.42L11.19,3.57,11,3.43,9.45,1.86a.73.73,0,1,0-1,1L9,3.42l-.18.15L3.22,9.12a3.89,3.89,0,0,0,0,5.52ZM11,16.93a2.42,2.42,0,0,1-3.4,0L4.28,13.58a2.33,2.33,0,0,1-.62-1.1l12.39-.58ZM9.83,4.64a.2.2,0,0,1,.3,0l5.77,5.77L3.75,11a2.3,2.3,0,0,1,.53-.78Zm6.89,17a.73.73,0,0,1-.73.73H3.65a.73.73,0,1,1,0-1.46H16A.73.73,0,0,1,16.72,21.63Zm3.61-7.37a1.81,1.81,0,0,0-2.87,0A6.82,6.82,0,0,0,15.85,18a3,3,0,0,0,6.08,0A6.55,6.55,0,0,0,20.33,14.26Zm-1.44,5.18A1.48,1.48,0,0,1,17.35,18a5.19,5.19,0,0,1,1.3-2.84.3.3,0,0,1,.25-.13.32.32,0,0,1,.25.12A5.1,5.1,0,0,1,20.43,18,1.48,1.48,0,0,1,18.89,19.44Z"/></g></svg>