<svg xmlns="http://www.w3.org/2000/svg" viewBox="0 0 24 24"><g id="design"><path fill="currentColor" id="colors-square" d="M17,1.29H7.05A5.76,5.76,0,0,0,1.29,7.05V17a5.76,5.76,0,0,0,5.76,5.76H17A5.76,5.76,0,0,0,22.71,17V7.05A5.76,5.76,0,0,0,17,1.29ZM21.21,17A4.26,4.26,0,0,1,17,21.21H7.05A4.26,4.26,0,0,1,2.79,17V7.05A4.26,4.26,0,0,1,7.05,2.79H17a4.26,4.26,0,0,1,4.26,4.26ZM16.3,10.52a4.14,4.14,0,0,0,.09-.87,4.35,4.35,0,0,0-8.7,0,4.14,4.14,0,0,0,.09.87,4.34,4.34,0,0,0,1.86,8.27,4.27,4.27,0,0,0,2.42-.74,4.24,4.24,0,0,0,2.38.74,4.34,4.34,0,0,0,1.86-8.27ZM12,6.8A2.85,2.85,0,1,1,9.19,9.65,2.85,2.85,0,0,1,12,6.8ZM6.79,14.44a2.84,2.84,0,0,1,1.55-2.53A4.36,4.36,0,0,0,12,14a2.87,2.87,0,0,0,.41-.05,2.7,2.7,0,0,1,0,.49,2.88,2.88,0,0,1-.06.59l0,.08a3,3,0,0,1-.15.48l0,0a2.86,2.86,0,0,1-.69.94h0a2.82,2.82,0,0,1-1.9.74A2.86,2.86,0,0,1,6.79,14.44Zm7.65,2.85A2.88,2.88,0,0,1,13.16,17h0c.09-.13.16-.26.24-.4l.15-.27.15-.37c0-.13.09-.27.13-.4s.05-.21.07-.31a3.84,3.84,0,0,0,0-1.65,4.37,4.37,0,0,0,1.85-1.66,2.85,2.85,0,0,1-1.3,5.38Z"/></g></svg>