<svg xmlns="http://www.w3.org/2000/svg" viewBox="0 0 24 24"><g id="design"><path fill="currentColor" id="eraser" d="M21.39,9.85a2.09,2.09,0,0,0,0-2.95L17.1,2.61A2.07,2.07,0,0,0,15.62,2a2.05,2.05,0,0,0-1.47.61L8.38,8.38,2.61,14.15a2.09,2.09,0,0,0,0,3L6.9,21.39A2.07,2.07,0,0,0,8.38,22H20.27a.75.75,0,0,0,0-1.5H10.75l4.87-4.87ZM15.21,3.67a.57.57,0,0,1,.41-.17.59.59,0,0,1,.42.17L20.33,8a.59.59,0,0,1,0,.83L15.09,14,10,8.91ZM3.67,16a.59.59,0,0,1,0-.83L8.91,10,14,15.09,8.79,20.33a.57.57,0,0,1-.41.17A.59.59,0,0,1,8,20.33Z"/></g></svg>