<svg xmlns="http://www.w3.org/2000/svg" viewBox="0 0 24 24"><g id="design"><path fill="currentColor" id="feather" d="M21.78,6.45,17.55,2.22a2.68,2.68,0,0,0-3.77,0l-.89.89-.53.53A5.59,5.59,0,0,1,9.69,5.1a7.7,7.7,0,0,0-3.58,2,7.57,7.57,0,0,0-2.22,5.53,5.15,5.15,0,0,1-1.51,3.75L2,16.82a1.78,1.78,0,0,0-.51,1.23A1.73,1.73,0,0,0,2,19.27l2.78,2.78a1.71,1.71,0,0,0,2.44,0l.44-.43a5.06,5.06,0,0,1,3.75-1.51,7.74,7.74,0,0,0,5.53-2.22,7.62,7.62,0,0,0,2-3.58,5.59,5.59,0,0,1,1.46-2.67l.53-.53.89-.89A2.67,2.67,0,0,0,21.78,6.45ZM17.44,14a6.11,6.11,0,0,1-6.05,4.65,6.71,6.71,0,0,0-4.84,1.95L6.11,21a.2.2,0,0,1-.32,0l-.86-.86,4.92-4.9A3.12,3.12,0,1,0,8.4,12.6a3.05,3.05,0,0,0,.42,1.53L3.87,19.07,3,18.21a.22.22,0,0,1,0-.32l.43-.44a6.71,6.71,0,0,0,1.95-4.84,6.08,6.08,0,0,1,4.65-6A7.26,7.26,0,0,0,12.86,5.2l3,3,3,3A7.26,7.26,0,0,0,17.44,14ZM9.9,12.6a1.63,1.63,0,1,1,1.63,1.62A1.62,1.62,0,0,1,9.9,12.6ZM20.71,9.16l-.88.89L14,4.17l.89-.88a1.18,1.18,0,0,1,1.65,0l4.22,4.22A1.16,1.16,0,0,1,20.71,9.16Z"/></g></svg>