<svg xmlns="http://www.w3.org/2000/svg" viewBox="0 0 24 24"><g id="design"><path fill="currentColor" id="frame" d="M20.75,15.32V5.81a2.56,2.56,0,0,0-2.56-2.56H8.68a2.55,2.55,0,0,0-2.49-2H5.81A2.56,2.56,0,0,0,3.3,3.3a2.56,2.56,0,0,0-2,2.51v.38a2.55,2.55,0,0,0,2,2.49v9.51a2.56,2.56,0,0,0,2.56,2.56h9.51a2.55,2.55,0,0,0,2.49,2h.38A2.56,2.56,0,0,0,20.7,20.7a2.56,2.56,0,0,0,2.05-2.51v-.38A2.55,2.55,0,0,0,20.75,15.32ZM3.25,7.09a1.06,1.06,0,0,1-.5-.9V5.81a1.06,1.06,0,0,1,.5-.9Zm12,12.16H5.81a1.05,1.05,0,0,1-1.06-1.06V3.81A1.05,1.05,0,0,1,5.81,2.75h.38A1.05,1.05,0,0,1,7.25,3.81V15.19a1.56,1.56,0,0,0,1.56,1.56h6.44Zm0-4-6.5-.05V8.76l6.5.05Zm4,5a1.05,1.05,0,0,1-1.06,1.06h-.38a1.05,1.05,0,0,1-1.06-1.06V8.81a1.56,1.56,0,0,0-1.56-1.56H8.75V4.75h9.44a1.05,1.05,0,0,1,1.06,1.06Zm2-2a1.05,1.05,0,0,1-.5.88V16.93a1.05,1.05,0,0,1,.5.88Z"/></g></svg>