<svg xmlns="http://www.w3.org/2000/svg" viewBox="0 0 24 24"><g id="design"><path fill="currentColor" id="glass" d="M20.69,17.3,16.5,7.45a3.16,3.16,0,0,0-.87-6.19H8.38a3.15,3.15,0,0,0-1,6.16l-4.12,10a3.87,3.87,0,0,0,3.58,5.36h0l10.23,0a4.16,4.16,0,0,0,1.41-.27,4.44,4.44,0,0,0,.83-.45,4,4,0,0,0,1-1A3.89,3.89,0,0,0,20.69,17.3ZM14.93,7.59l1.71,4a7.8,7.8,0,0,0-4.37.73,6,6,0,0,1-5.41.37L9,7.59ZM6.71,4.42A1.66,1.66,0,0,1,8.38,2.76h7.25a1.67,1.67,0,0,1,0,3.33H8.38A1.67,1.67,0,0,1,6.71,4.42Zm.17,16.82a2.34,2.34,0,0,1-2-1,2.94,2.94,0,0,1-.27-.53,2.17,2.17,0,0,1-.13-.56A2.32,2.32,0,0,1,4.69,18l1.59-3.86A7.38,7.38,0,0,0,13,13.66a6.79,6.79,0,0,1,4.37-.45l2,4.67a2.4,2.4,0,0,1-2.18,3.32l-10.23,0Z"/></g></svg>