<svg xmlns="http://www.w3.org/2000/svg" viewBox="0 0 24 24"><g id="design"><path fill="currentColor" id="mask" d="M12,22.72A10.72,10.72,0,1,1,22.72,12,10.73,10.73,0,0,1,12,22.72ZM12,2.78A9.22,9.22,0,1,0,21.22,12,9.24,9.24,0,0,0,12,2.78ZM10.32,19.07a2.47,2.47,0,0,1-.92-.18,7.45,7.45,0,0,1,0-13.78,2.37,2.37,0,0,1,2.23.22,2.41,2.41,0,0,1,1.07,2v9.32a2.41,2.41,0,0,1-1.07,2A2.49,2.49,0,0,1,10.32,19.07Zm0-12.64a1,1,0,0,0-.33.06,6,6,0,0,0,0,11,.85.85,0,0,0,.83-.08.9.9,0,0,0,.41-.76V7.34a.9.9,0,0,0-.41-.76A.88.88,0,0,0,10.32,6.43Z"/></g></svg>