<svg xmlns="http://www.w3.org/2000/svg" viewBox="0 0 24 24"><g id="design"><path fill="currentColor" id="size" d="M11.7,22.75H7.3a6.06,6.06,0,0,1-6-6.05V12.3A6.06,6.06,0,0,1,7.3,6.25h4.4a6.06,6.06,0,0,1,6.05,6.05v4.4A6.06,6.06,0,0,1,11.7,22.75Zm-4.4-15A4.55,4.55,0,0,0,2.75,12.3v4.4A4.55,4.55,0,0,0,7.3,21.25h4.4a4.55,4.55,0,0,0,4.55-4.55V12.3A4.55,4.55,0,0,0,11.7,7.75Zm12.43,5.84a4.19,4.19,0,0,0,3-4V5.42a4.17,4.17,0,0,0-4.17-4.17H14.42a4.17,4.17,0,0,0-4,3.12.75.75,0,0,0,1.46.38,2.66,2.66,0,0,1,2.58-2h4.16a2.68,2.68,0,0,1,2.67,2.67V9.58a2.7,2.7,0,0,1-1.94,2.57.75.75,0,0,0,.21,1.47Z"/></g></svg>