<svg xmlns="http://www.w3.org/2000/svg" viewBox="0 0 24 24"><g id="users"><path fill="currentColor" id="user-square" d="M22.76,7.9a6.68,6.68,0,0,0-2-4.73A6.76,6.76,0,0,0,16,1.23l-8.14,0A6.71,6.71,0,0,0,1.2,8l0,8.08A6.71,6.71,0,0,0,8,22.77H8l8.14,0A6.71,6.71,0,0,0,22.8,16Zm-3,11.78a5.22,5.22,0,0,1-1.59,1.1,6.86,6.86,0,0,0-12.4,0,5.09,5.09,0,0,1-1.51-1,5.16,5.16,0,0,1-1.55-3.67L2.7,8A5.22,5.22,0,0,1,7.88,2.77l8.14,0h0a5.22,5.22,0,0,1,5.21,5.18l0,8.08A5.16,5.16,0,0,1,19.79,19.68Zm-4-7.77A3.8,3.8,0,1,1,12,8.11,3.8,3.8,0,0,1,15.8,11.91Z"/></g></svg>