<svg xmlns="http://www.w3.org/2000/svg" viewBox="0 0 24 24"><g id="technologies"><path fill="currentColor" id="fingerprint-scanning" d="M12.19,20.71a.8.8,0,0,1-.51-.17.85.85,0,0,1-.18-1.2,9.48,9.48,0,0,0,1.61-3.45.86.86,0,1,1,1.67.4,11.13,11.13,0,0,1-1.9,4.08A.88.88,0,0,1,12.19,20.71ZM9.71,18.82a7.79,7.79,0,0,0,1.94-5.15V9.36a.86.86,0,1,1,1.72,0v3.72a.86.86,0,1,0,1.72,0V9.36a2.58,2.58,0,1,0-5.16,0v4.31a6,6,0,0,1-1.51,4,.87.87,0,0,0,.07,1.22.85.85,0,0,0,.57.22A.87.87,0,0,0,9.71,18.82ZM7.36,16.29a.88.88,0,0,0,.85-.9v-6a4.3,4.3,0,0,1,.28-1.51A.86.86,0,0,0,8,6.74a.85.85,0,0,0-1.1.5A5.89,5.89,0,0,0,6.5,9.36v6.12a.82.82,0,0,0,.85.81ZM9.94,5.9a4.24,4.24,0,0,1,1.43-.7.86.86,0,0,0-.46-1.66,6.11,6.11,0,0,0-2,1,.86.86,0,0,0,.52,1.55A.8.8,0,0,0,9.94,5.9Zm7.89,12.27a14.85,14.85,0,0,0,.7-4.5V9.36a6,6,0,0,0-4.05-5.71.86.86,0,0,0-1.1.53.87.87,0,0,0,.54,1.1,4.31,4.31,0,0,1,2.89,4.08v4.31a13,13,0,0,1-.62,4,.86.86,0,0,0,.55,1.08.84.84,0,0,0,.27,0A.86.86,0,0,0,17.83,18.17Zm4.92,2.6V17.42a.78.78,0,0,0-1.55,0v3.35a.43.43,0,0,1-.43.43h-3a.78.78,0,0,0,0,1.55h3A2,2,0,0,0,22.75,20.77ZM7,22a.77.77,0,0,0-.77-.77h-3a.43.43,0,0,1-.43-.43V17.42a.78.78,0,0,0-1.55,0v3.35a2,2,0,0,0,2,2h3A.77.77,0,0,0,7,22ZM22.75,6.58V3.23a2,2,0,0,0-2-2h-3a.78.78,0,0,0,0,1.55h3a.43.43,0,0,1,.43.43V6.58a.78.78,0,0,0,1.55,0ZM2.8,6.58V3.23a.43.43,0,0,1,.43-.43h3a.78.78,0,0,0,0-1.55h-3a2,2,0,0,0-2,2V6.58a.78.78,0,0,0,1.55,0Z"/></g></svg>