<svg xmlns="http://www.w3.org/2000/svg" viewBox="0 0 24 24"><g id="general"><path fill="currentColor" id="autobrightness" d="M12,10l1.08,2.31H10.92Zm9.39,3.46L20,14.88a1,1,0,0,0-.3.73v2a2.08,2.08,0,0,1-2.08,2.08h-2a1,1,0,0,0-.73.3l-1.41,1.41a2.08,2.08,0,0,1-2.94,0L9.12,20a1,1,0,0,0-.73-.3h-2A2.08,2.08,0,0,1,4.32,17.6v-2a1,1,0,0,0-.3-.73L2.61,13.47a2.08,2.08,0,0,1,0-2.94L4,9.12a1,1,0,0,0,.3-.73v-2A2.08,2.08,0,0,1,6.4,4.32h2A1,1,0,0,0,9.12,4l1.41-1.41a2.08,2.08,0,0,1,2.94,0L14.88,4a1,1,0,0,0,.73.3h2A2.08,2.08,0,0,1,19.68,6.4v2a1,1,0,0,0,.3.73l1.41,1.41A2.08,2.08,0,0,1,21.39,13.47Zm-5.2,2L12.68,7.92a.78.78,0,0,0-1.36,0L7.81,15.45a.74.74,0,0,0,.36,1,.75.75,0,0,0,1-.36l1.05-2.26h3.56l1.05,2.26a.76.76,0,0,0,.68.43.71.71,0,0,0,.32-.07A.75.75,0,0,0,16.19,15.44Z"/></g></svg>