<svg xmlns="http://www.w3.org/2000/svg" viewBox="0 0 24 24"><g id="general"><path fill="currentColor" id="call" d="M12.38,2H9.46V3a1,1,0,0,1-1,1h0a1,1,0,0,1-1-1V2H4.48A2.25,2.25,0,0,0,2.23,4.25v15.5A2.25,2.25,0,0,0,4.48,22h7.9a2.25,2.25,0,0,0,2.25-2.25V4.25A2.25,2.25,0,0,0,12.38,2Zm-4,16a1.54,1.54,0,0,1-1.55-1.55H10A1.54,1.54,0,0,1,8.43,18Zm3.78-2.85a.67.67,0,0,1-.67.67H5.33a.67.67,0,0,1-.67-.67V12.35a3.79,3.79,0,0,1,3-3.7V7.58a.78.78,0,1,1,1.56,0V8.65a3.79,3.79,0,0,1,3,3.7ZM21,13H18.19a.78.78,0,0,1,0-1.55H21A.78.78,0,0,1,21,13ZM18.23,8a.78.78,0,0,1-.36-1.46l2.72-1.46a.78.78,0,0,1,.73,1.37L18.6,7.92A.81.81,0,0,1,18.23,8ZM21,19.41a.8.8,0,0,1-.36-.09l-2.72-1.46a.78.78,0,0,1,.73-1.37L21.32,18A.78.78,0,0,1,21.64,19,.78.78,0,0,1,21,19.41Z"/></g></svg>