<svg xmlns="http://www.w3.org/2000/svg" viewBox="0 0 24 24"><g id="general"><path fill="currentColor" id="coffee" d="M9.33,5.1a.76.76,0,0,1-.75-.75v-2a.75.75,0,1,1,1.5,0v2A.75.75,0,0,1,9.33,5.1ZM6.17,4.35v-2a.75.75,0,0,0-1.5,0v2a.75.75,0,0,0,1.5,0ZM14,4.44v-2a.75.75,0,1,0-1.5,0v2a.75.75,0,1,0,1.5,0Zm3,5a1.36,1.36,0,0,0-.29,0A4.08,4.08,0,0,0,13,6.89H5.68A4.09,4.09,0,0,0,1.59,11v.81H17.08V11h0a3.84,3.84,0,0,1,0,7.67h0s0-.07,0-.11a1.9,1.9,0,0,0,0-.25v-5H1.59v5a4.1,4.1,0,0,0,4.09,4.1H13a4.08,4.08,0,0,0,3.67-2.31,2.33,2.33,0,0,0,.25.07h.18a5.34,5.34,0,0,0,0-10.67Z"/></g></svg>