<svg xmlns="http://www.w3.org/2000/svg" viewBox="0 0 24 24"><g id="general"><path fill="currentColor" id="disk" d="M12,1.94A10.06,10.06,0,1,0,22.06,12h0A10.07,10.07,0,0,0,12,1.94ZM5.65,10.8a.69.69,0,0,1-.67.57H4.85a.68.68,0,0,1-.55-.79v0A7.8,7.8,0,0,1,9.74,4.49a.7.7,0,0,1,.42,1.33A6.44,6.44,0,0,0,5.65,10.8Zm3,1.2A3.33,3.33,0,1,1,12,15.33,3.33,3.33,0,0,1,8.67,12Zm5.84,7.43a.81.81,0,0,1-.22,0,.69.69,0,0,1-.22-1.35,6.52,6.52,0,0,0,4.2-4.53.69.69,0,0,1,1.33.34A7.84,7.84,0,0,1,14.51,19.43Z"/></g></svg>