<svg xmlns="http://www.w3.org/2000/svg" viewBox="0 0 24 24"><g id="general"><path fill="currentColor" id="emoji-happy" d="M16.47,2H7.53A5.53,5.53,0,0,0,2,7.53v8.94A5.53,5.53,0,0,0,7.53,22h8.94A5.53,5.53,0,0,0,22,16.47V7.53A5.53,5.53,0,0,0,16.47,2Zm-8,4.37A1.88,1.88,0,1,1,6.63,8.25,1.88,1.88,0,0,1,8.5,6.37ZM12,19.08A4.88,4.88,0,0,1,7.13,14.2a1.28,1.28,0,0,1,1.28-1.28h7.21A1.28,1.28,0,0,1,16.9,14.2,4.88,4.88,0,0,1,12,19.08Zm3.43-8.95a1.88,1.88,0,1,1,1.88-1.88A1.88,1.88,0,0,1,15.44,10.13Z"/></g></svg>