<svg xmlns="http://www.w3.org/2000/svg" viewBox="0 0 24 24"><g id="general"><path fill="currentColor" id="filter-search" d="M14.09,20a1.84,1.84,0,0,1-.58.66l-1.37,1A2,2,0,0,1,8.92,20V14.75a3.85,3.85,0,0,0-1.11-2.7L4.05,8.23a2.19,2.19,0,0,1-.63-1.55V4.19A2.21,2.21,0,0,1,5.63,2H18.37a2.21,2.21,0,0,1,2.21,2.21v2.4a2.18,2.18,0,0,1-.74,1.66l-2.24,2a5.13,5.13,0,0,0-2.24-.53A5.23,5.23,0,0,0,14.09,20Zm5.71-1.68-.92-.92-.06,0a4.25,4.25,0,1,0-1,1l0,.06.92.92a.75.75,0,0,0,1.06,0A.75.75,0,0,0,19.8,18.34Z"/></g></svg>