<svg xmlns="http://www.w3.org/2000/svg" viewBox="0 0 24 24"><g id="general"><path fill="currentColor" id="filter-edit" d="M13.56,20a1.9,1.9,0,0,1-.62.73l-1.36,1A2,2,0,0,1,8.36,20V14.75a3.85,3.85,0,0,0-1.11-2.7L3.49,8.23a2.2,2.2,0,0,1-.64-1.55V4.19A2.21,2.21,0,0,1,5.06,2H17.81A2.21,2.21,0,0,1,20,4.19v2.4a2.22,2.22,0,0,1-.74,1.66L18,9.43A5.74,5.74,0,0,0,13.56,20Zm7.59-5a4.75,4.75,0,1,1-4.75-4.75A4.75,4.75,0,0,1,21.15,15ZM18.53,13.3,18,12.78a.68.68,0,0,0-1,0l-2.69,2.75a.5.5,0,0,0-.14.27l-.16.85a.57.57,0,0,0,.67.66l.85-.18a.5.5,0,0,0,.27-.14l2.7-2.75A.66.66,0,0,0,18.53,13.3Z"/></g></svg>