<svg xmlns="http://www.w3.org/2000/svg" viewBox="0 0 24 24"><g id="general"><path fill="currentColor" id="filter-tick" d="M13.65,19.82a1.94,1.94,0,0,1-.67.86l-1.36,1A2,2,0,0,1,8.4,20V14.75a3.85,3.85,0,0,0-1.11-2.7L3.53,8.23a2.2,2.2,0,0,1-.64-1.55V4.19A2.21,2.21,0,0,1,5.1,2H17.84a2.21,2.21,0,0,1,2.22,2.21v2.4a2.22,2.22,0,0,1-.74,1.66l-1.17,1A5.89,5.89,0,0,0,16.36,9a5.75,5.75,0,0,0-2.71,10.82Zm7.46-5.07A4.75,4.75,0,1,1,16.36,10,4.74,4.74,0,0,1,21.11,14.75Zm-2.38-1.7A.76.76,0,0,0,17.67,13l-2.08,1.89-.76-.68a.75.75,0,1,0-1,1.11l1.26,1.13a.74.74,0,0,0,.5.2.78.78,0,0,0,.51-.2l2.58-2.33A.76.76,0,0,0,18.73,13.05Z"/></g></svg>