<svg xmlns="http://www.w3.org/2000/svg" viewBox="0 0 24 24"><g id="general"><path fill="currentColor" id="ghost" d="M12,2.13h0a10,10,0,0,0-10,10v8.14a.87.87,0,0,0,1.43.67l1.39-1.16a.89.89,0,0,1,1.13,0l2.19,1.87a.88.88,0,0,0,1.13,0l2.22-1.88a.88.88,0,0,1,1.13,0l2.15,1.83a.89.89,0,0,0,1.13,0l2.15-1.84a.89.89,0,0,1,1.13,0l1.39,1.16A.87.87,0,0,0,22,20.27V12.13A10,10,0,0,0,12,2.13Zm0,4.62A2.38,2.38,0,1,1,9.62,9.13,2.39,2.39,0,0,1,12,6.75Zm4.32,8a7.3,7.3,0,0,1-4.22,1.35,8.77,8.77,0,0,1-4.55-1.35.75.75,0,0,1-.18-1.05.74.74,0,0,1,1-.18,6.37,6.37,0,0,0,7.05,0,.75.75,0,1,1,.86,1.23Z"/></g></svg>