<svg xmlns="http://www.w3.org/2000/svg" viewBox="0 0 24 24"><g id="general"><path fill="currentColor" id="gift" d="M20,11.48v7.64A2.88,2.88,0,0,1,17.13,22H6.87A2.88,2.88,0,0,1,4,19.12V11.48l.16,0H7.49v3.59a2.5,2.5,0,0,0,2.5,2.5,2.41,2.41,0,0,0,1.37-.42l.64-.42.64.42a2.41,2.41,0,0,0,1.37.42,2.51,2.51,0,0,0,2.51-2.5V11.5h3.32ZM19.84,5h-2a.91.91,0,0,0,0-1.29L16.38,2.27a.92.92,0,0,0-1.3,0L12.35,5h-.7L8.92,2.27a.92.92,0,0,0-1.3,0L6.19,3.71A.91.91,0,0,0,6.18,5h-2A1.66,1.66,0,0,0,2.5,6.66V8.33A1.66,1.66,0,0,0,4.16,10H19.84A1.66,1.66,0,0,0,21.5,8.33V6.66A1.66,1.66,0,0,0,19.84,5ZM9,11.5v3.59a1,1,0,0,0,1,1,1,1,0,0,0,.55-.17l.76-.5a1.27,1.27,0,0,1,1.4,0l.76.5a1,1,0,0,0,.55.17,1,1,0,0,0,1-1V11.5Z"/></g></svg>