<svg xmlns="http://www.w3.org/2000/svg" viewBox="0 0 24 24"><g id="general"><path fill="currentColor" id="icon" d="M13.69,2.25A9.9,9.9,0,0,1,21.89,12c0,.26,0,.51,0,.76a14.32,14.32,0,0,1-3.68-2.4,1.86,1.86,0,0,0,.19-.81,1.81,1.81,0,0,0-1.81-1.81,1.87,1.87,0,0,0-.59.1A14,14,0,0,1,13.69,2.25Zm-5.18.82a25.67,25.67,0,0,0,.15,2.65,1.8,1.8,0,0,1,.55,3.19,24.71,24.71,0,0,0,2,5.44l.2,0a1.82,1.82,0,0,1,1.78,1.46,24,24,0,0,0,3.52.26,24.89,24.89,0,0,0,4.51-.43,9.77,9.77,0,0,0,.41-1.33,16.06,16.06,0,0,1-4.62-3,2.12,2.12,0,0,1-.44.06,1.82,1.82,0,0,1-1.82-1.82,1.86,1.86,0,0,1,.13-.67A15.64,15.64,0,0,1,12.14,2.1H12a9.93,9.93,0,0,0-3.46.64C8.51,2.84,8.51,3,8.51,3.07Zm6,18.5a27,27,0,0,1-2.93-3.63l-.16,0a1.82,1.82,0,0,1-1.77-1.4,26.73,26.73,0,0,1-7.46-3.35A9.89,9.89,0,0,0,12,21.91a10,10,0,0,0,4-.86A11,11,0,0,1,14.48,21.57Zm2.21-4a26.31,26.31,0,0,1-3.79-.28A25.23,25.23,0,0,0,16.05,21a9.87,9.87,0,0,0,4.3-3.73A27.66,27.66,0,0,1,16.69,17.55ZM9.88,15.11A27.28,27.28,0,0,1,7.73,9.22,1.83,1.83,0,0,1,6.32,7.45a1.8,1.8,0,0,1,.85-1.53C7.09,5.1,7,4.27,7,3.44a9.88,9.88,0,0,0-4.91,7.92A25.31,25.31,0,0,0,9.88,15.11Z"/></g></svg>