<svg xmlns="http://www.w3.org/2000/svg" viewBox="0 0 24 24"><g id="general"><path fill="currentColor" id="rescue" d="M16.83,10.26A1.14,1.14,0,0,1,17.14,9l2-1.86a1.18,1.18,0,0,1,1.65.07,1.16,1.16,0,0,1,.16.21,9.74,9.74,0,0,1-.15,9.3,1.21,1.21,0,0,1-1.62.46,1.46,1.46,0,0,1-.28-.21l-2.06-2.16a1.14,1.14,0,0,1-.21-1.23A5.11,5.11,0,0,0,17,11.73,4.55,4.55,0,0,0,16.83,10.26ZM9.19,6.75A1.2,1.2,0,0,0,10.45,7,5,5,0,0,1,12,6.78a4.9,4.9,0,0,1,2.1.45A1.21,1.21,0,0,0,15.44,7l1.89-1.77a1.12,1.12,0,0,0,0-1.62,1,1,0,0,0-.19-.16A10.32,10.32,0,0,0,7.79,3a1.19,1.19,0,0,0-.63,1.56,1.23,1.23,0,0,0,.25.36Zm5.92,9.87a1.17,1.17,0,0,0-1.27-.27,4.92,4.92,0,0,1-3.62,0A1.16,1.16,0,0,0,9,16.58l-2.3,2.08a1.13,1.13,0,0,0-.08,1.62,1.16,1.16,0,0,0,.24.2,10.21,10.21,0,0,0,10,.17,1.17,1.17,0,0,0,.49-1.59.81.81,0,0,0-.17-.24ZM7.05,14.75a1.11,1.11,0,0,0,.28-1.27A4.72,4.72,0,0,1,7,11.7a4.78,4.78,0,0,1,.46-2.07,1.14,1.14,0,0,0-.2-1.29L5.45,6.41a1.2,1.2,0,0,0-1.68,0,.75.75,0,0,0-.21.26,9.73,9.73,0,0,0-.51,9.78,1.18,1.18,0,0,0,1.6.43.8.8,0,0,0,.21-.15Z"/></g></svg>