<svg xmlns="http://www.w3.org/2000/svg" viewBox="0 0 24 24"><g id="general"><path fill="currentColor" id="safe-home" d="M15.71,21l-1-.82a2.35,2.35,0,0,1-.9-1.9l0-3.27a1.56,1.56,0,0,1,.92-1.42l2.56-1.19a1.59,1.59,0,0,1,1.3,0l2.47,1.08A1.61,1.61,0,0,1,22,14.94l0,3.28a2.42,2.42,0,0,1-.89,1.84L19.92,21A3.36,3.36,0,0,1,15.71,21Zm-3.42-2.74,0-3.26a3.1,3.1,0,0,1,1.79-2.78l2.56-1.18A3.06,3.06,0,0,1,18,10.77h0a2.94,2.94,0,0,1,1.24.26l.61.27.1-.6a3.1,3.1,0,0,0-1.06-2.92L13.14,3a3.12,3.12,0,0,0-3.92-.08l-6,4.63A3.14,3.14,0,0,0,2,10.38l.79,6.74a3.13,3.13,0,0,0,3.11,2.76h6.7A3.79,3.79,0,0,1,12.29,18.27Z"/></g></svg>