<svg xmlns="http://www.w3.org/2000/svg" viewBox="0 0 24 24"><g id="general"><path fill="currentColor" id="share" d="M12.05,22a9.12,9.12,0,0,1-3.82-.83.77.77,0,0,1-.37-1,.76.76,0,0,1,1-.37,7.7,7.7,0,0,0,6.22.07.76.76,0,0,1,.61,1.39A9.09,9.09,0,0,1,12.05,22Zm8.41-9.25a.75.75,0,0,0,.67-.83,9.16,9.16,0,0,0-3.6-6.36.76.76,0,0,0-.91,1.21,7.66,7.66,0,0,1,3,5.3.76.76,0,0,0,.75.68Zm-16-.68A7.64,7.64,0,0,1,7.59,6.69.76.76,0,1,0,6.7,5.47,9.15,9.15,0,0,0,3,11.91a.75.75,0,0,0,.67.83h.08A.76.76,0,0,0,4.47,12.07ZM12,2a2.91,2.91,0,1,0,2.91,2.91A2.9,2.9,0,0,0,12,2ZM5,14a2.91,2.91,0,1,0,2.9,2.91A2.91,2.91,0,0,0,5,14Zm14,0a2.91,2.91,0,1,0,2.91,2.91A2.9,2.9,0,0,0,19,14Z"/></g></svg>