<svg xmlns="http://www.w3.org/2000/svg" viewBox="0 0 24 24"><g id="general"><path fill="currentColor" id="star" d="M14.06,3.23l1.87,3.26a1,1,0,0,0,.67.5l3.6.82A2.45,2.45,0,0,1,22,10.73a2.58,2.58,0,0,1-.55,1.11L19,14.71a1.2,1.2,0,0,0-.25.82l.36,3.76A2.46,2.46,0,0,1,17,22a2.37,2.37,0,0,1-1.2-.2L12.4,20.27a1.11,1.11,0,0,0-.84,0L8.19,21.76A2.4,2.4,0,0,1,5,20.48a2.57,2.57,0,0,1-.19-1.23l.36-3.76a1.12,1.12,0,0,0-.25-.82L2.48,11.8a2.5,2.5,0,0,1,.26-3.46,2.42,2.42,0,0,1,1-.53L7.37,7A1,1,0,0,0,8,6.49L9.91,3.23a2.37,2.37,0,0,1,3.28-.9A2.5,2.5,0,0,1,14.06,3.23Z"/></g></svg>