<svg xmlns="http://www.w3.org/2000/svg" viewBox="0 0 24 24"><g id="general"><path fill="currentColor" id="tag-cross" d="M17.83,3.75H9.73A4.16,4.16,0,0,0,6.6,5.16L3,9.19a4.17,4.17,0,0,0,.06,5.57L6.89,18.9A4.18,4.18,0,0,0,10,20.25h7.87A4.17,4.17,0,0,0,22,16.08V7.92A4.17,4.17,0,0,0,17.83,3.75Zm-1.45,10a.75.75,0,0,1,0,1.06.7.7,0,0,1-.52.22.76.76,0,0,1-.54-.23l-1.78-1.83-1.79,1.83a.74.74,0,0,1-1.06,0,.75.75,0,0,1,0-1.06l1.81-1.85L10.66,10a.75.75,0,0,1,0-1.06.75.75,0,0,1,1.06,0l1.79,1.82L15.3,9a.75.75,0,0,1,1.08,1l-1.81,1.86Z"/></g></svg>