<svg xmlns="http://www.w3.org/2000/svg" viewBox="0 0 24 24"><g id="general"><path fill="currentColor" id="trush-square" d="M16.05,2H8A6,6,0,0,0,2,8v8.1A6,6,0,0,0,8,22h8.1A6,6,0,0,0,22,16.05V8A6,6,0,0,0,16.05,2ZM15.6,16.43a1.37,1.37,0,0,1-1.42,1.17l-4.25,0a1.37,1.37,0,0,1-1.45-1.17l-.41-5.1a.58.58,0,0,1,.62-.57h6.62a.58.58,0,0,1,.62.57Zm1-6.82h-.11a32.8,32.8,0,0,0-9,0A.75.75,0,0,1,6.62,9a.74.74,0,0,1,.62-.86,23.52,23.52,0,0,1,2.6-.27L10,7a1.1,1.1,0,0,1,1-1h2a1.1,1.1,0,0,1,1,1l.13.81c.83.05,1.7.13,2.59.26a.76.76,0,0,1,.63.86A.74.74,0,0,1,16.64,9.61Z"/></g></svg>