<svg xmlns="http://www.w3.org/2000/svg" viewBox="0 0 24 24"><g id="general"><path fill="currentColor" id="verify" d="M21.39,10.53,20,9.12a1,1,0,0,1-.3-.73v-2A2.08,2.08,0,0,0,17.6,4.32h-2a1,1,0,0,1-.73-.3L13.47,2.61a2.08,2.08,0,0,0-2.94,0L9.12,4a1,1,0,0,1-.73.3h-2A2.08,2.08,0,0,0,4.32,6.4v2a1,1,0,0,1-.3.73L2.61,10.53a2.08,2.08,0,0,0,0,2.94L4,14.88a1,1,0,0,1,.3.73v2A2.08,2.08,0,0,0,6.4,19.68h2a1,1,0,0,1,.73.3l1.41,1.41a2.08,2.08,0,0,0,2.94,0L14.88,20a1,1,0,0,1,.73-.3h2a2.08,2.08,0,0,0,2.08-2.08v-2a1,1,0,0,1,.3-.73l1.41-1.41A2.08,2.08,0,0,0,21.39,10.53Zm-5.21-.33L11.27,15a.74.74,0,0,1-.53.22.75.75,0,0,1-.53-.23l-2.37-2.4a.75.75,0,1,1,1.07-1.05l1.84,1.87,4.38-4.28a.75.75,0,0,1,1.06,0A.75.75,0,0,1,16.18,10.2Z"/></g></svg>