<svg xmlns="http://www.w3.org/2000/svg" viewBox="0 0 24 24"><g id="general"><path fill="currentColor" id="wifi-square" d="M16.05,2H8A6,6,0,0,0,2,8v8.1A6,6,0,0,0,8,22h8.1A6,6,0,0,0,22,16.05V8A6,6,0,0,0,16.05,2ZM14.82,16.09a.75.75,0,0,1-.61.32.79.79,0,0,1-.44-.14,2.91,2.91,0,0,0-3.43,0,.75.75,0,0,1-.93-1.18,4.4,4.4,0,0,1,5.23,0A.74.74,0,0,1,14.82,16.09Zm2.25-3a.73.73,0,0,1-1,.16,6.46,6.46,0,0,0-7.89-.16A.75.75,0,0,1,7.08,13,.76.76,0,0,1,7.19,12a8,8,0,0,1,9.73.11A.75.75,0,0,1,17.07,13.12Zm1.47-3.25a.72.72,0,0,1-.61.32.76.76,0,0,1-.43-.14,9,9,0,0,0-11,0,.75.75,0,0,1-1-1.16,10.66,10.66,0,0,1,12.78,0A.74.74,0,0,1,18.54,9.87Z"/></g></svg>