<svg xmlns="http://www.w3.org/2000/svg" viewBox="0 0 24 24"><g id="general"><path fill="currentColor" id="wifi-home" d="M20.77,8.33,14.41,3A3.48,3.48,0,0,0,10,2.89L3.34,8.07A3.47,3.47,0,0,0,2,11.23l.88,7.52a3.48,3.48,0,0,0,3.47,3.08l10.92,0a3.47,3.47,0,0,0,3.43-2.89L22,11.59A3.49,3.49,0,0,0,20.77,8.33ZM12,17.46a1,1,0,1,1,0-2,1,1,0,1,1,0,2ZM14.51,15a.75.75,0,0,1-1.06,0,2.11,2.11,0,0,0-3.11,0A.75.75,0,0,1,9.29,13.9a3.58,3.58,0,0,1,5.22,0A.75.75,0,0,1,14.51,15Zm2.14-2.45a.76.76,0,0,1-1.06.08,5.45,5.45,0,0,0-7.37,0,.75.75,0,1,1-1-1.1s4.6-4.15,9.37,0A.75.75,0,0,1,16.65,12.52Z"/></g></svg>