<svg xmlns="http://www.w3.org/2000/svg" viewBox="0 0 24 24"><g id="business"><path fill="currentColor" id="chart-line-down" d="M21.22,22H8A5.94,5.94,0,0,1,2,16.07V2.76a.76.76,0,0,1,1.52,0V16.07A4.42,4.42,0,0,0,8,20.48H21.22a.76.76,0,0,1,0,1.52Zm.49-5.73a.76.76,0,0,0,.09-1.07l-3.64-4.26a2.72,2.72,0,0,0-3.83-.32l-1,.87a1.2,1.2,0,0,1-1.68-.11L7.45,6.8a.76.76,0,1,0-1.12,1L10.5,12.4a2.72,2.72,0,0,0,3.78.25l1-.87a1.21,1.21,0,0,1,1.7.14l3.63,4.26a.76.76,0,0,0,.58.27A.74.74,0,0,0,21.71,16.27Z"/></g></svg>