<svg xmlns="http://www.w3.org/2000/svg" viewBox="0 0 24 24"><g id="business"><path fill="currentColor" id="chart-simple-3" d="M20.78,22.12H3.22a.75.75,0,1,1,0-1.5H20.78a.75.75,0,0,1,0,1.5Zm-9.72-3H12A1.18,1.18,0,0,0,13.2,18V7.39A1.18,1.18,0,0,0,12,6.21h-.95A1.18,1.18,0,0,0,9.88,7.39V18A1.18,1.18,0,0,0,11.06,19.14Zm-5.54,0h.72a1.3,1.3,0,0,0,1.3-1.3V3.18a1.3,1.3,0,0,0-1.3-1.3H5.52a1.3,1.3,0,0,0-1.3,1.3V17.84A1.3,1.3,0,0,0,5.52,19.14Zm11.19,0h1A1.18,1.18,0,0,0,18.85,18V12.37a1.18,1.18,0,0,0-1.18-1.19h-1a1.18,1.18,0,0,0-1.18,1.19V18A1.18,1.18,0,0,0,16.71,19.14Z"/></g></svg>