<svg xmlns="http://www.w3.org/2000/svg" viewBox="0 0 24 24"><g id="business"><path fill="currentColor" id="chart-simple" d="M20.78,22.06H3.22a.75.75,0,1,1,0-1.5H20.78a.75.75,0,0,1,0,1.5ZM19,17.88V7.41a1.17,1.17,0,0,0-1.17-1.18h-1a1.17,1.17,0,0,0-1.17,1.18V17.88a1.17,1.17,0,0,0,1.17,1.17h1A1.17,1.17,0,0,0,19,17.88Zm-5.71-.12V3.24A1.3,1.3,0,0,0,12,1.94h-.73a1.3,1.3,0,0,0-1.3,1.3V17.76a1.3,1.3,0,0,0,1.3,1.29H12A1.29,1.29,0,0,0,13.25,17.76Zm-5.71.12V12.34a1.18,1.18,0,0,0-1.18-1.18h-1a1.18,1.18,0,0,0-1.18,1.18v5.54A1.17,1.17,0,0,0,5.4,19.05h1A1.17,1.17,0,0,0,7.54,17.88Z"/></g></svg>