<svg xmlns="http://www.w3.org/2000/svg" viewBox="0 0 24 24"><g id="business"><g id="graph-up"><path d="M16.11,2H7.89A6,6,0,0,0,2,8v8a6,6,0,0,0,5.89,6h8.22A6,6,0,0,0,22,16V8A6,6,0,0,0,16.11,2ZM8.3,18.59a.75.75,0,1,1-1.49,0V15.72a.75.75,0,1,1,1.49,0Zm4.81,0a.75.75,0,1,1-1.49,0V14.44a.75.75,0,1,1,1.49,0Zm4.75,0a.75.75,0,1,1-1.5,0V11.77a.75.75,0,1,1,1.5,0ZM17.86,8a.75.75,0,1,1-1.5,0V7.74a13.12,13.12,0,0,1-8.55,4.35h0a.77.77,0,0,1,0-1.53,11.65,11.65,0,0,0,7.75-4.15h-.75a.76.76,0,0,1,0-1.52h2.41l.15,0,.14.07.07,0s0,0,0,0l.1.12a.5.5,0,0,1,.08.12s0,.08.05.13l0,.15s0,0,0,.06Z"/></g></g></svg>