<svg xmlns="http://www.w3.org/2000/svg" viewBox="0 0 24 24"><g id="abstract"><path fill="currentColor" id="abstract-12" d="M13,22.75H11A1.75,1.75,0,0,1,9.25,21V18A1.75,1.75,0,0,1,11,16.25h2A1.76,1.76,0,0,1,14.75,18v3A1.75,1.75,0,0,1,13,22.75Zm-2-5a.25.25,0,0,0-.25.25v3a.25.25,0,0,0,.25.25h2a.25.25,0,0,0,.25-.25V18a.25.25,0,0,0-.25-.25Zm6.7-6.13a1.82,1.82,0,0,1-.46-.06,1.71,1.71,0,0,1-1.06-.82L15.18,9a1.76,1.76,0,0,1,.64-2.39l2.6-1.5a1.76,1.76,0,0,1,1.33-.18,1.71,1.71,0,0,1,1.06.82l1,1.73a1.76,1.76,0,0,1-.64,2.39l-2.6,1.5A1.7,1.7,0,0,1,17.7,11.62Zm1.59-5.24a.21.21,0,0,0-.12,0l-2.6,1.5a.25.25,0,0,0-.09.34l1,1.73a.23.23,0,0,0,.15.12.23.23,0,0,0,.19,0h0l2.6-1.5a.25.25,0,0,0,.09-.34l-1-1.73a.23.23,0,0,0-.15-.12Zm-13,5.24a1.7,1.7,0,0,1-.87-.24l-2.6-1.5a1.76,1.76,0,0,1-.64-2.39l1-1.73a1.75,1.75,0,0,1,2.39-.64l2.6,1.5h0A1.76,1.76,0,0,1,8.82,9l-1,1.73a1.71,1.71,0,0,1-1.06.82A1.82,1.82,0,0,1,6.3,11.62ZM4.71,6.38H4.64a.23.23,0,0,0-.15.12l-1,1.73a.23.23,0,0,0,0,.19.23.23,0,0,0,.12.15l2.6,1.5a.23.23,0,0,0,.19,0A.23.23,0,0,0,6.52,10l1-1.73a.25.25,0,0,0-.09-.34l-2.6-1.5A.21.21,0,0,0,4.71,6.38ZM19.29,19.12a1.7,1.7,0,0,1-.87-.24l-2.6-1.5A1.73,1.73,0,0,1,15,16.32,1.77,1.77,0,0,1,15.18,15l1-1.73a1.71,1.71,0,0,1,1.06-.82,1.76,1.76,0,0,1,1.33.18l2.6,1.5h0a1.76,1.76,0,0,1,.64,2.39l-1,1.73a1.71,1.71,0,0,1-1.06.82A1.82,1.82,0,0,1,19.29,19.12ZM17.7,13.88h-.07a.23.23,0,0,0-.15.12l-1,1.73a.28.28,0,0,0,0,.19.27.27,0,0,0,.12.15l2.6,1.5a.23.23,0,0,0,.19,0,.23.23,0,0,0,.15-.12l1-1.73a.25.25,0,0,0-.09-.34l-2.6-1.5A.21.21,0,0,0,17.7,13.88Zm-13,5.24a1.75,1.75,0,0,1-1.52-.88l-1-1.73a1.76,1.76,0,0,1,.64-2.39l2.6-1.5a1.74,1.74,0,0,1,2.39.64l1,1.73A1.77,1.77,0,0,1,9,16.32a1.73,1.73,0,0,1-.81,1.06l-2.6,1.5A1.7,1.7,0,0,1,4.71,19.12ZM6.3,13.88a.21.21,0,0,0-.12,0l-2.6,1.5a.25.25,0,0,0-.09.34l1,1.73a.25.25,0,0,0,.34.09h0l2.6-1.5a.27.27,0,0,0,.12-.15.23.23,0,0,0,0-.19L6.52,14a.23.23,0,0,0-.15-.12ZM13,7.75H11A1.75,1.75,0,0,1,9.25,6V3A1.75,1.75,0,0,1,11,1.25h2A1.76,1.76,0,0,1,14.75,3V6A1.75,1.75,0,0,1,13,7.75Zm-2-5a.25.25,0,0,0-.25.25V6a.25.25,0,0,0,.25.25h2A.25.25,0,0,0,13.25,6V3A.25.25,0,0,0,13,2.75Z"/></g></svg>