<svg xmlns="http://www.w3.org/2000/svg" viewBox="0 0 24 24"><g id="abstract"><path fill="currentColor" id="abstract-29" d="M5,8.25A3.25,3.25,0,1,1,8.25,5,3.26,3.26,0,0,1,5,8.25Zm0-5A1.75,1.75,0,1,0,6.75,5,1.76,1.76,0,0,0,5,3.25Zm14,19A3.25,3.25,0,1,1,22.25,19,3.26,3.26,0,0,1,19,22.25Zm0-5A1.75,1.75,0,1,0,20.75,19,1.76,1.76,0,0,0,19,17.25Zm-7,5A3.25,3.25,0,1,1,15.25,19,3.26,3.26,0,0,1,12,22.25Zm0-5A1.75,1.75,0,1,0,13.75,19,1.76,1.76,0,0,0,12,17.25Zm-7,5A3.25,3.25,0,1,1,8.25,19,3.26,3.26,0,0,1,5,22.25Zm0-5A1.75,1.75,0,1,0,6.75,19,1.76,1.76,0,0,0,5,17.25Zm14-2A3.25,3.25,0,1,1,22.25,12,3.26,3.26,0,0,1,19,15.25Zm0-5A1.75,1.75,0,1,0,20.75,12,1.76,1.76,0,0,0,19,10.25Zm-7,5A3.25,3.25,0,1,1,15.25,12,3.26,3.26,0,0,1,12,15.25Zm0-5A1.75,1.75,0,1,0,13.75,12,1.76,1.76,0,0,0,12,10.25Zm-7,5A3.25,3.25,0,1,1,8.25,12,3.26,3.26,0,0,1,5,15.25Zm0-5A1.75,1.75,0,1,0,6.75,12,1.76,1.76,0,0,0,5,10.25Zm14-2A3.25,3.25,0,1,1,22.25,5,3.26,3.26,0,0,1,19,8.25Zm0-5A1.75,1.75,0,1,0,20.75,5,1.76,1.76,0,0,0,19,3.25Zm-7,5A3.25,3.25,0,1,1,15.25,5,3.26,3.26,0,0,1,12,8.25Zm0-5A1.75,1.75,0,1,0,13.75,5,1.76,1.76,0,0,0,12,3.25Z"/></g></svg>