<svg xmlns="http://www.w3.org/2000/svg" viewBox="0 0 24 24"><g id="abstract"><path fill="currentColor" id="abstract-25" d="M7,21a2.76,2.76,0,0,1-1.37-.37l-3-1.73a2.78,2.78,0,0,1-1.37-2.38V13a2.77,2.77,0,0,1,1.37-2.38L4.75,9.43a.75.75,0,0,1,1,.28.74.74,0,0,1-.27,1L3.37,12A1.26,1.26,0,0,0,2.75,13v3.47a1.26,1.26,0,0,0,.62,1.08l3,1.73a1.27,1.27,0,0,0,1.25,0L9.87,18a.75.75,0,1,1,.75,1.3l-2.25,1.3A2.76,2.76,0,0,1,7,21Zm12.8.08h0a1.58,1.58,0,0,1-1.6,0h0a1.6,1.6,0,0,1-.8-1.38h0a1.6,1.6,0,0,1,.8-1.38h0a1.58,1.58,0,0,1,1.6,0h0a1.6,1.6,0,0,1,.8,1.38h0A1.6,1.6,0,0,1,19.8,21.07Zm-3.43-2.83,5-2.89A2.76,2.76,0,0,0,22.75,13V7.2a2.77,2.77,0,0,0-1.38-2.39l-5-2.88a2.76,2.76,0,0,0-2.75,0l-5,2.88A2.78,2.78,0,0,0,7.25,7.2V13a2.77,2.77,0,0,0,1.37,2.38l5,2.89A2.81,2.81,0,0,0,15,18.6,2.75,2.75,0,0,0,16.37,18.24Zm-.75-15,5,2.88a1.26,1.26,0,0,1,.63,1.09V13a1.25,1.25,0,0,1-.63,1.08l-5,2.89a1.27,1.27,0,0,1-1.25,0l-5-2.89A1.26,1.26,0,0,1,8.75,13V7.2a1.28,1.28,0,0,1,.62-1.09l5-2.88A1.29,1.29,0,0,1,15,3.06,1.23,1.23,0,0,1,15.62,3.23Z"/></g></svg>