<svg xmlns="http://www.w3.org/2000/svg" viewBox="0 0 24 24"><g id="abstract"><path fill="currentColor" id="abstract-37" d="M22.75,12A5.72,5.72,0,0,0,20.2,7.23a5.73,5.73,0,0,0-2.83-4.54A5.67,5.67,0,0,0,13,2.12a5.51,5.51,0,0,0-1,.39,5.76,5.76,0,0,0-5.34.18A5.68,5.68,0,0,0,4,6.18a6.14,6.14,0,0,0-.19,1.11,5.71,5.71,0,0,0,0,9.49,5.69,5.69,0,0,0,5.69,5.3A5.92,5.92,0,0,0,12,21.49a5.71,5.71,0,0,0,8.19-4.78A5.74,5.74,0,0,0,22.75,12Zm-1.5,0a4.19,4.19,0,0,1-1.18,2.92,5.39,5.39,0,0,0-.22-.68s0-.08-.05-.13a5.4,5.4,0,0,0-.92-1.49l-.07-.09a5.55,5.55,0,0,0-.71-.66l-.12-.1a6.87,6.87,0,0,0-.81-.51L17,11.19a5.53,5.53,0,0,0-.91-.35l0,0a4.25,4.25,0,0,0-1.55-2.23,4,4,0,0,1,.34-.23L15,8.3a4.21,4.21,0,0,1,4.15,0h0A4.25,4.25,0,0,1,21.25,12ZM11,14.56h0A2.73,2.73,0,0,1,9.3,12.44,2.12,2.12,0,0,1,9.25,12a2.76,2.76,0,0,1,1-2.12h0A2.66,2.66,0,0,1,13,9.44h0a2.71,2.71,0,0,1,1.73,2.12,2.12,2.12,0,0,1,.05.44,2.73,2.73,0,0,1-1,2.12A2.66,2.66,0,0,1,11,14.56Zm2.37-11a4.69,4.69,0,0,1,1.11-.14A4.18,4.18,0,0,1,16.62,4a4.13,4.13,0,0,1,1.94,2.48c-.23-.06-.46-.11-.7-.15H17.8a7,7,0,0,0-.8-.06A5.66,5.66,0,0,0,14.24,7h0a5.68,5.68,0,0,0-1.17.86l0,0a4.15,4.15,0,0,0-2.72.23,4.07,4.07,0,0,1,0-.78l0-.22a3.86,3.86,0,0,1,.12-.59l.06-.23a3.79,3.79,0,0,1,.33-.74,4.82,4.82,0,0,1,.4-.57l.22-.24.16-.15A4.65,4.65,0,0,1,12.38,4h0A4.55,4.55,0,0,1,13.4,3.56Zm-8,3A4.23,4.23,0,0,1,9.47,3.42a4.54,4.54,0,0,1,1,.13l-.13.14c-.1.11-.2.21-.29.32a4.9,4.9,0,0,0-.56.79,5.19,5.19,0,0,0-.42.93.49.49,0,0,0,0,.11,4.42,4.42,0,0,0-.22.94l0,.16a5,5,0,0,0,0,.95,1,1,0,0,0,0,.17,5.32,5.32,0,0,0,.15,1v.05a4.22,4.22,0,0,0-1.16,2.46,4.09,4.09,0,0,1-.68-.38c-.07,0-.12-.09-.18-.13a4.4,4.4,0,0,1-.46-.4l-.16-.17a4.36,4.36,0,0,1-.48-.65,4.42,4.42,0,0,1-.29-.63c0-.1-.07-.2-.1-.31s0-.15,0-.23a4.19,4.19,0,0,1-.11-1v0A4.06,4.06,0,0,1,5.4,6.57ZM2.75,12A4.17,4.17,0,0,1,3.93,9.08L4,9.25c0,.14.08.28.13.42a5.8,5.8,0,0,0,.4.88,5.33,5.33,0,0,0,.59.82l.08.1a6.22,6.22,0,0,0,.7.66l.14.1a5.1,5.1,0,0,0,.8.5l.15.08a5.53,5.53,0,0,0,.91.35l0,0a4.25,4.25,0,0,0,1.55,2.23,3.62,3.62,0,0,1-.32.22L9,15.7a4.19,4.19,0,0,1-4.14,0h0A4.22,4.22,0,0,1,2.75,12Zm7.85,8.44A4.24,4.24,0,0,1,7.37,20a4.12,4.12,0,0,1-1.93-2.48c.23.06.47.11.71.15h0a7,7,0,0,0,.81.06A5.66,5.66,0,0,0,9.76,17h0a5.37,5.37,0,0,0,1.16-.86l0,0a4.08,4.08,0,0,0,2.72-.24,4.19,4.19,0,0,1,0,.79l0,.22a3.19,3.19,0,0,1-.12.6l-.06.22a4.17,4.17,0,0,1-.33.75,5.66,5.66,0,0,1-.4.56l-.22.24-.16.15a4.16,4.16,0,0,1-.78.58h0A4.55,4.55,0,0,1,10.6,20.44Zm6-.43a4.17,4.17,0,0,1-3.12.44,1.79,1.79,0,0,1,.13-.14c.1-.11.2-.21.29-.32a6.16,6.16,0,0,0,.56-.78,5.63,5.63,0,0,0,.42-.94.49.49,0,0,0,0-.11,4.42,4.42,0,0,0,.22-.94l0-.16a5,5,0,0,0,0-.95,1,1,0,0,0,0-.17,5.32,5.32,0,0,0-.15-1v-.05a4.19,4.19,0,0,0,1.16-2.46,4.09,4.09,0,0,1,.68.38c.07,0,.12.09.18.13a3.55,3.55,0,0,1,.46.41l.16.16a4,4,0,0,1,.48.66h0a5.24,5.24,0,0,1,.29.64,2.76,2.76,0,0,1,.08.27c0,.1.05.21.08.31a5,5,0,0,1,.09.88h0A4.23,4.23,0,0,1,16.62,20Z"/></g></svg>