<svg xmlns="http://www.w3.org/2000/svg" viewBox="0 0 24 24"><g id="abstract"><path fill="currentColor" id="abstract-38" d="M22.49,15.26a.73.73,0,0,0-.65-.38H9l2.89-5L14.23,14a.74.74,0,0,0,.65.37h5.81a.75.75,0,0,0,.65-1.12L16,4a2.79,2.79,0,0,0-2.41-1.39H8.94A.74.74,0,0,0,8.29,3L1.78,14.24a2.78,2.78,0,0,0,0,2.79l2.31,4a.74.74,0,0,0,.65.38h13A2.81,2.81,0,0,0,20.18,20l2.31-4A.7.7,0,0,0,22.49,15.26ZM14.68,4.73l4.71,8.15H15.31l-4.7-8.15-.37-.64h3.33A1.31,1.31,0,0,1,14.68,4.73ZM3.08,15,8.94,4.84l2,3.53L4.82,19l-.08.13L3.08,16.28A1.29,1.29,0,0,1,3.08,15Zm15.8,4.27a1.3,1.3,0,0,1-1.12.65H6l2-3.53H20.54Z"/></g></svg>