<svg xmlns="http://www.w3.org/2000/svg" viewBox="0 0 24 24"><g id="abstract"><path fill="currentColor" id="abstract-49" d="M16.5,5.75H14a1.79,1.79,0,0,0-1.79,1.79v3.71h-.5V7.54A1.79,1.79,0,0,0,10,5.75H7.5a6.25,6.25,0,0,0,0,12.5H10a1.79,1.79,0,0,0,1.79-1.79V12.75h.5v3.71A1.79,1.79,0,0,0,14,18.25H16.5a6.25,6.25,0,0,0,0-12.5ZM10.25,16.46a.29.29,0,0,1-.29.29H7.5a4.75,4.75,0,0,1,0-9.5H10a.29.29,0,0,1,.29.29v3.71H8.06a.75.75,0,0,0,0,1.5h2.19Zm6.25.29H14a.29.29,0,0,1-.29-.29V12.75h2.33a.75.75,0,0,0,0-1.5H13.75V7.54A.29.29,0,0,1,14,7.25H16.5a4.75,4.75,0,0,1,0,9.5Z"/></g></svg>