<svg xmlns="http://www.w3.org/2000/svg" viewBox="0 0 24 24"><g id="abstract"><path fill="currentColor" id="abstract-18" d="M18,22.75H6A1.72,1.72,0,0,1,4.65,20l5.18-6.46a2.78,2.78,0,0,1,4.34,0L19.35,20A1.72,1.72,0,0,1,18,22.75ZM12,14a1.29,1.29,0,0,0-1,.48L5.82,20.91a.22.22,0,0,0,0,.22.2.2,0,0,0,.19.12H18a.2.2,0,0,0,.19-.12.21.21,0,0,0,0-.22L13,14.45A1.29,1.29,0,0,0,12,14Zm0-2.44a2.77,2.77,0,0,1-2.17-1L4.65,4A1.72,1.72,0,0,1,6,1.25H18A1.72,1.72,0,0,1,19.35,4h0l-5.18,6.46A2.77,2.77,0,0,1,12,11.53ZM6,2.75a.2.2,0,0,0-.19.12.21.21,0,0,0,0,.22L11,9.55a1.32,1.32,0,0,0,2,0l5.17-6.46a.21.21,0,0,0,0-.22A.2.2,0,0,0,18,2.75Zm12.77.81h0Z"/></g></svg>