<svg xmlns="http://www.w3.org/2000/svg" viewBox="0 0 24 24"><g id="map-navigation"><path fill="currentColor" id="map" d="M7.75,8.41A1.36,1.36,0,1,1,9.11,9.76,1.35,1.35,0,0,1,7.75,8.41ZM22,8v8.1A6,6,0,0,1,16.05,22H8A6,6,0,0,1,2,16.05V8A6,6,0,0,1,8,2h8.1A6,6,0,0,1,22,8ZM6.42,10.81l1.83,2.06a1.15,1.15,0,0,0,1.71,0l1.84-2.06a3.58,3.58,0,0,0,.92-2.4,3.61,3.61,0,1,0-6.3,2.4Zm8.85,3.08L21.91,7a5.91,5.91,0,0,0-.52-1.62L5.91,21.48l-.08.12A5.87,5.87,0,0,0,7.51,22l6.72-7,5.24,5.33a.76.76,0,0,0,.5.22,6.62,6.62,0,0,0,.77-.82.65.65,0,0,0-.2-.45Z"/></g></svg>