<svg xmlns="http://www.w3.org/2000/svg" viewBox="0 0 24 24"><g id="map-navigation"><path fill="currentColor" id="satellite" d="M7,18.48a3.55,3.55,0,0,1,.73.08,3.62,3.62,0,0,1,2.72,2.36A.81.81,0,0,1,9.71,22H4.32a.81.81,0,0,1-.76-1.08,3.56,3.56,0,0,1,2.7-2.35A3.68,3.68,0,0,1,7,18.48Zm6.22-7.31c.34-.31.68-.61,1-.88a.75.75,0,0,0-1-1.16c-.23.2-.63.54-1.12,1l.25.24L6.71,4.66a.58.58,0,0,0-.86,0c-2.12,2.7-1.41,7.19,1.67,10.55a6.43,6.43,0,0,0-1.28,3.33h0A3.68,3.68,0,0,1,7,18.48a3.55,3.55,0,0,1,.73.08h0a4.09,4.09,0,0,1,.86-2.26h0c3.33,2.85,7.65,3.43,10.26,1.37a.59.59,0,0,0,0-.87ZM14,7c.27,0,2.63.18,2.54,2.45a.75.75,0,0,0,.72.78h0A.74.74,0,0,0,18,9.49a3.55,3.55,0,0,0-.91-2.67,4.84,4.84,0,0,0-3.07-1.34.72.72,0,0,0-.78.72A.75.75,0,0,0,14,7Zm.08-5a.77.77,0,0,0-.8.69A.75.75,0,0,0,14,3.5c.25,0,6,.51,6.08,6a.75.75,0,0,0,.75.73h0a.75.75,0,0,0,.73-.76C21.43,4,16.61,2.19,14.07,2Z"/></g></svg>