<svg xmlns="http://www.w3.org/2000/svg" viewBox="0 0 24 24"><defs><style>.cls-1{opacity:0.3;}</style></defs><g id="weather"><path d="M11.34,10.93a7.62,7.62,0,0,1-.22-6.18A1.29,1.29,0,0,0,9.43,3.09a9.55,9.55,0,0,0-3,1.84A9.26,9.26,0,0,0,9.1,20.24a10.68,10.68,0,0,1-.32-2.56A9.93,9.93,0,0,1,11.34,10.93Z"/><g class="cls-1"><path d="M18.31,19.16a9,9,0,0,0,1.92-1.94,1.3,1.3,0,0,0-1.14-2.07,7.46,7.46,0,0,1-7.75-4.22,9.93,9.93,0,0,0-2.56,6.75,10.68,10.68,0,0,0,.32,2.56A9.25,9.25,0,0,0,18.31,19.16Z"/></g></g></svg>