<svg xmlns="http://www.w3.org/2000/svg" viewBox="0 0 24 24"><defs><style>.cls-1{opacity:0.3;}</style></defs><g id="weather"><g id="night-day"><path d="M11.56,12.07A5,5,0,0,0,15,16.82a5.68,5.68,0,0,0,.15-9.55A5,5,0,0,0,11.56,12.07Z"/><g class="cls-1"><path d="M10.19,12.07a6.36,6.36,0,0,1,3.27-5.56A5.42,5.42,0,0,0,12,6.31a5.69,5.69,0,0,0,0,11.38,5.58,5.58,0,0,0,1.3-.16A6.36,6.36,0,0,1,10.19,12.07Z"/></g><path d="M12,4.7A.75.75,0,0,1,11.25,4V2.77a.75.75,0,1,1,1.5,0V4A.75.75,0,0,1,12,4.7Z"/><path d="M12,22a.76.76,0,0,1-.75-.75V20.05a.75.75,0,1,1,1.5,0v1.18A.76.76,0,0,1,12,22Z"/><path d="M6.31,7.06a.74.74,0,0,1-.53-.22L4.94,6A.76.76,0,1,1,6,4.94l.83.84a.75.75,0,0,1,0,1.06A.74.74,0,0,1,6.31,7.06Z"/><path d="M18.52,19.28a.79.79,0,0,1-.53-.22l-.83-.84a.75.75,0,1,1,1.06-1.06l.84.83a.77.77,0,0,1,0,1.07A.79.79,0,0,1,18.52,19.28Z"/><path d="M4,12.75H2.77a.75.75,0,1,1,0-1.5H4a.75.75,0,0,1,0,1.5Z"/><path d="M21.23,12.75H20.05a.75.75,0,1,1,0-1.5h1.18a.75.75,0,1,1,0,1.5Z"/><path d="M5.48,19.28a.79.79,0,0,1-.54-.22.77.77,0,0,1,0-1.07l.84-.83a.75.75,0,1,1,1.06,1.06L6,19.06A.79.79,0,0,1,5.48,19.28Z"/><path d="M17.69,7.06a.74.74,0,0,1-.53-.22.75.75,0,0,1,0-1.06L18,4.94A.76.76,0,1,1,19.06,6l-.84.83A.74.74,0,0,1,17.69,7.06Z"/></g></g></svg>