<svg xmlns="http://www.w3.org/2000/svg" viewBox="0 0 24 24"><defs><style>.cls-1{opacity:0.3;}</style></defs><g id="weather"><g id="sun"><path d="M12,4.7A.75.75,0,0,1,11.25,4V2.77a.75.75,0,1,1,1.5,0V4A.75.75,0,0,1,12,4.7Z"/><path d="M12,22a.76.76,0,0,1-.75-.75V20.05a.75.75,0,1,1,1.5,0v1.18A.76.76,0,0,1,12,22Z"/><path d="M6.31,7.06a.74.74,0,0,1-.53-.22L4.94,6A.76.76,0,1,1,6,4.94l.83.84a.75.75,0,0,1,0,1.06A.74.74,0,0,1,6.31,7.06Z"/><path d="M18.52,19.28a.79.79,0,0,1-.53-.22l-.83-.84a.75.75,0,1,1,1.06-1.06l.84.83a.77.77,0,0,1,0,1.07A.79.79,0,0,1,18.52,19.28Z"/><path d="M4,12.75H2.77a.75.75,0,1,1,0-1.5H4a.75.75,0,0,1,0,1.5Z"/><path d="M21.23,12.75H20.05a.75.75,0,1,1,0-1.5h1.18a.75.75,0,1,1,0,1.5Z"/><path d="M5.48,19.28a.79.79,0,0,1-.54-.22.77.77,0,0,1,0-1.07l.84-.83a.75.75,0,1,1,1.06,1.06L6,19.06A.79.79,0,0,1,5.48,19.28Z"/><path d="M17.69,7.06a.74.74,0,0,1-.53-.22.75.75,0,0,1,0-1.06L18,4.94A.76.76,0,1,1,19.06,6l-.84.83A.74.74,0,0,1,17.69,7.06Z"/><g class="cls-1"><circle cx="12" cy="12" r="5.62"/></g></g></g></svg>