<svg xmlns="http://www.w3.org/2000/svg" viewBox="0 0 24 24"><g id="design"><path fill="currentColor" id="additem" d="M19,7.25H13.54A3.73,3.73,0,0,0,9.82,11V19a3.73,3.73,0,0,0,3.72,3.72H19A3.73,3.73,0,0,0,22.75,19V11A3.73,3.73,0,0,0,19,7.25ZM21.25,19A2.23,2.23,0,0,1,19,21.25H13.54A2.23,2.23,0,0,1,11.32,19V11a2.23,2.23,0,0,1,2.22-2.22H19A2.23,2.23,0,0,1,21.25,11ZM8.33,16a.76.76,0,0,1-.75.75H5A3.73,3.73,0,0,1,1.25,13V5A3.73,3.73,0,0,1,5,1.25h5.49A3.73,3.73,0,0,1,14.18,5a.75.75,0,0,1-1.5,0,2.23,2.23,0,0,0-2.22-2.22H5A2.23,2.23,0,0,0,2.75,5V13A2.23,2.23,0,0,0,5,15.25H7.58A.76.76,0,0,1,8.33,16Zm10.55-1a.75.75,0,0,1-.75.75h-.88v.88a.75.75,0,0,1-1.5,0v-.88h-.88a.75.75,0,1,1,0-1.5h.88v-.88a.75.75,0,1,1,1.5,0v.88h.88A.75.75,0,0,1,18.88,15Z"/></g></svg>