<svg xmlns="http://www.w3.org/2000/svg" viewBox="0 0 24 24"><g id="design"><path d="M19.87,13.25h-2.4l1.7-1.7a2.89,2.89,0,0,0,0-4.07L16.52,4.83a2.89,2.89,0,0,0-4.07,0l-1.7,1.7V4.13A2.88,2.88,0,0,0,7.87,1.25H4.13A2.88,2.88,0,0,0,1.25,4.13V18A4.75,4.75,0,0,0,6,22.75H19.87a2.88,2.88,0,0,0,2.88-2.88V16.13A2.88,2.88,0,0,0,19.87,13.25Zm-9.12-4.6L13.51,5.9a1.38,1.38,0,0,1,2,0L18.1,8.54a1.38,1.38,0,0,1,0,2l-2.75,2.76h0l-4.6,4.6ZM9.25,18a3.25,3.25,0,0,1-1.92,3l-.07,0a4,4,0,0,1-.49.15.53.53,0,0,1-.12,0,2.81,2.81,0,0,1-.65.07A3.26,3.26,0,0,1,2.75,18V4.13A1.38,1.38,0,0,1,4.13,2.75H7.87A1.38,1.38,0,0,1,9.25,4.13Zm12,1.87a1.38,1.38,0,0,1-1.38,1.38H9.47l.5-.5h0l6-6h3.9a1.38,1.38,0,0,1,1.38,1.38Z"/><path d="M6,20.12a2,2,0,1,1,2-2A2,2,0,0,1,6,20.12Zm0-2.56a.53.53,0,1,0,.53.53A.53.53,0,0,0,6,17.56Z"/></g></svg>