<svg xmlns="http://www.w3.org/2000/svg" viewBox="0 0 24 24"><g id="design"><path fill="currentColor" id="copy-success" d="M19.34,16.6a.74.74,0,0,1-.72-.54.75.75,0,0,1,.51-.93,2.93,2.93,0,0,0,2.12-2.82V5.68a2.93,2.93,0,0,0-2.93-2.93H11.69A2.94,2.94,0,0,0,9,4.54.75.75,0,1,1,7.6,4a4.43,4.43,0,0,1,4.09-2.71h6.63a4.44,4.44,0,0,1,4.43,4.43v6.63a4.47,4.47,0,0,1-3.21,4.27A.71.71,0,0,1,19.34,16.6Zm-2.59,1.72V11.69a4.44,4.44,0,0,0-4.44-4.44H5.68a4.44,4.44,0,0,0-4.43,4.44v6.63a4.44,4.44,0,0,0,4.43,4.43h6.63A4.44,4.44,0,0,0,16.75,18.32ZM12.31,8.75a2.94,2.94,0,0,1,2.94,2.94v6.63a2.94,2.94,0,0,1-2.94,2.93H5.68a2.93,2.93,0,0,1-2.93-2.93V11.69A2.94,2.94,0,0,1,5.68,8.75Zm.53,3.71a.75.75,0,0,0-1.06,0L8.61,15.5,7.37,14.23a.75.75,0,0,0-1.07,1l1.76,1.8a.76.76,0,0,0,1.06,0l3.7-3.57A.75.75,0,0,0,12.84,12.46Z"/></g></svg>