<svg xmlns="http://www.w3.org/2000/svg" viewBox="0 0 24 24"><g id="design"><path fill="currentColor" id="pencxil" d="M21.93,4.94,19.06,2.07a2.84,2.84,0,0,0-3.94,0L13,4.22h0L3.6,13.58a.74.74,0,0,0-.16.27l0,0-2.06,6.2a1.85,1.85,0,0,0-.11.56s0,0,0,.06a1.9,1.9,0,0,0,.25,1s.06.07.08.11a1.7,1.7,0,0,0,.26.34h0a2,2,0,0,0,1.43.6,2.06,2.06,0,0,0,.65-.11l6.2-2.06h0a.77.77,0,0,0,.27-.17L19.78,11l2.15-2.16a2.74,2.74,0,0,0,.82-2A2.77,2.77,0,0,0,21.93,4.94ZM9.89,18.8,7.54,16.46,5.19,14.11l8.3-8.29,4.7,4.69ZM3.45,21.22l-.19,0A.53.53,0,0,1,3,21.13l0,0a.54.54,0,0,1-.16-.35.68.68,0,0,1,0-.19L3,19.81,4.19,21Zm2.33-.77L3.55,18.22l.91-2.72,2,2,2,2ZM20.87,7.82,19.25,9.45l-4.7-4.7,1.63-1.62a1.29,1.29,0,0,1,1.82,0L20.87,6A1.29,1.29,0,0,1,20.87,7.82Z"/></g></svg>