<svg xmlns="http://www.w3.org/2000/svg" viewBox="0 0 24 24"><g id="abstract"><path d="M9.36,17.72h0a3.68,3.68,0,0,1-2-1,3.74,3.74,0,0,1-1-1.86,3.62,3.62,0,0,1,.18-2.11,4,4,0,0,1,.32-.62,3.26,3.26,0,0,1,.49-.62,3.72,3.72,0,0,1,1.9-1,3.35,3.35,0,0,1,.71-.07H10a3.54,3.54,0,0,1,2,.64,3.6,3.6,0,0,1,1.31,1.67,2.33,2.33,0,0,0,.59.08,2.83,2.83,0,0,0,1-.2,2.78,2.78,0,0,0,.88-.59,2.73,2.73,0,0,0,.59-.87,2.84,2.84,0,0,0,.21-1V9.86a8.31,8.31,0,0,0-1.08-1.35c-.14-.14-.8-.7-.83-.72A7.87,7.87,0,0,0,10,6.14H9.82a8.42,8.42,0,0,0-1,.07l-.4.08-.69.16L7.3,6.6l-.63.25L6.28,7a2.26,2.26,0,0,0-.22.11c-.14.07-.27.17-.4.25l-.22.13h0a7.83,7.83,0,0,0-2.29,2.4A8,8,0,0,0,2,13.8a7.87,7.87,0,0,0,.89,3.92A7.9,7.9,0,0,0,9.41,22a7.91,7.91,0,0,0,7-3.37,8.92,8.92,0,0,1-2.51.42A8.85,8.85,0,0,1,9.36,17.72Z"/><path d="M21.22,6.49a7.93,7.93,0,0,0-4.95-4.18A7.82,7.82,0,0,0,13,2.08,7.89,7.89,0,0,0,7.49,5.51,8.94,8.94,0,0,1,10,5.15a8.81,8.81,0,0,1,4.62,1.29,3.6,3.6,0,0,1,2,1,3.67,3.67,0,0,1,1,1.85,3.62,3.62,0,0,1-.18,2.11,3,3,0,0,1-.19.41,3.6,3.6,0,0,0,.2-.39,3.91,3.91,0,0,1-.83,1.29,3.67,3.67,0,0,1-6-1.26L10,11.38a2.63,2.63,0,0,0-1.07.22,2.76,2.76,0,0,0-.9.61,2.87,2.87,0,0,0-.58.92,2.66,2.66,0,0,0-.17,1.08v.25A8.13,8.13,0,0,0,8.32,15.8a7.92,7.92,0,0,0,3.57,2.05,11.65,11.65,0,0,0,2,.18,7.93,7.93,0,0,0,3-.61,7.75,7.75,0,0,0,2.57-1.74A7.75,7.75,0,0,0,21.4,13a7.93,7.93,0,0,0-.18-6.47Z"/></g></svg>