<svg xmlns="http://www.w3.org/2000/svg" viewBox="0 0 24 24"><g id="abstract"><path d="M21.78,5.75v0L19,3a1.54,1.54,0,0,0-1.57-.4c-2.78,1-10.25.81-11.71-.39h0L3,5a1.54,1.54,0,0,0-.39,1.59,18.88,18.88,0,0,1,.65,5.32c0,3.8-.7,5.95-1,6.34v0L5,21a1.54,1.54,0,0,0,1.57.4c2.78-.95,10.25-.81,11.71.39h0L21,19a1.54,1.54,0,0,0,.4-1.57C20.44,14.68,20.58,7.21,21.78,5.75ZM16.06,16.06a29.23,29.23,0,0,0-8.09,0,27.8,27.8,0,0,0,.27-4.16A29.68,29.68,0,0,0,8,7.94H8a27.56,27.56,0,0,0,4,.29,28.11,28.11,0,0,0,4.06-.29A29.06,29.06,0,0,0,16.06,16.06Z"/></g></svg>