<svg xmlns="http://www.w3.org/2000/svg" viewBox="0 0 24 24"><g id="abstract"><path fill="currentColor" id="abstract-40" d="M15.89,15a3.93,3.93,0,0,0,.11-.92,3.86,3.86,0,0,0-.54-2,4,4,0,0,0-3.46-2,6.2,6.2,0,0,0-.62.06c-4,.51-6.73,4.05-8.78,7.49L10.88,3.24a1.29,1.29,0,0,1,2.24,0l.3.53C15.35,7.2,17,11.25,15.89,15Zm5.93,3.35L13.42,3.77C15.35,7.2,17,11.25,15.89,15a.93.93,0,0,0,0,.13,3.94,3.94,0,0,1-.35.88A4,4,0,0,1,12,18.05a3.92,3.92,0,0,1-2.44-.84c2.81,2.7,7.23,3.05,11.14,3.05A1.29,1.29,0,0,0,21.82,18.32ZM10.36,20.26H3.3a1.29,1.29,0,0,1-1.12-1.94l.42-.72c2.05-3.44,4.76-7,8.78-7.49-2.67.38-4,3.11-3.57,5.56a7.86,7.86,0,0,0,.91,2.65A7.35,7.35,0,0,0,10.36,20.26Z"/></g></svg>