<svg xmlns="http://www.w3.org/2000/svg" viewBox="0 0 24 24"><g id="location"><g id="compass"><path d="M15.85,5.8,8.59,8.59,5.8,15.85a1.81,1.81,0,0,0,1.69,2.47,1.88,1.88,0,0,0,.66-.12l7.26-2.79L18.2,8.15A1.82,1.82,0,0,0,15.85,5.8Zm-8.23,11a.32.32,0,0,1-.35-.07.34.34,0,0,1-.07-.35l2.26-5.86,4,4ZM16.8,7.61l-2.26,5.87-4-4L16.39,7.2a.31.31,0,0,1,.34.07A.33.33,0,0,1,16.8,7.61ZM12,1.25A10.75,10.75,0,1,0,22.75,12,10.76,10.76,0,0,0,12,1.25Zm0,20A9.25,9.25,0,1,1,21.25,12,9.26,9.26,0,0,1,12,21.25Z"/></g></g></svg>