<svg xmlns="http://www.w3.org/2000/svg" viewBox="0 0 24 24"><g id="location"><g id="focus"><path d="M22,11.25H20.05A8.1,8.1,0,0,0,12.68,4V2a.75.75,0,0,0-1.5,0V4h0A8.09,8.09,0,0,0,4,11.25H2a.75.75,0,0,0,0,1.5H4A8.09,8.09,0,0,0,11.18,20h0v2a.75.75,0,0,0,1.5,0V20.05a8.1,8.1,0,0,0,7.37-7.3H22a.75.75,0,0,0,0-1.5ZM12,18.58A6.58,6.58,0,1,1,18.59,12,6.59,6.59,0,0,1,12,18.58Zm-.08-1.93A4.65,4.65,0,1,1,16.59,12,4.65,4.65,0,0,1,11.93,16.65Zm0-7.8A3.15,3.15,0,1,0,15.09,12,3.15,3.15,0,0,0,11.93,8.85Z"/></g></g></svg>