<svg xmlns="http://www.w3.org/2000/svg" viewBox="0 0 24 24"><g id="location"><g id="geolocation-home"><path d="M12,22.38h0a2.24,2.24,0,0,1-1.66-.74L5.48,16.2a8.75,8.75,0,1,1,13,0l-4.86,5.44A2.24,2.24,0,0,1,12,22.38ZM12,3.12a6.29,6.29,0,0,0-.86,0,7.25,7.25,0,0,0-4.56,12l4.87,5.44a.7.7,0,0,0,.54.24h0a.7.7,0,0,0,.54-.24l4.87-5.44A7.26,7.26,0,0,0,16.83,5,7.18,7.18,0,0,0,12,3.12Zm3,11H12.25V10.37c0-.28-.5-.28-.5,0v3.75H9a1.76,1.76,0,0,1-1.75-1.75V9.62A3.27,3.27,0,0,1,8.55,7l2.38-1.79a1.8,1.8,0,0,1,2.14,0L15.45,7a3.27,3.27,0,0,1,1.3,2.6v2.75A1.76,1.76,0,0,1,15,14.12Zm-1.25-1.5H15a.25.25,0,0,0,.25-.25V9.62a1.75,1.75,0,0,0-.7-1.4L12.17,6.43a.3.3,0,0,0-.34,0L9.45,8.22a1.75,1.75,0,0,0-.7,1.4v2.75a.25.25,0,0,0,.25.25h1.25V10.37a1.75,1.75,0,1,1,3.5,0Z"/></g></g></svg>