<svg xmlns="http://www.w3.org/2000/svg" viewBox="0 0 24 24"><g id="location"><g id="geolocation"><path d="M18.19,3.61a9.22,9.22,0,0,0-7.27-2.3A9.3,9.3,0,0,0,5.07,16.74l4.35,4.85a3.45,3.45,0,0,0,5.16,0l4.35-4.85a9.31,9.31,0,0,0-.74-13.13ZM12,21.25a2,2,0,0,1-1.47-.66L6.19,15.74A7.79,7.79,0,0,1,11.09,2.8h0c.31,0,.62,0,.93,0a7.72,7.72,0,0,1,5.17,2,7.8,7.8,0,0,1,.62,11l-4.34,4.85A2,2,0,0,1,12,21.25ZM12,6.59A4,4,0,1,0,16,10.54,4,4,0,0,0,12,6.59ZM12,13a2.46,2.46,0,1,1,2.45-2.46A2.46,2.46,0,0,1,12,13Z"/></g></g></svg>