<svg xmlns="http://www.w3.org/2000/svg" viewBox="0 0 24 24"><g id="location"><g id="map"><path d="M16.05,1.25H8A6.71,6.71,0,0,0,1.25,8v8.1A6.71,6.71,0,0,0,8,22.75h8.1a6.71,6.71,0,0,0,6.7-6.7V8A6.71,6.71,0,0,0,16.05,1.25ZM2.75,16.05V8A5.2,5.2,0,0,1,8,2.75h8.1a5.21,5.21,0,0,1,4.78,3.17L6.39,21A5.19,5.19,0,0,1,2.75,16.05Zm5.46,5.2,6-6.28,5,5.13a5.14,5.14,0,0,1-3.22,1.15Zm13-5.2a5.13,5.13,0,0,1-.94,3l-5-5.12,5.95-6.21a2.48,2.48,0,0,1,0,.27ZM7.69,13.37A1.92,1.92,0,0,0,9.11,14a1.89,1.89,0,0,0,1.41-.63l1.84-2.06a4.37,4.37,0,1,0-6.5,0ZM6.27,8a2.88,2.88,0,0,1,2.5-2.46h0l.34,0a2.81,2.81,0,0,1,1.9.73,2.84,2.84,0,0,1,.23,4L9.4,12.37a.4.4,0,0,1-.29.13.41.41,0,0,1-.3-.13L7,10.31A2.79,2.79,0,0,1,6.27,8Zm1.48.38A1.36,1.36,0,1,1,9.11,9.76,1.35,1.35,0,0,1,7.75,8.41Z"/></g></g></svg>