<svg xmlns="http://www.w3.org/2000/svg" viewBox="0 0 24 24"><g id="location"><g id="pointers"><path d="M22.17,5.9,21,4.13a2,2,0,0,0-1.65-.88H14.75a2,2,0,0,0-2-2H11.29a2,2,0,0,0-2,2v6H4.66A2,2,0,0,0,3,10.13L1.83,11.9a2,2,0,0,0,0,2.2L3,15.87a2,2,0,0,0,1.65.88H9.25v4a2,2,0,0,0,2,2h1.42a2,2,0,0,0,2-2v-10h4.59A2,2,0,0,0,21,9.87L22.17,8.1A2,2,0,0,0,22.17,5.9ZM4.66,15.25a.47.47,0,0,1-.4-.22L3.08,13.27a.48.48,0,0,1,0-.54L4.26,11a.47.47,0,0,1,.4-.22H9.25v4.5Zm8.59,5.46a.54.54,0,0,1-.54.54H11.29a.54.54,0,0,1-.54-.54V3.29a.54.54,0,0,1,.54-.54h1.42a.54.54,0,0,1,.54.54ZM20.92,7.27,19.74,9a.47.47,0,0,1-.4.22H14.75V4.75h4.59a.47.47,0,0,1,.4.22l1.18,1.76A.48.48,0,0,1,20.92,7.27Z"/></g></g></svg>