<svg xmlns="http://www.w3.org/2000/svg" viewBox="0 0 24 24"><g id="location"><g id="route"><path d="M6.4,7.49A1.5,1.5,0,1,1,7.9,6,1.5,1.5,0,0,1,6.4,7.49ZM22.18,18.8a1.69,1.69,0,0,1-1.53,1H16.11V22a.75.75,0,0,1-.75.75h-7a4.67,4.67,0,0,1-4.75-4.57,4.67,4.67,0,0,1,4.75-4.57h1.5a.73.73,0,0,0,.75-.69.72.72,0,0,0-.75-.68H6.36s0,0,0,0a1.72,1.72,0,0,1-1.27-.58L2.86,9.16a4.75,4.75,0,1,1,7.09,0L8.53,10.75H9.86a2.19,2.19,0,1,1,0,4.37H8.36a3.16,3.16,0,0,0-3.25,3.07,3.17,3.17,0,0,0,3.25,3.07h6.25v-8h0a.75.75,0,0,1,1.5,0h4.54A1.69,1.69,0,0,1,22,16l-.4.5.4.5A1.69,1.69,0,0,1,22.18,18.8Zm-16-8.14c.13.15.24.15.37,0l2.24-2.5A3.25,3.25,0,0,0,6.4,2.74a3.31,3.31,0,0,0-.77.09,3.23,3.23,0,0,0-2.4,2.43A3.3,3.3,0,0,0,4,8.16Zm13.43,5.85,1.15-1.44a.19.19,0,0,0,0-.2.2.2,0,0,0-.18-.11H16.11v3.5h4.54a.2.2,0,0,0,.18-.11.19.19,0,0,0,0-.2Z"/></g></g></svg>