<svg xmlns="http://www.w3.org/2000/svg" viewBox="0 0 24 24"><g id="location"><g id="satellite"><path d="M13.8,10.67l.45-.38a.75.75,0,0,0-1-1.16l-.55.48L7.24,4.13a1.33,1.33,0,0,0-1-.39,1.27,1.27,0,0,0-.94.49c-2.41,3.07-1.6,8,1.86,11.68a6.83,6.83,0,0,0-.79,1.87,4.34,4.34,0,0,0-3.48,2.9,1.61,1.61,0,0,0,.21,1.43,1.57,1.57,0,0,0,1.26.64H9.71A1.55,1.55,0,0,0,11,22.11a1.61,1.61,0,0,0,.21-1.43,4.31,4.31,0,0,0-3.32-2.86A5,5,0,0,1,8.22,17a10.89,10.89,0,0,0,6.85,2.7,6.81,6.81,0,0,0,4.26-1.4,1.29,1.29,0,0,0,.49-.94,1.38,1.38,0,0,0-.4-1.05Zm-4,10.49.71-.24-.76.33H4.32l-.05-.09a2.92,2.92,0,0,1,5.49,0Zm-1.33-6c-3-3-3.92-7.26-2.12-9.8L18.23,17.21C15.7,19,11.45,18.13,8.43,15.12ZM13.27,6.2a.72.72,0,0,1,.78-.72,4.84,4.84,0,0,1,3.07,1.34A3.55,3.55,0,0,1,18,9.49a.74.74,0,0,1-.75.72h0a.76.76,0,0,1-.72-.78C16.62,7.16,14.26,7,14,7A.75.75,0,0,1,13.27,6.2Zm8.27,3.25a.75.75,0,0,1-.73.76h0A.75.75,0,0,1,20,9.48c-.11-5.47-5.83-6-6.08-6a.75.75,0,0,1-.69-.81.77.77,0,0,1,.8-.69C16.61,2.19,21.43,4,21.54,9.45Z"/></g></g></svg>