<svg xmlns="http://www.w3.org/2000/svg" viewBox="0 0 24 24"><g id="location"><g id="telephone-geolocation"><path d="M15.25,1.75H8.75a3.5,3.5,0,0,0-3.5,3.5v13.5a3.5,3.5,0,0,0,3.5,3.5h6.5a3.5,3.5,0,0,0,3.5-3.5V5.25A3.5,3.5,0,0,0,15.25,1.75Zm2,17a2,2,0,0,1-2,2H8.75a2,2,0,0,1-2-2V5.25a2,2,0,0,1,2-2H11V3.5a1,1,0,0,0,2,0V3.25h2.25a2,2,0,0,1,2,2ZM14.53,8.46A4.06,4.06,0,0,0,9,14.34l1.86,2.08a1.58,1.58,0,0,0,2.34,0L15,14.34a4.1,4.1,0,0,0,1-2.71A4,4,0,0,0,14.53,8.46Zm-.62,4.88-2,2.08-1.86-2.08a2.61,2.61,0,0,1-.59-2.28,2.55,2.55,0,0,1,1.89-1.92A3.26,3.26,0,0,1,12,9.07a2.51,2.51,0,0,1,1.59.56,2.53,2.53,0,0,1,1,2A2.57,2.57,0,0,1,13.91,13.34Zm-.67-1.71A1.24,1.24,0,1,1,12,10.39,1.25,1.25,0,0,1,13.24,11.63Z"/></g></g></svg>