<svg xmlns="http://www.w3.org/2000/svg" viewBox="0 0 24 24"><g id="general"><path fill="currentColor" id="cloud-download" d="M19,15.93H5a3.75,3.75,0,0,1-.74-7.42c0-.11,0-.22,0-.33A5.73,5.73,0,0,1,14.56,4.72,3.7,3.7,0,0,1,16,4.43a3.76,3.76,0,0,1,3.75,3.75,1.83,1.83,0,0,1,0,.33A3.75,3.75,0,0,1,19,15.93Zm-14.06-6A2.25,2.25,0,0,0,5,14.43H19a2.25,2.25,0,0,0,0-4.5l-.14,0a.74.74,0,0,1-.75-1,2.42,2.42,0,0,0,.14-.77,2.25,2.25,0,0,0-3.51-1.86.73.73,0,0,1-.59.11.72.72,0,0,1-.48-.35A4.21,4.21,0,0,0,10,3.93,4.26,4.26,0,0,0,5.75,8.18,4.12,4.12,0,0,0,5.84,9a.78.78,0,0,1-.17.64.73.73,0,0,1-.6.26Zm8.27,11.23L15.37,19a.75.75,0,0,0-1.06-1.06l-2.17,2.16a.19.19,0,0,1-.28,0L9.69,17.93A.75.75,0,0,0,8.63,19l2.16,2.17a1.74,1.74,0,0,0,2.42,0Z"/></g></svg>