<svg xmlns="http://www.w3.org/2000/svg" viewBox="0 0 24 24"><g id="general"><path fill="currentColor" id="cloud-add" d="M14.84,21.65a.73.73,0,0,1-.53-.22l-2.17-2.16a.19.19,0,0,0-.28,0L9.69,21.43a.74.74,0,0,1-1.06,0,.75.75,0,0,1,0-1.06l2.16-2.16a1.73,1.73,0,0,1,2.42,0l2.16,2.16a.75.75,0,0,1,0,1.06A.74.74,0,0,1,14.84,21.65Zm7.91-9.47a3.75,3.75,0,0,0-3-3.67,1.83,1.83,0,0,0,0-.33A3.76,3.76,0,0,0,16,4.43a3.7,3.7,0,0,0-1.44.29A5.73,5.73,0,0,0,4.25,8.18c0,.11,0,.22,0,.33A3.75,3.75,0,0,0,5,15.93H19A3.75,3.75,0,0,0,22.75,12.18ZM5.07,9.94a.73.73,0,0,0,.6-.26A.78.78,0,0,0,5.84,9a4.12,4.12,0,0,1-.09-.86A4.26,4.26,0,0,1,10,3.93a4.21,4.21,0,0,1,3.67,2.15.72.72,0,0,0,.48.35.73.73,0,0,0,.59-.11,2.25,2.25,0,0,1,3.51,1.86,2.42,2.42,0,0,1-.14.77.74.74,0,0,0,.75,1l.14,0a2.25,2.25,0,0,1,0,4.5H5a2.25,2.25,0,0,1-.06-4.5Z"/></g></svg>