<svg xmlns="http://www.w3.org/2000/svg" viewBox="0 0 24 24"><g id="general"><path fill="currentColor" id="cloud-change" d="M19,16H5a3.75,3.75,0,0,1-.74-7.43c0-.1,0-.21,0-.32A5.73,5.73,0,0,1,14.56,4.76,3.7,3.7,0,0,1,16,4.47a3.75,3.75,0,0,1,3.75,3.75,1.72,1.72,0,0,1,0,.32A3.75,3.75,0,0,1,19,16ZM4.94,10A2.25,2.25,0,0,0,5,14.47H19A2.25,2.25,0,0,0,19,10l-.14,0a.75.75,0,0,1-.75-1,2.31,2.31,0,0,0,.14-.76A2.25,2.25,0,0,0,16,6a2.18,2.18,0,0,0-1.26.39.73.73,0,0,1-.59.11.76.76,0,0,1-.48-.36A4.24,4.24,0,0,0,5.75,8.22a4.12,4.12,0,0,0,.09.86.78.78,0,0,1-.17.64.76.76,0,0,1-.6.26Zm6.59,11.34a.75.75,0,0,0,0-1.06L9.37,18.09a1.73,1.73,0,0,0-2.41,0L4.79,20.25a.75.75,0,1,0,1.06,1.06L8,19.15a.18.18,0,0,1,.29,0l2.16,2.16a.75.75,0,0,0,1.06,0ZM17,21l2.17-2.16a.75.75,0,0,0,0-1.06.74.74,0,0,0-1.06,0L16,20a.18.18,0,0,1-.29,0l-2.16-2.16a.74.74,0,0,0-1.06,0,.75.75,0,0,0,0,1.06L14.63,21a1.72,1.72,0,0,0,1.21.5A1.7,1.7,0,0,0,17,21Z"/></g></svg>