<svg xmlns="http://www.w3.org/2000/svg" viewBox="0 0 24 24"><g id="general"><path fill="currentColor" id="cup" d="M15.85,13.9h.41a6.51,6.51,0,0,0,6.49-6.52,2.75,2.75,0,0,0-2-2.63.71.71,0,0,0-.88.49.72.72,0,0,0,.49.89,1.3,1.3,0,0,1,.93,1.25,5.07,5.07,0,0,1-4.15,5A15.09,15.09,0,0,0,19.43,4,2.57,2.57,0,0,0,17,1.35H7.44A2.58,2.58,0,0,0,5,4a15.09,15.09,0,0,0,2.39,8.44,5.07,5.07,0,0,1-4.66-5,1.29,1.29,0,0,1,1-1.27.72.72,0,0,0-.34-1.39A2.73,2.73,0,0,0,1.25,7.38,6.51,6.51,0,0,0,7.74,13.9h.88a6.37,6.37,0,0,0,1.5,1,.17.17,0,0,1,.09.2,20.19,20.19,0,0,1-2.08,5.2,1.62,1.62,0,0,0,0,1.62,1.56,1.56,0,0,0,1.37.8h5.42a1.6,1.6,0,0,0,1.4-.7,1.62,1.62,0,0,0,0-1.56A27.9,27.9,0,0,1,14.49,15a.14.14,0,0,1,.07-.17A6.57,6.57,0,0,0,15.85,13.9Zm-.79,7.19a.73.73,0,0,1,.06.19.35.35,0,0,1-.2,0H9.5a.16.16,0,0,1-.14-.08.17.17,0,0,1,0-.18,21.83,21.83,0,0,0,2.22-5.57l0-.06a1.68,1.68,0,0,0-.94-1.83h0A5.17,5.17,0,0,1,9.2,12.47C7.5,10.65,6.38,7.43,6.38,4a1.14,1.14,0,0,1,1.06-1.2H17A1.13,1.13,0,0,1,18,4c0,3.53-1.05,6.69-2.73,8.48a5.49,5.49,0,0,1-1.34,1l0,0a1.71,1.71,0,0,0-.79,1.86A29.76,29.76,0,0,0,15.06,21.09Z"/></g></svg>