<svg xmlns="http://www.w3.org/2000/svg" viewBox="0 0 24 24"><g id="general"><path fill="currentColor" id="filter-edit" d="M20.77,4.19v2.4a3,3,0,0,1-1,2.22l-1.15,1a.75.75,0,0,1-1-1.12l1.14-1a1.48,1.48,0,0,0,.49-1.1V4.19a1.46,1.46,0,0,0-1.46-1.46H5.06A1.46,1.46,0,0,0,3.6,4.19V6.68a1.47,1.47,0,0,0,.42,1l3.76,3.81a4.57,4.57,0,0,1,1.33,3.23V20a1.29,1.29,0,0,0,2,1.05h0l1.36-1a.75.75,0,1,1,.87,1.23l-1.37,1h0A2.79,2.79,0,0,1,7.61,20V14.75a3.09,3.09,0,0,0-.9-2.18L3,8.76A3,3,0,0,1,2.1,6.68V4.19a3,3,0,0,1,3-3H17.81A3,3,0,0,1,20.77,4.19Zm-1.14,10.4-.77.78h0L16.27,18a1.48,1.48,0,0,1-.72.4l-1.06.22a1.53,1.53,0,0,1-.3,0,1.46,1.46,0,0,1-1-.42,1.45,1.45,0,0,1-.41-1.31l.2-1.06a1.36,1.36,0,0,1,.38-.73l3.35-3.43a1.55,1.55,0,0,1,1.11-.46h0a1.61,1.61,0,0,1,1.11.46l.65.64A1.59,1.59,0,0,1,19.63,14.59Zm-1.87-1.83-.58.6a1.06,1.06,0,0,0,.85.71l.52-.53s0-.08,0-.12l-.65-.64a.19.19,0,0,0-.08,0Zm-.87,2.48a2.46,2.46,0,0,1-.8-.77l-1.68,1.72-.18,1,1-.26Z"/></g></svg>