<svg xmlns="http://www.w3.org/2000/svg" viewBox="0 0 24 24"><g id="general"><path fill="currentColor" id="filter" d="M18.37,1.23H5.63a3,3,0,0,0-3,3V6.68a3,3,0,0,0,.86,2.08l3.76,3.81a3.08,3.08,0,0,1,.89,2.18V20a2.78,2.78,0,0,0,1.51,2.48,2.81,2.81,0,0,0,2.9-.2l1.36-1a2.67,2.67,0,0,0,1.13-2.18V14.9a3.12,3.12,0,0,1,1-2.32l4.23-3.77a3,3,0,0,0,1-2.22V4.19A3,3,0,0,0,18.37,1.23ZM4.16,6.68V4.19A1.46,1.46,0,0,1,5.63,2.73h4.79L6.19,9.33,4.59,7.71A1.44,1.44,0,0,1,4.16,6.68Zm15.67-.09a1.48,1.48,0,0,1-.48,1.1l-4.24,3.77a4.61,4.61,0,0,0-1.54,3.44v4.22a1.17,1.17,0,0,1-.49.95l-1.37,1a1.29,1.29,0,0,1-2-1.05V14.75a4.6,4.6,0,0,0-1.32-3.23L7.27,10.43l4.94-7.7h6.16a1.46,1.46,0,0,1,1.46,1.46Z"/></g></svg>