<svg xmlns="http://www.w3.org/2000/svg" viewBox="0 0 24 24"><g id="general"><path fill="currentColor" id="home-1" d="M6.36,22.57a4.23,4.23,0,0,1-4.2-3.74l-.88-7.51A4.27,4.27,0,0,1,2.89,7.48l6.7-5.17a4.25,4.25,0,0,1,5.3.11l6.35,5.35a4.22,4.22,0,0,1,1.45,3.94L21.44,19a4.22,4.22,0,0,1-4.16,3.52l-10.91,0ZM12.17,2.94a2.71,2.71,0,0,0-1.67.56L3.81,8.67a2.74,2.74,0,0,0-1,2.47l.88,7.52a2.73,2.73,0,0,0,2.71,2.41h0l10.91,0A2.72,2.72,0,0,0,20,18.78l1.25-7.32a2.74,2.74,0,0,0-.93-2.55L13.93,3.57A2.75,2.75,0,0,0,12.17,2.94ZM12,16.41a3.32,3.32,0,1,1,3.32-3.31A3.32,3.32,0,0,1,12,16.41Zm0-5.13a1.82,1.82,0,1,0,1.82,1.82A1.82,1.82,0,0,0,12,11.28Z"/></g></svg>