<svg xmlns="http://www.w3.org/2000/svg" viewBox="0 0 24 24"><g id="general"><path fill="currentColor" id="magnifier" d="M20.46,22.75h0a2.27,2.27,0,0,1-1.52-.61l-2.88-2.73a9.8,9.8,0,0,1-10.84-.57,9.74,9.74,0,0,1-2-13.66A9.78,9.78,0,0,1,19.3,16.3l2.75,2.57a2.25,2.25,0,0,1,0,3.17A2.18,2.18,0,0,1,20.46,22.75Zm-4.23-5.24L20,21a.75.75,0,0,0,.51.21h0A.72.72,0,0,0,21,21,.75.75,0,0,0,21,20l-3.69-3.46.4-.54A8.28,8.28,0,0,0,4.42,6.08,8.24,8.24,0,0,0,6.11,17.64a8.29,8.29,0,0,0,9.62.2ZM11,18.08a7.15,7.15,0,1,1,0-14.3h0a7.15,7.15,0,1,1,0,14.3h0Zm0-12.8h0a5.65,5.65,0,1,0,0,11.3h0a5.65,5.65,0,1,0,0-11.3Z"/></g></svg>