<svg xmlns="http://www.w3.org/2000/svg" viewBox="0 0 24 24"><g id="general"><path fill="currentColor" id="mouse-circle" d="M16.35,22.81H16.3a2.23,2.23,0,0,1-2.14-1.61l-1.82-6a2.35,2.35,0,0,1,2.95-2.93l5.85,1.85a2.29,2.29,0,0,1,.09,4.33l-1.67.6a.77.77,0,0,0-.45.45l-.6,1.75A2.26,2.26,0,0,1,16.35,22.81Zm-1.77-9.13a.86.86,0,0,0-.81,1.1l1.82,6a.78.78,0,0,0,.74.56.76.76,0,0,0,.76-.53l.6-1.75a2.25,2.25,0,0,1,1.36-1.37l1.67-.6a.77.77,0,0,0,.52-.76.76.76,0,0,0-.55-.73l-5.85-1.85A.75.75,0,0,0,14.58,13.68Zm-2.32,7.26a.75.75,0,0,0-.75-.75,8.75,8.75,0,1,1,8.75-8.75.75.75,0,1,0,1.5,0A10.25,10.25,0,1,0,11.51,21.69.74.74,0,0,0,12.26,20.94Z"/></g></svg>