<svg xmlns="http://www.w3.org/2000/svg" viewBox="0 0 24 24"><g id="general"><path fill="currentColor" id="ranking" d="M19.77,16.39H16v-4.1A2.68,2.68,0,0,0,13.29,9.6H10.71A2.68,2.68,0,0,0,8,12.29v1.19H4.23a2.69,2.69,0,0,0-2.69,2.69v6.58H22.46V19.08A2.69,2.69,0,0,0,19.77,16.39ZM8,21.25H3V16.17A1.19,1.19,0,0,1,4.23,15H8Zm6.47,0h-5v-9a1.19,1.19,0,0,1,1.19-1.19h2.58a1.19,1.19,0,0,1,1.19,1.19v9Zm6.48,0H16V17.89h3.79A1.19,1.19,0,0,1,21,19.08ZM13.53,9.15A1.65,1.65,0,0,1,12.88,9L12,8.57,11,9a1.51,1.51,0,0,1-1.52-.17,1.54,1.54,0,0,1-.6-1.41l.13-1-.69-.79A1.48,1.48,0,0,1,8,4.1a1.52,1.52,0,0,1,1.15-1l1-.2L10.71,2A1.49,1.49,0,0,1,12,1.25h0A1.52,1.52,0,0,1,13.35,2l.5.9,1,.24A1.51,1.51,0,0,1,16,4.2a1.53,1.53,0,0,1-.34,1.49l-.7.75.09,1a1.52,1.52,0,0,1-.64,1.39A1.46,1.46,0,0,1,13.53,9.15ZM11.94,7.07a1.57,1.57,0,0,1,.64.14l.93.44h0l-.09-1a1.55,1.55,0,0,1,.4-1.18l.7-.75-1-.27a1.49,1.49,0,0,1-1-.74l-.5-.9-.57.89a1.55,1.55,0,0,1-1,.72l-1,.19.66.81a1.49,1.49,0,0,1,.37,1.19l-.12,1,1-.38A1.41,1.41,0,0,1,11.94,7.07Z"/></g></svg>