<svg xmlns="http://www.w3.org/2000/svg" viewBox="0 0 24 24"><g id="general"><path fill="currentColor" id="tag-cross" d="M17.83,21H10a4.94,4.94,0,0,1-3.62-1.59L2.55,15.27A4.89,4.89,0,0,1,2.48,8.7L6,4.66A4.94,4.94,0,0,1,9.73,3h8.1a4.92,4.92,0,0,1,4.92,4.92v8.16A4.93,4.93,0,0,1,17.83,21ZM9.73,4.5A3.42,3.42,0,0,0,7.16,5.66l-3.55,4a3.41,3.41,0,0,0,0,4.57l3.8,4.13A3.39,3.39,0,0,0,10,19.5h7.87a3.42,3.42,0,0,0,3.42-3.42V7.92A3.42,3.42,0,0,0,17.83,4.5Zm4.84,7.36L16.38,10a.75.75,0,0,0,0-1.06A.75.75,0,0,0,15.3,9l-1.78,1.83L11.73,9A.75.75,0,1,0,10.66,10l1.81,1.86-1.81,1.85a.75.75,0,0,0,0,1.06.74.74,0,0,0,1.06,0l1.79-1.83,1.78,1.83a.76.76,0,0,0,.54.23.7.7,0,0,0,.52-.22.75.75,0,0,0,0-1.06Z"/></g></svg>