<svg xmlns="http://www.w3.org/2000/svg" viewBox="0 0 24 24"><g id="general"><path fill="currentColor" id="trush" d="M8.28,22.75A3.32,3.32,0,0,1,5,19.67L4.27,9.23a.75.75,0,1,1,1.5-.1l.71,10.44a1.82,1.82,0,0,0,1.83,1.68l7.55-.09a1.8,1.8,0,0,0,1.78-1.71l.59-10.32a.77.77,0,0,1,.8-.71.75.75,0,0,1,.7.79l-.59,10.33a3.32,3.32,0,0,1-3.26,3.12l-7.55.09Zm6.7-9.9a.76.76,0,0,0-.75-.75H9.77a.75.75,0,0,0,0,1.5h4.46A.75.75,0,0,0,15,12.85Zm-.78,3.7a.75.75,0,0,0-.75-.75h-2.9a.75.75,0,0,0,0,1.5h2.9A.76.76,0,0,0,14.2,16.55ZM21,6.52a.74.74,0,0,1-.74.64h-.11a59.75,59.75,0,0,0-16.27,0A.76.76,0,0,1,3,6.53a.75.75,0,0,1,.62-.86c.13,0,1.51-.24,3.68-.41l.36-1.88a2.62,2.62,0,0,1,2.58-2.13h3.53A2.62,2.62,0,0,1,16.36,3.4l.34,1.86c1.19.1,2.41.22,3.66.41A.75.75,0,0,1,21,6.52ZM11.56,5.09h3.58l-.26-1.42a1.12,1.12,0,0,0-1.1-.92H10.25a1.13,1.13,0,0,0-1.11.91L8.87,5.09Z"/></g></svg>