<svg xmlns="http://www.w3.org/2000/svg" viewBox="0 0 24 24"><g id="general"><path fill="currentColor" id="trush-square" d="M16.05,22.75H8a6.71,6.71,0,0,1-6.7-6.7V8A6.71,6.71,0,0,1,8,1.25h8.1A6.71,6.71,0,0,1,22.75,8v8.1A6.71,6.71,0,0,1,16.05,22.75ZM8,2.75A5.2,5.2,0,0,0,2.75,8v8.1A5.2,5.2,0,0,0,8,21.25h8.1a5.21,5.21,0,0,0,5.2-5.2V8a5.21,5.21,0,0,0-5.2-5.2Zm2,15.65,4.24,0a2.1,2.1,0,0,0,2.16-1.88l.34-5a.76.76,0,0,0-.7-.8.74.74,0,0,0-.8.7l-.33,5a.63.63,0,0,1-.68.47l-4.25,0c-.34,0-.68-.21-.7-.47l-.4-5.1A.74.74,0,0,0,8,10.64a.73.73,0,0,0-.68.8l.4,5.1A2.12,2.12,0,0,0,9.91,18.4ZM16.75,8.11C16.13,8,15.52,8,14.93,7.9l-.15-1A1.86,1.86,0,0,0,13,5.3H11A1.85,1.85,0,0,0,9.24,6.91l-.17,1C8,8,7.31,8.1,7.24,8.12A.74.74,0,0,0,6.62,9a.75.75,0,0,0,.86.62,32.8,32.8,0,0,1,9.05,0h.11A.74.74,0,0,0,17.38,9,.76.76,0,0,0,16.75,8.11Zm-6.14-.33.11-.62c0-.23.18-.36.29-.36h2c.12,0,.26.14.29.36l.1.62H10.61Z"/></g></svg>