<svg xmlns="http://www.w3.org/2000/svg" viewBox="0 0 24 24"><defs><style>.cls-1,.cls-2{opacity:0.3;}</style></defs><g id="users"><g id="profile-2user"><ellipse class="cls-1" cx="9.03" cy="6.7" rx="4.74" ry="4.7"/><ellipse cx="9.03" cy="17.3" rx="7.03" ry="4.7"/><g class="cls-2"><path d="M16.39,4a3.71,3.71,0,0,0-1.59.36,6.09,6.09,0,0,1-.92,6.18A3.76,3.76,0,1,0,16.39,4Z"/></g><path d="M16.39,12.5a8.22,8.22,0,0,0-1.67.17,5.59,5.59,0,0,1,2.83,4.63A4.88,4.88,0,0,1,16.72,20c2.94-.11,5.28-1.74,5.28-3.74S19.49,12.5,16.39,12.5Z"/></g></g></svg>