<svg xmlns="http://www.w3.org/2000/svg" viewBox="0 0 24 24"><defs><style>.cls-1{opacity:0.3;}</style></defs><g id="users"><g id="user-edit"><g id="user_1"><circle cx="11.81" cy="6.96" r="4.96"/><g class="cls-1"><path d="M19.51,22a1.14,1.14,0,0,0,1.2-1.24c-.64-3.76-4.38-6.65-8.9-6.65S3.55,17,2.91,20.76A1.13,1.13,0,0,0,4.11,22Z"/></g></g><path d="M16.81,19.73l-1.44.2a.7.7,0,0,1-.78-.83l.3-1.43a1.08,1.08,0,0,1,.3-.54l3.41-3.19a1.09,1.09,0,0,1,1.54.09l.65.7a1.09,1.09,0,0,1,0,1.54l-3.41,3.19A1.09,1.09,0,0,1,16.81,19.73Z"/></g></g></svg>