<svg xmlns="http://www.w3.org/2000/svg" viewBox="0 0 24 24"><defs><style>.cls-1{opacity:0.3;}</style></defs><g id="users"><g id="user-tick"><circle cx="11.49" cy="7.01" r="4.95"/><path d="M17.43,13a4,4,0,1,0,4,3.95A4,4,0,0,0,17.43,13Zm2.12,3.44-1.69,2.16a.76.76,0,0,1-.58.28.74.74,0,0,1-.59-.29L15.48,17a.74.74,0,0,1,.13-1,.74.74,0,0,1,1,.13l.63.8,1.1-1.4a.74.74,0,1,1,1.17.91Z"/><g class="cls-1"><path d="M20.36,20.77a7.19,7.19,0,0,0-1.59-3.38l-.91,1.16a.76.76,0,0,1-.58.28.74.74,0,0,1-.59-.29L15.48,17a.72.72,0,0,1-.09-.73.72.72,0,0,1,.74-1,10,10,0,0,0-4.64-1.12C7,14.14,3.26,17,2.62,20.77A1.13,1.13,0,0,0,3.82,22H19.17A1.13,1.13,0,0,0,20.36,20.77Z"/></g></g></g></svg>