<svg xmlns="http://www.w3.org/2000/svg" viewBox="0 0 24 24"><g id="design"><path fill="currentColor" id="copy-success" d="M22,5.68v6.63A3.69,3.69,0,0,1,18.32,16H17.5V11.69A5.2,5.2,0,0,0,12.31,6.5H8V5.68A3.69,3.69,0,0,1,11.69,2h6.63A3.68,3.68,0,0,1,22,5.68Zm-6,6v6.63A3.69,3.69,0,0,1,12.31,22H5.68A3.68,3.68,0,0,1,2,18.32V11.69A3.69,3.69,0,0,1,5.68,8h6.63A3.69,3.69,0,0,1,16,11.69Zm-3.16.77a.75.75,0,0,0-1.06,0L8.61,15.5,7.37,14.23a.75.75,0,0,0-1.07,1l1.76,1.8a.76.76,0,0,0,1.06,0l3.7-3.57A.75.75,0,0,0,12.84,12.46Z"/></g></svg>