<svg xmlns="http://www.w3.org/2000/svg" viewBox="0 0 24 24"><g id="design"><path fill="currentColor" id="design-2" d="M13,18H10V15a1,1,0,0,1,1-1h3v3A1,1,0,0,1,13,18ZM3,18a1,1,0,0,0-1,1v2a1,1,0,0,0,1,1H9a1,1,0,0,0,1-1V18Zm15-5V10H15a1,1,0,0,0-1,1v3h3A1,1,0,0,0,18,13ZM21,2H19a1,1,0,0,0-1,1v7h3a1,1,0,0,0,1-1V3A1,1,0,0,0,21,2ZM17,15.5H15.5V17a2.56,2.56,0,0,1-.21,1H17a1,1,0,0,0,1-1V15.29A2.56,2.56,0,0,1,17,15.5Zm4-4H19.5V13a2.56,2.56,0,0,1-.21,1H21a1,1,0,0,0,1-1V11.29A2.56,2.56,0,0,1,21,11.5Zm-8,8H11.5V21a2.56,2.56,0,0,1-.21,1H13a1,1,0,0,0,1-1V19.29A2.56,2.56,0,0,1,13,19.5Zm-4.5-3V15A2.5,2.5,0,0,1,11,12.5h1.5V11A2.5,2.5,0,0,1,15,8.5h1.5V4H8.67A4.67,4.67,0,0,0,4,8.67V16.5Z"/></g></svg>