<svg xmlns="http://www.w3.org/2000/svg" viewBox="0 0 24 24"><g id="archive"><path fill="currentColor" id="receipt-square" d="M16.69,22.75H7.31a6.06,6.06,0,0,1-6-6.06V7.31a6.05,6.05,0,0,1,6.05-6h9.38a6.05,6.05,0,0,1,6,6.05v9.38A6.06,6.06,0,0,1,16.69,22.75Zm-9.38-20A4.55,4.55,0,0,0,2.76,7.31v9.38a4.56,4.56,0,0,0,4.55,4.56h9.38a4.56,4.56,0,0,0,4.55-4.56V7.31a4.55,4.55,0,0,0-4.55-4.55ZM12,18.59a2.31,2.31,0,0,1-2-1.16l-.48-.84-.36.6a1.56,1.56,0,0,1-2.9-.8V8.13A2.74,2.74,0,0,1,9,5.39h6a2.75,2.75,0,0,1,2.75,2.74v8.26a1.56,1.56,0,0,1-2.91.78l-.34-.58-.48.84A2.33,2.33,0,0,1,12,18.59ZM9.5,15h0a1.41,1.41,0,0,1,1.23.72l.54.94a.83.83,0,0,0,1.43,0l.53-.93A1.42,1.42,0,0,1,14.48,15h0a1.4,1.4,0,0,1,1.23.71l.4.68.12,0V8.13A1.25,1.25,0,0,0,15,6.89H9A1.25,1.25,0,0,0,7.74,8.13v8.26l.11,0,.42-.7A1.41,1.41,0,0,1,9.5,15Zm-.06,1.47Z"/></g></svg>