<svg xmlns="http://www.w3.org/2000/svg" viewBox="0 0 24 24"><g id="technologies"><path fill="currentColor" id="electricity" d="M16.78,20.14a9.32,9.32,0,0,1-2.87,1.12,1,1,0,0,1-.84-.21,1,1,0,0,1-.38-.79V16.68s0,0,0-.06a3.8,3.8,0,0,0,3.14-3.72V11.19A2.17,2.17,0,0,0,17.46,9a2.14,2.14,0,0,0-2.14-2.13h-.06V4.69a.69.69,0,1,0-1.38,0V6.91H10.21V4.68a.69.69,0,1,0-1.38,0V6.91H8.68a2.17,2.17,0,0,0-.5,4.28V12.9a3.79,3.79,0,0,0,3.14,3.72s0,0,0,.06v3.58a2.39,2.39,0,0,0,2.39,2.41,2.05,2.05,0,0,0,.49-.06,10.73,10.73,0,0,0,3.3-1.28.69.69,0,0,0,.24-.95A.7.7,0,0,0,16.78,20.14ZM7.93,9a.75.75,0,0,1,.75-.75h6.64a.78.78,0,0,1,.75.83.76.76,0,0,1-.75.75H8.68A.77.77,0,0,1,7.93,9ZM9.56,12.9V11.26h4.88V12.9a2.44,2.44,0,0,1-4.88,0Zm13.19-.81a10.64,10.64,0,0,1-1.1,4.74.69.69,0,0,1-.62.39.67.67,0,0,1-.31-.07.71.71,0,0,1-.32-.93,9.21,9.21,0,0,0,1-4.13A9.36,9.36,0,0,0,10.93,2.78a9.21,9.21,0,0,0-2.8.78.69.69,0,0,1-.92-.34.7.7,0,0,1,.34-.92,10.8,10.8,0,0,1,3.23-.9,10.76,10.76,0,0,1,12,10.69ZM5.11,16.84a2.54,2.54,0,0,0-1,.23,9.41,9.41,0,0,1-1.39-6,9,9,0,0,1,1.22-3.7.7.7,0,0,0-.25-.95.68.68,0,0,0-1,.25,10.32,10.32,0,0,0-1.4,4.25A10.74,10.74,0,0,0,3,18a2.52,2.52,0,0,0-.4,1.36,2.49,2.49,0,1,0,2.49-2.5Zm0,3.6a1.11,1.11,0,1,1,1.11-1.1A1.11,1.11,0,0,1,5.11,20.44Zm15-1.64a.66.66,0,0,1-.66.67.67.67,0,1,1,0-1.33A.66.66,0,0,1,20.15,18.8ZM4.73,4.69a.67.67,0,1,1,.67.67A.67.67,0,0,1,4.73,4.69Z"/></g></svg>