<svg xmlns="http://www.w3.org/2000/svg" viewBox="0 0 24 24"><g id="technologies"><path fill="currentColor" id="face-ID" d="M18.72,15a3.4,3.4,0,0,0,1.53-2.62A3.3,3.3,0,0,0,19,9.26a6.1,6.1,0,0,0-.35-2.46,5.85,5.85,0,0,0-3.76-3.68A6.77,6.77,0,0,0,9.25,4,4.31,4.31,0,0,0,5.74,6a5.2,5.2,0,0,0-.53,3.1h0a2.68,2.68,0,0,0-1.13,1.13,3.85,3.85,0,0,0-.39,2.12A3.39,3.39,0,0,0,5.26,15,5,5,0,0,0,7,18.19l2.43,2a4.11,4.11,0,0,0,5.12.13l2.27-1.69A5,5,0,0,0,18.72,15ZM7.07,6.77A3,3,0,0,1,9.6,5.5.8.8,0,0,0,10,5.34a5.16,5.16,0,0,1,4.44-.74,4.31,4.31,0,0,1,2.73,2.72,4.64,4.64,0,0,1,.12,2.85,3,3,0,0,0-.47-.55,4,4,0,0,0-2.81-1h-.47a4.58,4.58,0,0,1-3.87-1.9.77.77,0,0,0-1-.25A5.65,5.65,0,0,0,6.72,8.58,3.37,3.37,0,0,1,7.07,6.77Zm10.35,7a.86.86,0,0,1-.23-.06v.89a3.46,3.46,0,0,1-1.31,2.78l-2.27,1.69A2.56,2.56,0,0,1,10.38,19L8,17a3.49,3.49,0,0,1-1.21-2.7v-.58a.9.9,0,0,1-.22.06H6.45c-.6,0-1.14-.68-1.23-1.58a2.06,2.06,0,0,1,.32-1.38,10.69,10.69,0,0,0,.63,1.72.76.76,0,0,0,.91.4.78.78,0,0,0,.54-.84,4.24,4.24,0,0,1,1.3-3.86,5.88,5.88,0,0,0,4.74,1.95,2.74,2.74,0,0,1,2.11.55,2.27,2.27,0,0,1,.65,1.47A.77.77,0,0,0,17,13l.23,0a.77.77,0,0,0,.64-.34,6.91,6.91,0,0,0,.76-1.48,2.33,2.33,0,0,1,.13,1c-.09.9-.63,1.58-1.22,1.58Zm5.33,3.56v3.33a2,2,0,0,1-2,2h-3a.77.77,0,0,1,0-1.54h3a.43.43,0,0,0,.43-.43V17.34a.77.77,0,0,1,1.54,0ZM7,21.87a.77.77,0,0,1-.77.77H3.32a2,2,0,0,1-2-2V17.34a.77.77,0,0,1,1.54,0v3.33a.43.43,0,0,0,.43.43H6.27A.77.77,0,0,1,7,21.87ZM22.75,3.22V6.55a.77.77,0,0,1-1.54,0V3.22a.43.43,0,0,0-.43-.43h-3a.77.77,0,1,1,0-1.54h3A2,2,0,0,1,22.75,3.22ZM1.35,6.55V3.22a2,2,0,0,1,2-2H6.27a.77.77,0,0,1,0,1.54H3.32a.43.43,0,0,0-.43.43V6.55a.77.77,0,1,1-1.54,0Z"/></g></svg>