<svg xmlns="http://www.w3.org/2000/svg" viewBox="0 0 24 24"><g id="technologies"><path fill="currentColor" id="joystick" d="M18.38,15.1H14.61V10.47a5,5,0,1,0-5.52,0v4.62H8.32a.75.75,0,0,0-.74-.68H6.82a.73.73,0,0,0-.73.68H5.62a3.1,3.1,0,0,0-3.09,3.1v1.4a3.09,3.09,0,0,0,3.09,3.09H18.38a3.09,3.09,0,0,0,3.09-3.09V18.2A3.1,3.1,0,0,0,18.38,15.1ZM9.09,8.43A3.44,3.44,0,0,1,8.35,6.3a3.5,3.5,0,0,1,7,0,3.44,3.44,0,0,1-.74,2.13,3.47,3.47,0,0,1-5.52,0Zm4,2.69v4H10.59v-4a4.5,4.5,0,0,0,2.52,0ZM20,19.6a1.59,1.59,0,0,1-1.59,1.59H5.62A1.59,1.59,0,0,1,4,19.6V18.2a1.6,1.6,0,0,1,1.59-1.6H18.38A1.6,1.6,0,0,1,20,18.2Zm-9-13.67A.91.91,0,1,1,11.85,5,.91.91,0,0,1,10.94,5.93Z"/></g></svg>