<svg xmlns="http://www.w3.org/2000/svg" viewBox="0 0 24 24"><g id="technologies"><path fill="currentColor" id="technology-4" d="M13.89,19.69V22a.73.73,0,0,1-.73.72H11.51a2,2,0,0,1-2.06-2V20.1a7.92,7.92,0,0,1-.85-.34l-.44.43a2.12,2.12,0,0,1-2.91,0L4.06,19a2,2,0,0,1,0-2.87l.44-.43c-.13-.28-.25-.56-.35-.84H3.53a2.06,2.06,0,0,1-2.06-2V11.17a2.06,2.06,0,0,1,2.06-2h.62c.1-.28.22-.56.35-.84l-.44-.43A2,2,0,0,1,4.06,5L5.25,3.81a2.12,2.12,0,0,1,2.91,0l.44.43a7.92,7.92,0,0,1,.85-.34V3.28a2,2,0,0,1,2.06-2h1.65a.73.73,0,0,1,.73.72V4.38a.72.72,0,0,1-.73.71.71.71,0,0,1-.72-.71V2.68h-.93a.6.6,0,0,0-.61.6V4.42a.73.73,0,0,1-.53.69,7.3,7.3,0,0,0-1.55.63A.73.73,0,0,1,8,5.62l-.81-.8a.64.64,0,0,0-.86,0L5.09,6a.59.59,0,0,0,0,.85l.81.8A.71.71,0,0,1,6,8.51a6.58,6.58,0,0,0-.64,1.54.74.74,0,0,1-.7.52H3.53a.6.6,0,0,0-.61.6v1.66a.6.6,0,0,0,.61.6H4.68a.74.74,0,0,1,.7.52A6.58,6.58,0,0,0,6,15.49a.71.71,0,0,1-.12.86l-.81.8a.59.59,0,0,0,0,.85l1.19,1.18a.64.64,0,0,0,.86,0l.81-.8a.73.73,0,0,1,.87-.12,7.3,7.3,0,0,0,1.55.63.73.73,0,0,1,.53.69v1.14a.6.6,0,0,0,.61.6h.93V19.69a.71.71,0,0,1,.72-.71A.72.72,0,0,1,13.89,19.69Zm8.5-8a2.29,2.29,0,0,1-4.39.86.54.54,0,0,1-.22.05H15.32a2.26,2.26,0,1,1,0-1.43h2.46l.11,0a2.28,2.28,0,0,1,4.5.5ZM14,11.87a.83.83,0,0,0-.84-.82.83.83,0,1,0,0,1.65A.84.84,0,0,0,14,11.87Zm6.94-.19a.83.83,0,1,0-.83.82A.83.83,0,0,0,20.94,11.68ZM22.53,19a2.42,2.42,0,0,1-4.84,0,2.36,2.36,0,0,1,.09-.61l-2.1-1.83H12.5a4.72,4.72,0,1,1,0-9.43h2.89l2.44-2a2.37,2.37,0,0,1-.14-.75,2.42,2.42,0,0,1,4.84,0,2.42,2.42,0,0,1-2.42,2.39,2.37,2.37,0,0,1-1.43-.48L16.12,8.41a.71.71,0,0,1-.46.17H12.5a3.28,3.28,0,1,0,0,6.55H16a.79.79,0,0,1,.48.18l2.13,1.87a2.38,2.38,0,0,1,1.54-.56A2.41,2.41,0,0,1,22.53,19ZM19.14,4.35a1,1,0,1,0,1-1A1,1,0,0,0,19.14,4.35ZM21.08,19a1,1,0,1,0-1,.95A1,1,0,0,0,21.08,19Z"/></g></svg>