<svg xmlns="http://www.w3.org/2000/svg" viewBox="0 0 24 24"><g id="technologies"><path fill="currentColor" id="technology-2" d="M17.5,22.75a5.24,5.24,0,0,1-5.16-4.3h0a5,5,0,0,1-.09-.95.75.75,0,0,1,1.5,0,3.82,3.82,0,0,0,.06.68h0a3.75,3.75,0,1,0,4.52-4.34h0a3.91,3.91,0,0,0-.83-.09.75.75,0,0,1,0-1.5,4.89,4.89,0,0,1,1.15.13h0A5.25,5.25,0,0,1,17.5,22.75Zm-11,0A5.25,5.25,0,0,1,5.41,12.36h0a5.68,5.68,0,0,1,1.09-.11.75.75,0,0,1,0,1.5,4.13,4.13,0,0,0-.78.08h0a3.75,3.75,0,1,0,4.47,4.35h0a3.82,3.82,0,0,0,.06-.68.75.75,0,0,1,1.5,0,5,5,0,0,1-.09.95h0A5.24,5.24,0,0,1,6.5,22.75Zm11-11a.75.75,0,0,1,0-1.5,3.84,3.84,0,0,0,.76-.08,3.75,3.75,0,1,0-4.42-4.49h0a3.66,3.66,0,0,0-.09.81.75.75,0,0,1-1.5,0,5.52,5.52,0,0,1,.12-1.14h0a5.25,5.25,0,1,1,6.19,6.28A5.37,5.37,0,0,1,17.5,11.75Zm-11,0a5.68,5.68,0,0,1-1.09-.11h0A5.25,5.25,0,0,1,6.5,1.25a5.29,5.29,0,0,1,5.13,4.11h0a5.52,5.52,0,0,1,.12,1.14.75.75,0,0,1-1.5,0,3.66,3.66,0,0,0-.09-.81h0a3.75,3.75,0,1,0-4.44,4.49h0a4.13,4.13,0,0,0,.78.08.75.75,0,0,1,0,1.5Zm11,8a2.25,2.25,0,0,1-2.24-2l-.47-.48A3.12,3.12,0,0,0,13,16.34a7.89,7.89,0,0,0-2.06,0,3.12,3.12,0,0,0-1.76.92l-.47.48a2.25,2.25,0,1,1-2.48-2.48l.48-.47A3.12,3.12,0,0,0,7.66,13a7.89,7.89,0,0,0,0-2.06,3.12,3.12,0,0,0-.92-1.76l-.48-.47A2.25,2.25,0,1,1,8.74,6.26l.47.48A3.12,3.12,0,0,0,11,7.66a7.89,7.89,0,0,0,2.06,0,3.12,3.12,0,0,0,1.76-.92l.47-.48a2.25,2.25,0,1,1,2.48,2.48l-.48.47A3.15,3.15,0,0,0,16.34,11a7.89,7.89,0,0,0,0,2.06,3.12,3.12,0,0,0,.92,1.76l.48.47a2.25,2.25,0,0,1-.24,4.49Zm-5.5-5a10.16,10.16,0,0,1,1.23.08,4.68,4.68,0,0,1,2.62,1.35l.69.69a.78.78,0,0,1,.22.56s0,.09,0,.11a.75.75,0,0,0,.75.69.75.75,0,0,0,0-1.5h-.11a.75.75,0,0,1-.53-.22l-.69-.69a4.68,4.68,0,0,1-1.35-2.62,10,10,0,0,1,0-2.45A4.71,4.71,0,0,1,16.2,8.15l.69-.69a.74.74,0,0,1,.56-.22h.12a.75.75,0,0,0,.68-.75.75.75,0,0,0-1.5,0,.84.84,0,0,1-.21.61l-.69.69a4.65,4.65,0,0,1-2.62,1.35,10.12,10.12,0,0,1-2.46,0A4.68,4.68,0,0,1,8.15,7.8l-.69-.69a.78.78,0,0,1-.22-.56s0-.09,0-.11a.75.75,0,0,0-.75-.69.76.76,0,0,0-.75.75.77.77,0,0,0,.78.75.86.86,0,0,1,.58.21l.69.69a4.68,4.68,0,0,1,1.35,2.62,10,10,0,0,1,0,2.45A4.71,4.71,0,0,1,7.8,15.85l-.69.69a.79.79,0,0,1-.56.22H6.43a.75.75,0,0,0-.68.75.75.75,0,0,0,1.5,0,.84.84,0,0,1,.21-.61l.69-.69a4.65,4.65,0,0,1,2.62-1.35A10.16,10.16,0,0,1,12,14.77Z"/></g></svg>