<svg xmlns="http://www.w3.org/2000/svg" viewBox="0 0 24 24"><g id="technologies"><path fill="currentColor" id="technology-1" d="M14.18,7.3H9.63A2.43,2.43,0,0,0,7.2,9.72v4.56A2.43,2.43,0,0,0,9.63,16.7h4.55a2.43,2.43,0,0,0,2.43-2.42V9.72A2.43,2.43,0,0,0,14.18,7.3Zm.77,7a.77.77,0,0,1-.77.76H9.63a.77.77,0,0,1-.77-.76V9.72A.77.77,0,0,1,9.63,9h4.55a.77.77,0,0,1,.77.76Zm7-.89H20.43V10.61h1.49a.83.83,0,1,0,0-1.66H20.43V7.56a4,4,0,0,0-4-4H15.05V2.08a.83.83,0,0,0-1.66,0V3.6H10.61V2.08A.83.83,0,0,0,9,2.08V3.6H7.53a4,4,0,0,0-4,4V9H2.08a.83.83,0,1,0,0,1.66H3.57v2.78H2.08a.83.83,0,0,0,0,1.66H3.57V16.5a4,4,0,0,0,4,4H9v1.46a.83.83,0,0,0,1.66,0V20.46h2.78v1.46a.83.83,0,1,0,1.66,0V20.46h1.42a4,4,0,0,0,4-4V15.05h1.49a.83.83,0,0,0,0-1.66ZM18.77,16.5a2.31,2.31,0,0,1-2.3,2.3H7.53a2.31,2.31,0,0,1-2.3-2.3V7.56a2.3,2.3,0,0,1,2.3-2.3h8.94a2.3,2.3,0,0,1,2.3,2.3Z"/></g></svg>