<svg xmlns="http://www.w3.org/2000/svg" viewBox="0 0 24 24"><g id="technologies"><path fill="currentColor" id="technology-3" d="M19,13.06l-.3,0a8.06,8.06,0,0,0-5.3,4.16l-.76,1.94v-4h.05l1.59-.8a1.65,1.65,0,0,0,.92-1.49V11.1a1.5,1.5,0,0,0-.1-.56,5.19,5.19,0,1,0-6.33,0,1.73,1.73,0,0,0-.09.56v1.8a1.65,1.65,0,0,0,.92,1.49l1.59.8h0v3.17l-.44-1.12a8.06,8.06,0,0,0-5.3-4.16,1.63,1.63,0,0,0-.31,0,1.38,1.38,0,0,0-1.32,1.67,8.06,8.06,0,0,0,6.93,6.14l.44,0v1.15a.7.7,0,1,0,1.4,0V20.92l.76-.05a8.06,8.06,0,0,0,6.93-6.14A1.38,1.38,0,0,0,19,13.06ZM5.19,14.47a6.64,6.64,0,0,1,4.3,3.35l.59,1.51A6.65,6.65,0,0,1,5.19,14.47Zm2.92-8a3.79,3.79,0,1,1,3.79,3.79A3.79,3.79,0,0,1,8.11,6.44Zm2.07,6.7A.28.28,0,0,1,10,12.9V11.28a5.17,5.17,0,0,0,3.74,0V12.9a.28.28,0,0,1-.15.24l-1.6.8a.25.25,0,0,1-.24,0ZM14,19.33l.59-1.51a6.65,6.65,0,0,1,4.29-3.35A6.67,6.67,0,0,1,14,19.33Z"/></g></svg>