<svg xmlns="http://www.w3.org/2000/svg" viewBox="0 0 24 24"><g id="technologies"><g id="technology-1"><path d="M21.23,13.29H19.07V10.71h2.16a.78.78,0,0,0,0-1.55H19.07V7.87A2.91,2.91,0,0,0,16.15,5H14.84V2.77a.78.78,0,0,0-1.55,0V5H10.71V2.77a.78.78,0,0,0-1.55,0V5H7.85A2.91,2.91,0,0,0,4.93,7.87V9.16H2.77a.78.78,0,0,0,0,1.55H4.93v2.58H2.77a.78.78,0,0,0,0,1.55H4.93v1.34A2.92,2.92,0,0,0,7.85,19.1H9.16v2.13a.78.78,0,0,0,1.55,0V19.1h2.58v2.13a.78.78,0,0,0,1.55,0V19.1h1.31a2.92,2.92,0,0,0,2.92-2.92V14.84h2.16a.78.78,0,0,0,0-1.55Zm-5.72.83A1.48,1.48,0,0,1,14,15.6H9.79a1.48,1.48,0,0,1-1.48-1.48V9.88A1.48,1.48,0,0,1,9.79,8.4H14a1.48,1.48,0,0,1,1.48,1.48Z"/></g></g></svg>