<svg xmlns="http://www.w3.org/2000/svg" viewBox="0 0 24 24"><g id="technologies"><path fill="currentColor" id="technology-3" d="M7.78,6.25A4.22,4.22,0,1,1,12,10.48,4.22,4.22,0,0,1,7.78,6.25Zm1.81,4.51v1.57a.9.9,0,0,0,.5.81l1.5.75a.89.89,0,0,0,.82,0l1.5-.75a.9.9,0,0,0,.5-.81V10.76a5.14,5.14,0,0,1-4.82,0Zm8.24,2a7.58,7.58,0,0,0-5,3.91v-2l0,0a1.82,1.82,0,0,1-1.62,0l0,0v2a7.58,7.58,0,0,0-5-3.91A1.29,1.29,0,0,0,4.64,14.3a7.57,7.57,0,0,0,6.52,5.77V21a.84.84,0,0,0,1.68,0v-.89a7.57,7.57,0,0,0,6.52-5.77A1.29,1.29,0,0,0,17.83,12.76Z"/></g></svg>