<svg xmlns="http://www.w3.org/2000/svg" viewBox="0 0 24 24"><g id="devices"><path fill="currentColor" id="monitor-mobbile" d="M20.07,9.5h-6a2,2,0,0,0-1.94,2V20a2,2,0,0,0,1.94,2h6A2,2,0,0,0,22,20V11.47A2,2,0,0,0,20.07,9.5Zm-3,10.83a1.11,1.11,0,1,1,1.09-1.1A1.09,1.09,0,0,1,17.07,20.33Zm-5.84.43H7.28a.75.75,0,0,1,0-1.5h2.94V16.63H5.78A3.81,3.81,0,0,1,2,12.8v-7A3.81,3.81,0,0,1,5.78,2H16.85a3.81,3.81,0,0,1,3.77,3.83V8.56a3.31,3.31,0,0,0-.55-.06h-6a3,3,0,0,0-2.94,3V20A3.38,3.38,0,0,0,11.23,20.76Zm1,0h0a2,2,0,0,1-.1-.35A3.57,3.57,0,0,0,12.27,20.76Z"/></g></svg>