<svg xmlns="http://www.w3.org/2000/svg" viewBox="0 0 24 24"><defs><style>.cls-1{opacity:0.3;}</style></defs><g id="it-network"><g id="click"><path d="M18.39,13,9.71,4.29a1,1,0,0,0-1.09-.21A1,1,0,0,0,8,5V17.28a1,1,0,0,0,.56.9,1,1,0,0,0,.44.1,1,1,0,0,0,.62-.21A17.47,17.47,0,0,1,12,16.53l1.5,3.55a1.48,1.48,0,0,0,1.38.92,1.51,1.51,0,0,0,.58-.12,1.49,1.49,0,0,0,.8-2l-1.5-3.58a16.54,16.54,0,0,1,3.08-.66,1,1,0,0,0,.83-.66A1,1,0,0,0,18.39,13Z"/><path class="cls-1" d="M14.14,5.34a.69.69,0,0,1-.36-.09.74.74,0,0,1-.3-1l1-1.76a.75.75,0,1,1,1.31.72L14.8,5A.75.75,0,0,1,14.14,5.34Z"/><path class="cls-1" d="M17.45,8.57a.75.75,0,0,1-.33-1.42l1.78-.9a.75.75,0,1,1,.68,1.34l-1.79.9A.68.68,0,0,1,17.45,8.57Z"/><path class="cls-1" d="M4.78,10.77h0l-2,0a.75.75,0,1,1,0-1.5l2,0a.75.75,0,0,1,0,1.5Z"/><path class="cls-1" d="M3.27,16.16a.75.75,0,0,1-.33-1.42l1.79-.89a.74.74,0,0,1,1,.35.73.73,0,0,1-.34,1l-1.79.89A.78.78,0,0,1,3.27,16.16Z"/></g></g></svg>