<svg xmlns="http://www.w3.org/2000/svg" viewBox="0 0 24 24"><defs><style>.cls-1{opacity:0.3;}</style></defs><g id="it-network"><g id="code"><rect class="cls-1" x="2" y="2" width="20" height="20" rx="5.28"/><path d="M16.72,2H7.28A5.27,5.27,0,0,0,2,7.28V8H22V7.28A5.27,5.27,0,0,0,16.72,2Z"/><path d="M8.93,17.76a.79.79,0,0,1-.53-.22l-2-2A.74.74,0,0,1,6.17,15a.83.83,0,0,1,.23-.54l2-1.92a.75.75,0,1,1,1,1.08L8,15l1.46,1.43a.75.75,0,0,1,0,1.06A.78.78,0,0,1,8.93,17.76Z"/><path d="M15.07,17.76a.78.78,0,0,1-.54-.23.75.75,0,0,1,0-1.06L16,15l-1.45-1.39a.75.75,0,0,1,1-1.08l2,1.92a.83.83,0,0,1,.23.54.74.74,0,0,1-.23.54l-2,2A.79.79,0,0,1,15.07,17.76Z"/></g></g></svg>