<svg xmlns="http://www.w3.org/2000/svg" viewBox="0 0 24 24"><defs><style>.cls-1{opacity:0.3;}</style></defs><g id="it-network"><g id="disconnect"><path d="M11.2,8.54l-.71-.72a1,1,0,0,1,0-1.41l2.93-2.94a5,5,0,0,1,7.44.37,5.17,5.17,0,0,1-.48,6.89l-2.79,2.78a1,1,0,0,1-1.41,0l-.72-.71a1,1,0,0,1,0-1.42L18.4,8.45a2,2,0,0,0-.26-3.07,2.11,2.11,0,0,0-2.67.3L12.62,8.54A1,1,0,0,1,11.2,8.54Zm0,7.06L8.53,18.32a2.11,2.11,0,0,1-2.67.3,2,2,0,0,1-.26-3.07l2.8-2.79a1,1,0,0,0,0-1.42l-.72-.72a1,1,0,0,0-1.41,0L3.62,13.27a5.17,5.17,0,0,0-.48,6.89,5,5,0,0,0,7.44.37l2.8-2.8a1,1,0,0,0,0-1.41l-.72-.72A1,1,0,0,0,11.24,15.6Z"/><path class="cls-1" d="M5.35,8.28l-.23,0L3,7.59a.76.76,0,0,1-.49-.94.74.74,0,0,1,.94-.49l2.1.66a.75.75,0,0,1-.23,1.46Z"/><path class="cls-1" d="M8.45,5.31a.76.76,0,0,1-.74-.64l-.2-1.44A.75.75,0,0,1,9,3l.2,1.43a.74.74,0,0,1-.64.84Z"/><path class="cls-1" d="M16.25,20.74a.74.74,0,0,1-.73-.59L15.08,18a.75.75,0,0,1,.58-.89.77.77,0,0,1,.89.58L17,19.84a.76.76,0,0,1-.58.89Z"/><path class="cls-1" d="M20.19,16.5a.55.55,0,0,1-.18,0l-1.4-.35a.74.74,0,0,1-.55-.9.75.75,0,0,1,.91-.55l1.4.34a.75.75,0,0,1-.18,1.48Z"/></g></g></svg>