<svg xmlns="http://www.w3.org/2000/svg" viewBox="0 0 24 24"><defs><style>.cls-1{opacity:0.3;}</style></defs><g id="it-network"><g id="fasten"><path class="cls-1" d="M18.4,5.6a2,2,0,0,1,0,2.85L14.84,12A2,2,0,0,1,12,9.16L15.55,5.6a2,2,0,0,1,2.85,0m2.13-2.13a5,5,0,0,0-7.11,0L9.87,7a5,5,0,0,0,7.1,7.1l3.56-3.55a5,5,0,0,0,0-7.11Z"/><path d="M14.13,9.87a4.78,4.78,0,0,0-1.72-1.12L12,9.16A2,2,0,0,0,12,12a2,2,0,0,1,0,2.84L8.45,18.4A2,2,0,1,1,5.6,15.55l3.15-3.14a5,5,0,0,1,0-3.66A4.78,4.78,0,0,0,7,9.87L3.47,13.42a5,5,0,0,0,7.11,7.11L14.13,17A5,5,0,0,0,14.13,9.87Z"/></g></g></svg>