<svg xmlns="http://www.w3.org/2000/svg" viewBox="0 0 24 24"><defs><style>.cls-1{opacity:0.3;}</style></defs><g id="it-network"><g id="frame"><path d="M20.78,17.75H13.22a.75.75,0,1,1,0-1.5h7.56a.75.75,0,0,1,0,1.5Z"/><path d="M17.82,21.75h-4.6a.75.75,0,1,1,0-1.5h4.6a.75.75,0,0,1,0,1.5Z"/><path class="cls-1" d="M9.15,2.45H2.75a.7.7,0,0,0-.7.71V21.05a.7.7,0,0,0,.7.7h6.4a.7.7,0,0,0,.71-.7V3.16A.71.71,0,0,0,9.15,2.45ZM3.86,4H8L6,9.86ZM8,20.25H3.86L6,14.35ZM5.16,12.1,3.55,16.64V7.57Zm3.2,4.54L6.75,12.1,8.36,7.57Z"/><path class="cls-1" d="M20.86,2.45H13.14a.68.68,0,0,0-.67.68V13.26a.67.67,0,0,0,.67.67h7.72a.67.67,0,0,0,.67-.67V3.13A.68.68,0,0,0,20.86,2.45ZM14.73,4h4.54L17,7Zm4.54,8.48H14.73l2.27-3ZM16.06,8.19,14,11V5.43ZM20,11,17.94,8.19,20,5.43Z"/></g></g></svg>