<svg xmlns="http://www.w3.org/2000/svg" viewBox="0 0 24 24"><defs><style>.cls-1{opacity:0.3;}</style></defs><g id="it-network"><g id="gear"><path class="cls-1" d="M20.74,10.19h-.95a7.94,7.94,0,0,0-1-2.42l.67-.67a1.26,1.26,0,0,0,0-1.78l-.78-.78a1.26,1.26,0,0,0-1.78,0l-.67.67a7.94,7.94,0,0,0-2.42-1v-1A1.27,1.27,0,0,0,12.55,2h-1.1a1.27,1.27,0,0,0-1.26,1.26v1a7.94,7.94,0,0,0-2.42,1L7.1,4.54a1.26,1.26,0,0,0-1.78,0l-.78.78a1.26,1.26,0,0,0,0,1.78l.67.67a7.94,7.94,0,0,0-1,2.42h-1A1.27,1.27,0,0,0,2,11.45v1.1a1.27,1.27,0,0,0,1.26,1.26h1a7.94,7.94,0,0,0,1,2.42l-.67.67a1.26,1.26,0,0,0,0,1.78l.78.78a1.26,1.26,0,0,0,1.78,0l.67-.67a7.94,7.94,0,0,0,2.42,1v.95A1.27,1.27,0,0,0,11.45,22h1.1a1.27,1.27,0,0,0,1.26-1.26v-.95a7.94,7.94,0,0,0,2.42-1l.67.67a1.26,1.26,0,0,0,1.78,0l.78-.78a1.26,1.26,0,0,0,0-1.78l-.67-.67a7.94,7.94,0,0,0,1-2.42h.95A1.27,1.27,0,0,0,22,12.55v-1.1A1.27,1.27,0,0,0,20.74,10.19ZM12,15.71A3.71,3.71,0,1,1,15.71,12,3.71,3.71,0,0,1,12,15.71Z"/><path d="M12,15.71a3.71,3.71,0,0,1,0-7.42V2h-.55a1.27,1.27,0,0,0-1.26,1.26v1a7.94,7.94,0,0,0-2.42,1L7.1,4.54a1.26,1.26,0,0,0-1.78,0l-.78.78a1.26,1.26,0,0,0,0,1.78l.67.67a7.94,7.94,0,0,0-1,2.42h-1A1.27,1.27,0,0,0,2,11.45v1.1a1.27,1.27,0,0,0,1.26,1.26h1a7.94,7.94,0,0,0,1,2.42l-.67.67a1.26,1.26,0,0,0,0,1.78l.78.78a1.26,1.26,0,0,0,1.78,0l.67-.67a7.94,7.94,0,0,0,2.42,1v.95A1.27,1.27,0,0,0,11.45,22H12Z"/></g></g></svg>