<svg xmlns="http://www.w3.org/2000/svg" viewBox="0 0 24 24"><defs><style>.cls-1{opacity:0.3;}</style></defs><g id="it-network"><g id="loading"><path d="M12,7a1,1,0,0,1-1-1V3a1,1,0,0,1,2,0V6A1,1,0,0,1,12,7Zm-2.59.56a1,1,0,0,0,.36-1.37L8.39,3.84a1,1,0,0,0-1.73,1L8,7.21a1,1,0,0,0,.86.49A.94.94,0,0,0,9.41,7.56Zm-2,1.78A1,1,0,0,0,7.09,8L5,6.73A1,1,0,0,0,4,8.46L6.08,9.7a1,1,0,0,0,.5.13A1,1,0,0,0,7.45,9.34ZM6.59,12a1,1,0,0,0-1-1H3.41a1,1,0,0,0,0,2H5.59A1,1,0,0,0,6.59,12Z"/><path class="cls-1" d="M16.75,5.51a1,1,0,1,1-1-1A1,1,0,0,1,16.75,5.51ZM5.21,17.13l1.64-1a1,1,0,1,0-1-1.73l-1.65,1a1,1,0,0,0-.35,1.37,1,1,0,0,0,.86.5A1.06,1.06,0,0,0,5.21,17.13ZM7.8,20.18A.9.9,0,0,1,7.3,20a1,1,0,0,1-.36-1.36l.83-1.42a1,1,0,0,1,1.72,1l-.83,1.41A1,1,0,0,1,7.8,20.18Zm4.2,1a1,1,0,0,1-1-1V18.82a1,1,0,0,1,2,0v1.36A1,1,0,0,1,12,21.18ZM16.06,20a1,1,0,0,1-.86-.5l-.55-.94a1,1,0,1,1,1.72-1l.55.94a1,1,0,0,1-.35,1.37A1.06,1.06,0,0,1,16.06,20Zm2.77-3a1,1,0,0,1-.51-.13l-.7-.42a1,1,0,1,1,1-1.72l.7.41a1,1,0,0,1,.36,1.37A1,1,0,0,1,18.83,17Zm.94-4h-.54a1,1,0,0,1,0-2h.54a1,1,0,0,1,0,2ZM18.35,9.27a1,1,0,0,1-.51-1.86l.24-.14a1,1,0,0,1,1,1.72l-.23.14A1.06,1.06,0,0,1,18.35,9.27Z"/></g></g></svg>