<svg xmlns="http://www.w3.org/2000/svg" viewBox="0 0 24 24"><defs><style>.cls-1{opacity:0.3;}</style></defs><g id="it-network"><g id="message-programming"><path class="cls-1" d="M17.38,2H6.62A4.62,4.62,0,0,0,2,6.61v7.76A4.62,4.62,0,0,0,6.62,19H8.35a1.23,1.23,0,0,1,.94.45L11,21.56a1.22,1.22,0,0,0,1.9,0l1.6-2.06a1.23,1.23,0,0,1,1-.48h1.88A4.62,4.62,0,0,0,22,14.37V6.61A4.62,4.62,0,0,0,17.38,2Z"/><path d="M8,13.45a.7.7,0,0,1-.52-.22l-2-2a.77.77,0,0,1-.22-.54.76.76,0,0,1,.23-.54l2-1.92a.75.75,0,1,1,1,1.08L7.08,10.73l1.46,1.43A.75.75,0,0,1,8,13.45Z"/><path d="M16,13.45a.75.75,0,0,1-.53-1.29l1.46-1.43L15.47,9.34a.75.75,0,1,1,1-1.08l2,1.92a.76.76,0,0,1,.23.54.77.77,0,0,1-.22.54l-2,2A.7.7,0,0,1,16,13.45Z"/><path d="M11.11,13.69a.72.72,0,0,1-.29-.06.75.75,0,0,1-.4-1l1.87-4.49a.75.75,0,1,1,1.38.58L11.8,13.23A.76.76,0,0,1,11.11,13.69Z"/></g></g></svg>