<svg xmlns="http://www.w3.org/2000/svg" viewBox="0 0 24 24"><defs><style>.cls-1{opacity:0.3;}</style></defs><g id="it-network"><g id="scroll"><path class="cls-1" d="M18,22a3,3,0,0,0,3-3,2.87,2.87,0,0,0-.29-1.28L15.29,6.28A2.87,2.87,0,0,1,15,5a3,3,0,0,1,3-3H6A3,3,0,0,0,3,5a2.87,2.87,0,0,0,.29,1.28L8.71,17.72A2.87,2.87,0,0,1,9,19a3,3,0,0,1-3,3Z"/><path d="M18,2a3,3,0,0,1,2.84,2,.75.75,0,0,1-.7,1H10a1.16,1.16,0,0,1-1.13-.8A3,3,0,0,0,6,2Z"/><path d="M9,19a3,3,0,0,1-5.64,1.42A1,1,0,0,1,4.23,19Z"/></g></g></svg>