<svg xmlns="http://www.w3.org/2000/svg" viewBox="0 0 24 24"><defs><style>.cls-1{opacity:0.3;}</style></defs><g id="it-network"><g id="square-brackets"><rect class="cls-1" x="2" y="2" width="20" height="20" rx="5.81" transform="translate(24 24) rotate(180)"/><path d="M8.33,17a.74.74,0,0,1-.62-.34l-2.8-4.14a.76.76,0,0,1,0-.83L7.7,7.36a.75.75,0,0,1,1-.23.76.76,0,0,1,.23,1L6.43,12.08,9,15.82a.75.75,0,0,1-.2,1A.83.83,0,0,1,8.33,17Z"/><path d="M15.67,17a.83.83,0,0,1-.42-.13.75.75,0,0,1-.2-1l2.52-3.74L15,8.17a.76.76,0,0,1,.23-1,.75.75,0,0,1,1,.23l2.8,4.32a.76.76,0,0,1,0,.83l-2.8,4.14A.74.74,0,0,1,15.67,17Z"/><path class="cls-1" d="M11,17a.57.57,0,0,1-.18,0,.74.74,0,0,1-.55-.9l2-8.47a.75.75,0,0,1,1.46.35l-2.05,8.47A.75.75,0,0,1,11,17Z"/></g></g></svg>