<svg xmlns="http://www.w3.org/2000/svg" viewBox="0 0 24 24"><defs><style>.cls-1{opacity:0.3;}</style></defs><g id="it-network"><g id="underlining"><rect class="cls-1" x="2" y="2" width="20" height="20" rx="5.81" transform="translate(24 24) rotate(180)"/><path d="M7,15.91a.76.76,0,0,1-.41-.13.75.75,0,0,1-.21-1L8.91,11,6.39,7.09a.75.75,0,0,1,.22-1,.76.76,0,0,1,1,.23l2.79,4.32a.76.76,0,0,1,0,.83L7.64,15.57A.75.75,0,0,1,7,15.91Z"/><path class="cls-1" d="M17,18.06h-5.9a.75.75,0,0,1,0-1.5H17a.75.75,0,0,1,0,1.5Z"/></g></g></svg>