<svg xmlns="http://www.w3.org/2000/svg" viewBox="0 0 24 24"><defs><style>.cls-1{opacity:0.3;}</style></defs><g id="it-network"><g id="wrench"><path class="cls-1" d="M22,8.66a6.79,6.79,0,0,1-7.76,6.86,3,3,0,0,0-2.54.89L6.94,21.16a2.91,2.91,0,0,1-4.23-.11,3,3,0,0,1,.22-4.13l4.65-4.64a3,3,0,0,0,.88-2.54A6.79,6.79,0,0,1,15.32,2a1.07,1.07,0,0,1,.73,1.82L13.18,6.68a1.54,1.54,0,0,0-.32,1.77,5.56,5.56,0,0,0,2.67,2.68,1.56,1.56,0,0,0,1.77-.32l2.88-2.88A1.07,1.07,0,0,1,22,8.66Z"/><path d="M4.17,19.81a1,1,0,0,1,0-1.37L9.7,12.91a1,1,0,0,1,1.37,0,1,1,0,0,1,0,1.38L5.55,19.81A1,1,0,0,1,4.17,19.81Z"/></g></g></svg>