<svg xmlns="http://www.w3.org/2000/svg" viewBox="0 0 24 24"><defs><style>.cls-1{opacity:0.3;}</style></defs><g id="abstract"><g id="abstract-49"><path class="cls-1" d="M7.5,6.5H10a1,1,0,0,1,1,1v8.92a1,1,0,0,1-1,1H7.5A5.5,5.5,0,0,1,2,12v0A5.5,5.5,0,0,1,7.5,6.5Z"/><path class="cls-1" d="M18.5,6.5H21a1,1,0,0,1,1,1v8.92a1,1,0,0,1-1,1H18.5A5.5,5.5,0,0,1,13,12v0a5.5,5.5,0,0,1,5.5-5.5Z" transform="translate(35 24) rotate(-180)"/><path d="M16.08,12.75h-8a.75.75,0,0,1,0-1.5h8a.75.75,0,0,1,0,1.5Z"/></g></g></svg>