<svg xmlns="http://www.w3.org/2000/svg" viewBox="0 0 24 24"><defs><style>.cls-1{opacity:0.3;}</style></defs><g id="abstract"><g id="abstract-1"><path fill="currentColor" id="abstract-1-2" data-name="abstract-1" class="cls-1" d="M11.54,21.19,8.12,16.05a1.74,1.74,0,0,1,0-1.93l3.31-5a.44.44,0,0,0,0-.47L9,5.1a1.45,1.45,0,0,1,.4-2l1-.67a1.45,1.45,0,0,1,2,.4L15.88,8a1.74,1.74,0,0,1,0,1.93l-3.31,5a.44.44,0,0,0,0,.47L15,18.9a1.45,1.45,0,0,1-.4,2l-1,.67A1.45,1.45,0,0,1,11.54,21.19Z"/><path d="M12.46,2.81a1.45,1.45,0,0,0-2-.4l-1,.67a1.45,1.45,0,0,0-.4,2l2.39,3.58a.44.44,0,0,1,0,.47L9.53,12h4.94l1.41-2.12a1.74,1.74,0,0,0,0-1.93Z"/></g></g></svg>