<svg xmlns="http://www.w3.org/2000/svg" viewBox="0 0 24 24"><g id="abstract"><path fill="currentColor" id="abstract-4" d="M12,22.75a1.74,1.74,0,0,1-1.24-.51l-9-9a1.76,1.76,0,0,1,0-2.48l9-9a1.8,1.8,0,0,1,2.48,0l9,9a1.76,1.76,0,0,1,0,2.48l-9,9A1.74,1.74,0,0,1,12,22.75Zm0-20a.27.27,0,0,0-.18.07l-9,9a.27.27,0,0,0,0,.36l9,9a.22.22,0,0,0,.35,0l9-9a.27.27,0,0,0,0-.36l-9-9A.27.27,0,0,0,12,2.75Zm0,14.76a.79.79,0,0,1-.53-.22L6.71,12.53a.75.75,0,0,1,0-1.06l4.76-4.76a.77.77,0,0,1,1.06,0l4.76,4.76a.75.75,0,0,1,0,1.06l-4.76,4.76A.79.79,0,0,1,12,17.51ZM8.3,12,12,15.7,15.7,12,12,8.3Z"/></g></svg>