<svg xmlns="http://www.w3.org/2000/svg" viewBox="0 0 24 24"><g id="abstract"><path fill="currentColor" id="abstract-2" data-name="abstract" d="M11.59,22.44a2.49,2.49,0,0,1-1.77-.73L3,14.87a2.7,2.7,0,0,1-.59-2.95l.42-1a2.7,2.7,0,0,1,2.5-1.67h8.05L10.29,6.18a2.49,2.49,0,0,1-.73-1.77,2.52,2.52,0,0,1,.73-1.77l.36-.35a2.5,2.5,0,0,1,3.53,0L21,9.13a2.69,2.69,0,0,1,.59,2.95l-.42,1a2.7,2.7,0,0,1-2.5,1.67h-8l3.07,3.07a2.52,2.52,0,0,1,0,3.54l-.36.35A2.48,2.48,0,0,1,11.59,22.44ZM5.31,10.75a1.21,1.21,0,0,0-1.12.74l-.41,1A1.19,1.19,0,0,0,4,13.81l6.84,6.83h0a1,1,0,0,0,1.41,0l.36-.35a1,1,0,0,0,0-1.41L8.3,14.53a.75.75,0,0,1,.53-1.28h9.86a1.21,1.21,0,0,0,1.12-.74l.41-1A1.2,1.2,0,0,0,20,10.19L13.12,3.35a1,1,0,0,0-1.41,0l-.35.36a1,1,0,0,0-.3.7,1,1,0,0,0,.3.71L15.7,9.47a.75.75,0,0,1-.53,1.28Z"/></g></svg>