<svg xmlns="http://www.w3.org/2000/svg" viewBox="0 0 24 24"><g id="abstract"><path fill="currentColor" id="abstract-30" d="M4,6.75A2.75,2.75,0,1,1,6.75,4,2.75,2.75,0,0,1,4,6.75Zm0-4A1.25,1.25,0,1,0,5.25,4,1.25,1.25,0,0,0,4,2.75Zm16,20A2.75,2.75,0,1,1,22.75,20,2.75,2.75,0,0,1,20,22.75Zm0-4A1.25,1.25,0,1,0,21.25,20,1.25,1.25,0,0,0,20,18.75Zm-8,4A2.75,2.75,0,1,1,14.75,20,2.75,2.75,0,0,1,12,22.75Zm0-4A1.25,1.25,0,1,0,13.25,20,1.25,1.25,0,0,0,12,18.75Zm-8,4A2.75,2.75,0,1,1,6.75,20,2.75,2.75,0,0,1,4,22.75Zm0-4A1.25,1.25,0,1,0,5.25,20,1.25,1.25,0,0,0,4,18.75Zm16-4A2.75,2.75,0,1,1,22.75,12,2.75,2.75,0,0,1,20,14.75Zm0-4A1.25,1.25,0,1,0,21.25,12,1.25,1.25,0,0,0,20,10.75Zm-8,4A2.75,2.75,0,1,1,14.75,12,2.75,2.75,0,0,1,12,14.75Zm0-4A1.25,1.25,0,1,0,13.25,12,1.25,1.25,0,0,0,12,10.75Zm-8,4A2.75,2.75,0,1,1,6.75,12,2.75,2.75,0,0,1,4,14.75Zm0-4A1.25,1.25,0,1,0,5.25,12,1.25,1.25,0,0,0,4,10.75Zm16-4A2.75,2.75,0,1,1,22.75,4,2.75,2.75,0,0,1,20,6.75Zm0-4A1.25,1.25,0,1,0,21.25,4,1.25,1.25,0,0,0,20,2.75Zm-8,4A2.75,2.75,0,1,1,14.75,4,2.75,2.75,0,0,1,12,6.75Zm0-4A1.25,1.25,0,1,0,13.25,4,1.25,1.25,0,0,0,12,2.75Z"/></g></svg>