<svg xmlns="http://www.w3.org/2000/svg" viewBox="0 0 24 24"><g id="abstract"><path fill="currentColor" id="abstract-39" d="M22.75,12a11,11,0,0,0-.19-2h0a10.62,10.62,0,0,0-1.73-4.1l0,0A10.76,10.76,0,0,0,17,2.5l0,0A10.71,10.71,0,0,0,3.2,5.84l0,0A10.6,10.6,0,0,0,1.45,10h0a11,11,0,0,0-.19,2A10.76,10.76,0,0,0,12,22.75a11.4,11.4,0,0,0,1.32-.09h0A10.77,10.77,0,0,0,22.75,12Zm-20,0a9.28,9.28,0,0,1,.07-1.06A9.29,9.29,0,0,1,7.9,13.85.75.75,0,0,0,9,13.91.74.74,0,0,0,9,12.86,10.67,10.67,0,0,0,3.11,9.47a9.56,9.56,0,0,1,1-2.33,13.24,13.24,0,0,1,6,3.26.74.74,0,0,0,.52.2.7.7,0,0,0,.54-.23.75.75,0,0,0,0-1.06,14.87,14.87,0,0,0-6-3.47,9.2,9.2,0,0,1,9.66-2.66A18.25,18.25,0,0,0,9.93,6.57a.75.75,0,0,0,0,1.06.78.78,0,0,0,.54.23A.73.73,0,0,0,11,7.65,17.16,17.16,0,0,1,16.63,4a9.75,9.75,0,0,1,2.25,1.84A14.79,14.79,0,0,0,8.25,20c0,.15,0,.3,0,.46A9.27,9.27,0,0,1,2.75,12Zm7,9c0-.33,0-.66,0-1A13.28,13.28,0,0,1,19.85,7.14a9.22,9.22,0,0,1,1,2.33A10.74,10.74,0,0,0,12.25,20a10.16,10.16,0,0,0,.08,1.23l-.33,0A9,9,0,0,1,9.79,21Zm4,.1A9.77,9.77,0,0,1,13.75,20a9.24,9.24,0,0,1,7.43-9.06,9.16,9.16,0,0,1-7.36,10.13Z"/></g></svg>