<svg xmlns="http://www.w3.org/2000/svg" viewBox="0 0 24 24"><g id="abstract"><path fill="currentColor" id="abstract-43" d="M22.74,8a.65.65,0,0,0,0-.19.64.64,0,0,0,0-.07.86.86,0,0,0-.15-.22L17,1.92a2.29,2.29,0,0,0-1.62-.67H8a.65.65,0,0,0-.19,0l-.08,0a.7.7,0,0,0-.21.14L1.92,7a2.29,2.29,0,0,0-.67,1.62V16s0,0,0,.05a.65.65,0,0,0,0,.19s0,.05,0,.08a1,1,0,0,0,.15.21L7,22.08a2.33,2.33,0,0,0,1.62.67H16a.72.72,0,0,0,.29-.06.78.78,0,0,0,.24-.16L22.08,17a2.33,2.33,0,0,0,.67-1.62V8S22.74,8,22.74,8ZM15.92,3l4.27,4.27H8.75V2.75h6.61A.79.79,0,0,1,15.92,3Zm-.67,12.27H8.75V8.75h6.5ZM2.75,8.64A.79.79,0,0,1,3,8.08L7.25,3.81V15.25H2.75ZM8.08,21,3.81,16.75H15.25v4.5H8.64A.79.79,0,0,1,8.08,21Zm13.17-5.66a.83.83,0,0,1-.23.56l-4.27,4.27V8.75h4.5Z"/></g></svg>