<svg xmlns="http://www.w3.org/2000/svg" viewBox="0 0 24 24"><g id="abstract"><path fill="currentColor" id="abstract-44" d="M22.75,6.88V3.4a1.9,1.9,0,0,0-2.27-1.86L3,5.05a2.1,2.1,0,0,0-1.7,2.07V12s0,0,0,.05a.86.86,0,0,0,.05.23s0,.05,0,.08a.86.86,0,0,0,.14.18l0,0h0l.13.07.09.05h0L6.9,14.25,3,15.05a2.1,2.1,0,0,0-1.7,2.07V20.6a1.91,1.91,0,0,0,1.9,1.9,1.55,1.55,0,0,0,.37,0L21.05,19a2.11,2.11,0,0,0,1.7-2.07V12s0,0,0-.05a.86.86,0,0,0,0-.23l0-.08a.86.86,0,0,0-.14-.18s0,0,0,0h0a.92.92,0,0,0-.24-.13L17.1,9.75,21.05,9A2.11,2.11,0,0,0,22.75,6.88Zm-1.5,10a.61.61,0,0,1-.49.6L3.23,21a.41.41,0,0,1-.33-.08.4.4,0,0,1-.15-.31V17.12a.61.61,0,0,1,.49-.6l18-3.6ZM14,10.37l4.94,1.48-1.85.38-7,1.4L5.1,12.15,6,12Zm6.8-2.89-18,3.61v-4a.61.61,0,0,1,.49-.6L20.77,3h.08a.42.42,0,0,1,.25.09.4.4,0,0,1,.15.31V6.88a.61.61,0,0,1-.49.6Z"/></g></svg>