<svg xmlns="http://www.w3.org/2000/svg" viewBox="0 0 24 24"><g id="abstract"><path fill="currentColor" id="abstract-24" d="M17.29,8.87a.77.77,0,0,0,.37-.65V4.14a1.67,1.67,0,0,0-2.5-1.45L12,4.51,8.84,2.69a1.67,1.67,0,0,0-2.5,1.45V8.22a.77.77,0,0,0,.37.65l4.91,2.83a.75.75,0,0,0,.38.1.69.69,0,0,0,.37-.1ZM15.91,4a.17.17,0,0,1,.17,0,.15.15,0,0,1,.08.15V7.78l-3.41,2V5.81Zm-8.07.15A.15.15,0,0,1,7.92,4a.17.17,0,0,1,.17,0l3.16,1.82v4l-3.41-2ZM21.91,11.5l-3.53-2a.72.72,0,0,0-.75,0L12.72,12.3a.73.73,0,0,0-.38.65v5.67a.73.73,0,0,0,.38.65l3.53,2a1.63,1.63,0,0,0,1.67,0,1.66,1.66,0,0,0,.84-1.45V16.22l3.15-1.83a1.66,1.66,0,0,0,0-2.89ZM17.17,20A.17.17,0,0,1,17,20l-3.16-1.82v-4l3.42,2v3.64A.17.17,0,0,1,17.17,20Zm4-6.92L18,14.92l-3.42-2L18,11l3.15,1.83a.17.17,0,0,1,.09.15A.16.16,0,0,1,21.16,13.09Zm-9.88-.79L6.37,9.46a.72.72,0,0,0-.75,0l-3.54,2a1.67,1.67,0,0,0,0,2.89l3.16,1.83v3.64a1.66,1.66,0,0,0,.84,1.45,1.63,1.63,0,0,0,1.67,0l3.53-2a.73.73,0,0,0,.38-.65V13A.73.73,0,0,0,11.28,12.3ZM2.75,13a.16.16,0,0,1,.08-.15L6,11l3.42,2L6,14.92,2.83,13.09A.15.15,0,0,1,2.75,13ZM7,20a.17.17,0,0,1-.17,0,.17.17,0,0,1-.09-.15V16.22l3.42-2v4Z"/></g></svg>