<svg xmlns="http://www.w3.org/2000/svg" viewBox="0 0 24 24"><g id="business"><path fill="currentColor" id="chart-line-star" d="M19.52,22.25l-.62-.36a.92.92,0,0,0-.91,0l-.61.37a.91.91,0,0,1-1.35-1l.15-.7a1,1,0,0,0-.29-.89l-.53-.47a.93.93,0,0,1,.51-1.61l.7-.08a.89.89,0,0,0,.74-.55l.22-.51a1,1,0,0,1,1.79,0l.23.52a.9.9,0,0,0,.74.54l.7.07a.92.92,0,0,1,.52,1.6l-.53.49a.93.93,0,0,0-.27.88l.15.7A.91.91,0,0,1,19.52,22.25ZM22,8v8c0,.13,0,.26,0,.4a2.24,2.24,0,0,0-.84-.27l-.37,0-.08-.2a2.45,2.45,0,0,0-2.26-1.49h0a2.48,2.48,0,0,0-2.27,1.51l-.08.2-.37,0a2.41,2.41,0,0,0-2,1.68,2.45,2.45,0,0,0,.69,2.57l.27.25-.07.37a2.44,2.44,0,0,0,0,1H7.89a5.94,5.94,0,0,1-5.89-6V8A5.94,5.94,0,0,1,7.89,2h8.22A5.94,5.94,0,0,1,22,8ZM16.94,9.28a.74.74,0,0,0-1.06,0l-2.62,2.86a.1.1,0,0,1-.14,0l-1.55-1.25a1.57,1.57,0,0,0-2.14.13L7,13.56a.78.78,0,0,0,0,1.08.73.73,0,0,0,.52.21.73.73,0,0,0,.53-.22l2.4-2.5a.1.1,0,0,1,.14,0l1.55,1.25a1.59,1.59,0,0,0,2.17-.17L17,10.35A.77.77,0,0,0,16.94,9.28Z"/></g></svg>