<svg xmlns="http://www.w3.org/2000/svg" viewBox="0 0 24 24"><g id="business"><path fill="currentColor" id="chart-simple-2" d="M20.78,22.15H3.22a.75.75,0,1,1,0-1.5H20.78a.75.75,0,0,1,0,1.5ZM13.17,18V7.37A1.18,1.18,0,0,0,12,6.19H11A1.18,1.18,0,0,0,9.85,7.37V18A1.18,1.18,0,0,0,11,19.14h1A1.18,1.18,0,0,0,13.17,18Zm5.69-.12V3.15a1.3,1.3,0,0,0-1.3-1.3h-.71a1.3,1.3,0,0,0-1.3,1.3V17.84a1.3,1.3,0,0,0,1.3,1.3h.71A1.3,1.3,0,0,0,18.86,17.84ZM7.52,18V12.35a1.18,1.18,0,0,0-1.18-1.18h-1A1.18,1.18,0,0,0,4.2,12.35V18a1.18,1.18,0,0,0,1.18,1.18h1A1.18,1.18,0,0,0,7.52,18Z"/></g></svg>