<svg xmlns="http://www.w3.org/2000/svg" viewBox="0 0 24 24"><g id="users"><path fill="currentColor" id="people" d="M14.57,12.2a3.36,3.36,0,1,1-3.36-3.36A3.36,3.36,0,0,1,14.57,12.2Zm-3.36,4.53c-2.3,0-4.16,1.18-4.16,2.64S8.91,22,11.21,22s4.16-1.18,4.16-2.63S13.51,16.73,11.21,16.73ZM16.51,2a2.83,2.83,0,1,0,2.83,2.82A2.82,2.82,0,0,0,16.51,2ZM5.88,2A2.83,2.83,0,1,0,8.7,4.82,2.82,2.82,0,0,0,5.88,2ZM16.35,9.83c-.32,0-.63,0-.94.05A4.68,4.68,0,0,1,15,15.15a7.37,7.37,0,0,0,1.36.14c2.54,0,4.59-1.23,4.59-2.73S18.89,9.83,16.35,9.83Z"/></g></svg>