<svg xmlns="http://www.w3.org/2000/svg" viewBox="0 0 24 24"><g id="abstract"><path fill="currentColor" id="abstract-10" d="M20,9.25H14.75V4A1.76,1.76,0,0,0,13,2.25H11A1.75,1.75,0,0,0,9.25,4V9.25H4A1.75,1.75,0,0,0,2.25,11v2A1.75,1.75,0,0,0,4,14.75H9.25V20A1.75,1.75,0,0,0,11,21.75h2A1.75,1.75,0,0,0,14.75,20V14.75H20A1.75,1.75,0,0,0,21.75,13V11A1.76,1.76,0,0,0,20,9.25ZM20.25,13a.25.25,0,0,1-.25.25H13.25V20a.25.25,0,0,1-.25.25H11a.25.25,0,0,1-.25-.25V13.25H4A.25.25,0,0,1,3.75,13V11A.25.25,0,0,1,4,10.75h6.75V4A.25.25,0,0,1,11,3.75h2a.25.25,0,0,1,.25.25v6.75H20a.25.25,0,0,1,.25.25Z"/></g></svg>