<svg xmlns="http://www.w3.org/2000/svg" viewBox="0 0 24 24"><g id="abstract"><path fill="currentColor" id="abstract-21" d="M23.19,10a8.56,8.56,0,0,0-8.37-8.72A8.33,8.33,0,0,0,7.64,5.5,8.64,8.64,0,0,0,3.37,7.83,8.73,8.73,0,1,0,15.72,20.18a8.55,8.55,0,0,0,1.4-1.83A8.68,8.68,0,0,0,23.19,10Zm-8.37,7.21A7.05,7.05,0,0,1,7.94,10c0-.14,0-.27,0-.4a.75.75,0,1,0-1.5-.08c0,.16,0,.32,0,.48a8.56,8.56,0,0,0,8.38,8.71H15a5.2,5.2,0,0,1-.38.44A7.23,7.23,0,1,1,16.78,14a.75.75,0,0,0,1.5,0A8.72,8.72,0,0,0,9.61,5.28a6.79,6.79,0,0,1,5.21-2.52A7.06,7.06,0,0,1,21.69,10,7.05,7.05,0,0,1,14.82,17.19Z"/></g></svg>