<svg xmlns="http://www.w3.org/2000/svg" viewBox="0 0 24 24"><g id="abstract"><path fill="currentColor" id="abstract-35" d="M22.72,12.76c0-.25,0-.5,0-.76a10.77,10.77,0,0,0-10-10.72h0c-.25,0-.5,0-.76,0a10.77,10.77,0,0,0-10.72,10h0c0,.25,0,.5,0,.76a10.77,10.77,0,0,0,10,10.72h.07c.23,0,.47,0,.71,0a10.77,10.77,0,0,0,10.72-10h0Zm-1.54-1.91L20,9.7a.75.75,0,0,0-.53-.22h0A.75.75,0,0,0,19,9.7L17.66,11a5.7,5.7,0,0,0-4.49-4.63L11.29,4.5,13,2.81A9.27,9.27,0,0,1,21.18,10.85Zm-9.84,5.34h0A4.22,4.22,0,0,1,7.75,12a3.37,3.37,0,0,1,.06-.66h0A4.22,4.22,0,0,1,12,7.75a3.3,3.3,0,0,1,.66.06h0A4.22,4.22,0,0,1,16.25,12a3.3,3.3,0,0,1-.06.66h0A4.22,4.22,0,0,1,12,16.25,3.37,3.37,0,0,1,11.34,16.19ZM10.85,2.82,9.7,4A.75.75,0,0,0,9.7,5L11,6.34a5.7,5.7,0,0,0-4.63,4.5L4.5,12.71,2.81,11A9.27,9.27,0,0,1,10.85,2.82Zm-8,10.33L4,14.3a.75.75,0,0,0,.53.22h0A.75.75,0,0,0,5,14.3L6.33,13a5.72,5.72,0,0,0,4.5,4.63l1.88,1.87L11,21.19A9.27,9.27,0,0,1,2.82,13.15Zm10.33,8L14.3,20a.75.75,0,0,0,0-1.06L13,17.67a5.72,5.72,0,0,0,4.63-4.51l1.87-1.87L21.19,13A9.27,9.27,0,0,1,13.15,21.18Z"/></g></svg>