<svg xmlns="http://www.w3.org/2000/svg" viewBox="0 0 24 24"><g id="abstract"><path fill="currentColor" id="abstract-6" d="M14.08,21.46A1.65,1.65,0,0,1,12.91,21L8.69,16.75H5a3.75,3.75,0,0,1-.74-7.43c0-.1,0-.21,0-.32A5.73,5.73,0,0,1,14.56,5.54,3.75,3.75,0,0,1,19.75,9c0,.11,0,.21,0,.32A3.75,3.75,0,0,1,19,16.75H15.75V19.8a1.65,1.65,0,0,1-1,1.53A1.56,1.56,0,0,1,14.08,21.46ZM5,10.75a2.25,2.25,0,0,0,0,4.5H9a.75.75,0,0,1,.53.22L14,19.91a.17.17,0,0,0,.18,0,.15.15,0,0,0,.1-.15V16a.76.76,0,0,1,.75-.75h4a2.25,2.25,0,0,0,0-4.5l-.15,0a.77.77,0,0,1-.65-.3.75.75,0,0,1-.1-.71A2.31,2.31,0,0,0,18.25,9,2.25,2.25,0,0,0,16,6.75a2.18,2.18,0,0,0-1.26.39.73.73,0,0,1-.59.11.74.74,0,0,1-.48-.36A4.24,4.24,0,0,0,5.75,9a4.12,4.12,0,0,0,.09.86.79.79,0,0,1-.16.63.75.75,0,0,1-.6.27Z"/></g></svg>