<svg xmlns="http://www.w3.org/2000/svg" viewBox="0 0 24 24"><g id="abstract"><path fill="currentColor" id="abstract-23" d="M22.66,9.43a1.82,1.82,0,0,0-1.75-1.27H15.44L13.75,3a1.84,1.84,0,0,0-3.5,0L8.56,8.16H3.09A1.84,1.84,0,0,0,2,11.49L6.43,14.7,4.74,19.9A1.84,1.84,0,0,0,7.58,22L12,18.74,16.42,22a1.84,1.84,0,0,0,2.84-2.06l-1.69-5.2L22,11.49A1.82,1.82,0,0,0,22.66,9.43Zm-11-6h0a.33.33,0,0,1,.64,0l1.54,4.74H10.14Zm-2,6.24h4.7l1.45,4.47L12,16.89,8.2,14.13Zm-6.76.61a.34.34,0,0,1,.2-.61h5L6.92,13.2ZM6.7,20.74h0a.32.32,0,0,1-.41,0,.32.32,0,0,1-.12-.38l1.54-4.73,3,2.19Zm11.13-.38a.34.34,0,0,1-.53.38l-4-2.92,3-2.19Zm3.28-10.09-4,2.93L15.93,9.66h5a.34.34,0,0,1,.2.61Z"/></g></svg>