<svg xmlns="http://www.w3.org/2000/svg" viewBox="0 0 24 24"><g id="abstract"><path fill="currentColor" id="abstract-41" d="M22.44,6.08l0,0a.72.72,0,0,0-.18-.83l0,0-2.67-2.7a2.3,2.3,0,0,0-2.35-.58c-2.82,1-9.9.64-11-.26a.55.55,0,0,0-.15-.08l0,0a.74.74,0,0,0-.84.18l0,0L2.45,4.47a2.32,2.32,0,0,0-.58,2.35,17.38,17.38,0,0,1,.62,5.09c0,3.83-.71,5.67-.85,5.86a.55.55,0,0,0-.08.15s0,0,0,0a.74.74,0,0,0,.18.84l0,0,2.69,2.7a2.3,2.3,0,0,0,2.34.58c2.82-1,9.9-.64,11,.26a.72.72,0,0,0,.48.17.75.75,0,0,0,.55-.24.56.56,0,0,0,.05-.08l2.67-2.64a2.3,2.3,0,0,0,.58-2.35c-1-2.82-.64-9.9.26-11A.55.55,0,0,0,22.44,6.08ZM17.7,3.32a.79.79,0,0,1,.8.21L20.64,5.7l-.11.08L20.15,6l-.29.15-.24.1a14.85,14.85,0,0,1-3.67,1l-.07,0A27.65,27.65,0,0,1,12,7.48a26.94,26.94,0,0,1-3.36-.21c0-.06,0-.12,0-.18-.08-.46-.17-.9-.29-1.34,0-.18-.08-.35-.13-.52S8.07,4.87,8,4.7,7.85,4.25,7.76,4s-.1-.25-.16-.38h0A25.84,25.84,0,0,0,17.7,3.32ZM15.19,15.19a30.72,30.72,0,0,0-6.36,0A30.57,30.57,0,0,0,9,11.89a30.68,30.68,0,0,0-.16-3.1A30.64,30.64,0,0,0,12,9a29.18,29.18,0,0,0,3.19-.17A30.24,30.24,0,0,0,15.19,15.19ZM3.5,5.53,5.71,3.35l.06.09c.1.15.2.32.29.49a1.09,1.09,0,0,0,.08.15,10.11,10.11,0,0,1,.61,1.6c0,.07,0,.15,0,.22.07.23.12.46.18.71s0,.22.07.33l.12.67L7.23,8a26.84,26.84,0,0,1,.26,3.86A28.64,28.64,0,0,1,7.3,15.4c-.63.11-1.24.24-1.82.4H5.43c-.29.08-.56.17-.83.26l-.13,0c-.28.1-.55.21-.8.32l-.07,0A22.52,22.52,0,0,0,4,11.91,18.72,18.72,0,0,0,3.3,6.37.86.86,0,0,1,3.5,5.53ZM6.3,20.68a.81.81,0,0,1-.8-.21L3.35,18.3l.13-.08.25-.15L4,18l.33-.15.2-.09.41-.15.14,0c.23-.08.47-.16.73-.23l.5-.14.19,0L7.13,17l.09,0,.86-.15h0a27.42,27.42,0,0,1,7.31-.06,17.82,17.82,0,0,0,.67,2.66.56.56,0,0,0,0,.12,7.07,7.07,0,0,0,.27.69l.06.16A25.88,25.88,0,0,0,6.3,20.68ZM20.46,18.5,18.3,20.65l-.09-.14c0-.07-.09-.14-.13-.22l-.15-.3a2.4,2.4,0,0,1-.11-.23c-.06-.13-.12-.27-.17-.41l-.07-.18A16.71,16.71,0,0,1,16.8,16v0a27.56,27.56,0,0,1-.07-7.33,17,17,0,0,0,2.71-.68l.06,0c.29-.1.59-.21.86-.33a25.88,25.88,0,0,0,.32,10.14A.77.77,0,0,1,20.46,18.5Z"/></g></svg>