<svg xmlns="http://www.w3.org/2000/svg" viewBox="0 0 24 24"><g id="abstract"><path fill="currentColor" id="abstract-22" d="M19.79,10.12a1.71,1.71,0,0,0-1.51-.87H12.75V3.61a1.71,1.71,0,0,0-3.19-.85L4.2,12.14a1.75,1.75,0,0,0,1.52,2.61h5.53v5.64A1.69,1.69,0,0,0,12.52,22a1.74,1.74,0,0,0,.45.06,1.69,1.69,0,0,0,1.47-.86l5.36-9.38A1.72,1.72,0,0,0,19.79,10.12ZM5.72,13.25a.26.26,0,0,1-.22-.12.27.27,0,0,1,0-.25l5.36-9.37A.2.2,0,0,1,11,3.4h.06a.19.19,0,0,1,.16.2v9.64ZM18.5,11.12l-5.36,9.37a.21.21,0,0,1-.39-.1V10.75h5.53a.26.26,0,0,1,.22.12A.27.27,0,0,1,18.5,11.12Z"/></g></svg>