<svg xmlns="http://www.w3.org/2000/svg" viewBox="0 0 24 24"><g id="abstract"><path fill="currentColor" id="abstract-3" d="M12,22.75a1.74,1.74,0,0,1-1.24-.51l-9-9a1.76,1.76,0,0,1,0-2.48l9-9a1.8,1.8,0,0,1,2.48,0l9,9a1.76,1.76,0,0,1,0,2.48l-9,9A1.74,1.74,0,0,1,12,22.75Zm0-20a.27.27,0,0,0-.18.07l-9,9a.27.27,0,0,0,0,.36l9,9a.22.22,0,0,0,.35,0l9-9a.27.27,0,0,0,0-.36l-9-9A.27.27,0,0,0,12,2.75Zm0,14.76a.79.79,0,0,1-.53-.22L8.71,14.53a.77.77,0,0,1-.16-.82.75.75,0,0,1,.69-.46h5.52a.75.75,0,0,1,.53,1.28l-2.76,2.76A.79.79,0,0,1,12,17.51Zm-.95-2.76.95.95.94-.95Zm3.71-4H9.24a.75.75,0,0,1-.69-.46.77.77,0,0,1,.16-.82l2.76-2.76a.77.77,0,0,1,1.06,0l2.76,2.76a.75.75,0,0,1-.53,1.28Zm-3.71-1.5H13L12,8.3Z"/></g></svg>