<svg xmlns="http://www.w3.org/2000/svg" viewBox="0 0 24 24"><g id="abstract"><path fill="currentColor" id="abstract-27" d="M21.82,10.76,16.53,5.47,13.24,2.18a1.74,1.74,0,0,0-2.48,0L5.47,7.47,2.18,10.76a1.76,1.76,0,0,0,0,2.48h0l5.29,5.29,3.29,3.29a1.75,1.75,0,0,0,1.24.52h0a1.75,1.75,0,0,0,1.24-.52l5.29-5.29,3.29-3.29A1.74,1.74,0,0,0,21.82,10.76Zm-10-7.52a.25.25,0,0,1,.36,0L14.94,6,11.47,9.47,10,10.94,7.06,8Zm.18,9.7L11.06,12l.94-.94.94.94ZM3.24,11.82,6,9.06l3.47,3.47L10.94,14,8,16.94,3.24,12.18A.25.25,0,0,1,3.24,11.82Zm8.94,8.94a.21.21,0,0,1-.36,0L9.06,18l3.47-3.47L14,13.06,16.94,16Zm8.58-8.58L18,14.94l-3.47-3.47L13.06,10,16,7.06l4.76,4.76A.25.25,0,0,1,20.76,12.18Z"/></g></svg>