<svg xmlns="http://www.w3.org/2000/svg" viewBox="0 0 24 24"><g id="abstract"><path fill="currentColor" id="abstract-31" d="M22.39,14.76A10.75,10.75,0,1,0,3,17.94a.77.77,0,0,0,.63.33.69.69,0,0,0,.37-.1l5.64-3.25a.77.77,0,0,0,.37-.65V8.72L15.72,12,4.57,18.44a.75.75,0,0,0-.36.55.76.76,0,0,0,.21.63,10.74,10.74,0,0,0,18-4.85h0ZM12,2.75A9.23,9.23,0,0,1,21.14,13.4L17.6,11.35h0L6.22,4.78A9.15,9.15,0,0,1,12,2.75ZM8.55,13.83,3.93,16.51A9.22,9.22,0,0,1,5.09,5.86l3.46,2ZM12,21.25a9.15,9.15,0,0,1-5.78-2l11-6.35,3.55,2.05A9.23,9.23,0,0,1,12,21.25Z"/></g></svg>