<svg xmlns="http://www.w3.org/2000/svg" viewBox="0 0 24 24"><g id="abstract"><path fill="currentColor" id="abstract-32" d="M22,8.08h0A10.51,10.51,0,0,0,19.6,4.4,10.72,10.72,0,0,0,8.08,2h0A10.48,10.48,0,0,0,4.4,4.4,10.74,10.74,0,0,0,2,15.92H2A10.48,10.48,0,0,0,4.4,19.6,10.7,10.7,0,0,0,15.92,22h0a10.48,10.48,0,0,0,3.67-2.4A10.76,10.76,0,0,0,22,8.08ZM18.54,5.46a9,9,0,0,1,1.88,2.72l-2.76,2.76L12.53,5.82h0L9.75,3A9.23,9.23,0,0,1,18.54,5.46ZM7.4,12,12,7.4,16.6,12,12,16.6ZM5.46,5.46A9,9,0,0,1,8.18,3.58l2.76,2.76L5.81,11.47,3,14.25A9.23,9.23,0,0,1,5.46,5.46Zm0,13.08a9,9,0,0,1-1.88-2.72l2.76-2.76L14.25,21A9.24,9.24,0,0,1,5.46,18.54Zm10.36,1.88-2.76-2.76,5.13-5.13L21,9.75a9.23,9.23,0,0,1-2.43,8.79A8.9,8.9,0,0,1,15.82,20.42Z"/></g></svg>