<svg xmlns="http://www.w3.org/2000/svg" viewBox="0 0 24 24"><g id="abstract"><path fill="currentColor" id="abstract-36" d="M22.2,10a4.09,4.09,0,0,0-3.17-2,4.07,4.07,0,0,0-7-4.06A4.08,4.08,0,0,0,4.58,6.23,4,4,0,0,0,5,7.94a4.07,4.07,0,0,0,0,8.12,4,4,0,0,0-.39,1.71A4.08,4.08,0,0,0,12,20.12a4.05,4.05,0,0,0,3.33,1.74,4.29,4.29,0,0,0,1.06-.14,4.1,4.1,0,0,0,2.89-5,3.74,3.74,0,0,0-.25-.66A4.06,4.06,0,0,0,22.2,10ZM14,4a2.58,2.58,0,1,1,2.58,4.47L12.75,10.7V6.23A2.59,2.59,0,0,1,14,4ZM8.67,3.64a2.59,2.59,0,0,1,2.58,2.59V10.7L7.38,8.46h0a2.58,2.58,0,0,1,1.3-4.82ZM3.1,10.71a2.59,2.59,0,0,1,3.52-1h0L10.5,12,6.62,14.24h0A2.58,2.58,0,0,1,3.1,10.71Zm5.57,9.65a2.58,2.58,0,0,1-1.3-4.82h0l3.87-2.24v4.47A2.59,2.59,0,0,1,8.67,20.36Zm8.9-1.3A2.55,2.55,0,0,1,16,20.27a2.58,2.58,0,0,1-3.25-2.5h0V13.3l3.87,2.24a2.56,2.56,0,0,1,.95,3.52ZM20,14.24a2.6,2.6,0,0,1-2.59,0L13.5,12l3.87-2.24A2.59,2.59,0,0,1,20,14.24Z"/></g></svg>