<svg xmlns="http://www.w3.org/2000/svg" viewBox="0 0 24 24"><g id="abstract"><path fill="currentColor" id="abstract-13" d="M12,22.75a2.38,2.38,0,0,1-1.22-.33l-7.2-4.16a2.42,2.42,0,0,1-1.22-2.1V7.84a2.42,2.42,0,0,1,1.22-2.1l7.21-4.16a2.46,2.46,0,0,1,2.42,0l7.21,4.17a2.42,2.42,0,0,1,1.22,2.1v8.32a2.42,2.42,0,0,1-1.22,2.1l-7.21,4.16A2.32,2.32,0,0,1,12,22.75Zm0-20a.9.9,0,0,0-.47.13L4.33,7a.94.94,0,0,0-.47.81v8.32a.94.94,0,0,0,.47.81l7.21,4.16a.94.94,0,0,0,.92,0L19.67,17a.94.94,0,0,0,.47-.81V7.84A.94.94,0,0,0,19.67,7L12.46,2.87A.93.93,0,0,0,12,2.75Zm0,16.8a.86.86,0,0,1-.38-.1l-5.88-3.4a.76.76,0,0,1-.38-.65V8.6A.76.76,0,0,1,5.74,8l5.88-3.4a.77.77,0,0,1,.75,0L18.26,8a.76.76,0,0,1,.38.65v6.8a.76.76,0,0,1-.38.65l-5.89,3.4A.79.79,0,0,1,12,19.55ZM6.86,15l5.14,3,5.14-3V9L12,6.07,6.86,9ZM12,14.42A2.42,2.42,0,1,1,14.42,12,2.42,2.42,0,0,1,12,14.42Zm0-3.34a.92.92,0,1,0,.92.92A.92.92,0,0,0,12,11.08Z"/></g></svg>