<svg xmlns="http://www.w3.org/2000/svg" viewBox="0 0 24 24"><g id="abstract"><path fill="currentColor" id="abstract-46" d="M19.5,18.66c.08-.11.16-.21.23-.32l.19-.29.2-.34.16-.3c.06-.12.12-.25.17-.38l.12-.28A7.58,7.58,0,0,0,21,15.39a.25.25,0,0,1,0-.08c0-.06,0-.12,0-.19a9.93,9.93,0,0,0-1-5.69.08.08,0,0,0,0,0l-.07-.13c-.09-.18-.17-.35-.27-.52s-.13-.23-.19-.34-.2-.35-.31-.52-.14-.22-.22-.33-.22-.34-.35-.51-.17-.23-.25-.34-.24-.33-.38-.49h0a22.52,22.52,0,0,0-3.85-3.66l-.26-.2c-.45-.33-.91-.65-1.4-1A.66.66,0,0,0,12,1.26h0a.73.73,0,0,0-.35.09h0a0,0,0,0,0,0,0l0,0A24.29,24.29,0,0,0,7.34,4.8l-.13.14A17.24,17.24,0,0,0,4.05,9.38H4L4,9.53c-.12.27-.23.54-.34.8l-.09.24c-.1.29-.19.59-.27.88l0,.13a9,9,0,0,0-.19,3.81c.66,3.65,3.78,6.26,8.79,7.34l.16,0h.16c.34-.07.68-.15,1-.24l.27-.08.68-.21.3-.11.6-.22.29-.12.55-.25.27-.13.54-.3.22-.12c.22-.13.42-.27.62-.4l.08-.06.64-.49.17-.15.39-.37.22-.23.29-.33Zm-.36-2.39a7.6,7.6,0,0,1-4.23,4h0l-.2.08,4.6-4.6c0,.1-.05.21-.08.31A1.46,1.46,0,0,0,19.14,16.27ZM6.74,7.8l4.51,4.51v2.88L5.62,9.56A13.62,13.62,0,0,1,6.74,7.8ZM12.8,3.46c.32.23.64.48.95.73l-1,1V3.42Zm3.52,3.16-3.57,3.57V7.31l2.14-2.14A19.48,19.48,0,0,1,16.32,6.62Zm3.23,6.77-6.8,6.8V17.31L19,11A8.42,8.42,0,0,1,19.55,13.39Zm-6.8,1.8V12.31L17.26,7.8a14.32,14.32,0,0,1,1.11,1.77Zm-2.5-11c.32-.26.65-.51,1-.76V5.19Zm1,3.13v2.88L7.69,6.63A17.68,17.68,0,0,1,9.11,5.17Zm-6.8,6.08A8.83,8.83,0,0,1,5,11l6.27,6.27v2.88Zm.25,2.37,4.61,4.61A7.49,7.49,0,0,1,4.7,15.76Z"/></g></svg>