<svg xmlns="http://www.w3.org/2000/svg" viewBox="0 0 24 24"><g id="abstract"><path fill="currentColor" id="abstract-11" d="M15.89,12,19.6,8.29a1.76,1.76,0,0,0,0-2.48L18.19,4.4a1.76,1.76,0,0,0-2.48,0L12,8.11,8.29,4.4a1.76,1.76,0,0,0-2.48,0L4.4,5.81a1.76,1.76,0,0,0,0,2.48L8.11,12,4.4,15.71a1.76,1.76,0,0,0,0,2.48L5.81,19.6a1.76,1.76,0,0,0,2.48,0L12,15.89l3.71,3.71a1.76,1.76,0,0,0,2.48,0l1.41-1.41a1.76,1.76,0,0,0,0-2.48Zm2.65,5.13-1.41,1.41a.25.25,0,0,1-.36,0l-3.71-3.71L12,13.77l-1.06,1.06L7.23,18.54a.25.25,0,0,1-.36,0L5.46,17.13a.25.25,0,0,1,0-.36l3.71-3.71L10.23,12,9.17,10.94,5.46,7.23a.25.25,0,0,1,0-.36L6.87,5.46a.27.27,0,0,1,.36,0l3.71,3.71L12,10.23l1.06-1.06,3.71-3.71a.27.27,0,0,1,.36,0l1.41,1.41a.25.25,0,0,1,0,.36l-3.71,3.71L13.77,12l1.06,1.06,3.71,3.71A.25.25,0,0,1,18.54,17.13Z"/></g></svg>