<svg xmlns="http://www.w3.org/2000/svg" viewBox="0 0 24 24"><g id="abstract"><path fill="currentColor" id="abstract-17" d="M5.21,19.93H3.64a1.57,1.57,0,0,1-1.14-.49,1.51,1.51,0,0,1-.43-1.14A17.15,17.15,0,0,1,18.3,2.07a1.57,1.57,0,0,1,1.63,1.57V5.21A1.63,1.63,0,0,1,18.4,6.85,12.38,12.38,0,0,0,6.85,18.4,1.64,1.64,0,0,1,5.21,19.93ZM18.43,3.64A15.19,15.19,0,0,0,8.13,8.13,15.56,15.56,0,0,0,3.57,18.38l1.64.05a.14.14,0,0,0,.14-.12,13.84,13.84,0,0,1,4-8.92h0a13.84,13.84,0,0,1,8.92-4,.13.13,0,0,0,.12-.14ZM17.1,21.93H15.5a1.58,1.58,0,0,1-1.18-.54A1.55,1.55,0,0,1,14,20.15,7.23,7.23,0,0,1,16,16h0A7.23,7.23,0,0,1,20.15,14a1.52,1.52,0,0,1,1.24.37,1.58,1.58,0,0,1,.54,1.18v1.6a1.67,1.67,0,0,1-1.32,1.62,2.49,2.49,0,0,0-1.89,1.89A1.67,1.67,0,0,1,17.1,21.93Zm0-4.85a5.73,5.73,0,0,0-1.65,3.28l1.67.07c.09,0,.14-.1.16-.16a4,4,0,0,1,1.07-1.94,3.93,3.93,0,0,1,1.94-1.07c.07,0,.16-.08.16-.16V15.5A5.28,5.28,0,0,0,17.08,17.08Zm-5.94,3.85H9.56a1.54,1.54,0,0,1-1.14-.5A1.6,1.6,0,0,1,8,19.23,12.21,12.21,0,0,1,19.23,8a1.61,1.61,0,0,1,1.2.42,1.54,1.54,0,0,1,.5,1.14v1.58a1.62,1.62,0,0,1-1.47,1.63,7.37,7.37,0,0,0-4.54,2.15h0a7.37,7.37,0,0,0-2.15,4.54A1.62,1.62,0,0,1,11.14,20.93ZM19.34,9.5A10.69,10.69,0,0,0,9.5,19.34l.06.09h1.58a.14.14,0,0,0,.14-.11,8.84,8.84,0,0,1,2.58-5.46h0a8.81,8.81,0,0,1,5.46-2.58c.06,0,.11-.07.11-.14V9.56Zm-4.95,4.89h0Z"/></g></svg>