<svg xmlns="http://www.w3.org/2000/svg" viewBox="0 0 24 24"><g id="abstract"><path fill="currentColor" id="abstract-14" d="M21,7.75H3A1.75,1.75,0,0,1,1.25,6V4A1.75,1.75,0,0,1,3,2.25H21A1.76,1.76,0,0,1,22.75,4V6A1.75,1.75,0,0,1,21,7.75Zm-18-4A.25.25,0,0,0,2.75,4V6A.25.25,0,0,0,3,6.25H21A.25.25,0,0,0,21.25,6V4A.25.25,0,0,0,21,3.75Zm18,18H3A1.75,1.75,0,0,1,1.25,20V18A1.75,1.75,0,0,1,3,16.25H21A1.76,1.76,0,0,1,22.75,18v2A1.75,1.75,0,0,1,21,21.75Zm-18-4a.25.25,0,0,0-.25.25v2a.25.25,0,0,0,.25.25H21a.25.25,0,0,0,.25-.25V18a.25.25,0,0,0-.25-.25Zm18-3H3A1.75,1.75,0,0,1,1.25,13V11A1.75,1.75,0,0,1,3,9.25H21A1.76,1.76,0,0,1,22.75,11v2A1.75,1.75,0,0,1,21,14.75Zm-18-4a.25.25,0,0,0-.25.25v2a.25.25,0,0,0,.25.25H21a.25.25,0,0,0,.25-.25V11a.25.25,0,0,0-.25-.25Z"/></g></svg>