<svg xmlns="http://www.w3.org/2000/svg" viewBox="0 0 24 24"><g id="abstract"><path fill="currentColor" id="abstract-26" d="M12,22.75a3.5,3.5,0,0,1-1.31-.25L2.48,19.21a1.95,1.95,0,0,1,0-3.62.75.75,0,0,1,1,.42A.74.74,0,0,1,3,17a.45.45,0,0,0-.28.42.44.44,0,0,0,.28.42l8.22,3.28a2,2,0,0,0,1.5,0L21,17.82a.44.44,0,0,0,.28-.42A.45.45,0,0,0,21,17a.74.74,0,0,1-.42-1,.75.75,0,0,1,1-.42,1.95,1.95,0,0,1,0,3.62L13.31,22.5A3.5,3.5,0,0,1,12,22.75Zm0-5.4a3.52,3.52,0,0,1-1.31-.26L2.48,13.81a1.95,1.95,0,0,1,0-3.62l1-.39a.75.75,0,0,1,1,.41.76.76,0,0,1-.42,1l-1,.39a.44.44,0,0,0-.28.42.45.45,0,0,0,.28.42l8.22,3.28a2,2,0,0,0,1.5,0L21,12.42a.45.45,0,0,0,.28-.42.44.44,0,0,0-.28-.42l-1-.39a.75.75,0,0,1,.55-1.4l1,.4a1.95,1.95,0,0,1,0,3.62l-8.21,3.28A3.52,3.52,0,0,1,12,17.35ZM12,12a3.52,3.52,0,0,1-1.31-.26h0L2.48,8.41a1.95,1.95,0,0,1,0-3.62L10.69,1.5a3.54,3.54,0,0,1,2.62,0l8.21,3.29a1.95,1.95,0,0,1,0,3.62l-8.21,3.28A3.52,3.52,0,0,1,12,12Zm-.75-1.65a2,2,0,0,0,1.5,0L21,7a.45.45,0,0,0,.28-.42A.44.44,0,0,0,21,6.18L12.75,2.89a2,2,0,0,0-1.5,0L3,6.18a.44.44,0,0,0-.28.42A.45.45,0,0,0,3,7Z"/></g></svg>