<svg xmlns="http://www.w3.org/2000/svg" viewBox="0 0 24 24"><g id="abstract"><path fill="currentColor" id="abstract-42" d="M22.74,8a.58.58,0,0,0,0-.18.66.66,0,0,0,0-.15L21.14,4.6A2.44,2.44,0,0,0,19,3.25H12.18L8.33,1.33a.58.58,0,0,0-.14,0,.72.72,0,0,0-.19,0,1,1,0,0,0-.17,0,1,1,0,0,0-.17,0L4.6,2.86A2.44,2.44,0,0,0,3.25,5.05v6.77L1.33,15.67s0,.1,0,.15a.43.43,0,0,0,0,.36.45.45,0,0,0,0,.16L2.86,19.4a2.44,2.44,0,0,0,2.19,1.35h6.77l3.84,1.92h0a.68.68,0,0,0,.6,0h0l3.07-1.53h0A2.44,2.44,0,0,0,20.75,19V12.18l1.92-3.84a.9.9,0,0,0,0-.16A.58.58,0,0,0,22.74,8ZM19.8,5.27l1,2h-11l2.5-2.5H19A1,1,0,0,1,19.8,5.27Zm-11,3.48h6.5v6.5H8.75Zm0-2.56v-3l2,1Zm-4-1.14a1,1,0,0,1,.52-.85l2-1V8h0v6.18l-2.5-2.5ZM4.2,13.27l2,2h-3Zm0,5.46h0l-1-2h11l-2.5,2.5H5.05A1,1,0,0,1,4.2,18.73Zm11.05-.92v3l-2-1Zm4,1.14a1,1,0,0,1-.52.85l-2,1V16h0V9.81l2.5,2.5Zm.54-8.22-2-2h3Z"/></g></svg>