<svg xmlns="http://www.w3.org/2000/svg" viewBox="0 0 24 24"><g id="abstract"><path fill="currentColor" id="abstract-40" d="M22.47,18,14.08,3.41h0l-.31-.55a2,2,0,0,0-3.54,0L2,17.21H2l-.42.72A2,2,0,0,0,3.3,21h7.06a.75.75,0,0,0,0-1.5H3.3a.54.54,0,0,1-.47-.81L3.24,18c.23-.38.47-.77.73-1.16,1.77-2.75,4.17-5.54,7.52-6l.51,0a3.26,3.26,0,0,1,2.82,1.64,3.13,3.13,0,0,1,.43,1.61,3.2,3.2,0,0,1-.09.75h0s0,.08,0,.12a3.1,3.1,0,0,1-.28.7A3.24,3.24,0,0,1,12,17.3a3.1,3.1,0,0,1-2-.68A.76.76,0,0,0,9,16.74a.77.77,0,0,0,.12,1.06,4.74,4.74,0,0,0,7.07-1.46,5.35,5.35,0,0,0,.42-1.05v0l0-.07a8.7,8.7,0,0,0,.22-.88c0-.09,0-.18,0-.27s.07-.41.09-.62,0-.21,0-.31,0-.39,0-.59v-.31a6.08,6.08,0,0,0,0-.61,1.15,1.15,0,0,0,0-.19l4.21,7.29a.54.54,0,0,1-.47.81,33.42,33.42,0,0,1-4.18-.22.75.75,0,0,0-.19,1.49A35,35,0,0,0,20.7,21,2,2,0,0,0,22.47,18ZM12,9.3h0a6.57,6.57,0,0,0-.67.07,7.39,7.39,0,0,0-1,.19L10,9.63c-.23.07-.46.14-.69.23l-.26.1a8.26,8.26,0,0,0-.85.4h0q-.4.22-.78.48l-.1.06,4.21-7.29a.53.53,0,0,1,.94,0l.3.52.34.62a1.86,1.86,0,0,1,.1.2c.09.16.18.33.26.5s.07.13.11.2l.31.63a.36.36,0,0,0,0,.09c.24.52.48,1.07.69,1.63v0a15.87,15.87,0,0,1,.73,2.64A4.78,4.78,0,0,0,12,9.3Z"/></g></svg>