<svg xmlns="http://www.w3.org/2000/svg" viewBox="0 0 24 24"><g id="abstract"><path fill="currentColor" id="abstract-33" d="M21.31,6.62A10.77,10.77,0,1,0,22.75,12,10.8,10.8,0,0,0,21.31,6.62Zm-6.86,9.63H9.54L7.09,12,9.55,7.75h4.91L16.91,12ZM2.75,12A9.18,9.18,0,0,1,3.4,8.6l4.41,7.65h-4A9.35,9.35,0,0,1,2.75,12Zm18.5,0a9.18,9.18,0,0,1-.65,3.4L16.19,7.75h4A9.35,9.35,0,0,1,21.25,12Zm-2-5.75H10.41l2-3.49A9.28,9.28,0,0,1,19.24,6.25Zm-8.6-3.4L8.46,6.63h0L6.23,10.5,4.21,7A9.31,9.31,0,0,1,10.64,2.85ZM4.76,17.75h8.83l-2,3.49A9.25,9.25,0,0,1,4.76,17.75Zm8.6,3.4,2.18-3.77v0l2.23-3.86,2,3.49A9.31,9.31,0,0,1,13.36,21.15Z"/></g></svg>