<svg xmlns="http://www.w3.org/2000/svg" viewBox="0 0 24 24"><g id="abstract"><path fill="currentColor" id="abstract-16" d="M8.11,22.44a12.07,12.07,0,0,1-4.95-1.09L2.27,21a1.75,1.75,0,0,1-.91-1,1.7,1.7,0,0,1,0-1.31l.79-1.77A1.71,1.71,0,0,1,4.45,16l.89.4a6.56,6.56,0,0,0,5.58,0,11.82,11.82,0,0,1,9.92,0l.89.39a1.71,1.71,0,0,1,.9,1,1.68,1.68,0,0,1,0,1.32l-.79,1.77a1.7,1.7,0,0,1-.95.91,1.73,1.73,0,0,1-1.32,0l-.88-.39a6.56,6.56,0,0,0-5.58,0A12.19,12.19,0,0,1,8.11,22.44Zm-4.35-5a.2.2,0,0,0-.2.13L2.77,19.3a.17.17,0,0,0,0,.16.18.18,0,0,0,.11.12h0l.89.4a10.36,10.36,0,0,0,8.71,0,8,8,0,0,1,6.79,0l.88.39a.26.26,0,0,0,.17,0,.23.23,0,0,0,.12-.12l.79-1.77a.2.2,0,0,0,0-.17.18.18,0,0,0-.11-.12l-.89-.39a10.36,10.36,0,0,0-8.71,0,8,8,0,0,1-6.79,0l-.88-.39A.15.15,0,0,0,3.76,17.4Zm4.35-1.85a12.07,12.07,0,0,1-4.95-1.09l-.89-.4a1.72,1.72,0,0,1-.87-2.27h0L2.19,10a1.72,1.72,0,0,1,2.27-.87l.88.4a6.6,6.6,0,0,0,5.58,0,11.85,11.85,0,0,1,9.92,0l.89.4a1.65,1.65,0,0,1,.9,1,1.68,1.68,0,0,1,0,1.32L21.81,14a1.65,1.65,0,0,1-.95.9,1.68,1.68,0,0,1-1.32,0l-.88-.39a6.56,6.56,0,0,0-5.58,0A12.19,12.19,0,0,1,8.11,15.55ZM2.77,12.4a.22.22,0,0,0,.11.29l.89.4a10.36,10.36,0,0,0,8.71,0,8,8,0,0,1,6.79,0l.88.39a.2.2,0,0,0,.17,0,.18.18,0,0,0,.12-.11l.79-1.77a.2.2,0,0,0,0-.17.18.18,0,0,0-.11-.12l-.89-.39a10.36,10.36,0,0,0-8.71,0,8,8,0,0,1-6.79,0l-.88-.4a.2.2,0,0,0-.17,0,.18.18,0,0,0-.12.11ZM8.11,8.66a12.08,12.08,0,0,1-4.95-1.1l-.89-.39A1.72,1.72,0,0,1,1.4,4.9h0l.79-1.77a1.7,1.7,0,0,1,2.26-.87l.89.39a6.56,6.56,0,0,0,5.58,0,11.78,11.78,0,0,1,9.92,0l.89.39a1.73,1.73,0,0,1,.87,2.27l-.78,1.77a1.75,1.75,0,0,1-1,.91,1.7,1.7,0,0,1-1.31,0l-.89-.4a6.56,6.56,0,0,0-5.58,0A12.36,12.36,0,0,1,8.11,8.66ZM2.77,5.51a.22.22,0,0,0,.11.29l.89.39a10.36,10.36,0,0,0,8.71,0,8,8,0,0,1,6.79,0l.88.4a.24.24,0,0,0,.17,0,.2.2,0,0,0,.12-.12l.79-1.77a.21.21,0,0,0-.11-.28L20.23,4a10.36,10.36,0,0,0-8.71,0A8,8,0,0,1,4.73,4l-.88-.39a.22.22,0,0,0-.29.11Z"/></g></svg>