<svg xmlns="http://www.w3.org/2000/svg" viewBox="0 0 24 24"><g id="abstract"><path fill="currentColor" id="abstract-7" d="M12,22.75a2.38,2.38,0,0,1-1.22-.33l-7.2-4.16a2.42,2.42,0,0,1-1.22-2.1V7.84a2.42,2.42,0,0,1,1.22-2.1l7.21-4.16a2.45,2.45,0,0,1,2.43,0l7.2,4.16a2.42,2.42,0,0,1,1.22,2.1v8.32a2.42,2.42,0,0,1-1.22,2.1l-7.21,4.16A2.32,2.32,0,0,1,12,22.75Zm0-20a.93.93,0,0,0-.46.12L4.33,7a.94.94,0,0,0-.47.81v8.32a.94.94,0,0,0,.47.81l7.21,4.16a.94.94,0,0,0,.92,0L19.67,17a.94.94,0,0,0,.47-.81V7.84A.94.94,0,0,0,19.67,7L12.46,2.87A.93.93,0,0,0,12,2.75Zm0,15.64a.75.75,0,0,1-.38-.1L6.74,15.47a.75.75,0,0,1-.38-.65V9.18a.75.75,0,0,1,.38-.65l4.88-2.82a.72.72,0,0,1,.75,0l4.89,2.82a.75.75,0,0,1,.38.65v5.64a.75.75,0,0,1-.38.65l-4.89,2.82A.69.69,0,0,1,12,18.39Zm-4.14-4L12,16.77l4.14-2.38V9.61L12,7.22,7.86,9.61Z"/></g></svg>