<svg xmlns="http://www.w3.org/2000/svg" viewBox="0 0 24 24"><g id="abstract"><path fill="currentColor" id="abstract-15" d="M19.38,22.75a1.68,1.68,0,0,1-.69-.15l-1.77-.79A1.72,1.72,0,0,1,16,19.55l.4-.89a6.53,6.53,0,0,0,0-5.58,11.82,11.82,0,0,1,0-9.92l.39-.89a1.75,1.75,0,0,1,1-.91,1.7,1.7,0,0,1,1.31,0l1.77.79a1.7,1.7,0,0,1,.91,1,1.73,1.73,0,0,1,0,1.32l-.39.88a6.56,6.56,0,0,0,0,5.58,11.78,11.78,0,0,1,0,9.92l-.39.89a1.75,1.75,0,0,1-1,.91A1.88,1.88,0,0,1,19.38,22.75Zm-1-20h-.08a.23.23,0,0,0-.12.12l-.39.88a10.38,10.38,0,0,0,0,8.72,8,8,0,0,1,0,6.79l-.4.88a.23.23,0,0,0,.12.29l1.77.79a.23.23,0,0,0,.16,0,.23.23,0,0,0,.12-.12h0l.4-.89a10.36,10.36,0,0,0,0-8.71,8,8,0,0,1,0-6.79l.39-.88a.26.26,0,0,0,0-.17.27.27,0,0,0-.12-.12l-1.77-.79Zm-5.91,20a1.73,1.73,0,0,1-.7-.15h0L10,21.81a1.65,1.65,0,0,1-.9-.95,1.68,1.68,0,0,1,0-1.32l.4-.88a6.6,6.6,0,0,0,0-5.58,11.78,11.78,0,0,1,0-9.92l.4-.89a1.7,1.7,0,0,1,1-.91,1.73,1.73,0,0,1,1.32,0L14,2.19a1.71,1.71,0,0,1,.87,2.27l-.39.88a6.56,6.56,0,0,0,0,5.58,11.78,11.78,0,0,1,0,9.92l-.4.89a1.7,1.7,0,0,1-1,.91A1.88,1.88,0,0,1,12.49,22.75Zm-.09-1.52a.2.2,0,0,0,.17,0,.18.18,0,0,0,.12-.11l.39-.89a10.32,10.32,0,0,0,0-8.71,8,8,0,0,1,0-6.79l.4-.88a.22.22,0,0,0-.11-.29L11.6,2.77a.26.26,0,0,0-.17,0,.23.23,0,0,0-.12.12l-.39.88a10.34,10.34,0,0,0,0,8.72,8,8,0,0,1,0,6.79l-.4.88a.2.2,0,0,0,0,.17.18.18,0,0,0,.11.12ZM5.6,22.75a1.69,1.69,0,0,1-.7-.15h0l-1.77-.79a1.71,1.71,0,0,1-.87-2.27l.39-.88a6.56,6.56,0,0,0,0-5.58,11.78,11.78,0,0,1,0-9.92L3,2.27a1.75,1.75,0,0,1,1-.91,1.7,1.7,0,0,1,1.31,0l1.77.79a1.7,1.7,0,0,1,.91,1A1.75,1.75,0,0,1,8,4.45l-.4.89a6.53,6.53,0,0,0,0,5.58,11.82,11.82,0,0,1,0,9.92l-.39.89a1.75,1.75,0,0,1-1,.91A1.83,1.83,0,0,1,5.6,22.75Zm-.09-1.52a.2.2,0,0,0,.17,0,.18.18,0,0,0,.12-.11l.39-.89a10.36,10.36,0,0,0,0-8.71,8,8,0,0,1,0-6.79l.4-.89a.21.21,0,0,0,0-.16.25.25,0,0,0-.11-.12L4.7,2.77a.23.23,0,0,0-.16,0,.23.23,0,0,0-.12.12L4,3.77a10.36,10.36,0,0,0,0,8.71,8,8,0,0,1,0,6.79l-.39.88a.22.22,0,0,0,.11.29Z"/></g></svg>