<svg xmlns="http://www.w3.org/2000/svg" viewBox="0 0 24 24"><g id="abstract"><path fill="currentColor" id="abstract-28" d="M6.5,11.75A5.25,5.25,0,1,1,11.75,6.5,5.26,5.26,0,0,1,6.5,11.75Zm0-9A3.75,3.75,0,1,0,10.25,6.5,3.75,3.75,0,0,0,6.5,2.75Zm11,20a5.25,5.25,0,1,1,5.25-5.25A5.26,5.26,0,0,1,17.5,22.75Zm0-9a3.75,3.75,0,1,0,3.75,3.75A3.75,3.75,0,0,0,17.5,13.75Zm-11,9a5.25,5.25,0,1,1,5.25-5.25A5.26,5.26,0,0,1,6.5,22.75Zm0-9a3.75,3.75,0,1,0,3.75,3.75A3.75,3.75,0,0,0,6.5,13.75Zm11-2A5.25,5.25,0,1,1,22.75,6.5,5.26,5.26,0,0,1,17.5,11.75Zm0-9A3.75,3.75,0,1,0,21.25,6.5,3.75,3.75,0,0,0,17.5,2.75Z"/></g></svg>