<svg xmlns="http://www.w3.org/2000/svg" viewBox="0 0 24 24"><g id="devices"><path fill="currentColor" id="bluetooth" d="M12.9,13.28l2.25,2L12.9,17Zm0-6.48v3.85l2.26-2.09Zm9.1.44v9.51A5.25,5.25,0,0,1,16.75,22H7.25A5.25,5.25,0,0,1,2,16.75V7.24A5.25,5.25,0,0,1,7.25,2h9.5A5.25,5.25,0,0,1,22,7.24Zm-4.93,8.12a.74.74,0,0,0-.25-.58L13.68,12l3.15-2.91a.75.75,0,0,0,.24-.58.76.76,0,0,0-.29-.56L12.61,4.68a.75.75,0,0,0-1.21.59V9.93L8.48,7.32a.75.75,0,0,0-1,1.12l3.92,3.5V12L7.47,15.67a.75.75,0,0,0,0,1.06.75.75,0,0,0,1.06,0l2.91-2.69v4.49a.73.73,0,0,0,.42.67.76.76,0,0,0,.33.08.74.74,0,0,0,.46-.16l4.17-3.23A.8.8,0,0,0,17.07,15.36Z"/></g></svg>