<svg xmlns="http://www.w3.org/2000/svg" viewBox="0 0 24 24"><g id="devices"><path fill="currentColor" id="printer" d="M7,6V5.25A3.24,3.24,0,0,1,10.25,2h3.5A3.24,3.24,0,0,1,17,5.25V6Zm10,8.25H7a.75.75,0,0,0,0,1.5H8v3.17A3.08,3.08,0,0,0,11.08,22h1.84A3.08,3.08,0,0,0,16,18.92V15.75h1a.75.75,0,0,0,0-1.5ZM21,9.8v5.4A2.8,2.8,0,0,1,18.2,18H17V16.75a1.75,1.75,0,0,0,0-3.5H7a1.75,1.75,0,0,0,0,3.5V18H5.8A2.81,2.81,0,0,1,3,15.2V9.8A2.81,2.81,0,0,1,5.8,7H18.2A2.8,2.8,0,0,1,21,9.8ZM10.75,11a.76.76,0,0,0-.75-.75H7a.75.75,0,0,0,0,1.5h3A.76.76,0,0,0,10.75,11Z"/></g></svg>