<svg xmlns="http://www.w3.org/2000/svg" viewBox="0 0 24 24"><g id="design"><path fill="currentColor" id="bucket-square" d="M16.7,2H7.3A5.29,5.29,0,0,0,2,7.3v9.4A5.29,5.29,0,0,0,7.3,22h9.4A5.29,5.29,0,0,0,22,16.7V7.3A5.29,5.29,0,0,0,16.7,2Zm-8,13.92L6.42,13.67a2.13,2.13,0,0,1,0-3L9.58,7.51,9,6.89A.75.75,0,0,1,9,5.83a.75.75,0,0,1,1.06,0L11.8,7.62h0l3.65,3.64a.66.66,0,0,1,0,.92L11.7,15.93A2.14,2.14,0,0,1,8.68,15.93Zm8,1.85a1.51,1.51,0,0,1-1.55-1.46,4.12,4.12,0,0,1,1-2.23.72.72,0,0,1,1.14,0,4,4,0,0,1,1,2.24A1.51,1.51,0,0,1,16.66,17.78Z"/></g></svg>