<svg xmlns="http://www.w3.org/2000/svg" viewBox="0 0 24 24"><g id="design"><path fill="currentColor" id="bucket" d="M16.72,21.27A.73.73,0,0,1,16,22H3.65a.73.73,0,1,1,0-1.46H16A.73.73,0,0,1,16.72,21.27Zm3-6.91a1.07,1.07,0,0,0-1.69,0,6.12,6.12,0,0,0-1.45,3.3,2.29,2.29,0,0,0,4.57,0A5.88,5.88,0,0,0,19.74,14.36ZM3,12.62A3.12,3.12,0,0,1,3.74,9.3l5.2-5.2-.86-.86a.73.73,0,0,1,1-1l1.49,1.49s0,0,0,0l6.45,6.44a.93.93,0,0,1,.25.54h0a.94.94,0,0,1,0,.41,0,0,0,0,0,0,0,1,1,0,0,1-.22.38h0l-2.78,2.77L11.55,17.1a3.13,3.13,0,0,1-.5.4,2.42,2.42,0,0,1-.55.29A3,3,0,0,1,9.32,18a3.94,3.94,0,0,1-.6-.05,3.18,3.18,0,0,1-1.63-.87L3.74,13.76h0a3.27,3.27,0,0,1-.41-.51l-.05-.09A3.17,3.17,0,0,1,3,12.66S3,12.64,3,12.62Zm1.78-2.26a1.59,1.59,0,0,0-.47,1l11.26-.53L10,5.19Z"/></g></svg>