<svg xmlns="http://www.w3.org/2000/svg" viewBox="0 0 24 24"><g id="design"><path fill="currentColor" id="colors-square" d="M8.48,10a2.2,2.2,0,0,1,0-.36,3.6,3.6,0,0,1,7.2,0,2.2,2.2,0,0,1,0,.36,3.43,3.43,0,0,1-.22,1h0c-.05.13-.12.24-.18.36s-.07.14-.11.2a2.7,2.7,0,0,1-.25.34,1.34,1.34,0,0,1-.11.14,3.34,3.34,0,0,1-.33.32l-.09.08a4.33,4.33,0,0,1-.41.3h0a3.62,3.62,0,0,1-1.3.47,3.43,3.43,0,0,1-.56.06,3.5,3.5,0,0,1-.65-.07l-.2,0a3.06,3.06,0,0,1-.43-.13l-.2-.08c-.14-.07-.28-.14-.41-.22L10,12.61a4.94,4.94,0,0,1-.44-.36L9.37,12l-.21-.25A2.33,2.33,0,0,1,9,11.53a2.2,2.2,0,0,1-.15-.26A3.59,3.59,0,0,1,8.48,10Zm4.72,4.07a4.39,4.39,0,0,1-1.16.17,4.63,4.63,0,0,1-4.26-2.88,3.59,3.59,0,1,0,5.46,3.07A2.2,2.2,0,0,0,13.2,14.08Zm8.76-7V17a5,5,0,0,1-5,5H7.05a5,5,0,0,1-5-5V7.05a5,5,0,0,1,5-5H17A5,5,0,0,1,22,7.05ZM19,14.44a4.58,4.58,0,0,0-2.47-4,4.61,4.61,0,1,0-9,0,4.58,4.58,0,1,0,4.52,8,4.53,4.53,0,0,0,2.4.69A4.6,4.6,0,0,0,19,14.44ZM16.3,11.37a4.61,4.61,0,0,1-2.13,2.33,4.53,4.53,0,0,1,.07.74,4.58,4.58,0,0,1-1.33,3.23,3.42,3.42,0,0,0,1.53.37,3.59,3.59,0,0,0,1.86-6.67Z"/></g></svg>