<svg xmlns="http://www.w3.org/2000/svg" viewBox="0 0 24 24"><g id="design"><path fill="currentColor" id="feather" d="M19.83,11.11,12.89,4.17l1.42-1.41a1.91,1.91,0,0,1,2.71,0L21.24,7a1.91,1.91,0,0,1,0,2.71Zm-1.07,1.06L11.83,5.24l-.15-.15a6.76,6.76,0,0,1-1.82.74,6.84,6.84,0,0,0-5.22,6.8,5.92,5.92,0,0,1-1.73,4.3l-.43.43a1,1,0,0,0,0,1.38l.69.69.15-.14,5.9-5.9a2.45,2.45,0,1,1,1.39,1.39L4.77,20.62h0l-.21.2.7.7a1,1,0,0,0,1.38,0l.43-.43a5.92,5.92,0,0,1,4.3-1.73,6.84,6.84,0,0,0,6.8-5.22,6.76,6.76,0,0,1,.74-1.82Z"/></g></svg>