<svg xmlns="http://www.w3.org/2000/svg" viewBox="0 0 24 24"><g id="design"><path fill="currentColor" id="frame" d="M8.81,16H14.5v4H5.81A1.81,1.81,0,0,1,4,18.19V8H3.81A1.81,1.81,0,0,1,2,6.19V5.81A1.81,1.81,0,0,1,3.81,4H4V3.81A1.81,1.81,0,0,1,5.81,2h.38A1.81,1.81,0,0,1,8,3.81V15.19A.81.81,0,0,0,8.81,16Zm11.38,0H20V5.81A1.81,1.81,0,0,0,18.19,4H9.5V8h5.69a.81.81,0,0,1,.81.81V20.19A1.81,1.81,0,0,0,17.81,22h.38A1.81,1.81,0,0,0,20,20.19V20h.19A1.81,1.81,0,0,0,22,18.19v-.38A1.81,1.81,0,0,0,20.19,16Z"/></g></svg>