<svg xmlns="http://www.w3.org/2000/svg" viewBox="0 0 24 24"><g id="design"><path fill="currentColor" id="glass" d="M20,17.59l-2.14-5h0l-1-2.31-1.45-3.4h.2a2.42,2.42,0,1,0,0-4.83H8.37a2.42,2.42,0,0,0,0,4.83h.1L7,10.28,4,17.66a3.26,3.26,0,0,0-.22.78c0,.08,0,.16,0,.23a3.25,3.25,0,0,0,0,.54.79.79,0,0,0,0,.22,2.71,2.71,0,0,0,.12.51c0,.08.08.15.11.22a3.81,3.81,0,0,0,.23.45c0,.07.12.14.18.21a3.44,3.44,0,0,0,.3.35c.08.07.18.12.26.19s.22.18.35.25l.32.13a2.74,2.74,0,0,0,.4.15c.11,0,.24,0,.36.05a3,3,0,0,0,.43,0h0L12,22l5.11,0A3.13,3.13,0,0,0,20,17.59ZM10.09,6.84h3.7l1.7,4,.63,1.5A6.82,6.82,0,0,0,12.6,13a6.9,6.9,0,0,1-5.33.66l1.16-2.8Z"/></g></svg>