<svg xmlns="http://www.w3.org/2000/svg" viewBox="0 0 24 24"><g id="design"><path fill="currentColor" id="paintbucket" d="M20.34,8.81,14.8,3.27a3.08,3.08,0,0,0-4.35,0L2.9,10.82a3.08,3.08,0,0,0,0,4.35l5.54,5.54a3.08,3.08,0,0,0,4.35,0l7.55-7.55A3.08,3.08,0,0,0,20.34,8.81ZM19.39,11a.75.75,0,0,1-.85.52A36.33,36.33,0,0,0,3.82,12l7.83-7.83a1.41,1.41,0,0,1,2,0L19,9.56A1.43,1.43,0,0,1,19.39,11ZM22,19.51a2.24,2.24,0,0,1-4.48,0,5.94,5.94,0,0,1,1.42-3.23,1,1,0,0,1,1.65,0A5.74,5.74,0,0,1,22,19.51Z"/></g></svg>