<svg xmlns="http://www.w3.org/2000/svg" viewBox="0 0 24 24"><g id="design"><path fill="currentColor" id="pencxil" d="M21.4,5.47,18.53,2.6a2,2,0,0,0-2.88,0L13.49,4.75h0L4.13,14.11,2.7,18.43h0l-.63,1.88a1.45,1.45,0,0,0-.07.35s0,.07,0,.11A1.64,1.64,0,0,0,2,21s0,.08,0,.12a1,1,0,0,0,.08.18l.06.11.12.16.08.09.17.13.09.06.26.11H3a1.06,1.06,0,0,0,.31,0h0a1.07,1.07,0,0,0,.39-.07l1.88-.63h0l4.32-1.43,9.36-9.36L21.4,8.35A2,2,0,0,0,21.4,5.47Zm-17,14.65-.51-.51.91-2.72,2.32,2.32Zm16-12.83-1.09,1.1L15.61,4.75l1.1-1.09a.51.51,0,0,1,.38-.16.5.5,0,0,1,.37.16l2.88,2.87A.54.54,0,0,1,20.34,7.29Z"/></g></svg>