<svg xmlns="http://www.w3.org/2000/svg" viewBox="0 0 24 24"><g id="devices"><path fill="currentColor" id="bluetooth" d="M12.15,19.32a.76.76,0,0,1-.33-.08.73.73,0,0,1-.42-.67V14.08L8.49,16.77a.75.75,0,0,1-1.06,0,.75.75,0,0,1,0-1.06L11.4,12v-.1L7.48,8.44a.75.75,0,0,1,1-1.12L11.4,9.93V5.27a.75.75,0,0,1,1.21-.59l4.17,3.24a.76.76,0,0,1,.29.56.75.75,0,0,1-.24.58L13.68,12l3.14,2.81a.78.78,0,0,1,.25.58.8.8,0,0,1-.29.57l-4.17,3.23A.74.74,0,0,1,12.15,19.32Zm.75-6V17l2.25-1.75Zm0-6.48v3.85l2.26-2.09Zm3.86,16H7.24a6,6,0,0,1-6-6V7.25a6,6,0,0,1,6-6h9.52a6,6,0,0,1,6,6v9.5A6,6,0,0,1,16.76,22.75Zm-9.52-20a4.5,4.5,0,0,0-4.49,4.5v9.5a4.5,4.5,0,0,0,4.49,4.5h9.52a4.5,4.5,0,0,0,4.48-4.5V7.25a4.5,4.5,0,0,0-4.48-4.5Z"/></g></svg>