<svg xmlns="http://www.w3.org/2000/svg" viewBox="0 0 24 24"><g id="devices"><path fill="currentColor" id="calculatoror" d="M16.93,22.75H7.07a4.82,4.82,0,0,1-4.82-4.82V6.07A4.82,4.82,0,0,1,7.07,1.25h9.86a4.82,4.82,0,0,1,4.82,4.82V17.93A4.82,4.82,0,0,1,16.93,22.75Zm-9.86-20A3.32,3.32,0,0,0,3.75,6.07V17.93a3.32,3.32,0,0,0,3.32,3.32h9.86a3.32,3.32,0,0,0,3.32-3.32V6.07a3.32,3.32,0,0,0-3.32-3.32Zm9.19,9H7.74A2.5,2.5,0,0,1,5.25,9.26V6.74A2.5,2.5,0,0,1,7.74,4.25h8.52a2.5,2.5,0,0,1,2.49,2.49V9.26A2.5,2.5,0,0,1,16.26,11.75Zm-8.52-6a1,1,0,0,0-1,1V9.26a1,1,0,0,0,1,1h8.52a1,1,0,0,0,1-1V6.74a1,1,0,0,0-1-1Zm8.76,8.58a1,1,0,1,0,1,1A1,1,0,0,0,16.5,14.33Zm-2,2.15a1,1,0,1,0,1,1A1,1,0,0,0,14.49,16.48Zm-4.21-.07.56-.54a.75.75,0,0,0,0-1.06.73.73,0,0,0-1,0l-.62.58-.62-.58a.75.75,0,0,0-1.06,0,.75.75,0,0,0,0,1.06l.56.54-.56.53a.75.75,0,0,0,.52,1.3A.73.73,0,0,0,8.57,18l.62-.59.62.59a.73.73,0,0,0,.51.21.71.71,0,0,0,.54-.24.75.75,0,0,0,0-1.06Z"/></g></svg>