<svg xmlns="http://www.w3.org/2000/svg" viewBox="0 0 24 24"><g id="devices"><path fill="currentColor" id="devices-2" data-name="devices" d="M17.75,21.5H6.25a5,5,0,0,1-5-5v-9a5,5,0,0,1,5-5h11.5a5,5,0,0,1,5,5v9A5,5,0,0,1,17.75,21.5ZM6.25,4a3.5,3.5,0,0,0-3.5,3.5v9A3.5,3.5,0,0,0,6.25,20h11.5a3.5,3.5,0,0,0,3.5-3.5v-9A3.5,3.5,0,0,0,17.75,4Zm1,5a1,1,0,1,0,1,1A1,1,0,0,0,7.22,9Zm2.93,0a1,1,0,1,0,1,1A1,1,0,0,0,10.15,9Zm7.46,1a.76.76,0,0,0-.75-.75H13.58a.75.75,0,1,0,0,1.5h3.28A.76.76,0,0,0,17.61,10Zm0,5.5a.76.76,0,0,0-.75-.75H7.22a.75.75,0,1,0,0,1.5h9.64A.76.76,0,0,0,17.61,15.5Z"/></g></svg>