<svg xmlns="http://www.w3.org/2000/svg" viewBox="0 0 24 24"><g id="devices"><path fill="currentColor" id="external-drive" d="M7.67,6.86H6.45a.75.75,0,0,1,0-1.5H7.67a.75.75,0,0,1,0,1.5Zm.75,1.52a.76.76,0,0,0-.75-.75H6.45a.75.75,0,0,0,0,1.5H7.67A.75.75,0,0,0,8.42,8.38Zm0,2.28a.76.76,0,0,0-.75-.75H6.45a.75.75,0,1,0,0,1.5H7.67A.76.76,0,0,0,8.42,10.66ZM21.25,12V5.76a4.53,4.53,0,0,0-4.52-4.51H7.27A4.52,4.52,0,0,0,2.75,5.76V12a1.81,1.81,0,0,0,1.8,1.8h14.9A1.81,1.81,0,0,0,21.25,12ZM16.73,2.75a3,3,0,0,1,3,3V12a.31.31,0,0,1-.3.3H4.55a.31.31,0,0,1-.3-.3V5.76a3,3,0,0,1,3-3ZM21.25,18.3V17a1.83,1.83,0,0,0-1.85-1.82H4.6A1.83,1.83,0,0,0,2.75,17V18.3a4.52,4.52,0,0,0,4.57,4.45h9.36A4.52,4.52,0,0,0,21.25,18.3ZM19.4,16.69a.34.34,0,0,1,.35.32V18.3a3,3,0,0,1-3.07,2.95H7.32A3,3,0,0,1,4.25,18.3V17a.34.34,0,0,1,.35-.32Zm-1.91,2.07a1,1,0,1,0-1,1A1,1,0,0,0,17.49,18.76Z"/></g></svg>