<svg xmlns="http://www.w3.org/2000/svg" viewBox="0 0 24 24"><g id="devices"><path fill="currentColor" id="simcard" d="M16.54,22.75H7.46a5.22,5.22,0,0,1-5.21-5.21V6.46A5.22,5.22,0,0,1,7.46,1.25h5.71A5.22,5.22,0,0,1,17.05,3l3.37,3.75a5.2,5.2,0,0,1,1.33,3.48v7.33A5.22,5.22,0,0,1,16.54,22.75Zm-9.08-20A3.71,3.71,0,0,0,3.75,6.46V17.54a3.71,3.71,0,0,0,3.71,3.71h9.08a3.71,3.71,0,0,0,3.71-3.71V10.21a3.71,3.71,0,0,0-.95-2.48L15.93,4a3.72,3.72,0,0,0-2.76-1.23Zm6.46,6H10.08a3.84,3.84,0,0,0-3.83,3.83v2.84a3.84,3.84,0,0,0,3.83,3.83h3.84a3.84,3.84,0,0,0,3.83-3.83V12.58A3.84,3.84,0,0,0,13.92,8.75Zm2.33,3.83v.59h-3.5V10.25h1.17A2.33,2.33,0,0,1,16.25,12.58Zm-6.17-2.33h1.17v2.92H7.75v-.59A2.33,2.33,0,0,1,10.08,10.25ZM7.75,15.42v-.75h3.5v3.08H10.08A2.33,2.33,0,0,1,7.75,15.42Zm6.17,2.33H12.75V14.67h3.5v.75A2.33,2.33,0,0,1,13.92,17.75Z"/></g></svg>