<svg xmlns="http://www.w3.org/2000/svg" viewBox="0 0 24 24"><g id="devices"><path fill="currentColor" id="tablet" d="M16.92,22.75H7.08a3.84,3.84,0,0,1-3.83-3.83V5.08A3.84,3.84,0,0,1,7.08,1.25h9.84a3.84,3.84,0,0,1,3.83,3.83V18.92A3.84,3.84,0,0,1,16.92,22.75Zm-9.84-20A2.34,2.34,0,0,0,4.75,5.08V18.92a2.34,2.34,0,0,0,2.33,2.33h9.84a2.34,2.34,0,0,0,2.33-2.33V5.08a2.34,2.34,0,0,0-2.33-2.33ZM14.69,5.5a.76.76,0,0,0-.75-.75H10.06a.75.75,0,0,0,0,1.5h3.88A.76.76,0,0,0,14.69,5.5ZM12,20.05a2.5,2.5,0,1,1,2.5-2.5A2.5,2.5,0,0,1,12,20.05Zm0-3.5a1,1,0,1,0,1,1A1,1,0,0,0,12,16.55Z"/></g></svg>