<svg xmlns="http://www.w3.org/2000/svg" viewBox="0 0 24 24"><g id="it-network"><path fill="currentColor" id="it" d="M22,11.45v1.1a1.13,1.13,0,0,1-.94,1.11l-1.29.2a7.9,7.9,0,0,1-1,2.32l.77,1.05a1.12,1.12,0,0,1-.12,1.45l-.78.78a1.12,1.12,0,0,1-1.45.12l-1.05-.77a7.9,7.9,0,0,1-2.32,1l-.2,1.29a1.13,1.13,0,0,1-1.11.94h-1.1a1.13,1.13,0,0,1-1.11-.94l-.2-1.29a7.9,7.9,0,0,1-2.32-1l-1.05.77a1.12,1.12,0,0,1-1.45-.12l-.78-.78a1.12,1.12,0,0,1-.12-1.45l.77-1.05a7.9,7.9,0,0,1-1-2.32l-1.29-.2A1.13,1.13,0,0,1,2,12.55v-1.1a1.13,1.13,0,0,1,.94-1.11l1.29-.2a7.9,7.9,0,0,1,1-2.32L4.42,6.77a1.12,1.12,0,0,1,.12-1.45l.78-.78a1.12,1.12,0,0,1,1.45-.12l1.05.77a7.9,7.9,0,0,1,2.32-1l.2-1.29A1.13,1.13,0,0,1,11.45,2h1.1a1.13,1.13,0,0,1,1.11.94l.2,1.29a7.9,7.9,0,0,1,2.32,1l1.05-.77a1.12,1.12,0,0,1,1.45.12l.78.78a1.12,1.12,0,0,1,.12,1.45l-.77,1.05a7.9,7.9,0,0,1,1,2.32l1.29.2A1.13,1.13,0,0,1,22,11.45ZM12,8.5A3.5,3.5,0,1,0,15.5,12,3.5,3.5,0,0,0,12,8.5Z"/></g></svg>