<svg xmlns="http://www.w3.org/2000/svg" viewBox="0 0 24 24"><g id="it-network"><path fill="currentColor" id="it-2" d="M20.71,17.72A2.87,2.87,0,0,1,21,19a3,3,0,0,1-3,3H6a3,3,0,0,0,3-3,2.87,2.87,0,0,0-.29-1.28L3.29,6.28A2.87,2.87,0,0,1,3,5a3.27,3.27,0,0,1,0-.44h0a2.22,2.22,0,0,1,4.35,0s0,0,0,0A2.61,2.61,0,0,0,10,6.5h5.37ZM7.5,19H4.23a1,1,0,0,0-.87,1.42.35.35,0,0,0,.05.08H6A1.5,1.5,0,0,0,7.5,19ZM5.29,1.91c1.38,0,3.19.61,3.6,2.29A1.14,1.14,0,0,0,10,5H20.14a.75.75,0,0,0,.7-1A3,3,0,0,0,18,2Z"/></g></svg>