<svg xmlns="http://www.w3.org/2000/svg" viewBox="0 0 24 24"><g id="location"><path fill="currentColor" id="route" d="M21,15.76l.78-1A.94.94,0,0,0,21,13.26h-5.3v-.74a.75.75,0,0,0-1.5,0v8H8a3.17,3.17,0,0,1-3.25-3.07A3.16,3.16,0,0,1,8,14.37h1.5a2.19,2.19,0,1,0,0-4.37H7.82L9,8.66a4,4,0,1,0-6,0l2.23,2.5a1,1,0,0,0,.7.33h3.5a.71.71,0,0,1,.75.68.72.72,0,0,1-.75.69H8a4.67,4.67,0,0,0-4.75,4.57A4.67,4.67,0,0,0,8,22h7a.74.74,0,0,0,.75-.75v-3H21a.94.94,0,0,0,.73-1.53ZM4.53,6A1.5,1.5,0,1,1,6,7.49,1.5,1.5,0,0,1,4.53,6Z"/></g></svg>