<svg xmlns="http://www.w3.org/2000/svg" viewBox="0 0 24 24"><defs><style>.cls-1{opacity:0.3;}</style></defs><g id="general"><g id="call"><rect class="cls-1" x="2.24" y="2" width="12.4" height="20" rx="2.25"/><path d="M7.41,2h1a1,1,0,0,1,1,1V3a1,1,0,0,1-1,1h-1a0,0,0,0,1,0,0V2A0,0,0,0,1,7.41,2Z" transform="translate(11.48 -5.41) rotate(90)"/><path d="M6.89,16.47a1.55,1.55,0,0,0,3.1,0Z"/><path d="M8.45,8.57h0a3.77,3.77,0,0,1,3.77,3.77v2.83a.66.66,0,0,1-.66.66H5.34a.66.66,0,0,1-.66-.66V12.35A3.77,3.77,0,0,1,8.45,8.57Z"/><path d="M8.44,9.6a.76.76,0,0,1-.75-.75V7.58a.75.75,0,0,1,1.5,0V8.85A.75.75,0,0,1,8.44,9.6Z"/><path d="M21,13H18.2a.75.75,0,0,1,0-1.5H21A.75.75,0,0,1,21,13Z"/><path d="M18.25,8a.75.75,0,0,1-.36-1.41l2.72-1.45a.75.75,0,1,1,.71,1.32L18.6,7.89A.73.73,0,0,1,18.25,8Z"/><path d="M21,19.38a.8.8,0,0,1-.36-.09l-2.72-1.45a.75.75,0,0,1,.71-1.33L21.32,18A.75.75,0,0,1,21,19.38Z"/></g></g></svg>