<svg xmlns="http://www.w3.org/2000/svg" viewBox="0 0 24 24"><defs><style>.cls-1{opacity:0.3;}</style></defs><g id="general"><g id="chrome"><circle class="cls-1" cx="12.54" cy="12" r="10.11"/><path d="M22,8.43a10.59,10.59,0,0,0-.77-1.59,30.39,30.39,0,0,0-9.31.33l0,0a5,5,0,0,0-4.23,4.13A22.07,22.07,0,0,1,4.82,5.49,9.71,9.71,0,0,0,3.75,7a29.61,29.61,0,0,0,5.13,8.44l.06,0a5,5,0,0,0,3.6,1.57,4.85,4.85,0,0,0,1.67-.31,31.9,31.9,0,0,1-3.49,5.15,9.83,9.83,0,0,0,1.81.17,30.82,30.82,0,0,0,4.6-8,5,5,0,0,0,.4-1.94,5,5,0,0,0-1.9-3.89A42.25,42.25,0,0,1,22,8.43Zm-6,3.68a3.49,3.49,0,1,1-3.49-3.49A3.49,3.49,0,0,1,16,12.11Z"/></g></g></svg>