<svg xmlns="http://www.w3.org/2000/svg" viewBox="0 0 24 24"><defs><style>.cls-1{opacity:0.3;}</style></defs><g id="general"><g id="cloud-change"><path d="M7.47,20.9H5.94a1,1,0,0,1-.68-1.62l2.17-2.17a1,1,0,0,1,1.35,0l2.16,2.17a1,1,0,0,1-.67,1.62H7.47Z"/><path d="M15.27,16.83H13.73a1,1,0,0,0-.67,1.63l2.16,2.16a.94.94,0,0,0,1.35,0l2.17-2.16a1,1,0,0,0-.68-1.63H15.27Z"/><path class="cls-1" d="M19,15.68a3,3,0,0,0,0-6l-.19,0a2.89,2.89,0,0,0,.19-1,3,3,0,0,0-3-3,3,3,0,0,0-1.68.52A5,5,0,0,0,5,8.68a5.49,5.49,0,0,0,.1,1H5a3,3,0,0,0,0,6Z"/></g></g></svg>