<svg xmlns="http://www.w3.org/2000/svg" viewBox="0 0 24 24"><defs><style>.cls-1{opacity:0.3;}</style></defs><g id="general"><g id="coffee"><rect class="cls-1" x="2.34" y="6.52" width="15.48" height="15.48" rx="4.09"/><path d="M17.83,10.61h0v7.3c0,.12,0,.24,0,.36h0a3.83,3.83,0,1,0,0-7.66Z"/><path class="cls-1" d="M2.34,10.61v1.55H17.83V10.61a4.1,4.1,0,0,0-4.1-4.09H6.43A4.09,4.09,0,0,0,2.34,10.61Z"/><path d="M10.08,4.72A.75.75,0,0,1,9.33,4V2a.75.75,0,0,1,1.5,0V4A.74.74,0,0,1,10.08,4.72Z"/><path d="M6.17,4.72A.75.75,0,0,1,5.42,4V2a.75.75,0,0,1,1.5,0V4A.74.74,0,0,1,6.17,4.72Z"/><path d="M14,4.82a.76.76,0,0,1-.75-.75v-2a.75.75,0,0,1,1.5,0v2A.75.75,0,0,1,14,4.82Z"/></g></g></svg>