<svg xmlns="http://www.w3.org/2000/svg" viewBox="0 0 24 24"><defs><style>.cls-1{opacity:0.3;}</style></defs><g id="general"><g id="crown-2"><g class="cls-1"><path d="M16.8,18.89H7.1a1.07,1.07,0,0,1-1-.71l-4-11.62A1,1,0,0,1,3.64,5.4l4,2.88A.89.89,0,0,0,9,7.88l2-5.22a1,1,0,0,1,1.93,0l1.94,5.25a.89.89,0,0,0,1.37.4l4.13-3.07A1,1,0,0,1,21.94,6.4L17.8,18.18A1,1,0,0,1,16.8,18.89Z"/></g><path d="M14.5,14.66h-5a.75.75,0,1,1,0-1.5h5a.75.75,0,1,1,0,1.5Z"/><path d="M17.12,22H6.89a.75.75,0,1,1,0-1.5H17.12a.75.75,0,1,1,0,1.5Z"/></g></g></svg>