<svg xmlns="http://www.w3.org/2000/svg" viewBox="0 0 24 24"><defs><style>.cls-1{opacity:0.3;}</style></defs><g id="general"><g id="cup"><path class="cls-1" d="M18.41,3.93A1.83,1.83,0,0,0,16.7,2H7.46A1.83,1.83,0,0,0,5.74,3.93c0,4.75,2,9,4.62,10.3a.92.92,0,0,1,.47,1,21.44,21.44,0,0,1-2.09,5.39A.88.88,0,0,0,9.47,22h5.26a.8.8,0,0,0,.76-1.24,30.27,30.27,0,0,1-1.86-5.66.89.89,0,0,1,.43-1C16.59,12.75,18.41,8.79,18.41,3.93Z"/><path d="M22,7.26a6.43,6.43,0,0,1-6.3,6.59H14.51A6.47,6.47,0,0,0,16,12.38a5,5,0,0,0,4.62-5.06A1.29,1.29,0,0,0,19.36,6h0a.53.53,0,0,1-.52-.54V5.11a.52.52,0,0,1,.52-.53h0A2.68,2.68,0,0,1,22,7.26ZM8.26,12.41A5,5,0,0,1,3.38,7.33,1.3,1.3,0,0,1,4.64,6h0a.57.57,0,0,0,.57-.59V5.16a.57.57,0,0,0-.57-.58h0A2.68,2.68,0,0,0,2,7.26a6.43,6.43,0,0,0,6.3,6.59H9.73A6.88,6.88,0,0,1,8.26,12.41Z"/></g></g></svg>