<svg xmlns="http://www.w3.org/2000/svg" viewBox="0 0 24 24"><defs><style>.cls-1{opacity:0.3;}</style></defs><g id="general"><g id="diamonds"><path d="M21.71,9.67l-.79-1.76H3.08L2.29,9.67a3.25,3.25,0,0,0,.53,3.5l7.1,7.89a2.78,2.78,0,0,0,4.16,0l7.1-7.89A3.25,3.25,0,0,0,21.71,9.67Z"/><path class="cls-1" d="M3.08,7.91H20.92L19,3.62a2,2,0,0,0-.19-.36A3.55,3.55,0,0,0,18.55,3a2.88,2.88,0,0,0-.45-.41A2.63,2.63,0,0,0,16.9,2a2.6,2.6,0,0,0-.4,0h-9A2.7,2.7,0,0,0,6,2.44,2.8,2.8,0,0,0,5.45,3,5,5,0,0,0,5,3.62Z"/></g></g></svg>