<svg xmlns="http://www.w3.org/2000/svg" viewBox="0 0 24 24"><defs><style>.cls-1{opacity:0.3;}</style></defs><g id="general"><g id="disk"><path class="cls-1" d="M12,2A10,10,0,1,0,22,12,10,10,0,0,0,12,2Zm0,12.56A2.56,2.56,0,1,1,14.56,12,2.56,2.56,0,0,1,12,14.56Z"/><path d="M12.05,15.7A3.66,3.66,0,1,1,15.71,12,3.66,3.66,0,0,1,12.05,15.7Zm0-5.66a2,2,0,1,0,2,2A2,2,0,0,0,12.05,10Zm2.76,10.15a8.55,8.55,0,0,0,5.58-6,.75.75,0,0,0-1.45-.37,7.18,7.18,0,0,1-4.61,5,.75.75,0,0,0,.24,1.46A.67.67,0,0,0,14.81,20.19ZM5.07,10.72A7.08,7.08,0,0,1,10,5.24.75.75,0,0,0,9.57,3.8a8.56,8.56,0,0,0-6,6.64.75.75,0,0,0,.6.88h.14A.75.75,0,0,0,5.07,10.72Z"/></g></g></svg>