<svg xmlns="http://www.w3.org/2000/svg" viewBox="0 0 24 24"><defs><style>.cls-1{opacity:0.3;}</style></defs><g id="general"><g id="filter-tick"><path class="cls-1" d="M17.84,2H5.1A2.21,2.21,0,0,0,2.89,4.19V6.68a2.2,2.2,0,0,0,.64,1.55l3.76,3.82a3.85,3.85,0,0,1,1.11,2.7V20a2,2,0,0,0,3.22,1.67l1.36-1a1.91,1.91,0,0,0,.81-1.56V15.26a.75.75,0,0,1,0-1l.1-.07A3.85,3.85,0,0,1,15.08,12l4.24-3.77a2.22,2.22,0,0,0,.74-1.66V4.19A2.21,2.21,0,0,0,17.84,2Z"/><path d="M16.36,10a4.75,4.75,0,1,0,4.75,4.75A4.75,4.75,0,0,0,16.36,10Zm2.32,4.11L16.1,16.44a.78.78,0,0,1-.51.2.74.74,0,0,1-.5-.2l-1.26-1.13a.75.75,0,1,1,1-1.11l.76.68L17.67,13a.75.75,0,0,1,1,1.12Z"/></g></g></svg>