<svg xmlns="http://www.w3.org/2000/svg" viewBox="0 0 24 24"><defs><style>.cls-1{opacity:0.3;}</style></defs><g id="general"><g id="filter-edit"><path class="cls-1" d="M17.81,2H5.06A2.21,2.21,0,0,0,2.85,4.19V6.68a2.2,2.2,0,0,0,.64,1.55l3.76,3.82a3.85,3.85,0,0,1,1.11,2.7V20a2,2,0,0,0,3.22,1.67l1.36-1a1.92,1.92,0,0,0,.82-1.56V14.9A3.86,3.86,0,0,1,15.05,12l4.23-3.77A2.22,2.22,0,0,0,20,6.59V4.19A2.21,2.21,0,0,0,17.81,2Z"/><path d="M16.4,10.21A4.75,4.75,0,1,0,21.15,15,4.75,4.75,0,0,0,16.4,10.21Zm2.16,4L15.86,17a.5.5,0,0,1-.27.14l-.85.18a.57.57,0,0,1-.67-.66l.16-.85a.5.5,0,0,1,.14-.27l2.69-2.75a.68.68,0,0,1,1,0l.52.52A.66.66,0,0,1,18.56,14.24Z"/></g></g></svg>