<svg xmlns="http://www.w3.org/2000/svg" viewBox="0 0 24 24"><defs><style>.cls-1{opacity:0.3;}</style></defs><g id="general"><g id="ghost"><circle cx="12" cy="9.13" r="2.38"/><path d="M12.1,16.07a8.77,8.77,0,0,1-4.55-1.35.75.75,0,0,1-.18-1.05.74.74,0,0,1,1-.18,6.37,6.37,0,0,0,7.05,0,.75.75,0,1,1,.86,1.23A7.3,7.3,0,0,1,12.1,16.07Z"/><path class="cls-1" d="M2,12.13v8.14a.87.87,0,0,0,1.43.67l1.39-1.16a.89.89,0,0,1,1.13,0l2.19,1.87a.88.88,0,0,0,1.13,0l2.22-1.88a.88.88,0,0,1,1.13,0l2.15,1.83a.87.87,0,0,0,1.13,0l2.15-1.84a.89.89,0,0,1,1.13,0l1.39,1.16A.87.87,0,0,0,22,20.27V12.13a10,10,0,0,0-10-10h0A10,10,0,0,0,2,12.13Z"/></g></g></svg>