<svg xmlns="http://www.w3.org/2000/svg" viewBox="0 0 24 24"><defs><style>.cls-1{opacity:0.3;}</style></defs><g id="general"><g id="gift"><path class="cls-1" d="M4,7.5H20a0,0,0,0,1,0,0V19.13A2.87,2.87,0,0,1,17.13,22H6.87A2.87,2.87,0,0,1,4,19.13V7.5A0,0,0,0,1,4,7.5Z"/><rect x="2.5" y="5" width="19" height="5" rx="1.66"/><path class="cls-1" d="M17.81,3.71,16.38,2.28a.92.92,0,0,0-1.3,0L12,5.35,8.92,2.28a.92.92,0,0,0-1.3,0L6.19,3.71a.92.92,0,0,0,0,1.3L9.51,8.33a.92.92,0,0,0,1.3,0L12,7.14l1.19,1.19a.92.92,0,0,0,1.3,0L17.81,5A.92.92,0,0,0,17.81,3.71Z"/><path class="cls-1" d="M13.46,15.93l-.76-.51a1.27,1.27,0,0,0-1.4,0l-.76.51A1,1,0,0,1,9,15.1V8h6V15.1A1,1,0,0,1,13.46,15.93Z"/></g></g></svg>