<svg xmlns="http://www.w3.org/2000/svg" viewBox="0 0 24 24"><defs><style>.cls-1{opacity:0.3;}</style></defs><g id="general"><g id="icon"><circle class="cls-1" cx="12" cy="12" r="10"/><path d="M13.16,15.91a1.81,1.81,0,0,0-1.78-1.47l-.2,0A25.23,25.23,0,0,1,9.2,9a1.8,1.8,0,0,0-.55-3.19A25.67,25.67,0,0,1,8.5,3.18c0-.18,0-.36,0-.54A9.88,9.88,0,0,0,7,3.34,23.84,23.84,0,0,0,7.17,6a1.8,1.8,0,0,0-.85,1.53A1.82,1.82,0,0,0,7.73,9.33a26.58,26.58,0,0,0,2.15,5.89A25.19,25.19,0,0,1,2,11.42c0,.19,0,.38,0,.58a10.86,10.86,0,0,0,.09,1.28,26.83,26.83,0,0,0,7.53,3.39,1.81,1.81,0,0,0,1.76,1.4h.17a26.81,26.81,0,0,0,2.93,3.62,10.38,10.38,0,0,0,1.57-.54,24.63,24.63,0,0,1-3.15-3.76,26.17,26.17,0,0,0,3.78.28,27,27,0,0,0,3.73-.27,10.18,10.18,0,0,0,.87-1.67,24.91,24.91,0,0,1-4.6.44A25.58,25.58,0,0,1,13.16,15.91Z"/><path d="M18.16,10.47a1.86,1.86,0,0,0,.2-.81,1.82,1.82,0,0,0-1.82-1.81A1.92,1.92,0,0,0,16,8a14,14,0,0,1-2.31-5.8A8.73,8.73,0,0,0,12.1,2a15.56,15.56,0,0,0,2.76,7,1.67,1.67,0,0,0-.13.67,1.82,1.82,0,0,0,1.81,1.82,2.22,2.22,0,0,0,.45-.06,15.77,15.77,0,0,0,4.7,3A9.34,9.34,0,0,0,22,12.93,14.44,14.44,0,0,1,18.16,10.47Z"/></g></g></svg>