<svg xmlns="http://www.w3.org/2000/svg" viewBox="0 0 24 24"><defs><style>.cls-1{opacity:0.3;}</style></defs><g id="general"><g id="milk"><path class="cls-1" d="M14.93,5.18V3.5H9V5.2A3.94,3.94,0,0,1,7.86,8l-1,1A2.9,2.9,0,0,0,6,11v8.09A2.88,2.88,0,0,0,8.88,22h6.24A2.88,2.88,0,0,0,18,19.12V11.05A2.85,2.85,0,0,0,17.13,9l-1-1A3.91,3.91,0,0,1,14.93,5.18Z"/><rect x="8" y="2" width="8" height="3" rx="1.5"/><path d="M12.3,15.33C11,13.44,7.45,13.68,6,13.88v5.24A2.88,2.88,0,0,0,8.88,22h6.24A2.88,2.88,0,0,0,18,19.12V16.48C16,16.73,13.31,16.73,12.3,15.33Z"/></g></g></svg>