<svg xmlns="http://www.w3.org/2000/svg" viewBox="0 0 24 24"><g id="general"><g id="paper-clip"><path d="M10,21.89a4.84,4.84,0,0,1-2.25-.54A5,5,0,0,1,5.18,18.1a6,6,0,0,1,.52-4.29l3.62-7a.75.75,0,0,1,1.34.69L7,14.5a4.55,4.55,0,0,0-.4,3.22A3.5,3.5,0,0,0,8.4,20,4,4,0,0,0,13.7,18l3.89-7.47a.74.74,0,0,1,1-.32.75.75,0,0,1,.32,1L15,18.66A5.84,5.84,0,0,1,10,21.89Z"/><path d="M14.86,13a.73.73,0,0,1-.35-.09.76.76,0,0,1-.32-1l2.19-4.22a3.12,3.12,0,0,0,.28-2.23,2.42,2.42,0,0,0-1.2-1.57,2.39,2.39,0,0,0-2-.08,3.15,3.15,0,0,0-1.67,1.51L9.65,9.46a.75.75,0,1,1-1.33-.7L10.48,4.6A4.67,4.67,0,0,1,13,2.37a3.85,3.85,0,0,1,5.17,2.68,4.68,4.68,0,0,1-.4,3.31l-2.2,4.21A.74.74,0,0,1,14.86,13Z"/><path d="M11.32,17.24a2.58,2.58,0,0,1-1.21-.3A2.92,2.92,0,0,1,9,13l2.81-5.4a.75.75,0,0,1,1.33.69l-2.81,5.41a1.41,1.41,0,0,0,.45,1.93,1.17,1.17,0,0,0,1,0,1.65,1.65,0,0,0,.86-.79l1.89-3.63a.75.75,0,0,1,1.33.69L14,15.55a3.13,3.13,0,0,1-1.67,1.5A2.68,2.68,0,0,1,11.32,17.24Z"/></g></g></svg>