<svg xmlns="http://www.w3.org/2000/svg" viewBox="0 0 24 24"><defs><style>.cls-1{opacity:0.3;}</style></defs><g id="general"><g id="pin"><path class="cls-1" d="M4.69,21.5l-1.19.4a1.1,1.1,0,0,1-1.4-1.4l.4-1.19a4.58,4.58,0,0,1,1.13-1.83l3.56-3.56,2.89,2.89L6.52,20.37A4.58,4.58,0,0,1,4.69,21.5Z"/><path d="M21.66,8.13,15.87,2.34a1,1,0,0,0-1.45,0l-.72.72a1,1,0,0,0,0,1.45l.72.72L11.26,8.39a6.16,6.16,0,0,0-6.08.45,1.83,1.83,0,0,0-.28,2.8l7.46,7.46a1.83,1.83,0,0,0,2.8-.28,6.16,6.16,0,0,0,.45-6.08l3.16-3.16.72.72a1,1,0,0,0,1.45,0l.72-.72A1,1,0,0,0,21.66,8.13Z"/></g></g></svg>