<svg xmlns="http://www.w3.org/2000/svg" viewBox="0 0 24 24"><defs><style>.cls-1{opacity:0.3;}</style></defs><g id="general"><g id="ranking"><path class="cls-1" d="M4.23,14.23H8.76a0,0,0,0,1,0,0V22a0,0,0,0,1,0,0H2.29a0,0,0,0,1,0,0V16.17A1.94,1.94,0,0,1,4.23,14.23Z"/><path d="M10.71,10.35h2.59a1.94,1.94,0,0,1,1.94,1.94V22a0,0,0,0,1,0,0H8.77a0,0,0,0,1,0,0V12.29A1.94,1.94,0,0,1,10.71,10.35Z"/><path class="cls-1" d="M15.23,17.14h4.54a1.94,1.94,0,0,1,1.94,1.94V22a0,0,0,0,1,0,0H15.23a0,0,0,0,1,0,0V17.14A0,0,0,0,1,15.23,17.14Z"/><path d="M13.2,8.33l-.93-.44a.79.79,0,0,0-.64,0l-.94.4a.77.77,0,0,1-1.07-.8l.12-1a.73.73,0,0,0-.19-.6L8.87,5.1A.78.78,0,0,1,9.3,3.83l1-.2a.79.79,0,0,0,.52-.37l.52-.88a.77.77,0,0,1,1.34,0l.5.89a.76.76,0,0,0,.51.38l1,.23a.78.78,0,0,1,.4,1.28l-.7.75a.77.77,0,0,0-.2.6l.09,1A.77.77,0,0,1,13.2,8.33Z"/></g></g></svg>