<svg xmlns="http://www.w3.org/2000/svg" viewBox="0 0 24 24"><defs><style>.cls-1{opacity:0.3;}</style></defs><g id="general"><g id="rescue"><g class="cls-1"><path d="M7.41,4.8A1.21,1.21,0,0,1,7.8,2.89a10,10,0,0,1,9.33.48,1.16,1.16,0,0,1,.16,1.84L15.4,7a1.18,1.18,0,0,1-1.3.2A5,5,0,0,0,12,6.73,4.56,4.56,0,0,0,10.44,7a1.19,1.19,0,0,1-1.25-.3Zm7.67,11.88a1.16,1.16,0,0,0-1.28-.28,4.82,4.82,0,0,1-1.78.34,5,5,0,0,1-1.82-.35A1.16,1.16,0,0,0,9,16.62L6.71,18.74a1.16,1.16,0,0,0,.16,1.84,10,10,0,0,0,10,.17,1.19,1.19,0,0,0,.31-1.85Z"/></g><path d="M16.77,10.25A1.17,1.17,0,0,1,17.08,9l2-1.88a1.16,1.16,0,0,1,1.82.28,9.94,9.94,0,0,1-.14,9.39,1.18,1.18,0,0,1-1.9.25l-2-2.17a1.16,1.16,0,0,1-.23-1.24,4.75,4.75,0,0,0,.4-1.92A4.88,4.88,0,0,0,16.77,10.25ZM7.05,14.78a1.17,1.17,0,0,0,.28-1.28A4.73,4.73,0,0,1,7,11.73a5,5,0,0,1,.46-2.09,1.19,1.19,0,0,0-.19-1.31L5.43,6.39a1.17,1.17,0,0,0-1.85.19A9.87,9.87,0,0,0,2,12a10,10,0,0,0,1.09,4.53,1.17,1.17,0,0,0,1.83.29Z"/></g></g></svg>