<svg xmlns="http://www.w3.org/2000/svg" viewBox="0 0 24 24"><defs><style>.cls-1{opacity:0.3;}</style></defs><g id="general"><g id="Rocket"><g class="cls-1"><path d="M20,2l-3.54.64A10.32,10.32,0,0,0,11.74,5.4c-2.07,2.16-4.38,6.79-5.3,8.72a1.35,1.35,0,0,0,.29,1.54l2.06,2a1.32,1.32,0,0,0,1.54.22,43.49,43.49,0,0,0,8.35-5.51,9.66,9.66,0,0,0,2.62-5L21.94,4A1.7,1.7,0,0,0,20,2ZM17.64,9.19a2,2,0,1,1-.06-2.81A2,2,0,0,1,17.64,9.19Z"/></g><path d="M9.36,8.66,6.58,13.87,2,13.76S5.83,7.91,9.36,8.66Zm6.72,5.74-5,3.06L11.39,22S17,17.88,16.08,14.4Zm.1-8.57a2,2,0,1,0,2,2A2,2,0,0,0,16.18,5.83Z"/></g></g></svg>