<svg xmlns="http://www.w3.org/2000/svg" viewBox="0 0 24 24"><defs><style>.cls-1{opacity:0.3;}</style></defs><g id="general"><g id="safe-home"><path class="cls-1" d="M15.71,19.86l-9.79,0a3.13,3.13,0,0,1-3.11-2.76L2,10.38A3.14,3.14,0,0,1,3.21,7.54l6-4.63A3.12,3.12,0,0,1,13.14,3l5.7,4.79A3.1,3.1,0,0,1,19.9,10.7l-1.12,6.56A3.11,3.11,0,0,1,15.71,19.86Z"/><path d="M15.71,21l-1-.82a2.35,2.35,0,0,1-.9-1.9l0-3.27a1.56,1.56,0,0,1,.92-1.42l2.56-1.19a1.59,1.59,0,0,1,1.3,0l2.47,1.08A1.61,1.61,0,0,1,22,14.94l0,3.28a2.42,2.42,0,0,1-.89,1.84L19.92,21A3.36,3.36,0,0,1,15.71,21Z"/></g></g></svg>