<svg xmlns="http://www.w3.org/2000/svg" viewBox="0 0 24 24"><defs><style>.cls-1{opacity:0.3;}</style></defs><g id="general"><g id="share"><path class="cls-1" d="M12.05,22a9.12,9.12,0,0,1-3.82-.83.77.77,0,0,1-.37-1,.76.76,0,0,1,1-.37,7.7,7.7,0,0,0,6.22.07.76.76,0,0,1,.61,1.39A9.09,9.09,0,0,1,12.05,22Z"/><path class="cls-1" d="M20.38,12.75a.76.76,0,0,1-.75-.68,7.66,7.66,0,0,0-3-5.3.76.76,0,0,1,.91-1.21,9.16,9.16,0,0,1,3.6,6.36.75.75,0,0,1-.67.83Z"/><path class="cls-1" d="M3.72,12.75H3.64A.75.75,0,0,1,3,11.91,9.15,9.15,0,0,1,6.7,5.47a.76.76,0,1,1,.89,1.22,7.64,7.64,0,0,0-3.12,5.38A.76.76,0,0,1,3.72,12.75Z"/><circle cx="11.98" cy="4.91" r="2.91"/><circle cx="5" cy="16.86" r="2.91"/><circle cx="19" cy="16.86" r="2.91"/></g></g></svg>