<svg xmlns="http://www.w3.org/2000/svg" viewBox="0 0 24 24"><defs><style>.cls-1{opacity:0.3;}</style></defs><g id="general"><g id="slider"><g class="cls-1"><rect x="4.84" y="2" width="14.32" height="20" rx="4.35"/></g><path d="M2.75,20A.75.75,0,0,1,2,19.28V4.72a.75.75,0,0,1,1.5,0V19.28A.75.75,0,0,1,2.75,20Z"/><path d="M21.25,20a.75.75,0,0,1-.75-.75V4.72a.75.75,0,1,1,1.5,0V19.28A.75.75,0,0,1,21.25,20Z"/><path d="M4.84,15.69v2A4.35,4.35,0,0,0,9.21,22h5.58a4.35,4.35,0,0,0,4.37-4.33v-2Z"/></g></g></svg>