<svg xmlns="http://www.w3.org/2000/svg" viewBox="0 0 24 24"><defs><style>.cls-1{opacity:0.3;}</style></defs><g id="general"><g id="status"><path class="cls-1" d="M15.6,13.14h4.93A1.47,1.47,0,0,1,22,14.89,9,9,0,0,1,14.89,22a1.47,1.47,0,0,1-1.75-1.44V15.6A2.46,2.46,0,0,1,15.6,13.14Z"/><path class="cls-1" d="M8.4,13.14H3.47A1.47,1.47,0,0,0,2,14.89,9,9,0,0,0,9.11,22a1.47,1.47,0,0,0,1.75-1.44V15.6A2.46,2.46,0,0,0,8.4,13.14Z"/><path d="M3.74,12A1.58,1.58,0,0,1,2.2,10.09a10,10,0,0,1,19.6,0A1.58,1.58,0,0,1,20.26,12Z"/></g></g></svg>