<svg xmlns="http://www.w3.org/2000/svg" viewBox="0 0 24 24"><defs><style>.cls-1{opacity:0.3;}</style></defs><g id="general"><g id="subtitle"><rect class="cls-1" x="2" y="2" width="20" height="20" rx="5.95"/><path d="M12.43,14H5.12a.75.75,0,0,1,0-1.5h7.31a.75.75,0,0,1,0,1.5Z"/><path d="M18.88,14H15.67a.75.75,0,0,1,0-1.5h3.21a.75.75,0,0,1,0,1.5Z"/><path d="M18.88,17.51H11.57a.75.75,0,0,1,0-1.5h7.31a.75.75,0,0,1,0,1.5Z"/><path d="M8.33,17.51H5.12a.75.75,0,0,1,0-1.5H8.33a.75.75,0,1,1,0,1.5Z"/></g></g></svg>