<svg xmlns="http://www.w3.org/2000/svg" viewBox="0 0 24 24"><defs><style>.cls-1{opacity:0.3;}</style></defs><g id="general"><g id="switch"><path d="M17.53,11h-11A4.49,4.49,0,0,1,2,6.5H2A4.49,4.49,0,0,1,6.53,2h11A4.5,4.5,0,0,1,22,6.5h0A4.5,4.5,0,0,1,17.53,11ZM15,6.5A2.5,2.5,0,1,0,17.53,4,2.5,2.5,0,0,0,15,6.5Z"/><path class="cls-1" d="M17.53,22h-11A4.49,4.49,0,0,1,2,17.5H2A4.49,4.49,0,0,1,6.53,13h11A4.5,4.5,0,0,1,22,17.5h0A4.5,4.5,0,0,1,17.53,22ZM4,17.5A2.5,2.5,0,1,0,6.53,15,2.5,2.5,0,0,0,4,17.5Z"/></g></g></svg>