<svg xmlns="http://www.w3.org/2000/svg" viewBox="0 0 24 24"><defs><style>.cls-1{opacity:0.3;}</style></defs><g id="general"><g id="tag-cross"><path class="cls-1" d="M17.83,20.25H10A4.18,4.18,0,0,1,6.89,18.9L3.1,14.76A4.17,4.17,0,0,1,3,9.19l3.56-4A4.16,4.16,0,0,1,9.73,3.75h8.1A4.17,4.17,0,0,1,22,7.92v8.16A4.17,4.17,0,0,1,17.83,20.25Z"/><path d="M15.84,15a.76.76,0,0,1-.54-.23L10.66,10A.75.75,0,1,1,11.73,9l4.65,4.76a.75.75,0,0,1,0,1.06A.7.7,0,0,1,15.84,15Z"/><path d="M11.2,15a.74.74,0,0,1-.53-.22.75.75,0,0,1,0-1.06L15.3,9a.75.75,0,0,1,1.06,0,.75.75,0,0,1,0,1.06l-4.65,4.76A.74.74,0,0,1,11.2,15Z"/></g></g></svg>