<svg xmlns="http://www.w3.org/2000/svg" viewBox="0 0 24 24"><defs><style>.cls-1{opacity:0.3;}</style></defs><g id="general"><g id="triangle"><path d="M12,2.91A3.19,3.19,0,0,0,9.22,4.52L2.43,16.27A3.2,3.2,0,0,0,2.84,20L12,13.61Z"/><path class="cls-1" d="M21.14,20.05a3.19,3.19,0,0,0,.43-3.78L14.78,4.52A3.19,3.19,0,0,0,12,2.91v10.7Z"/><path class="cls-1" d="M2.84,20a3.14,3.14,0,0,0,2.37,1.06H18.78a3.14,3.14,0,0,0,2.36-1L12,13.61Z"/><path class="cls-1" d="M2.84,20a3.14,3.14,0,0,0,2.37,1.06H18.78a3.14,3.14,0,0,0,2.36-1L12,13.61Z"/></g></g></svg>