<svg xmlns="http://www.w3.org/2000/svg" viewBox="0 0 24 24"><defs><style>.cls-1{opacity:0.3;}</style></defs><g id="general"><g id="trush"><g class="cls-1"><path d="M15.87,21.91,8.32,22a2.56,2.56,0,0,1-2.59-2.38L5,9.18A1.1,1.1,0,0,1,6.12,8H17.88A1.1,1.1,0,0,1,19,9.17l-.59,10.32A2.56,2.56,0,0,1,15.87,21.91Z"/></g><path d="M14.23,13.6H9.77a.75.75,0,0,1,0-1.5h4.46a.75.75,0,0,1,0,1.5Z"/><path d="M13.45,17.3h-2.9a.75.75,0,0,1,0-1.5h2.9a.75.75,0,0,1,0,1.5Z"/><path d="M20.25,7.16h-.11a59.72,59.72,0,0,0-16.27,0,.75.75,0,0,1-.24-1.48,60,60,0,0,1,16.73,0,.75.75,0,0,1-.11,1.49Z"/><path d="M16,5.84H8l.45-2.32A1.87,1.87,0,0,1,10.25,2h3.53a1.88,1.88,0,0,1,1.84,1.53Z"/></g></g></svg>