<svg xmlns="http://www.w3.org/2000/svg" viewBox="0 0 24 24"><defs><style>.cls-1{opacity:0.3;}</style></defs><g id="general"><g id="trush-square"><rect class="cls-1" x="2" y="2" width="20" height="20" rx="5.95"/><path d="M14.18,17.6l-4.25,0a1.37,1.37,0,0,1-1.45-1.17l-.41-5.1a.58.58,0,0,1,.62-.57h6.62a.58.58,0,0,1,.62.57l-.33,5A1.37,1.37,0,0,1,14.18,17.6Z"/><path d="M16.64,9.61h-.11a32.82,32.82,0,0,0-9,0A.76.76,0,0,1,6.62,9a.74.74,0,0,1,.62-.86,34,34,0,0,1,9.51,0,.76.76,0,0,1,.63.86A.74.74,0,0,1,16.64,9.61Z"/><path d="M14.27,8.53H9.73L10,7a1.1,1.1,0,0,1,1-1h2a1.1,1.1,0,0,1,1,1Z"/></g></g></svg>