<svg xmlns="http://www.w3.org/2000/svg" viewBox="0 0 24 24"><defs><style>.cls-1{opacity:0.3;}</style></defs><g id="general"><g id="wifi-home"><path class="cls-1" d="M17.28,21.81l-10.92,0a3.48,3.48,0,0,1-3.47-3.08L2,11.23A3.47,3.47,0,0,1,3.34,8.07L10,2.89a3.48,3.48,0,0,1,4.37.1l6.36,5.34A3.49,3.49,0,0,1,22,11.59l-1.25,7.33A3.47,3.47,0,0,1,17.28,21.81Z"/><circle cx="11.99" cy="16.47" r="0.99"/><path d="M14,15.19a.79.79,0,0,1-.53-.22,2.11,2.11,0,0,0-3.11,0,.75.75,0,0,1-1.06,0,.75.75,0,0,1,0-1.06,3.58,3.58,0,0,1,5.22,0,.75.75,0,0,1,0,1.06A.79.79,0,0,1,14,15.19Z"/><path d="M16.08,12.78a.76.76,0,0,1-.49-.18,5.45,5.45,0,0,0-7.37,0,.75.75,0,1,1-1-1.1s4.6-4.15,9.37,0a.75.75,0,0,1,.08,1.06A.76.76,0,0,1,16.08,12.78Z"/></g></g></svg>