<svg xmlns="http://www.w3.org/2000/svg" viewBox="0 0 24 24"><defs><style>.cls-1{opacity:0.3;}</style></defs><g id="general"><g id="wifi-square"><rect class="cls-1" x="2" y="2" width="20" height="20" rx="5.95"/><path d="M14.21,16.41a.79.79,0,0,1-.44-.14,2.91,2.91,0,0,0-3.43,0,.75.75,0,0,1-.93-1.18,4.4,4.4,0,0,1,5.23,0,.74.74,0,0,1,.18,1A.75.75,0,0,1,14.21,16.41Z"/><path d="M16.47,13.43a.73.73,0,0,1-.44-.15,6.41,6.41,0,0,0-7.89-.16.75.75,0,1,1-1-1.16,8,8,0,0,1,9.73.11.75.75,0,0,1,.15,1A.74.74,0,0,1,16.47,13.43Z"/><path d="M17.93,10.19a.76.76,0,0,1-.43-.14,9,9,0,0,0-11,0,.75.75,0,0,1-1-1.16,10.66,10.66,0,0,1,12.78,0,.74.74,0,0,1,.17,1A.72.72,0,0,1,17.93,10.19Z"/></g></g></svg>