<svg xmlns="http://www.w3.org/2000/svg" viewBox="0 0 24 24"><defs><style>.cls-1{opacity:0.3;}</style></defs><g id="abstract"><g id="abstract-3"><path fill="currentColor" id="abstract-3-2" data-name="abstract-3" class="cls-1" d="M21.71,11.29l-9-9a1,1,0,0,0-1.42,0l-9,9a1,1,0,0,0,0,1.42l9,9a1,1,0,0,0,1.42,0l9-9A1,1,0,0,0,21.71,11.29ZM12,7.24,14.76,10H9.24Zm0,9.52L9.24,14h5.52Z"/><path fill="currentColor" d="M14.76,10H12v4h2.76L12,16.76V22a1,1,0,0,0,.71-.29l9-9a1,1,0,0,0,0-1.42l-9-9A1,1,0,0,0,12,2V7.24Z"/></g></g></svg>