<svg xmlns="http://www.w3.org/2000/svg" viewBox="0 0 24 24"><defs><style>.cls-1{opacity:0.3;}</style></defs><g id="abstract"><g id="abstract-7"><path fill="currentColor" id="abstract-7-2" data-name="abstract-7" class="cls-1" d="M12,6.36l4.89,2.82v5.64L12,17.64,7.11,14.82V9.18L12,6.36M12,2a1.67,1.67,0,0,0-.84.22L4,6.39a1.67,1.67,0,0,0-.84,1.45v8.32A1.67,1.67,0,0,0,4,17.61l7.21,4.17a1.71,1.71,0,0,0,1.68,0l7.21-4.17a1.67,1.67,0,0,0,.84-1.45V7.84a1.67,1.67,0,0,0-.84-1.45L12.84,2.22A1.67,1.67,0,0,0,12,2Z"/><path fill="currentColor" d="M20.05,6.39,12.84,2.22A1.75,1.75,0,0,0,12,2V6.37l4.88,2.81v5.64L12,17.63V22a1.65,1.65,0,0,0,.83-.23l7.21-4.16a1.67,1.67,0,0,0,.84-1.45V7.84A1.67,1.67,0,0,0,20.05,6.39Z"/></g></g></svg>