<svg xmlns="http://www.w3.org/2000/svg" viewBox="0 0 24 24"><g id="text"><path fill="currentColor" id="text-number" d="M20.53,6.46H9.16a.75.75,0,0,1,0-1.5H20.53a.75.75,0,0,1,0,1.5Zm-4.42,4.25a.74.74,0,0,0-.75-.75H9.16a.75.75,0,0,0,0,1.5h6.2A.75.75,0,0,0,16.11,10.71Zm5.17,5a.75.75,0,0,0-.75-.75H9.16a.75.75,0,0,0,0,1.5H20.53A.76.76,0,0,0,21.28,15.71Zm-5.17,5a.74.74,0,0,0-.75-.75H9.16a.75.75,0,0,0,0,1.5h6.2A.75.75,0,0,0,16.11,20.71ZM5.91,8.12V3.29a.76.76,0,0,0-.51-.71.75.75,0,0,0-.83.25L2.88,5A.74.74,0,0,0,3,6a.75.75,0,0,0,1-.12l.35-.44V8.12a.75.75,0,0,0,1.5,0Zm1,10a.75.75,0,0,0-.75-.75h-1l1.43-2.41a.76.76,0,0,0,.11-.38,2,2,0,1,0-3.91,0,.75.75,0,0,0,1.5,0,.45.45,0,0,1,.88-.16l-2,3.32a.75.75,0,0,0,0,.75.76.76,0,0,0,.66.38H6.11A.74.74,0,0,0,6.86,18.08Z"/></g></svg>