<svg xmlns="http://www.w3.org/2000/svg" viewBox="0 0 24 24"><g id="text"><path fill="currentColor" id="text-underline" d="M16.05,1.25H8A6.71,6.71,0,0,0,1.25,8v8.1A6.71,6.71,0,0,0,8,22.75h8.1a6.71,6.71,0,0,0,6.7-6.7V8A6.71,6.71,0,0,0,16.05,1.25Zm5.2,14.8a5.21,5.21,0,0,1-5.2,5.2H8a5.21,5.21,0,0,1-5.2-5.2V8A5.21,5.21,0,0,1,8,2.75h8.1A5.21,5.21,0,0,1,21.25,8Zm-2.71-3.3a.75.75,0,0,1-.75.75H15.2a2.79,2.79,0,0,1,.11.76,3,3,0,0,1-3,3h-3a.75.75,0,0,1,0-1.5h3a1.5,1.5,0,0,0,1.3-2.26H6.21a.75.75,0,0,1,0-1.5H8.67A3,3,0,0,1,7.61,9.74a3,3,0,0,1,3-3h3a.75.75,0,0,1,0,1.5h-3a1.51,1.51,0,1,0,0,3H12.3a3,3,0,0,1,2,.75h3.52A.76.76,0,0,1,18.54,12.75Z"/></g></svg>