<svg xmlns="http://www.w3.org/2000/svg" viewBox="0 0 24 24"><g id="general"><path fill="currentColor" id="archive-2" data-name="archive" d="M19.43,1.2H4.57A3.32,3.32,0,0,0,1.25,4.52v3a3.33,3.33,0,0,0,2.51,3.22v9.06a3,3,0,0,0,3,3H17.22a3,3,0,0,0,3-3V10.72A3.33,3.33,0,0,0,22.75,7.5v-3A3.32,3.32,0,0,0,19.43,1.2ZM17.22,21.3H6.78a1.52,1.52,0,0,1-1.52-1.52v-9H18.74v9A1.52,1.52,0,0,1,17.22,21.3Zm4-13.8a1.83,1.83,0,0,1-1.52,1.8H4.27A1.83,1.83,0,0,1,2.75,7.5v-3A1.83,1.83,0,0,1,4.57,2.7H19.43a1.83,1.83,0,0,1,1.82,1.82Zm-7,7.33H10.62a.75.75,0,0,1,0-1.5h3.59a.75.75,0,0,1,0,1.5Z"/></g></svg>