<svg xmlns="http://www.w3.org/2000/svg" viewBox="0 0 24 24"><g id="general"><path fill="currentColor" id="call" d="M12.77,1.23H4.85a3,3,0,0,0-3,3V19.76a3,3,0,0,0,3,3h7.92a3,3,0,0,0,3-3V4.24A3,3,0,0,0,12.77,1.23Zm1.51,18.53a1.52,1.52,0,0,1-1.51,1.51H4.85a1.51,1.51,0,0,1-1.5-1.51V4.24a1.51,1.51,0,0,1,1.5-1.51H7.78V3A1,1,0,0,0,9.85,3V2.73h2.92a1.52,1.52,0,0,1,1.51,1.51Zm-7-3.28h3.1a1.55,1.55,0,0,1-3.1,0Zm2.3-7.84V7.57a.75.75,0,0,0-1.5,0V8.64a3.78,3.78,0,0,0-3,3.71v2.33A1.16,1.16,0,0,0,6.2,15.84h5.23a1.16,1.16,0,0,0,1.17-1.16V12.35A3.79,3.79,0,0,0,9.56,8.64Zm1.54,5.7H6.54v-2a2.28,2.28,0,1,1,4.56,0Zm6.74-2.14a.76.76,0,0,1,.75-.75H21.4a.75.75,0,0,1,0,1.5H18.59A.75.75,0,0,1,17.84,12.2ZM18,7.58a.76.76,0,0,1,.31-1L21,5.1a.75.75,0,0,1,.71,1.33L19,7.88a.8.8,0,0,1-.36.09A.76.76,0,0,1,18,7.58ZM22,19a.75.75,0,0,1-.66.4.73.73,0,0,1-.35-.09l-2.73-1.46A.75.75,0,1,1,19,16.53L21.72,18A.75.75,0,0,1,22,19Z"/></g></svg>