<svg xmlns="http://www.w3.org/2000/svg" viewBox="0 0 24 24"><g id="general"><path fill="currentColor" id="cloud" d="M19,18.75H5a3.75,3.75,0,0,1-.74-7.43c0-.1,0-.21,0-.32A5.73,5.73,0,0,1,14.56,7.54,3.75,3.75,0,0,1,19.75,11a1.72,1.72,0,0,1,0,.32A3.75,3.75,0,0,1,19,18.75Zm-14-6a2.25,2.25,0,0,0,0,4.5H19a2.25,2.25,0,0,0,0-4.5l-.14,0a.75.75,0,0,1-.75-1,2.31,2.31,0,0,0,.14-.76A2.25,2.25,0,0,0,16,8.75a2.18,2.18,0,0,0-1.26.39.73.73,0,0,1-.59.11.76.76,0,0,1-.48-.36A4.24,4.24,0,0,0,5.75,11a4.12,4.12,0,0,0,.09.86.78.78,0,0,1-.17.64.76.76,0,0,1-.6.26Z"/></g></svg>