<svg xmlns="http://www.w3.org/2000/svg" viewBox="0 0 24 24"><g id="general"><path fill="currentColor" id="coffee" d="M22.41,14.44a4.57,4.57,0,0,0-3.9-4.51,4.86,4.86,0,0,0-2.89-3.78,4.76,4.76,0,0,0-1.89-.38H6.44a4.76,4.76,0,0,0-1.89.38,4.84,4.84,0,0,0-3,4.46h0v7.3a4.85,4.85,0,0,0,4.85,4.84h7.29A4.85,4.85,0,0,0,18.45,19,4.58,4.58,0,0,0,22.41,14.44ZM5.76,7.33a3.74,3.74,0,0,1,.68-.06h7.29a3.82,3.82,0,0,1,.68.06,3.36,3.36,0,0,1,2.67,3.28v.8h-14v-.8A3.36,3.36,0,0,1,5.76,7.33Zm8,13.92H6.44a3.35,3.35,0,0,1-3.35-3.34v-5h14v5a.69.69,0,0,1,0,.13l0,.16v0A3.33,3.33,0,0,1,13.73,21.25Zm4.85-3.8v-6a3.1,3.1,0,0,1,0,6ZM10.08,4.72A.75.75,0,0,1,9.33,4V2a.75.75,0,0,1,1.5,0V4A.74.74,0,0,1,10.08,4.72Zm-3.91,0A.75.75,0,0,1,5.42,4V2a.75.75,0,0,1,1.5,0V4A.74.74,0,0,1,6.17,4.72Zm7.87.1a.76.76,0,0,1-.75-.75v-2a.75.75,0,0,1,1.5,0v2A.75.75,0,0,1,14,4.82Z"/></g></svg>