<svg xmlns="http://www.w3.org/2000/svg" viewBox="0 0 24 24"><g id="general"><path fill="currentColor" id="diamonds" d="M16.5,2.75l.28,0a1.92,1.92,0,0,1,.87.37,2,2,0,0,1,.33.3,1.37,1.37,0,0,1,.17.23,1.48,1.48,0,0,1,.14.25L21,10a2.48,2.48,0,0,1-.41,2.69l-7.09,7.89a2.08,2.08,0,0,1-3.06,0L3.38,12.67A2.48,2.48,0,0,1,3,10L5.71,3.93c0-.09.25-.41.31-.49a1.64,1.64,0,0,1,.42-.37A1.91,1.91,0,0,1,7.5,2.75h9m0-1.5h-9a3.4,3.4,0,0,0-1.88.56,3.29,3.29,0,0,0-.74.65l0,0,0,0a6.32,6.32,0,0,0-.47.75l0,0v0l-2.73,6a4,4,0,0,0,.66,4.32l7.09,7.89a3.57,3.57,0,0,0,5.28,0l7.09-7.88a4,4,0,0,0,.67-4.31L19.65,3.31a2.73,2.73,0,0,0-.24-.45l-.21-.37a2.47,2.47,0,0,0-2.14-1.24Z"/></g></svg>