<svg xmlns="http://www.w3.org/2000/svg" viewBox="0 0 24 24"><g id="general"><path fill="currentColor" id="home-3" d="M18,22.74H6A4.73,4.73,0,0,1,1.22,18l0-5.66A7.37,7.37,0,0,1,3.8,6.83L8.91,2.42a4.8,4.8,0,0,1,6.29,0L20.27,6.9a7.36,7.36,0,0,1,2.51,5.55l0,5.62a4.66,4.66,0,0,1-1.41,3.31A4.74,4.74,0,0,1,18,22.74Zm-3-1.5h3a3.25,3.25,0,0,0,2.29-.93,3.11,3.11,0,0,0,1-2.25l0-5.62a5.82,5.82,0,0,0-2-4.41L14.21,3.57a3.31,3.31,0,0,0-4.32,0L4.78,8h0a5.84,5.84,0,0,0-2,4.4l0,5.66A3.22,3.22,0,0,0,6,21.23h9ZM4.29,7.4h0Zm12.43,11a.75.75,0,0,0-.75-.75H8a.75.75,0,1,0,0,1.5H16A.76.76,0,0,0,16.72,18.42Z"/></g></svg>