<svg xmlns="http://www.w3.org/2000/svg" viewBox="0 0 24 24"><g id="general"><path fill="currentColor" id="milk" d="M17.66,8.45l-1-1a3.17,3.17,0,0,1-.93-2,2.25,2.25,0,0,0-1.2-4.15h-5A2.25,2.25,0,0,0,8.25,5.37a3.14,3.14,0,0,1-.92,2.08l-1,1A3.65,3.65,0,0,0,5.25,11v8.09a3.64,3.64,0,0,0,3.63,3.63h6.24a3.64,3.64,0,0,0,3.63-3.63V11.05A3.68,3.68,0,0,0,17.66,8.45ZM9.5,2.75h5a.75.75,0,0,1,0,1.5h-5a.75.75,0,0,1,0-1.5ZM7.38,9.52l1-1A4.69,4.69,0,0,0,9.71,5.75h4.53a4.67,4.67,0,0,0,1.35,2.78l1,1a2.15,2.15,0,0,1,.64,1.53V15.8c-2.22.18-3.78-.14-4.34-.91C11.59,13,8.76,12.88,6.75,13V11A2.15,2.15,0,0,1,7.38,9.52Zm9.87,9.6a2.14,2.14,0,0,1-2.13,2.13H8.88a2.14,2.14,0,0,1-2.13-2.13V14.55c1.4-.12,4-.13,4.94,1.21s2.76,1.77,5.56,1.55Z"/></g></svg>