<svg xmlns="http://www.w3.org/2000/svg" viewBox="0 0 24 24"><g id="general"><path fill="currentColor" id="paper-clip" d="M18.6,10.17a.74.74,0,0,0-1,.32L13.7,18a4.53,4.53,0,0,1-2.4,2.19A3.56,3.56,0,0,1,8.4,20a3.5,3.5,0,0,1-1.77-2.3A4.55,4.55,0,0,1,7,14.5l2.62-5h0l2.17-4.17a3.09,3.09,0,0,1,1.66-1.51,2.39,2.39,0,0,1,2,.08,2.42,2.42,0,0,1,1.2,1.57,3.12,3.12,0,0,1-.28,2.23l-2.19,4.22h0l-1.55,3a1.65,1.65,0,0,1-.86.79,1.17,1.17,0,0,1-1,0,1.41,1.41,0,0,1-.45-1.93l2.81-5.41a.75.75,0,0,0-1.33-.69L9,13a2.91,2.91,0,0,0,1.09,4,2.51,2.51,0,0,0,1.2.3,2.68,2.68,0,0,0,1-.19A3.13,3.13,0,0,0,14,15.55l1.88-3.63h0l1.85-3.57a4.65,4.65,0,0,0,.41-3.3A3.85,3.85,0,0,0,13,2.37,4.67,4.67,0,0,0,10.48,4.6L9.32,6.83h0l-3.62,7a6,6,0,0,0-.52,4.29,5,5,0,0,0,2.53,3.25A4.92,4.92,0,0,0,10,21.9a5.38,5.38,0,0,0,1.87-.35A6.07,6.07,0,0,0,15,18.66l3.88-7.48A.75.75,0,0,0,18.6,10.17Z"/></g></svg>