<svg xmlns="http://www.w3.org/2000/svg" viewBox="0 0 24 24"><g id="general"><path fill="currentColor" id="pin" d="M22.19,7.6,16.4,1.81a1.82,1.82,0,0,0-2.51,0l-.72.72a1.78,1.78,0,0,0,0,2.51l.19.19L11.09,7.51a6.88,6.88,0,0,0-6.33.71,2.59,2.59,0,0,0-1.12,1.9,2.52,2.52,0,0,0,.73,2.05l1.76,1.75-3,3a5.46,5.46,0,0,0-1.32,2.12l-.39,1.19a1.86,1.86,0,0,0,1.75,2.45,1.8,1.8,0,0,0,.6-.1l1.19-.39A5.46,5.46,0,0,0,7.05,20.9l3-3,1.75,1.76a2.58,2.58,0,0,0,1.81.74h.24a2.59,2.59,0,0,0,1.9-1.12,6.88,6.88,0,0,0,.71-6.33l2.28-2.27.19.19a1.78,1.78,0,0,0,2.51,0l.72-.72a1.75,1.75,0,0,0,.52-1.26A1.73,1.73,0,0,0,22.19,7.6ZM6,19.84a3.91,3.91,0,0,1-1.54.95l-1.19.4a.36.36,0,0,1-.45-.45l.4-1.19a3.91,3.91,0,0,1,1-1.54l3-3L9,16.81ZM21.13,9.05l-.72.72a.27.27,0,0,1-.39,0l-.72-.72a.74.74,0,0,0-1.06,0l-3.16,3.16a.73.73,0,0,0-.15.85,5.42,5.42,0,0,1-.39,5.34,1.07,1.07,0,0,1-.8.47,1,1,0,0,1-.84-.3l-2.29-2.29h0L7.72,13.39h0L5.43,11.1a1,1,0,0,1-.3-.84,1.07,1.07,0,0,1,.47-.8,5.35,5.35,0,0,1,3-.91,5.46,5.46,0,0,1,2.33.52.73.73,0,0,0,.85-.15L15,5.76A.74.74,0,0,0,15,4.7L14.23,4a.27.27,0,0,1,0-.39L15,2.87a.23.23,0,0,1,.39,0l5.79,5.79h0a.27.27,0,0,1,.08.19A.29.29,0,0,1,21.13,9.05Z"/></g></svg>