<svg xmlns="http://www.w3.org/2000/svg" viewBox="0 0 24 24"><g id="general"><path fill="currentColor" id="rescue" d="M21.11,6.31a1.18,1.18,0,0,0-.88-.56,1.28,1.28,0,0,0-1,.32L16.3,8.8a1.25,1.25,0,0,0-.3,1.38,4.2,4.2,0,0,1,.32,1.57,4.25,4.25,0,0,1-.47,1.92A1.23,1.23,0,0,0,16,15.08L19,18.19a1.22,1.22,0,0,0,.91.4H20a1.23,1.23,0,0,0,.91-.52,10.7,10.7,0,0,0,.24-11.75ZM19.83,17.07l-2.67-2.86a5.53,5.53,0,0,0,.19-4.46L20,7.25A9.36,9.36,0,0,1,21.34,12,9.24,9.24,0,0,1,19.83,17.07ZM8.94,7.5h0a1.25,1.25,0,0,0,1.41.28,4.23,4.23,0,0,1,3.74.2,1.25,1.25,0,0,0,.62.16,1.22,1.22,0,0,0,.84-.33l2.82-2.64a1.25,1.25,0,0,0,.39-1,1.22,1.22,0,0,0-.5-.91,10.75,10.75,0,0,0-11.7-.53,1.23,1.23,0,0,0-.6.89,1.31,1.31,0,0,0,.33,1ZM12,2.66a9.25,9.25,0,0,1,5.25,1.62L14.68,6.69A5.72,5.72,0,0,0,12,6a5.59,5.59,0,0,0-2.11.42L7.46,3.84A9.34,9.34,0,0,1,12,2.66ZM15.28,15.9h0a1.23,1.23,0,0,0-1.45-.26,4.13,4.13,0,0,1-3.66,0,1.23,1.23,0,0,0-1.39.2l-3.18,3a1.24,1.24,0,0,0-.39,1,1.21,1.21,0,0,0,.5.92A10.72,10.72,0,0,0,18,20.9a1.21,1.21,0,0,0,.53-.88,1.24,1.24,0,0,0-.33-1ZM12,21.34A9.29,9.29,0,0,1,6.72,19.7L9.65,17a5.57,5.57,0,0,0,4.69,0L17,19.85A9.31,9.31,0,0,1,12,21.34ZM7.84,15a1.24,1.24,0,0,0,.27-1.45,4.21,4.21,0,0,1-.42-1.82,4.29,4.29,0,0,1,.54-2.1,1.23,1.23,0,0,0-.16-1.46L5.4,5.34a1.21,1.21,0,0,0-1-.4,1.24,1.24,0,0,0-.91.47A10.58,10.58,0,0,0,1.25,12a10.69,10.69,0,0,0,1.62,5.66,1.18,1.18,0,0,0,.88.56h.16a1.25,1.25,0,0,0,.86-.33L7.84,15ZM6.27,11.75a5.52,5.52,0,0,0,.51,2.32L4,16.72A9.29,9.29,0,0,1,4.5,6.45L7,9.06A5.6,5.6,0,0,0,6.27,11.75Z"/></g></svg>