<svg xmlns="http://www.w3.org/2000/svg" viewBox="0 0 24 24"><g id="general"><path fill="currentColor" id="sort" d="M16.05,22.75H8a6.71,6.71,0,0,1-6.7-6.7V8A6.71,6.71,0,0,1,8,1.25h8.1A6.71,6.71,0,0,1,22.75,8v8.1A6.71,6.71,0,0,1,16.05,22.75ZM8,2.75A5.2,5.2,0,0,0,2.75,8v8.1A5.2,5.2,0,0,0,8,21.25h8.1a5.21,5.21,0,0,0,5.2-5.2V8a5.21,5.21,0,0,0-5.2-5.2ZM18.67,7.92a.75.75,0,0,0-.75-.75H6.08a.75.75,0,0,0,0,1.5H17.92A.76.76,0,0,0,18.67,7.92Zm-2,4.25a.75.75,0,0,0-.75-.75H8.08a.75.75,0,0,0,0,1.5h7.84A.76.76,0,0,0,16.67,12.17Zm-2.79,4.25a.75.75,0,0,0-.75-.75H10.87a.75.75,0,0,0,0,1.5h2.26A.76.76,0,0,0,13.88,16.42Z"/></g></svg>