<svg xmlns="http://www.w3.org/2000/svg" viewBox="0 0 24 24"><g id="general"><path fill="currentColor" id="star" d="M7.26,22.75a3,3,0,0,1-1.81-.61,3.26,3.26,0,0,1-1.26-2.9l.36-3.79a.36.36,0,0,0-.09-.27L2,12.34A3.27,3.27,0,0,1,1.4,9.23,3.14,3.14,0,0,1,3.68,7.09l3.58-.81a.41.41,0,0,0,.22-.17L9.34,2.83a3,3,0,0,1,5.32,0l1.86,3.28a.41.41,0,0,0,.22.17l3.58.81A3.14,3.14,0,0,1,22.6,9.23,3.27,3.27,0,0,1,22,12.34l-2.43,2.84a.36.36,0,0,0-.09.27l.36,3.79a3.26,3.26,0,0,1-1.26,2.9,3,3,0,0,1-3.05.34L12.14,21a.34.34,0,0,0-.28,0L8.5,22.48A3,3,0,0,1,7.26,22.75ZM12,2.69a1.68,1.68,0,0,0-1.46.87L8.68,6.84a1.7,1.7,0,0,1-1.12.84L4,8.5A1.69,1.69,0,0,0,2.73,9.67a1.79,1.79,0,0,0,.34,1.71l2.44,2.84a1.9,1.9,0,0,1,.43,1.37l-.36,3.79A1.77,1.77,0,0,0,6.27,21a1.63,1.63,0,0,0,1.67.19l3.37-1.52a1.66,1.66,0,0,1,1.38,0l3.37,1.52A1.63,1.63,0,0,0,17.73,21a1.77,1.77,0,0,0,.69-1.59l-.36-3.79a1.9,1.9,0,0,1,.43-1.37l2.44-2.84a1.79,1.79,0,0,0,.34-1.71A1.69,1.69,0,0,0,20,8.5l-3.59-.82a1.7,1.7,0,0,1-1.12-.84L13.46,3.56h0A1.68,1.68,0,0,0,12,2.69Z"/></g></svg>