<svg xmlns="http://www.w3.org/2000/svg" viewBox="0 0 24 24"><g id="general"><path fill="currentColor" id="status" d="M14.83,22.75a2.14,2.14,0,0,1-1.36-.49,2.2,2.2,0,0,1-.81-1.72V15.6a3.17,3.17,0,0,1,3.13-3.21h4.79a2.15,2.15,0,0,1,1.66.79A2.25,2.25,0,0,1,22.71,15a9.85,9.85,0,0,1-2.59,5,9.42,9.42,0,0,1-4.87,2.68A2,2,0,0,1,14.83,22.75Zm1-8.86a1.67,1.67,0,0,0-1.63,1.71v4.94a.7.7,0,0,0,.26.56.65.65,0,0,0,.53.14A7.86,7.86,0,0,0,19,19a8.28,8.28,0,0,0,2.2-4.23.74.74,0,0,0-.16-.61.64.64,0,0,0-.5-.25ZM9.2,22.75a2,2,0,0,1-.43,0A9.41,9.41,0,0,1,3.89,20a9.79,9.79,0,0,1-2.6-5,2.21,2.21,0,0,1,.47-1.85,2.17,2.17,0,0,1,1.67-.79h4.8a3.18,3.18,0,0,1,3.14,3.21v4.94a2.21,2.21,0,0,1-.82,1.72A2.12,2.12,0,0,1,9.2,22.75ZM3.43,13.89a.65.65,0,0,0-.51.25.74.74,0,0,0-.16.61A8.28,8.28,0,0,0,5,19a8,8,0,0,0,4.11,2.26.65.65,0,0,0,.53-.14.72.72,0,0,0,.27-.56V15.6a1.68,1.68,0,0,0-1.64-1.71Zm16.83-2.83H3.74a2.44,2.44,0,0,1-1.89-.87,1.91,1.91,0,0,1-.38-1.62c1-4.24,5.4-7.32,10.53-7.32s9.56,3.08,10.53,7.32a1.91,1.91,0,0,1-.38,1.62A2.43,2.43,0,0,1,20.26,11.06ZM12,2.75c-4.44,0-8.25,2.59-9.07,6.16a.41.41,0,0,0,.1.34.9.9,0,0,0,.71.31H20.26A.93.93,0,0,0,21,9.25a.43.43,0,0,0,.09-.34C20.25,5.34,16.44,2.75,12,2.75Z"/></g></svg>