<svg xmlns="http://www.w3.org/2000/svg" viewBox="0 0 24 24"><g id="general"><path fill="currentColor" id="subtitle" d="M16.05,22.75H8a6.71,6.71,0,0,1-6.7-6.7V8A6.71,6.71,0,0,1,8,1.25h8.1A6.71,6.71,0,0,1,22.75,8v8.1A6.71,6.71,0,0,1,16.05,22.75ZM8,2.75A5.2,5.2,0,0,0,2.75,8v8.1A5.2,5.2,0,0,0,8,21.25h8.1a5.21,5.21,0,0,0,5.2-5.2V8a5.21,5.21,0,0,0-5.2-5.2Zm5.23,10.5a.75.75,0,0,0-.75-.75H5.12a.75.75,0,0,0,0,1.5h7.31A.76.76,0,0,0,13.18,13.25Zm6.45,0a.75.75,0,0,0-.75-.75H15.67a.75.75,0,0,0,0,1.5h3.21A.76.76,0,0,0,19.63,13.25Zm0,3.51a.76.76,0,0,0-.75-.75H11.57a.75.75,0,0,0,0,1.5h7.31A.75.75,0,0,0,19.63,16.76Zm-10.55,0A.75.75,0,0,0,8.33,16H5.12a.75.75,0,0,0,0,1.5H8.33A.74.74,0,0,0,9.08,16.76Z"/></g></svg>