<svg xmlns="http://www.w3.org/2000/svg" viewBox="0 0 24 24"><g id="general"><path fill="currentColor" id="switch" d="M6.06,11H17.82a4.82,4.82,0,0,0,0-9.63H6.06a4.82,4.82,0,0,0,0,9.63Zm0-8.15H17.82a3.34,3.34,0,1,1,0,6.67H6.06a3.34,3.34,0,0,1,0-6.67Zm9.58,3.34a1.85,1.85,0,0,1,1.85-1.86h0a1.86,1.86,0,0,1,1.86,1.86h0a1.86,1.86,0,0,1-3.71,0ZM8.28,17.56a2.33,2.33,0,0,1,0,.38,1.86,1.86,0,0,1-3.71,0,1.58,1.58,0,0,1,0-.38,1.85,1.85,0,0,1,3.63,0Zm9.54-4.44H6.06a4.82,4.82,0,0,0,0,9.63H17.82a4.82,4.82,0,0,0,0-9.63Zm0,8.15H6.06a3.34,3.34,0,0,1,0-6.67H17.82a3.34,3.34,0,1,1,0,6.67Z"/></g></svg>