<svg xmlns="http://www.w3.org/2000/svg" viewBox="0 0 24 24"><g id="general"><path fill="currentColor" id="triangle" d="M22.22,15.9,15.43,4.14a4,4,0,0,0-6.86,0L1.78,15.89a4,4,0,0,0,3.44,5.95H18.78a3.91,3.91,0,0,0,2.91-1.28A4,4,0,0,0,22.22,15.9Zm-8.09-11,6.79,11.76A2.42,2.42,0,0,1,21,19l-8.21-5.79V3.78A2.41,2.41,0,0,1,14.13,4.89Zm-11,11.76L9.87,4.89a2.41,2.41,0,0,1,1.38-1.11v9.44L3,19A2.41,2.41,0,0,1,3.08,16.65Zm2.14,3.69a2.51,2.51,0,0,1-1.13-.27L9,16.66,12,14.53l7.88,5.55a2.44,2.44,0,0,1-1.1.26Z"/></g></svg>