<svg xmlns="http://www.w3.org/2000/svg" viewBox="0 0 24 24"><g id="business"><path fill="currentColor" id="chart-pie-3" d="M13,8.57V3.11a1,1,0,0,1,1.16-1,9,9,0,0,1,7.76,7.76,1,1,0,0,1-1,1.16H15.43A2.43,2.43,0,0,1,13,8.57Zm-2,3.22V5.65A1.5,1.5,0,0,0,9.2,4.18,9,9,0,0,0,2,13.24,9.12,9.12,0,0,0,11.27,22a9,9,0,0,0,4.15-1.17,1.48,1.48,0,0,0,.28-2.34l-2.92-2.9A5.21,5.21,0,0,1,11,11.79ZM20.65,13H15.21a.91.91,0,0,0-.64,1.56l3.86,3.82a1.26,1.26,0,0,0,1.92-.19,9,9,0,0,0,1.54-3.79A1.24,1.24,0,0,0,20.65,13Z"/></g></svg>