<svg xmlns="http://www.w3.org/2000/svg" viewBox="0 0 24 24"><g id="business"><path fill="currentColor" id="chart" d="M13,3.26a1.2,1.2,0,0,1,1.47-1.2A10.1,10.1,0,0,1,22,11.87a9.83,9.83,0,0,1-.36,2.67,1.22,1.22,0,0,1-1.79.75l-1.63-.95a.87.87,0,0,1-.41-1A6.25,6.25,0,0,0,18,11.87,6.07,6.07,0,0,0,13.6,6c-.36-.1-.6-.45-.6-1.06Zm4.22,12.83a.84.84,0,0,0-1,.12,5.94,5.94,0,0,1-8.4,0,.84.84,0,0,0-1-.12l-1.63,1A1.23,1.23,0,0,0,4.86,19a9.88,9.88,0,0,0,14.28,0,1.23,1.23,0,0,0-.29-1.9Zm-13.07-.8a1.22,1.22,0,0,1-1.79-.75A9.83,9.83,0,0,1,2,11.87,10.1,10.1,0,0,1,9.53,2.06,1.2,1.2,0,0,1,11,3.26V5.18a.86.86,0,0,1-.6.84A6.07,6.07,0,0,0,6,11.87a6.25,6.25,0,0,0,.19,1.51.87.87,0,0,1-.41,1Z"/></g></svg>