<svg xmlns="http://www.w3.org/2000/svg" viewBox="0 0 24 24"><defs><style>.cls-1{opacity:0.3;}</style></defs><g id="abstract"><g id="abstract-2" data-name="abstract"><path fill="currentColor" id="abstract-3" data-name="abstract" class="cls-1" d="M10.35,21.18,3.51,14.34a1.94,1.94,0,0,1-.42-2.13l.41-1A2,2,0,0,1,5.31,10h9.86L10.82,5.65a1.76,1.76,0,0,1,0-2.48l.36-.35a1.75,1.75,0,0,1,2.47,0l6.84,6.84a1.94,1.94,0,0,1,.42,2.13l-.41,1A2,2,0,0,1,18.69,14H8.83l4.35,4.35a1.76,1.76,0,0,1,0,2.48l-.36.35A1.75,1.75,0,0,1,10.35,21.18Z"/><path fill="currentColor" d="M8.83,14h6.41l-4.7-4H5.31A2,2,0,0,0,3.5,11.21l-.41,1a1.94,1.94,0,0,0,.42,2.13l6.84,6.84a1.75,1.75,0,0,0,2.47,0l.36-.36a1.75,1.75,0,0,0,0-2.47Z"/></g></g></svg>