<svg xmlns="http://www.w3.org/2000/svg" viewBox="0 0 24 24"><g id="general"><path fill="currentColor" id="milk" d="M18,11.05v4.7s-.06,0-.09,0c-2.57.31-4.39,0-5-.85-1.5-2.11-4.93-2-6.91-1.77V11a2.9,2.9,0,0,1,.85-2l1-1A3.94,3.94,0,0,0,9,5.2V4.91A1.49,1.49,0,0,1,9.5,2h5a1.5,1.5,0,0,1,.43,2.93v.25A3.91,3.91,0,0,0,16.11,8l1,1A2.85,2.85,0,0,1,18,11.05Zm-1.93,6.31c-2.15,0-3.62-.54-4.38-1.6-1.14-1.6-4.57-1.28-5.59-1.14H6v4.51A2.88,2.88,0,0,0,8.88,22h6.24A2.88,2.88,0,0,0,18,19.12V17.24A16.91,16.91,0,0,1,16.07,17.36Z"/></g></svg>