<svg xmlns="http://www.w3.org/2000/svg" viewBox="0 0 24 24"><g id="general"><path fill="currentColor" id="pin" d="M21.66,9.58l-.72.72a1,1,0,0,1-1.45,0l-.72-.72-3.16,3.16a6.16,6.16,0,0,1-.45,6.08,1.83,1.83,0,0,1-2.8.28L4.9,11.64a1.83,1.83,0,0,1,.28-2.8,6.16,6.16,0,0,1,6.08-.45l3.16-3.16-.72-.72a1,1,0,0,1,0-1.45l.72-.72a1,1,0,0,1,1.45,0l5.79,5.79A1,1,0,0,1,21.66,9.58Zm-18,7.9A4.58,4.58,0,0,0,2.5,19.31L2.1,20.5a1.1,1.1,0,0,0,1.4,1.4l1.19-.4a4.58,4.58,0,0,0,1.83-1.13L9,17.88,6.12,15Zm6.45-.66h0L7.19,13.92h0Z"/></g></svg>