<svg xmlns="http://www.w3.org/2000/svg" viewBox="0 0 24 24"><g id="general"><g id="trush"><path d="M17.88,8H6.12A1.1,1.1,0,0,0,5,9.18l.71,10.44A2.56,2.56,0,0,0,8.32,22l7.55-.09a2.56,2.56,0,0,0,2.52-2.42L19,9.17A1.1,1.1,0,0,0,17.88,8Zm-4.43,9.3h-2.9a.75.75,0,0,1,0-1.5h2.9a.75.75,0,0,1,0,1.5Zm.78-3.7H9.77a.75.75,0,0,1,0-1.5h4.46a.75.75,0,0,1,0,1.5ZM21,6.52a.75.75,0,0,1-.85.63,59.7,59.7,0,0,0-16.27,0H3.75a.75.75,0,0,1-.12-1.49c.14,0,1.83-.29,4.45-.46l.33-1.69A1.87,1.87,0,0,1,10.25,2h3.53a1.88,1.88,0,0,1,1.84,1.53l.31,1.68c1.42.09,2.91.23,4.43.46A.75.75,0,0,1,21,6.52Z"/></g></g></svg>