<svg xmlns="http://www.w3.org/2000/svg" viewBox="0 0 24 24"><g id="technologies"><path fill="currentColor" id="technology-2" d="M7.27,8.68A3.91,3.91,0,0,1,8.34,10.6,4.52,4.52,0,1,1,10.6,8.34,3.91,3.91,0,0,1,8.68,7.27L8,6.58s0,0,0-.08A1.5,1.5,0,1,0,6.5,8h.08ZM8,17.42s0,0,0,.08A1.5,1.5,0,1,1,6.5,16h.08l.69-.69A3.91,3.91,0,0,0,8.34,13.4a4.52,4.52,0,1,0,2.26,2.26,3.91,3.91,0,0,0-1.92,1.07ZM16,6.58s0,0,0-.08A1.5,1.5,0,1,1,17.5,8h-.08l-.69.69a3.91,3.91,0,0,0-1.07,1.92A4.52,4.52,0,1,0,13.4,8.34a3.91,3.91,0,0,0,1.92-1.07ZM17.5,13a4.5,4.5,0,0,0-1.84.4,3.91,3.91,0,0,0,1.07,1.92l.69.69h.08A1.5,1.5,0,1,1,16,17.5s0-.05,0-.08l-.69-.69a3.91,3.91,0,0,0-1.92-1.07A4.5,4.5,0,1,0,17.5,13Zm-1.84.4a2.61,2.61,0,0,1-.06-.27,8.55,8.55,0,0,1,0-2.26,2.61,2.61,0,0,1,.06-.27A4.52,4.52,0,0,1,13.4,8.34l-.27.06a8.55,8.55,0,0,1-2.26,0l-.27-.06A4.52,4.52,0,0,1,8.34,10.6a2.61,2.61,0,0,1,.06.27,8.55,8.55,0,0,1,0,2.26,2.61,2.61,0,0,1-.06.27,4.52,4.52,0,0,1,2.26,2.26l.27-.06a8.55,8.55,0,0,1,2.26,0l.27.06A4.52,4.52,0,0,1,15.66,13.4Z"/></g></svg>