<svg xmlns="http://www.w3.org/2000/svg" viewBox="0 0 24 24"><g id="technologies"><path fill="currentColor" id="technology-4" d="M13.12,8.54V7.12h2.24l3.08-2.53a1.79,1.79,0,0,1,0-.23,1.71,1.71,0,0,1,3.42,0A1.68,1.68,0,0,1,20.13,6a1.82,1.82,0,0,1-.87-.23L16.1,8.37a.73.73,0,0,1-.47.17ZM7.63,11.79a4.75,4.75,0,0,1,4.82-4.67h.67V2H11.44A1.32,1.32,0,0,0,10.1,3.3V4.43a8.44,8.44,0,0,0-1.73.69l-.82-.79a1.37,1.37,0,0,0-1.9,0L4.45,5.49a1.28,1.28,0,0,0,0,1.85l.81.79A7.49,7.49,0,0,0,4.55,9.8H3.39a1.33,1.33,0,0,0-1.34,1.31v1.64a1.33,1.33,0,0,0,1.34,1.31H4.55a7.49,7.49,0,0,0,.71,1.67l-.81.79a1.28,1.28,0,0,0,0,1.85l1.2,1.16a1.37,1.37,0,0,0,1.9,0l.82-.79a8.44,8.44,0,0,0,1.73.69v1.13a1.32,1.32,0,0,0,1.34,1.3h1.68V16.45h-.67A4.75,4.75,0,0,1,7.63,11.79Zm1.47,0A3.3,3.3,0,0,0,12.45,15h.67v-1.7a1.53,1.53,0,1,1,0-3.05V8.54h-.67A3.3,3.3,0,0,0,9.1,11.79Zm11,5.42a1.7,1.7,0,0,0-1,.32l-2.71-2.32a.74.74,0,0,0-.49-.18H13.12v1.42h2.54l2.76,2.36v.05a1.71,1.71,0,1,0,1.71-1.65ZM13,11.8a.66.66,0,0,0,.14.39v1.14a1.55,1.55,0,0,0,1.38-.82h4.25l.1,0a1.57,1.57,0,0,0,1.28.64,1.53,1.53,0,1,0,0-3.05,1.57,1.57,0,0,0-1.48,1H14.5a1.55,1.55,0,0,0-1.38-.82v1.14A.66.66,0,0,0,13,11.8Z"/></g></svg>