<svg xmlns="http://www.w3.org/2000/svg" viewBox="0 0 24 24"><g id="technologies"><path fill="currentColor" id="wi-fi" d="M3.16,7a.83.83,0,0,1,.15-1.18c.08-.06,8.3-6.16,17.3,0A.83.83,0,0,1,20.82,7a.86.86,0,0,1-.71.36.91.91,0,0,1-.5-.15,13.21,13.21,0,0,0-15.24,0A.88.88,0,0,1,3.16,7Zm13.69,4.47a.88.88,0,0,0,.71-.35A.83.83,0,0,0,17.34,10,9.44,9.44,0,0,0,6.6,10a.81.81,0,0,0-.15,1.17.88.88,0,0,0,1.21.15,7.64,7.64,0,0,1,8.69,0A.84.84,0,0,0,16.85,11.47ZM9.53,14.36a.83.83,0,0,0,0,1.18.89.89,0,0,0,1.22.05,1.92,1.92,0,0,1,2.59,0,.89.89,0,0,0,.55.2.87.87,0,0,0,.67-.3.82.82,0,0,0-.11-1.18A3.69,3.69,0,0,0,9.53,14.36Zm10.58,4.82H4.41a.84.84,0,1,0,0,1.68h15.7a.84.84,0,1,0,0-1.68Z"/></g></svg>