<svg xmlns="http://www.w3.org/2000/svg" viewBox="0 0 24 24"><g id="abstract"><path fill="currentColor" id="abstract-29" d="M7.5,5A2.5,2.5,0,1,1,5,2.5,2.5,2.5,0,0,1,7.5,5ZM12,2.5A2.5,2.5,0,1,0,14.5,5,2.5,2.5,0,0,0,12,2.5ZM21.5,5A2.5,2.5,0,1,1,19,2.5,2.5,2.5,0,0,1,21.5,5Zm-14,7A2.5,2.5,0,1,1,5,9.5,2.5,2.5,0,0,1,7.5,12Zm7,0A2.5,2.5,0,1,1,12,9.5,2.5,2.5,0,0,1,14.5,12Zm7,0A2.5,2.5,0,1,1,19,9.5,2.5,2.5,0,0,1,21.5,12Zm-14,7A2.5,2.5,0,1,1,5,16.5,2.5,2.5,0,0,1,7.5,19Zm7,0A2.5,2.5,0,1,1,12,16.5,2.5,2.5,0,0,1,14.5,19Zm7,0A2.5,2.5,0,1,1,19,16.5,2.5,2.5,0,0,1,21.5,19Z"/></g></svg>