<svg xmlns="http://www.w3.org/2000/svg" viewBox="0 0 24 24"><g id="abstract"><path fill="currentColor" id="abstract-16" d="M2.08,12.1l.79-1.77a1,1,0,0,1,1.28-.49l.89.39a7.26,7.26,0,0,0,6.18,0,11.08,11.08,0,0,1,9.32,0l.88.39a1,1,0,0,1,.5,1.28l-.79,1.77a1,1,0,0,1-1.28.49L19,13.77a7.26,7.26,0,0,0-6.18,0,11.08,11.08,0,0,1-9.32,0l-.88-.39A1,1,0,0,1,2.08,12.1Zm.5,8.17.88.39a11.12,11.12,0,0,0,9.32,0,7.26,7.26,0,0,1,6.18,0l.89.4a1,1,0,0,0,1.28-.49l.79-1.77a1,1,0,0,0-.5-1.28l-.88-.4a11.08,11.08,0,0,0-9.32,0,7.26,7.26,0,0,1-6.18,0l-.89-.39a1,1,0,0,0-1.28.49L2.08,19A1,1,0,0,0,2.58,20.27Zm0-13.79.88.4a11.08,11.08,0,0,0,9.32,0,7.26,7.26,0,0,1,6.18,0l.89.39a1,1,0,0,0,1.28-.49L21.92,5a1,1,0,0,0-.5-1.28l-.88-.39a11.12,11.12,0,0,0-9.32,0A7.26,7.26,0,0,1,5,3.34l-.89-.4a1,1,0,0,0-1.28.49L2.08,5.2A1,1,0,0,0,2.58,6.48Z"/></g></svg>