<svg xmlns="http://www.w3.org/2000/svg" viewBox="0 0 24 24"><g id="abstract"><path fill="currentColor" id="abstract-26" d="M11,11,2.75,7.71a1.2,1.2,0,0,1,0-2.23L11,2.2A2.72,2.72,0,0,1,13,2.2l8.22,3.28a1.2,1.2,0,0,1,0,2.23L13,11A2.82,2.82,0,0,1,11,11Zm10.28,5.29L20,15.78l-6.19,2.48a4.83,4.83,0,0,1-3.56,0L4,15.78l-1.28.51a1.2,1.2,0,0,0,0,2.23L11,21.8a2.72,2.72,0,0,0,2.06,0l8.22-3.28A1.2,1.2,0,0,0,21.25,16.29Zm0-5.4L18.62,9.84,13.4,11.93a3.76,3.76,0,0,1-2.8,0L5.38,9.84,2.75,10.89a1.2,1.2,0,0,0,0,2.22L11,16.4a2.82,2.82,0,0,0,2.06,0l8.22-3.29A1.2,1.2,0,0,0,21.25,10.89Z"/></g></svg>