<svg xmlns="http://www.w3.org/2000/svg" viewBox="0 0 24 24"><g id="abstract"><path fill="currentColor" id="abstract-15" d="M12.1,21.92l-1.77-.79a1,1,0,0,1-.49-1.28l.39-.89a7.26,7.26,0,0,0,0-6.18,11.08,11.08,0,0,1,0-9.32l.39-.88a1,1,0,0,1,1.28-.5l1.77.79a1,1,0,0,1,.49,1.28L13.77,5a7.26,7.26,0,0,0,0,6.18,11.08,11.08,0,0,1,0,9.32l-.39.88A1,1,0,0,1,12.1,21.92Zm8.17-.5.39-.88a11.12,11.12,0,0,0,0-9.32,7.26,7.26,0,0,1,0-6.18l.4-.89a1,1,0,0,0-.49-1.28L18.8,2.08a1,1,0,0,0-1.28.5l-.4.88a11.08,11.08,0,0,0,0,9.32,7.26,7.26,0,0,1,0,6.18l-.39.89a1,1,0,0,0,.49,1.28l1.77.79A1,1,0,0,0,20.27,21.42Zm-13.79,0,.4-.88a11.08,11.08,0,0,0,0-9.32A7.26,7.26,0,0,1,6.88,5l.39-.89a1,1,0,0,0-.49-1.28L5,2.08a1,1,0,0,0-1.28.5l-.39.88a11.12,11.12,0,0,0,0,9.32,7.26,7.26,0,0,1,0,6.18l-.4.89a1,1,0,0,0,.49,1.28l1.77.79A1,1,0,0,0,6.48,21.42Z"/></g></svg>