<svg xmlns="http://www.w3.org/2000/svg" viewBox="0 0 24 24"><g id="it-network"><path fill="currentColor" id="it-5" d="M18.63,14a1,1,0,0,1-.83.66,16.54,16.54,0,0,0-3.08.66l1.5,3.58a1.49,1.49,0,0,1-.8,2,1.51,1.51,0,0,1-.58.12,1.48,1.48,0,0,1-1.38-.92L12,16.53a17.47,17.47,0,0,0-2.34,1.54,1,1,0,0,1-.62.21,1,1,0,0,1-.44-.1,1,1,0,0,1-.56-.9V5a1,1,0,0,1,.62-.92,1,1,0,0,1,1.09.21L18.39,13A1,1,0,0,1,18.63,14ZM14.8,5l.95-1.75a.75.75,0,1,0-1.31-.72l-1,1.76a.74.74,0,0,0,.3,1,.7.7,0,0,0,.36.1A.76.76,0,0,0,14.8,5Zm3,3.54,1.79-.9a.75.75,0,1,0-.68-1.34l-1.78.9a.75.75,0,0,0-.33,1,.74.74,0,0,0,.67.41A.67.67,0,0,0,17.79,8.49ZM5.53,10a.74.74,0,0,0-.74-.76l-2,0h0a.75.75,0,0,0,0,1.5l2,0h0A.75.75,0,0,0,5.53,10ZM3.6,16.09l1.79-.89a.74.74,0,0,0,.35-1,.76.76,0,0,0-1-.35l-1.79.89a.75.75,0,0,0,.33,1.42A.78.78,0,0,0,3.6,16.09Z"/></g></svg>