<svg xmlns="http://www.w3.org/2000/svg" viewBox="0 0 24 24"><g id="it-network"><path fill="currentColor" id="it-7" d="M4,13.62,6.62,11A.51.51,0,0,1,7,10.83a.5.5,0,0,1,.35.15l.72.72a.5.5,0,0,1,0,.7l-2.8,2.8A2.5,2.5,0,0,0,5.57,19a2.61,2.61,0,0,0,3.31-.35L11.6,16a.5.5,0,0,1,.7,0l.72.72a.5.5,0,0,1,0,.71l-2.8,2.79a4.52,4.52,0,0,1-6.69-.33A4.67,4.67,0,0,1,4,13.62Zm12.55-.46a.51.51,0,0,0,.71,0L20,10.38a4.67,4.67,0,0,0,.45-6.22,4.44,4.44,0,0,0-3.28-1.65,4.51,4.51,0,0,0-3.42,1.32L10.84,6.76a.51.51,0,0,0-.15.35.53.53,0,0,0,.15.36l.72.72a.5.5,0,0,0,.7,0l2.86-2.86A2.71,2.71,0,0,1,17,4.54,2.4,2.4,0,0,1,18.43,5a2.5,2.5,0,0,1,.32,3.82l-2.94,2.94a.5.5,0,0,0,0,.7ZM6.07,7.76a.75.75,0,0,0-.49-.94l-2.1-.66a.74.74,0,0,0-.94.49A.76.76,0,0,0,3,7.59l2.1.66a.83.83,0,0,0,.22,0A.76.76,0,0,0,6.07,7.76ZM8.56,5.31a.76.76,0,0,0,.64-.85L9,3a.76.76,0,0,0-.85-.64.74.74,0,0,0-.64.84l.2,1.44a.75.75,0,0,0,.74.64Zm7.85,15.42a.76.76,0,0,0,.58-.89l-.44-2.15a.77.77,0,0,0-.89-.58.74.74,0,0,0-.58.89l.44,2.15a.75.75,0,0,0,.73.59Zm4.51-4.8a.76.76,0,0,0-.55-.91L19,14.68a.75.75,0,1,0-.36,1.45l1.4.35a.55.55,0,0,0,.18,0A.75.75,0,0,0,20.92,15.93Z"/></g></svg>