<svg xmlns="http://www.w3.org/2000/svg" viewBox="0 0 24 24"><g id="it-network"><path fill="currentColor" id="it-6" d="M16,14.27a6,6,0,0,0,.08-.85,5.65,5.65,0,0,0-.28-1.69L18.75,8.8A2.51,2.51,0,1,0,15.2,5.25L12.29,8.16l-.64.64a2.51,2.51,0,0,0,0,3.55,1.51,1.51,0,0,1,0,2.14l-.17.16A4.5,4.5,0,0,1,9.21,8.94h0a1.12,1.12,0,0,0,0-.13,4.57,4.57,0,0,1,1-1.42l3.55-3.55a4.53,4.53,0,0,1,6.4,6.4l-3.55,3.55A4.75,4.75,0,0,1,16,14.27Zm-8.64-4L3.83,13.77a4.52,4.52,0,0,0,6.39,6.4l3.56-3.55a4.75,4.75,0,0,0,.49-.6,4.26,4.26,0,0,0,.58-1.17,4.26,4.26,0,0,0,.25-1.43,4.53,4.53,0,0,0-.09-.91,4.2,4.2,0,0,0-.36-1,4.51,4.51,0,0,0-.87-1.26,4.61,4.61,0,0,0-1.26-.88l-.17.17a1.51,1.51,0,0,0,0,2.14,2.41,2.41,0,0,1,.7,1.4,2.51,2.51,0,0,1-.54,2c-.06.06-.1.13-.16.19l-.62.62L8.8,18.75A2.51,2.51,0,1,1,5.25,15.2l2.92-2.92a3.39,3.39,0,0,1-.11-.43c0-.11-.05-.22-.07-.33a4.91,4.91,0,0,1-.08-.78,2.43,2.43,0,0,1,0-.27A4.52,4.52,0,0,1,8,9.73,3.94,3.94,0,0,0,7.38,10.22Z"/></g></svg>