<svg xmlns="http://www.w3.org/2000/svg" viewBox="0 0 24 24"><g id="devices"><path fill="currentColor" id="devices-2" d="M16.54,22.75H7.46a5.22,5.22,0,0,1-5.21-5.21V6.46A5.22,5.22,0,0,1,7.46,1.25h5.71A5.22,5.22,0,0,1,17.05,3l3.37,3.75a5.2,5.2,0,0,1,1.33,3.48v7.33A5.22,5.22,0,0,1,16.54,22.75Zm-9.08-20A3.71,3.71,0,0,0,3.75,6.46V17.54a3.71,3.71,0,0,0,3.71,3.71h9.08a3.71,3.71,0,0,0,3.71-3.71V10.21a3.71,3.71,0,0,0-.95-2.48L15.93,4a3.72,3.72,0,0,0-2.76-1.23Zm2.62,15.76a.75.75,0,0,0,0-1.06L8.6,16l1.48-1.47A.75.75,0,1,0,9,13.46l-2,2a.75.75,0,0,0,0,1.06l2,2a.77.77,0,0,0,.53.22A.75.75,0,0,0,10.08,18.51Zm4.9,0,2-2a.75.75,0,0,0,0-1.06l-2-2a.75.75,0,1,0-1.06,1.06L15.4,16l-1.47,1.46A.75.75,0,1,0,15,18.52Z"/></g></svg>