<svg xmlns="http://www.w3.org/2000/svg" viewBox="0 0 24 24"><g id="devices"><path fill="currentColor" id="keyboard" d="M20.8,8.09h-8V7.74a1.38,1.38,0,0,1,1.38-1.39h.49A2.88,2.88,0,0,0,17.5,3.47V2.82a.75.75,0,0,0-1.5,0v.65a1.38,1.38,0,0,1-1.38,1.38h-.49a2.89,2.89,0,0,0-2.88,2.89v.35h-8A2,2,0,0,0,1.25,10V20.73a2,2,0,0,0,2,1.95H20.8a2,2,0,0,0,1.95-1.95V10A2,2,0,0,0,20.8,8.09Zm.45,12.64a.45.45,0,0,1-.45.45H3.2a.45.45,0,0,1-.45-.45V10a.45.45,0,0,1,.45-.45H20.8a.45.45,0,0,1,.45.45Zm-5.52-4.89a.73.73,0,1,1-.73-.73A.73.73,0,0,1,15.73,15.84ZM14,12.11a.73.73,0,1,1-.73.73A.73.73,0,0,1,14,12.11Zm-1.27,3.73a.73.73,0,1,1-.73-.73A.73.73,0,0,1,12.73,15.84ZM11,12.11a.73.73,0,1,1-.73.73A.73.73,0,0,1,11,12.11Zm-6,0a.73.73,0,1,1-.73.73A.73.73,0,0,1,5,12.11Zm1.12,7.48H4.88a.75.75,0,1,1,0-1.5H6.12a.75.75,0,1,1,0,1.5Zm0-3H4.88a.75.75,0,1,1,0-1.5H6.12a.75.75,0,1,1,0,1.5Zm1.15-3.75a.73.73,0,1,1,.73.73A.73.73,0,0,1,7.27,12.84ZM9,15.11a.73.73,0,1,1-.73.73A.73.73,0,0,1,9,15.11Zm7,4.48H9.15a.75.75,0,0,1,0-1.5H16a.75.75,0,0,1,0,1.5Zm3,0a.73.73,0,1,1,.73-.73A.73.73,0,0,1,19,19.57Zm0-3H17.77a.75.75,0,0,1,0-1.5H19a.75.75,0,0,1,0,1.5Zm.12-3H17a.75.75,0,0,1,0-1.5h2.12a.75.75,0,0,1,0,1.5Z"/></g></svg>