<svg xmlns="http://www.w3.org/2000/svg" viewBox="0 0 24 24"><g id="devices"><path fill="currentColor" id="simcard-2" d="M12.53,22.76H5.36a4.27,4.27,0,0,1-4.27-4.27V9.74A4.27,4.27,0,0,1,5.36,5.47H9.87a4.28,4.28,0,0,1,3.18,1.41l2.66,3A4.3,4.3,0,0,1,16.8,12.7v5.79A4.27,4.27,0,0,1,12.53,22.76ZM5.36,7A2.77,2.77,0,0,0,2.59,9.74v8.75a2.77,2.77,0,0,0,2.77,2.77h7.17a2.77,2.77,0,0,0,2.77-2.77V12.7a2.74,2.74,0,0,0-.71-1.85l-2.65-3A2.8,2.8,0,0,0,9.87,7Zm17.55,7.29V8.47a4.3,4.3,0,0,0-1.09-2.85l-2.66-3A4.29,4.29,0,0,0,16,1.24H11.47A4.27,4.27,0,0,0,7.68,3.53.75.75,0,0,0,9,4.23a2.76,2.76,0,0,1,2.46-1.49H16A2.77,2.77,0,0,1,18,3.66l2.66,3a2.76,2.76,0,0,1,.71,1.85v5.79A2.77,2.77,0,0,1,18.64,17a.75.75,0,0,0,0,1.5A4.27,4.27,0,0,0,22.91,14.26Z"/></g></svg>