<svg xmlns="http://www.w3.org/2000/svg" viewBox="0 0 24 24"><defs><style>.cls-1{opacity:0.3;}</style></defs><g id="design"><g id="bucket-square"><rect class="cls-1" x="2.01" y="2.01" width="19.99" height="19.99" rx="5.3"/><path d="M15.45,11.26,11.76,7.57,10,5.84A.75.75,0,0,0,9,5.83.75.75,0,0,0,9,6.89l.61.62L6.42,10.66a2.13,2.13,0,0,0,0,3l2.26,2.26a2.14,2.14,0,0,0,3,0l3.75-3.75A.66.66,0,0,0,15.45,11.26Z"/><path d="M18.2,16.32a1.55,1.55,0,0,1-3.09,0,4.12,4.12,0,0,1,1-2.23.72.72,0,0,1,1.14,0A4,4,0,0,1,18.2,16.32Z"/></g></g></svg>