<svg xmlns="http://www.w3.org/2000/svg" viewBox="0 0 24 24"><defs><style>.cls-1{opacity:0.3;}</style></defs><g id="design"><g id="bucket"><path class="cls-1" d="M17.1,10.19,10.66,3.75s0,0-.05,0L9.12,2.22a.73.73,0,0,0-1,0,.72.72,0,0,0,0,1l.85.86L3.75,9.3a3.16,3.16,0,0,0,0,4.46L7.09,17.1a3.16,3.16,0,0,0,4.46,0l5.55-5.55A1,1,0,0,0,17.1,10.19Z"/><path d="M16,22H3.65a.73.73,0,1,1,0-1.46H16A.73.73,0,0,1,16,22Z"/><path d="M21.18,17.67a2.29,2.29,0,0,1-4.58,0,6.06,6.06,0,0,1,1.46-3.3,1.06,1.06,0,0,1,1.68,0A5.89,5.89,0,0,1,21.18,17.67Z"/><path d="M17.1,11.55a1,1,0,0,0,.26-.82l-14.52.68a3.11,3.11,0,0,0,.91,2.35L7.09,17.1a3.16,3.16,0,0,0,4.46,0Z"/></g></g></svg>