<svg xmlns="http://www.w3.org/2000/svg" viewBox="0 0 24 24"><defs><style>.cls-1{opacity:0.3;}</style></defs><g id="design"><g id="color-swatch"><path class="cls-1" d="M13,5.36,3.17,15.17a4,4,0,0,0,5.66,5.66L18.64,11a2.13,2.13,0,0,0,0-3L16,5.36A2.13,2.13,0,0,0,13,5.36Zm-8,11.58a1.5,1.5,0,1,1,0,2.12A1.49,1.49,0,0,1,4.94,16.94Z"/><path class="cls-1" d="M13,5.36,3.17,15.17a4,4,0,0,0,5.66,5.66L18.64,11a2.13,2.13,0,0,0,0-3L16,5.36A2.13,2.13,0,0,0,13,5.36Zm-8,11.58a1.5,1.5,0,1,1,0,2.12A1.49,1.49,0,0,1,4.94,16.94Z"/><path class="cls-1" d="M7.07,19.05v0h0Z"/><path class="cls-1" d="M6.58,16.62l0,0Z"/><path class="cls-1" d="M7.5,18v0Z"/><path class="cls-1" d="M7.08,17l0,0h0Z"/><path class="cls-1" d="M6.55,19.4h0Z"/><path class="cls-1" d="M5.46,16.61h0Z"/><path class="cls-1" d="M4.88,21.82a3.37,3.37,0,0,0,.34.1A3.37,3.37,0,0,1,4.88,21.82Z"/><path class="cls-1" d="M6,16.5H6Z"/><path class="cls-1" d="M5.44,19.39Z"/><path class="cls-1" d="M7.39,18.58s0,0,0,0S7.39,18.56,7.39,18.58Z"/><path class="cls-1" d="M7.4,17.48s0,0,0-.06S7.4,17.46,7.4,17.48Z"/><path class="cls-1" d="M2.18,19.13c0-.12-.08-.23-.1-.35C2.1,18.9,2.15,19,2.18,19.13Z"/><path class="cls-1" d="M3.17,20.83a4.92,4.92,0,0,0,.61.5A4.76,4.76,0,0,1,3.17,20.83Z"/><path class="cls-1" d="M4.09,21.5c.13.06.25.14.38.19C4.34,21.64,4.22,21.56,4.09,21.5Z"/><path class="cls-1" d="M19.87,14H15.66L8.83,20.83A4,4,0,0,1,6,22H19.87A2.13,2.13,0,0,0,22,19.87V16.13A2.13,2.13,0,0,0,19.87,14Z"/><path class="cls-1" d="M2.51,19.91a3.48,3.48,0,0,1-.2-.38A3.48,3.48,0,0,0,2.51,19.91Z"/><path class="cls-1" d="M2.31,16.47a3.48,3.48,0,0,1,.2-.38A3.48,3.48,0,0,0,2.31,16.47Z"/><path class="cls-1" d="M2.67,15.78a4.76,4.76,0,0,1,.5-.61A4.92,4.92,0,0,0,2.67,15.78Z"/><path class="cls-1" d="M2.08,17.22c0-.12.07-.23.1-.35C2.15,17,2.1,17.1,2.08,17.22Z"/><path class="cls-1" d="M3.17,20.83a4.76,4.76,0,0,1-.5-.61A4.92,4.92,0,0,0,3.17,20.83Z"/><path d="M2,4.13V18a4,4,0,0,0,8,0V4.13A2.13,2.13,0,0,0,7.87,2H4.13A2.13,2.13,0,0,0,2,4.13ZM4.5,18A1.51,1.51,0,1,1,6,19.5,1.5,1.5,0,0,1,4.5,18Z"/></g></g></svg>