<svg xmlns="http://www.w3.org/2000/svg" viewBox="0 0 24 24"><defs><style>.cls-1{opacity:0.3;}</style></defs><g id="design"><g id="frame"><path class="cls-1" d="M22,18.19v-.38A1.81,1.81,0,0,0,20.19,16H8.81A.81.81,0,0,1,8,15.19V3.81A1.81,1.81,0,0,0,6.19,2H5.81A1.81,1.81,0,0,0,4,3.81V18.19A1.81,1.81,0,0,0,5.81,20H20.19A1.81,1.81,0,0,0,22,18.19Z"/><path d="M20,5.81V20.19A1.81,1.81,0,0,1,18.19,22h-.38A1.81,1.81,0,0,1,16,20.19V8.81A.81.81,0,0,0,15.19,8H8V4H18.19A1.81,1.81,0,0,1,20,5.81ZM3.81,8H4V4H3.81A1.81,1.81,0,0,0,2,5.81v.38A1.81,1.81,0,0,0,3.81,8Z"/></g></g></svg>