<svg xmlns="http://www.w3.org/2000/svg" viewBox="0 0 24 24"><defs><style>.cls-1{opacity:0.3;}</style></defs><g id="design"><g id="glass"><rect x="5.96" y="2.01" width="12.08" height="4.83" rx="2.42"/><path class="cls-1" d="M20,17.59A3.14,3.14,0,0,1,17.13,22L12,22,6.9,22A3.13,3.13,0,0,1,4,17.66l3.06-7.38,2-4.83a3.13,3.13,0,0,1,5.77,0l2.05,4.82Z"/><path d="M12.61,13c-3.09,1.58-5.38.86-6.71.05L4,17.66A3.13,3.13,0,0,0,6.9,22L12,22l5.12,0A3.14,3.14,0,0,0,20,17.59l-2.15-5A7.8,7.8,0,0,0,12.61,13Z"/></g></g></svg>