<svg xmlns="http://www.w3.org/2000/svg" viewBox="0 0 24 24"><defs><style>.cls-1{opacity:0.3;}</style></defs><g id="design"><g id="paintbucket"><rect class="cls-1" x="4.62" y="3.58" width="13.99" height="16.82" rx="3.08" transform="translate(11.88 -4.7) rotate(45)"/><path d="M3.82,12l7.83-7.83a1.41,1.41,0,0,1,2,0L19,9.56A1.43,1.43,0,0,1,19.39,11a.75.75,0,0,1-.85.52A36.33,36.33,0,0,0,3.82,12Z"/><path d="M22,19.51a2.24,2.24,0,0,1-4.48,0,5.94,5.94,0,0,1,1.42-3.23,1,1,0,0,1,1.65,0A5.74,5.74,0,0,1,22,19.51Z"/></g></g></svg>