<svg xmlns="http://www.w3.org/2000/svg" viewBox="0 0 24 24"><g id="users"><path fill="currentColor" id="user-edit" d="M16.77,7a5,5,0,1,1-5-5A5,5,0,0,1,16.77,7Zm.6,12.5,3.41-3.19a1.09,1.09,0,0,0,0-1.54l-.65-.7a1.09,1.09,0,0,0-1.54-.09l-3.41,3.19a1.08,1.08,0,0,0-.3.54l-.3,1.43a.7.7,0,0,0,.78.83l1.44-.2A1.09,1.09,0,0,0,17.37,19.46Zm2.75-.52-1.73,1.61a2.45,2.45,0,0,1-1.37.66l-1.44.2a1.67,1.67,0,0,1-.31,0,2.2,2.2,0,0,1-2.15-2.64l.3-1.42A2.5,2.5,0,0,1,14.17,16l1.32-1.24a10.08,10.08,0,0,0-3.68-.69c-4.52,0-8.26,2.89-8.9,6.65A1.13,1.13,0,0,0,4.11,22h15.4a1.14,1.14,0,0,0,1.2-1.24A6.69,6.69,0,0,0,20.12,18.94Z"/></g></svg>