<svg xmlns="http://www.w3.org/2000/svg" viewBox="0 0 24 24"><g id="users"><path fill="currentColor" id="user-tick" d="M16.44,7a4.95,4.95,0,1,1-5-5A4.95,4.95,0,0,1,16.44,7Zm4.95,9.89a4,4,0,1,1-4-4A4,4,0,0,1,21.39,16.87Zm-2-1.55a.75.75,0,0,0-1.05.12l-1.1,1.41L16.65,16a.74.74,0,0,0-1.17.91l1.21,1.56a.74.74,0,0,0,1.17,0l1.69-2.15A.74.74,0,0,0,19.43,15.32ZM12,16.87a5.42,5.42,0,0,1,.71-2.69,9.42,9.42,0,0,0-1.2-.08C7,14.1,3.26,17,2.62,20.73A1.14,1.14,0,0,0,3.82,22H15.51A5.46,5.46,0,0,1,12,16.87Z"/></g></svg>