<svg xmlns="http://www.w3.org/2000/svg" viewBox="0 0 24 24"><defs><style>.cls-1{opacity:0.3;}</style></defs><g id="technologies"><g id="artificial-intelligence"><path class="cls-1" d="M20.1,15.84c1.32-1.06,1.17-2.59,1.15-4.1a7,7,0,0,0-1.87-4.36,10.24,10.24,0,0,0-3.57-2.72A12.3,12.3,0,0,0,11.72,4,10.3,10.3,0,0,0,4.6,6.17C3,7.47,2,9.75,3.36,11.61A4.06,4.06,0,0,0,5.27,12.8a4.35,4.35,0,0,0,2.2.2,2.83,2.83,0,0,0,.4,2.5,2.87,2.87,0,0,0,2.26,1,2,2,0,0,0,.68-.13,6,6,0,0,0,.54-.33,5,5,0,0,1,3.16-.31,35,35,0,0,0,3.84.65,2.75,2.75,0,0,0,.86,0A2.62,2.62,0,0,0,20.1,15.84Z"/><path d="M18.84,16.38a3.6,3.6,0,0,1-.43,1.33c-.31.57-.92.76-1.38,1.17-.61.57-.48,1.55-.44,2.29a1.06,1.06,0,0,1-.09.5.72.72,0,0,1-.92.2,1.79,1.79,0,0,1-.68-.76c-.26-.47-.47-1-.76-1.41a7.94,7.94,0,0,0-2.5-2,2.52,2.52,0,0,1-.94-1.35l.11,0a6,6,0,0,0,.54-.33,5,5,0,0,1,3.16-.31,35,35,0,0,0,3.84.65A4,4,0,0,0,18.84,16.38Z"/><circle cx="7.21" cy="8.69" r="1.9"/><circle cx="12" cy="11.53" r="1.9"/><circle cx="17.69" cy="12.48" r="1.9"/><path d="M7.21,9.18a.75.75,0,0,1-.54-1.27L9.35,5.1V2.79a.75.75,0,0,1,1.5,0V5.4a.75.75,0,0,1-.2.52L7.75,9A.76.76,0,0,1,7.21,9.18Z"/><path d="M12,12.22A.75.75,0,0,1,11.44,11L13.15,9V2.79a.75.75,0,0,1,1.5,0V9.32a.78.78,0,0,1-.19.5L12.56,12A.73.73,0,0,1,12,12.22Z"/><path d="M17.69,13.23a.76.76,0,0,1-.75-.75V2.79a.75.75,0,1,1,1.5,0v9.69A.75.75,0,0,1,17.69,13.23Z"/></g></g></svg>