<svg xmlns="http://www.w3.org/2000/svg" viewBox="0 0 24 24"><defs><style>.cls-1{opacity:0.3;}</style></defs><g id="technologies"><g id="electricity"><path d="M13.69,22.66a2.46,2.46,0,0,1-2.44-2.45V15.73a.75.75,0,0,1,1.5,0v4.48a1,1,0,0,0,.35.74.92.92,0,0,0,.78.19A8.78,8.78,0,0,0,16.72,20a.75.75,0,1,1,.77,1.29,10.73,10.73,0,0,1-3.3,1.28A2.12,2.12,0,0,1,13.69,22.66Z"/><path d="M21,17.25a.67.67,0,0,1-.33-.08.75.75,0,0,1-.34-1,9.15,9.15,0,0,0,.95-4.08A9.24,9.24,0,0,0,8.18,3.66.75.75,0,0,1,7.55,2.3a10.75,10.75,0,0,1,15.2,9.79,10.64,10.64,0,0,1-1.1,4.74A.75.75,0,0,1,21,17.25Z"/><path d="M3.82,18.59a.75.75,0,0,1-.61-.31,10.74,10.74,0,0,1-.5-11.6A.75.75,0,0,1,4,7.44,9,9,0,0,0,2.8,11.1a9.33,9.33,0,0,0,1.63,6.31.74.74,0,0,1-.61,1.18Z"/><path d="M5.15,21.83a2.54,2.54,0,1,1,2.54-2.54A2.54,2.54,0,0,1,5.15,21.83Zm0-3.58a1,1,0,1,0,1,1A1,1,0,0,0,5.15,18.25Z"/><rect class="cls-1" x="7.26" y="7.62" width="9.48" height="2.95" rx="1.44"/><path d="M10.22,7.62V4.72a.69.69,0,0,0-1.38,0V7.59a0,0,0,0,0,0,0Z"/><path d="M15.24,7.62V4.73A.68.68,0,0,0,14.56,4a.69.69,0,0,0-.69.69V7.62Z"/><path d="M15.11,12.89a3.11,3.11,0,0,1-6.22,0V10.57h6.22Z"/><circle cx="19.44" cy="18.76" r="0.66"/><circle cx="5.44" cy="4.73" r="0.66"/></g></g></svg>