<svg xmlns="http://www.w3.org/2000/svg" viewBox="0 0 24 24"><defs><style>.cls-1{opacity:0.3;}</style></defs><g id="technologies"><g id="face-ID"><path class="cls-1" d="M17.83,10.4a.86.86,0,0,0-.57.16V6.89H6.69v3.67a.86.86,0,0,0-.57-.16c-.63.06-1.07.87-1,1.8s.69,1.65,1.32,1.58a.86.86,0,0,0,.23-.06v.59A3.46,3.46,0,0,0,7.91,17l2.46,2a2.62,2.62,0,0,0,3.27.08l2.29-1.69a3.45,3.45,0,0,0,1.33-2.79v-.89a.86.86,0,0,0,.23.06c.63.07,1.22-.64,1.32-1.58S18.46,10.46,17.83,10.4Z"/><path d="M9,7.17a5,5,0,0,0-2.21,5s-3.37-7,2.7-7.49a6.16,6.16,0,0,1,5.2-.87,5.43,5.43,0,0,1,2.56,8.37s0-3.05-3.63-2.79A5.44,5.44,0,0,1,9,7.17Z"/><path d="M20.9,22.64h-3a.75.75,0,1,1,0-1.5h3a.46.46,0,0,0,.46-.45V17.35a.75.75,0,0,1,1.5,0v3.34A2,2,0,0,1,20.9,22.64Z"/><path d="M6.2,22.64h-3a2,2,0,0,1-2-1.95V17.35a.75.75,0,0,1,1.5,0v3.34a.46.46,0,0,0,.46.45h3a.75.75,0,0,1,0,1.5Z"/><path d="M22.11,7.29a.75.75,0,0,1-.75-.75V3.2a.46.46,0,0,0-.46-.45h-3a.75.75,0,0,1,0-1.5h3a2,2,0,0,1,2,2V6.54A.76.76,0,0,1,22.11,7.29Z"/><path d="M2,7.29a.76.76,0,0,1-.75-.75V3.2a2,2,0,0,1,2-1.95h3a.75.75,0,0,1,0,1.5h-3a.46.46,0,0,0-.46.45V6.54A.76.76,0,0,1,2,7.29Z"/></g></g></svg>