<svg xmlns="http://www.w3.org/2000/svg" viewBox="0 0 24 24"><defs><style>.cls-1{opacity:0.3;}</style></defs><g id="technologies"><g id="fingerprint-scanning"><path d="M12.25,20.74a.92.92,0,0,1-.51-.17.87.87,0,0,1-.17-1.21,9.27,9.27,0,0,0,1.6-3.46.86.86,0,0,1,1.67.41,11.13,11.13,0,0,1-1.9,4.08A.84.84,0,0,1,12.25,20.74Zm-2.47-1.9a7.82,7.82,0,0,0,1.94-5.16V9.36a.86.86,0,1,1,1.71,0v3.73a.86.86,0,1,0,1.71,0V9.36a2.57,2.57,0,1,0-5.13,0v4.32a6.07,6.07,0,0,1-1.51,4,.88.88,0,0,0,.07,1.22.85.85,0,0,0,1.21-.07ZM7.45,16.31a.9.9,0,0,0,.85-.9V9.36a4.29,4.29,0,0,1,.27-1.51.87.87,0,0,0-.5-1.11.85.85,0,0,0-1.1.5,5.89,5.89,0,0,0-.38,2.12v6.13a.83.83,0,0,0,.85.82ZM10,5.9a4.1,4.1,0,0,1,1.42-.7A.89.89,0,0,0,12,4.13.86.86,0,0,0,11,3.53a6.16,6.16,0,0,0-2,1,.88.88,0,0,0-.17,1.21.86.86,0,0,0,.69.35A.89.89,0,0,0,10,5.9Zm7.85,12.29a14.91,14.91,0,0,0,.7-4.51V9.36a6,6,0,0,0-4-5.72.87.87,0,0,0-1.09.54A.88.88,0,0,0,14,5.28a4.31,4.31,0,0,1,2.89,4.08v4.32a13,13,0,0,1-.62,4,.86.86,0,0,0,.55,1.09.82.82,0,0,0,.26,0A.86.86,0,0,0,17.87,18.19Z"/><path class="cls-1" d="M20.8,22.75H17.85a.75.75,0,0,1,0-1.5H20.8a.46.46,0,0,0,.45-.46V17.44a.75.75,0,1,1,1.5,0v3.35A2,2,0,0,1,20.8,22.75Z"/><path class="cls-1" d="M6.28,22.75H3.33a2,2,0,0,1-1.95-2V17.44a.75.75,0,0,1,1.5,0v3.35a.46.46,0,0,0,.45.46h3a.75.75,0,1,1,0,1.5Z"/><path class="cls-1" d="M22,7.33a.76.76,0,0,1-.75-.75V3.22a.45.45,0,0,0-.45-.45H17.85a.75.75,0,0,1,0-1.5H20.8a2,2,0,0,1,1.95,2V6.58A.76.76,0,0,1,22,7.33Z"/><path class="cls-1" d="M2.13,7.33a.76.76,0,0,1-.75-.75V3.22a2,2,0,0,1,2-1.95h3a.75.75,0,0,1,0,1.5H3.33a.45.45,0,0,0-.45.45V6.58A.75.75,0,0,1,2.13,7.33Z"/></g></g></svg>