<svg xmlns="http://www.w3.org/2000/svg" viewBox="0 0 24 24"><defs><style>.cls-1{opacity:0.3;}</style></defs><g id="technologies"><g id="technology-3"><path d="M11.07,16.81a7.61,7.61,0,0,0-5-3.95,1.3,1.3,0,0,0-1.55,1.55,7.65,7.65,0,0,0,6.59,5.84Z"/><path class="cls-1" d="M17.82,12.86a7.63,7.63,0,0,0-5.05,3.95V12.65a.85.85,0,0,0-1.7,0v8.5a.85.85,0,0,0,1.7,0v-.9a7.66,7.66,0,0,0,6.6-5.84A1.3,1.3,0,0,0,17.82,12.86Z"/><circle class="cls-1" cx="11.92" cy="6.27" r="4.27"/><path d="M13.85,13.24,12.34,14a.93.93,0,0,1-.83,0L10,13.24a.91.91,0,0,1-.51-.82V10.7a.93.93,0,0,1,.93-.92h3a.93.93,0,0,1,.93.92v1.72A.9.9,0,0,1,13.85,13.24Z"/></g></g></svg>