<svg xmlns="http://www.w3.org/2000/svg" viewBox="0 0 24 24"><defs><style>.cls-1{opacity:0.3;}</style></defs><g id="technologies"><g id="technology-1"><path d="M16.15,5H7.84A2.92,2.92,0,0,0,4.92,7.87v8.31A2.92,2.92,0,0,0,7.84,19.1h8.31a2.92,2.92,0,0,0,2.92-2.92V7.87A2.92,2.92,0,0,0,16.15,5Zm-.64,9.16A1.49,1.49,0,0,1,14,15.6H9.79A1.49,1.49,0,0,1,8.3,14.11V9.88A1.49,1.49,0,0,1,9.79,8.39H14a1.49,1.49,0,0,1,1.49,1.49Z"/><path class="cls-1" d="M2.77,10.71H7.32V9.16H2.77A.77.77,0,0,0,2,9.93.78.78,0,0,0,2.77,10.71Z"/><path class="cls-1" d="M10.71,7V2.77A.78.78,0,0,0,9.93,2a.77.77,0,0,0-.77.78V7Z"/><path class="cls-1" d="M14.83,7V2.77a.77.77,0,1,0-1.54,0V7Z"/><path class="cls-1" d="M16.94,10.71h4.29A.78.78,0,0,0,22,9.93a.77.77,0,0,0-.77-.77H16.94Z"/><path class="cls-1" d="M21.23,13.29H16.94v1.54h4.29a.77.77,0,0,0,0-1.54Z"/><path class="cls-1" d="M7.32,13.29H2.77a.77.77,0,1,0,0,1.54H7.32Z"/><path class="cls-1" d="M13.29,17.08v4.15a.77.77,0,1,0,1.54,0V17.08Z"/><path class="cls-1" d="M9.16,17.08v4.15a.77.77,0,0,0,.77.77.78.78,0,0,0,.78-.77V17.08Z"/></g></g></svg>