<svg xmlns="http://www.w3.org/2000/svg" viewBox="0 0 24 24"><defs><style>.cls-1{opacity:0.3;}</style></defs><g id="technologies"><g id="technology-4"><path d="M19.46,19.45a.76.76,0,0,1-.49-.18l-3.16-2.68H12.55a4.82,4.82,0,0,1-4.89-4.73,4.82,4.82,0,0,1,4.89-4.74h3l3.65-3a.75.75,0,0,1,.95,1.17L16.25,8.45a.73.73,0,0,1-.47.17H12.55a3.32,3.32,0,0,0-3.39,3.24,3.32,3.32,0,0,0,3.39,3.23h3.54a.74.74,0,0,1,.48.18l3.37,2.86A.75.75,0,0,1,20,19.19.76.76,0,0,1,19.46,19.45Z"/><path class="cls-1" d="M13.23,4.4V2h-1.7a1.34,1.34,0,0,0-1.36,1.31V4.45a8.15,8.15,0,0,0-1.76.69l-.83-.8a1.41,1.41,0,0,0-1.93,0L4.43,5.51a1.29,1.29,0,0,0,0,1.86l.83.8a8.19,8.19,0,0,0-.72,1.69H3.37A1.34,1.34,0,0,0,2,11.17v1.66a1.34,1.34,0,0,0,1.37,1.31H4.54a8.19,8.19,0,0,0,.72,1.69l-.83.8a1.29,1.29,0,0,0,0,1.86l1.22,1.17a1.41,1.41,0,0,0,1.93,0l.83-.8a8.15,8.15,0,0,0,1.76.69v1.14A1.34,1.34,0,0,0,11.53,22h1.7V19.67"/><ellipse cx="20.27" cy="4.32" rx="1.73" ry="1.67"/><ellipse cx="20.4" cy="11.68" rx="1.6" ry="1.54"/><ellipse cx="13.23" cy="11.87" rx="1.6" ry="1.54"/><ellipse cx="20.27" cy="18.98" rx="1.73" ry="1.67"/><path d="M18.94,12.62H13.83a.75.75,0,0,1,0-1.5h5.11a.75.75,0,0,1,0,1.5Z"/></g></g></svg>