<svg xmlns="http://www.w3.org/2000/svg" viewBox="0 0 24 24"><defs><style>.cls-1{opacity:0.3;}</style></defs><g id="technologies"><g id="technology-2"><path class="cls-1" d="M11,6.5A4.49,4.49,0,1,1,6.48,2,4.49,4.49,0,0,1,11,6.5ZM17.44,2a4.5,4.5,0,1,0,4.48,4.5A4.48,4.48,0,0,0,17.44,2Zm-11,11A4.5,4.5,0,1,0,11,17.5,4.49,4.49,0,0,0,6.48,13Zm11,0a4.5,4.5,0,1,0,4.48,4.5A4.48,4.48,0,0,0,17.44,13Z"/><path d="M17.44,16h-.08l-.69-.69a3.89,3.89,0,0,1-1.12-2.19,8.55,8.55,0,0,1,0-2.26,3.89,3.89,0,0,1,1.12-2.19L17.36,8h.08A1.5,1.5,0,1,0,16,6.5v.08l-.68.69A3.88,3.88,0,0,1,13.09,8.4a8.47,8.47,0,0,1-2.25,0A3.85,3.85,0,0,1,8.66,7.27L8,6.58s0,0,0-.08A1.5,1.5,0,1,0,6.48,8h.08l.69.69a3.9,3.9,0,0,1,1.13,2.19,8.55,8.55,0,0,1,0,2.26,3.9,3.9,0,0,1-1.13,2.19L6.56,16H6.48A1.5,1.5,0,1,0,8,17.5s0-.05,0-.08l.69-.69a3.85,3.85,0,0,1,2.18-1.13,8.4,8.4,0,0,1,2.24,0,3.87,3.87,0,0,1,2.19,1.13l.68.69v.08A1.5,1.5,0,1,0,17.44,16Z"/></g></g></svg>