<svg xmlns="http://www.w3.org/2000/svg" viewBox="0 0 24 24"><defs><style>.cls-1{opacity:0.3;}</style></defs><g id="technologies"><g id="wi-fi"><path class="cls-1" d="M20.36,7a.76.76,0,0,1-.43-.14,13.37,13.37,0,0,0-15.82,0,.75.75,0,1,1-.93-1.18c.08-.07,8.44-6.46,17.61,0A.75.75,0,0,1,20.36,7ZM17.6,11.1a.75.75,0,0,0-.18-1,9.34,9.34,0,0,0-10.87,0,.74.74,0,0,0-.13,1.05.76.76,0,0,0,1,.13,7.81,7.81,0,0,1,9.09,0,.76.76,0,0,0,.43.14A.72.72,0,0,0,17.6,11.1Zm-3.11,4.64a.76.76,0,0,0-.09-1.06,3.56,3.56,0,0,0-4.83,0,.75.75,0,0,0,1,1.09,2.07,2.07,0,0,1,2.83,0,.74.74,0,0,0,.49.18A.77.77,0,0,0,14.49,15.74Z"/><path d="M20.06,22.07H3.94a.75.75,0,0,1,0-1.5H20.06a.75.75,0,0,1,0,1.5Z"/></g></g></svg>