<svg xmlns="http://www.w3.org/2000/svg" viewBox="0 0 24 24"><g id="technologies"><path fill="currentColor" id="artificial-intelligence" d="M22.59,11.8v-.38a7.24,7.24,0,0,0-1.27-3.83.75.75,0,0,0-1-.22.72.72,0,0,0-.23,1,5.85,5.85,0,0,1,1,3v.39c0,1.34,0,2.5-.95,3.27a1.82,1.82,0,0,1-.65.38.85.85,0,0,1-.23,0h-.44A23.74,23.74,0,0,1,16,15l-1.11-.22a6.2,6.2,0,0,0-3.85.42l-.21.13a2.34,2.34,0,0,1-.27.15l-.06,0a1.09,1.09,0,0,1-.39.07,2.28,2.28,0,0,1-1.78-.76A2.17,2.17,0,0,1,8,12.93.75.75,0,0,0,7.16,12a3.71,3.71,0,0,1-1.92-.19,3.77,3.77,0,0,1-1.67-1c-1.2-1.59-.23-3.52,1.18-4.63A10,10,0,0,1,7.3,4.76a.73.73,0,0,0,.43-.95.76.76,0,0,0-1-.42A11.52,11.52,0,0,0,3.81,5.07c-2,1.59-3.16,4.39-1.45,6.66a5,5,0,0,0,2.38,1.48,5.32,5.32,0,0,0,1.69.32,3.35,3.35,0,0,0,.72,2.27A3.78,3.78,0,0,0,10,17.09h.13l.12,0a3.11,3.11,0,0,0,1,1.18c.22.15.46.29.69.43a5.26,5.26,0,0,1,1.75,1.39c.17.27.31.55.45.83s.21.4.32.59a2.49,2.49,0,0,0,1,1.09,1.55,1.55,0,0,0,.72.17,1.43,1.43,0,0,0,1.24-.66,1.7,1.7,0,0,0,.19-.92v-.26c0-.58-.08-1.25.24-1.54a5.4,5.4,0,0,1,.46-.33,3,3,0,0,0,1.15-1.1,5.36,5.36,0,0,0,.43-1.06,3.43,3.43,0,0,0,1.15-.63C22.65,15,22.61,13.31,22.59,11.8Zm-4.42,5.47a1.87,1.87,0,0,1-.63.54,3.93,3.93,0,0,0-.66.48A3.11,3.11,0,0,0,16.15,21v.24h0a1.38,1.38,0,0,1-.37-.47l-.29-.54a9.12,9.12,0,0,0-.53-1,6.61,6.61,0,0,0-2.22-1.85L12.11,17a1.59,1.59,0,0,1-.43-.46l.09-.06a4.74,4.74,0,0,1,2.82-.24l1.08.21,1.38.26.42.07c.29,0,.57.09.86.12ZM7.57,6.37,9.33,4.55V2.14a.75.75,0,0,1,1.5,0V4.85a.75.75,0,0,1-.21.51L8.75,7.28a1.93,1.93,0,0,1,.28,1,2,2,0,1,1-2-2A2,2,0,0,1,7.57,6.37Zm4.51,2.87a2.05,2.05,0,0,1,.61.1l.64-.71V2.14a.75.75,0,0,1,1.5,0V8.91a.73.73,0,0,1-.19.49l-.8.89a1.91,1.91,0,0,1,.24.92,2,2,0,1,1-2-2Zm4,2.95a2,2,0,0,1,1.25-1.82V2.14a.75.75,0,0,1,1.5,0v8.23a2,2,0,0,1,1.25,1.82,2,2,0,0,1-4,0Z"/></g></svg>