<svg xmlns="http://www.w3.org/2000/svg" viewBox="0 0 24 24"><g id="technologies"><path fill="currentColor" id="wi-fi" d="M21,6.82a.75.75,0,0,1-.62.32A.78.78,0,0,1,20,7,13.38,13.38,0,0,0,4.14,7a.76.76,0,0,1-1-.13.75.75,0,0,1,.13-1c.08-.07,8.44-6.46,17.61,0A.76.76,0,0,1,21,6.82Zm-4,4.72a.74.74,0,0,0,.61-.32.75.75,0,0,0-.18-1.05,9.36,9.36,0,0,0-10.88,0,.75.75,0,0,0-.12,1.05.76.76,0,0,0,1,.13,7.69,7.69,0,0,1,9.09,0A.76.76,0,0,0,17,11.54ZM9.61,14.83a.75.75,0,0,0,0,1.06.75.75,0,0,0,1.06,0,2.07,2.07,0,0,1,2.83,0,.72.72,0,0,0,.48.17.75.75,0,0,0,.49-1.32A3.56,3.56,0,0,0,9.61,14.83ZM20.1,20.69H4a.75.75,0,1,0,0,1.5H20.1a.75.75,0,0,0,0-1.5Z"/></g></svg>