<svg xmlns="http://www.w3.org/2000/svg" viewBox="0 0 24 24"><defs><style>.cls-1{opacity:0.3;}</style></defs><g id="archive"><g id="archive-tick"><path class="cls-1" d="M18,21.92,12.9,19a1.81,1.81,0,0,0-1.8,0L6,21.92a1.8,1.8,0,0,1-2.7-1.55V6.28A4.46,4.46,0,0,1,7.76,1.83h8.48a4.46,4.46,0,0,1,4.45,4.45V20.37A1.8,1.8,0,0,1,18,21.92Z"/><path d="M11.08,13.5a.73.73,0,0,1-.51-.21L9,11.8a.75.75,0,0,1,0-1.06.75.75,0,0,1,1.06,0l1.05,1,3.5-3.47a.75.75,0,1,1,1,1.07l-4,4A.74.74,0,0,1,11.08,13.5Z"/></g></g></svg>