<svg xmlns="http://www.w3.org/2000/svg" viewBox="0 0 24 24"><defs><style>.cls-1{opacity:0.3;}</style></defs><g id="archive"><g id="book-square"><rect class="cls-1" x="2.01" y="2.01" width="19.99" height="19.99" rx="4.99"/><path d="M11.5,7.67h0a13.1,13.1,0,0,0-4.53-1.6A1.15,1.15,0,0,0,5.62,7.2v7.92a1.12,1.12,0,0,0,1,1.12,17.93,17.93,0,0,1,4.9,1.65h0Z"/><path d="M17,6a13.74,13.74,0,0,0-4.51,1.64h0V17.9h0a16.34,16.34,0,0,1,4.93-1.62,1.14,1.14,0,0,0,.93-1.13v-8A1.16,1.16,0,0,0,17,6Z"/></g></g></svg>