<svg xmlns="http://www.w3.org/2000/svg" viewBox="0 0 24 24"><defs><style>.cls-1{opacity:0.3;}</style></defs><g id="archive"><g id="save-2"><path class="cls-1" d="M13.84,21.81,9.7,19.48a1.51,1.51,0,0,0-1.46,0L4.1,21.81a1.46,1.46,0,0,1-2.19-1.23V9.41A3.58,3.58,0,0,1,5.53,5.88h6.88A3.58,3.58,0,0,1,16,9.41V20.58A1.46,1.46,0,0,1,13.84,21.81Z"/><path d="M18.47,2H11.59A3.58,3.58,0,0,0,8,5.53v.35h4.44A3.58,3.58,0,0,1,16,9.41v6.34l3.87,2.18a1.46,1.46,0,0,0,2.19-1.24V5.53A3.58,3.58,0,0,0,18.47,2Z"/></g></g></svg>