<svg xmlns="http://www.w3.org/2000/svg" viewBox="0 0 24 24"><g id="it-network"><path fill="currentColor" id="it-10" d="M2.09,6.31A5.29,5.29,0,0,1,7.28,2h9.44a5.29,5.29,0,0,1,5.19,4.31.83.83,0,0,1-.82,1H2.91A.83.83,0,0,1,2.09,6.31ZM22,9.59v7.13A5.27,5.27,0,0,1,16.72,22H7.28A5.27,5.27,0,0,1,2,16.72V9.59a.83.83,0,0,1,.83-.83H21.17A.83.83,0,0,1,22,9.59ZM8,15l1.45-1.39a.75.75,0,1,0-1-1.08l-2,1.92a.78.78,0,0,0-.23.54.74.74,0,0,0,.23.54l2,2a.7.7,0,0,0,.52.22.75.75,0,0,0,.53-1.29Zm9.83,0a.78.78,0,0,0-.23-.54l-2-1.92a.75.75,0,0,0-1,1.08L16,15l-1.46,1.43a.75.75,0,0,0,0,1.06.78.78,0,0,0,.54.23.7.7,0,0,0,.52-.22l2-2A.74.74,0,0,0,17.83,15Z"/></g></svg>