<svg xmlns="http://www.w3.org/2000/svg" viewBox="0 0 24 24"><g id="it-network"><path fill="currentColor" id="it-12" d="M16,5.75h0A1.28,1.28,0,0,0,17.29,7h3.42A1.29,1.29,0,0,0,22,5.71V4.29A1.29,1.29,0,0,0,20.71,3H17.29A1.28,1.28,0,0,0,16,4.25H9V4.08A2.08,2.08,0,0,0,6.92,2H4.08A2.08,2.08,0,0,0,2,4.08V5.92A2.08,2.08,0,0,0,4.08,8H6.92A2.08,2.08,0,0,0,9,5.92V5.75h2.75V17.82a2.93,2.93,0,0,0,2.93,2.93H16A1.28,1.28,0,0,0,17.29,22h3.42A1.29,1.29,0,0,0,22,20.71V19.29A1.29,1.29,0,0,0,20.71,18H17.29A1.28,1.28,0,0,0,16,19.25H14.68a1.43,1.43,0,0,1-1.43-1.43V13.25H16a1.28,1.28,0,0,0,1.28,1.25h3.42A1.29,1.29,0,0,0,22,13.21V11.79a1.29,1.29,0,0,0-1.29-1.29H17.29A1.28,1.28,0,0,0,16,11.75H13.25v-6Z"/></g></svg>