<svg xmlns="http://www.w3.org/2000/svg" viewBox="0 0 24 24"><g id="it-network"><path fill="currentColor" id="it-11" d="M17.38,2H6.62A4.62,4.62,0,0,0,2,6.61v7.76A4.62,4.62,0,0,0,6.62,19H8.35a1.23,1.23,0,0,1,.94.45L11,21.56a1.22,1.22,0,0,0,1.9,0l1.6-2.06a1.23,1.23,0,0,1,1-.48h1.88A4.62,4.62,0,0,0,22,14.37V6.61A4.62,4.62,0,0,0,17.38,2ZM8.54,12.16A.75.75,0,0,1,8,13.45a.7.7,0,0,1-.52-.22l-2-2a.73.73,0,0,1-.22-.54.72.72,0,0,1,.23-.53l2-1.93a.75.75,0,1,1,1,1.08L7.08,10.73Zm5.13-3.42L11.8,13.23a.76.76,0,0,1-.69.46.72.72,0,0,1-.29-.06.75.75,0,0,1-.4-1l1.87-4.49a.75.75,0,1,1,1.38.58Zm4.85,2.52-2,2a.7.7,0,0,1-.52.22.75.75,0,0,1-.53-1.29l1.46-1.43L15.47,9.34a.75.75,0,1,1,1-1.08l2,1.93a.72.72,0,0,1,.23.53A.73.73,0,0,1,18.52,11.26Z"/></g></svg>