<svg xmlns="http://www.w3.org/2000/svg" viewBox="0 0 24 24"><g id="it-network"><path fill="currentColor" id="it-3" d="M16.19,2H7.81A5.81,5.81,0,0,0,2,7.81v8.38A5.81,5.81,0,0,0,7.81,22h8.38A5.81,5.81,0,0,0,22,16.19V7.81A5.81,5.81,0,0,0,16.19,2ZM9,15.82a.75.75,0,0,1-.2,1,.83.83,0,0,1-.42.13.74.74,0,0,1-.62-.34l-2.8-4.14a.76.76,0,0,1,0-.83L7.7,7.36a.75.75,0,0,1,1-.23.76.76,0,0,1,.23,1L6.43,12.08Zm4.87-7.88-2.05,8.47A.77.77,0,0,1,11,17a.57.57,0,0,1-.18,0,.74.74,0,0,1-.55-.9l2-8.47a.75.75,0,0,1,1.46.35Zm5.27,4.57-2.8,4.14a.74.74,0,0,1-.62.34.83.83,0,0,1-.42-.13.75.75,0,0,1-.2-1l2.52-3.74L15,8.17a.77.77,0,0,1,.22-1,.76.76,0,0,1,1,.23l2.8,4.32A.76.76,0,0,1,19.09,12.51Z"/></g></svg>