<svg xmlns="http://www.w3.org/2000/svg" viewBox="0 0 24 24"><g id="it-network"><path fill="currentColor" id="it-8" d="M20.18,7.93,17.3,10.81a1.56,1.56,0,0,1-1.77.32,5.56,5.56,0,0,1-2.67-2.68,1.54,1.54,0,0,1,.32-1.77L16.05,3.8A1.07,1.07,0,0,0,15.32,2,6.79,6.79,0,0,0,8.46,9.74a3,3,0,0,1-.88,2.54L2.93,16.92a3,3,0,0,0-.22,4.13,2.91,2.91,0,0,0,4.23.11l4.76-4.75a3,3,0,0,1,2.54-.89A6.79,6.79,0,0,0,22,8.66,1.07,1.07,0,0,0,20.18,7.93Zm-9.11,6.36L5.55,19.81a1,1,0,0,1-1.38,0,1,1,0,0,1,0-1.37L9.7,12.91a1,1,0,0,1,1.37,0A1,1,0,0,1,11.07,14.29Z"/></g></svg>