<svg xmlns="http://www.w3.org/2000/svg" viewBox="0 0 24 24"><defs><style>.cls-1{opacity:0.3;}</style></defs><g id="map"><g id="map-2" data-name="map"><rect class="cls-1" x="2" y="2" width="20" height="20" rx="5.95"/><path d="M21.39,5.34,5.91,21.48l-.08.12A5.87,5.87,0,0,0,7.51,22l6.72-7,5.24,5.33a.76.76,0,0,0,.5.22,6.62,6.62,0,0,0,.77-.82.65.65,0,0,0-.2-.45l-5.27-5.36L21.91,7A5.91,5.91,0,0,0,21.39,5.34Z"/><path d="M8.69,4.82A3.64,3.64,0,0,0,5.53,7.93a3.59,3.59,0,0,0,.89,2.88l1.83,2.06a1.15,1.15,0,0,0,1.71,0l1.84-2.06a3.58,3.58,0,0,0,.92-2.4A3.62,3.62,0,0,0,8.69,4.82Zm.42,4.94a1.35,1.35,0,1,1,1.35-1.35A1.35,1.35,0,0,1,9.11,9.76Z"/></g></g></svg>