<svg xmlns="http://www.w3.org/2000/svg" viewBox="0 0 24 24"><defs><style>.cls-1{opacity:0.3;}</style></defs><g id="map"><g id="pointers"><rect class="cls-1" x="10" y="2" width="4" height="20" rx="1.29"/><path d="M19.34,10h-5.1A1.23,1.23,0,0,1,13,8.76V5.24A1.23,1.23,0,0,1,14.24,4h5.1a1.25,1.25,0,0,1,1,.55l1.17,1.76a1.24,1.24,0,0,1,0,1.38L20.37,9.45A1.25,1.25,0,0,1,19.34,10Z"/><path d="M4.66,16h5.1A1.23,1.23,0,0,0,11,14.76V11.24A1.23,1.23,0,0,0,9.76,10H4.66a1.25,1.25,0,0,0-1,.55L2.46,12.31a1.24,1.24,0,0,0,0,1.38l1.17,1.76A1.25,1.25,0,0,0,4.66,16Z"/></g></g></svg>