<svg xmlns="http://www.w3.org/2000/svg" viewBox="0 0 24 24"><defs><style>.cls-1{opacity:0.3;}</style></defs><g id="location"><g id="route"><path d="M5.22,2.1a4,4,0,0,0-3,3,4,4,0,0,0,.92,3.56l2.24,2.5a1,1,0,0,0,1.49,0l2.24-2.5A4,4,0,0,0,5.22,2.1Zm.94,5.39A1.5,1.5,0,1,1,7.66,6,1.5,1.5,0,0,1,6.16,7.49Z"/><path class="cls-1" d="M20.9,15.76l.77-1a.94.94,0,0,0-.73-1.53H15.65v5h5.29a.94.94,0,0,0,.73-1.53Z"/><path d="M14.9,22a.74.74,0,0,1-.75-.75V12.52a.75.75,0,0,1,1.5,0v8.74A.75.75,0,0,1,14.9,22Z"/><path class="cls-1" d="M14.23,21.26v-.75H8a3.17,3.17,0,0,1-3.25-3.07A3.16,3.16,0,0,1,8,14.37h1.5a2.19,2.19,0,1,0,0-4.37H7.82l-1,1.16a1.44,1.44,0,0,1-.8.34h3.5a.71.71,0,0,1,.75.68.72.72,0,0,1-.75.69H8a4.67,4.67,0,0,0-4.75,4.57A4.67,4.67,0,0,0,8,22h7A.75.75,0,0,1,14.23,21.26Z"/></g></g></svg>