<svg xmlns="http://www.w3.org/2000/svg" viewBox="0 0 24 24"><defs><style>.cls-1{opacity:0.3;}</style></defs><g id="location"><g id="satellite"><path class="cls-1" d="M7,18.48a3.63,3.63,0,0,0-3.46,2.44A.81.81,0,0,0,4.32,22H9.71a.81.81,0,0,0,.76-1.08A3.63,3.63,0,0,0,7,18.48Z"/><path class="cls-1" d="M7.9,15.65c3.41,3.4,8.17,4.23,11,2a.59.59,0,0,0,0-.87L6.71,4.66a.58.58,0,0,0-.86,0C3.65,7.5,4.49,12.25,7.9,15.65Z"/><path d="M13.24,11.17c.34-.31.68-.61,1-.88a.75.75,0,0,0-1-1.16c-.23.2-.63.54-1.12,1Z"/><path d="M7,18.48a3.55,3.55,0,0,1,.73.08,4.09,4.09,0,0,1,.86-2.26c-.24-.2-.48-.42-.71-.65s-.26-.27-.38-.41a6.43,6.43,0,0,0-1.28,3.33A4,4,0,0,1,7,18.48Z"/><path d="M17.28,10.21h0a.75.75,0,0,1-.72-.78C16.62,7.16,14.26,7,14,7a.75.75,0,0,1-.72-.78.72.72,0,0,1,.78-.72,4.84,4.84,0,0,1,3.07,1.34A3.55,3.55,0,0,1,18,9.49.74.74,0,0,1,17.28,10.21Z"/><path d="M20.79,10.21A.75.75,0,0,1,20,9.48c-.11-5.47-5.83-6-6.08-6a.75.75,0,0,1-.69-.81.77.77,0,0,1,.8-.69c2.54.19,7.36,2,7.47,7.45a.75.75,0,0,1-.73.76Z"/></g></g></svg>