<svg xmlns="http://www.w3.org/2000/svg" viewBox="0 0 24 24"><defs><style>.cls-1{opacity:0.3;}</style></defs><g id="map"><g id="telephone-geolocation"><path d="M11,2.5h2a0,0,0,0,1,0,0v1a1,1,0,0,1-1,1h0a1,1,0,0,1-1-1v-1A0,0,0,0,1,11,2.5Z"/><path class="cls-1" d="M18,5.25v13.5a2.75,2.75,0,0,1-2.75,2.75H8.75A2.75,2.75,0,0,1,6,18.75V5.25A2.75,2.75,0,0,1,8.75,2.5h6.5A2.75,2.75,0,0,1,18,5.25ZM16,11.5a4,4,0,0,0-4.94-3.89,4,4,0,0,0-2,6.56l2.24,2.52a1,1,0,0,0,1.48,0L15,14.17A4,4,0,0,0,16,11.5Z"/><circle cx="12" cy="11.5" r="1.5"/></g></g></svg>