<svg xmlns="http://www.w3.org/2000/svg" viewBox="0 0 24 24"><defs><style>.cls-1{opacity:0.3;}</style></defs><g id="business"><g id="chart-line-down"><rect class="cls-1" x="2.03" y="2" width="20.06" height="20" rx="5.96"/><path d="M16.24,14.63a.75.75,0,0,1-.55-.24l-2.63-2.88a.11.11,0,0,0-.14,0l-1.54,1.26a1.59,1.59,0,0,1-2.17-.14l-2.4-2.5a.75.75,0,0,1,1.09-1l2.4,2.5a.09.09,0,0,0,.13,0L12,10.34a1.6,1.6,0,0,1,2.19.16l2.62,2.87a.75.75,0,0,1,0,1.06A.78.78,0,0,1,16.24,14.63Z"/><path d="M17.23,15.71H14.32a.75.75,0,0,1,0-1.5h2.16V12A.75.75,0,0,1,18,12v3A.74.74,0,0,1,17.23,15.71Z"/></g></g></svg>