<svg xmlns="http://www.w3.org/2000/svg" viewBox="0 0 24 24"><defs><style>.cls-1{opacity:0.3;}</style></defs><g id="business"><g id="chart-pie-3"><path d="M13.14,8.4V3.47A1.47,1.47,0,0,1,14.89,2,9,9,0,0,1,22,9.11a1.47,1.47,0,0,1-1.44,1.75H15.6A2.46,2.46,0,0,1,13.14,8.4Z"/><path class="cls-1" d="M13.14,15.6v4.93A1.47,1.47,0,0,0,14.89,22,9,9,0,0,0,22,14.89a1.47,1.47,0,0,0-1.44-1.75H15.6A2.46,2.46,0,0,0,13.14,15.6Z"/><path class="cls-1" d="M12,20.26a1.58,1.58,0,0,1-1.88,1.54,10,10,0,0,1,0-19.6A1.58,1.58,0,0,1,12,3.74Z"/></g></g></svg>