<svg xmlns="http://www.w3.org/2000/svg" viewBox="0 0 24 24"><defs><style>.cls-1{opacity:0.3;}</style></defs><g id="business"><g id="chart-pie"><path d="M13,8.54V3.08a1,1,0,0,1,1.16-1A9,9,0,0,1,22,9.81a1,1,0,0,1-1,1.16H15.46A2.43,2.43,0,0,1,13,8.54Z"/><path class="cls-1" d="M11,11.76V5.62a1.5,1.5,0,0,0-1.8-1.47A9,9,0,0,0,2,13.21,9.1,9.1,0,0,0,11.31,22a8.83,8.83,0,0,0,4.14-1.16,1.48,1.48,0,0,0,.29-2.34l-2.92-2.9A5.23,5.23,0,0,1,11,11.76Z"/><path class="cls-1" d="M21.93,14.37a9.05,9.05,0,0,1-1.54,3.79,1.26,1.26,0,0,1-1.92.19l-3.86-3.82A.91.91,0,0,1,15.24,13h5.45A1.24,1.24,0,0,1,21.93,14.37Z"/></g></g></svg>