<svg xmlns="http://www.w3.org/2000/svg" viewBox="0 0 24 24"><defs><style>.cls-1{opacity:0.3;}</style></defs><g id="business"><g id="chart-line-star"><path d="M7.59,14.89a.73.73,0,0,1-.51-.21.75.75,0,0,1,0-1.06l2.39-2.5A1.57,1.57,0,0,1,11.6,11l1.54,1.25a.09.09,0,0,0,.13,0l2.61-2.87a.75.75,0,1,1,1.11,1l-2.61,2.87a1.6,1.6,0,0,1-2.19.17l-1.54-1.26a.08.08,0,0,0-.12,0l-2.39,2.5A.78.78,0,0,1,7.59,14.89Z"/><path d="M19.52,22.33,18.91,22A.88.88,0,0,0,18,22l-.62.37a.91.91,0,0,1-1.34-1l.15-.7a1,1,0,0,0-.29-.89l-.53-.48a.93.93,0,0,1,.51-1.61l.7-.08a.91.91,0,0,0,.74-.55l.22-.52a1,1,0,0,1,1.79,0l.22.51a.91.91,0,0,0,.74.55l.7.07a.93.93,0,0,1,.52,1.61l-.52.48a.93.93,0,0,0-.28.89l.15.71A.91.91,0,0,1,19.52,22.33Z"/><path class="cls-1" d="M14.58,21l.07-.37-.27-.25a2.48,2.48,0,0,1-.69-2.58,2.4,2.4,0,0,1,2-1.69l.37,0,.08-.2a2.47,2.47,0,0,1,2.26-1.51h0a2.43,2.43,0,0,1,2.26,1.5l.09.19.36,0a2.24,2.24,0,0,1,.84.27c0-.13,0-.26,0-.4V8a5.94,5.94,0,0,0-5.88-6H7.92A6,6,0,0,0,2,8v8a6,6,0,0,0,5.89,6h6.66A2.44,2.44,0,0,1,14.58,21Z"/></g></g></svg>