<svg xmlns="http://www.w3.org/2000/svg" viewBox="0 0 24 24"><defs><style>.cls-1{opacity:0.3;}</style></defs><g id="business"><g id="chart-line-up-2" data-name="chart-line-up"><path d="M21.27,22H7.93A6,6,0,0,1,2,16.09V2.71a.75.75,0,0,1,1.5,0V16.09a4.46,4.46,0,0,0,4.45,4.45H21.27a.75.75,0,1,1,0,1.5Z"/><path class="cls-1" d="M5.32,16.4a.75.75,0,0,1-.57-1.24L8.4,10.87a2.73,2.73,0,0,1,3.84-.31l1,.87A1.23,1.23,0,0,0,15,11.32l4.19-4.6a.75.75,0,0,1,1.06,0,.76.76,0,0,1,.05,1.06l-4.19,4.6a2.72,2.72,0,0,1-3.78.25l-1-.87a1.22,1.22,0,0,0-1.73.14L5.89,16.13A.74.74,0,0,1,5.32,16.4Z"/></g></g></svg>