<svg xmlns="http://www.w3.org/2000/svg" viewBox="0 0 24 24"><defs><style>.cls-1{opacity:0.3;}</style></defs><g id="business"><g id="chart-line"><rect class="cls-1" x="2" y="2" width="20.03" height="20" rx="5.96"/><path d="M7.58,14.89a.73.73,0,0,1-.52-.21.75.75,0,0,1,0-1.06l2.39-2.5A1.6,1.6,0,0,1,11.59,11l1.55,1.26a.09.09,0,0,0,.13,0L15.9,9.36a.75.75,0,0,1,1.06,0,.75.75,0,0,1,0,1.06l-2.62,2.87a1.61,1.61,0,0,1-2.19.17l-1.54-1.26a.09.09,0,0,0-.13,0l-2.4,2.5A.78.78,0,0,1,7.58,14.89Z"/></g></g></svg>