<svg xmlns="http://www.w3.org/2000/svg" viewBox="0 0 24 24"><defs><style>.cls-1{opacity:0.3;}</style></defs><g id="business"><g id="chart-line-down-2" data-name="chart-line-down"><path class="cls-1" d="M19.77,16.39a.74.74,0,0,1-.57-.27l-3.65-4.28a1.23,1.23,0,0,0-1.73-.14l-1,.87A2.7,2.7,0,0,1,9,12.32L4.81,7.72a.75.75,0,1,1,1.11-1l4.19,4.61a1.23,1.23,0,0,0,1.71.11l1-.88a2.74,2.74,0,0,1,3.84.32l3.65,4.28a.75.75,0,0,1-.57,1.24Z"/></g><g id="chart-line-up-2" data-name="chart-line-up"><path d="M21.24,22H7.7A5.69,5.69,0,0,1,2,16.29V2.75a.75.75,0,0,1,1.5,0V16.29A4.2,4.2,0,0,0,7.7,20.48H21.24a.75.75,0,0,1,0,1.5Z"/></g></g></svg>