<svg xmlns="http://www.w3.org/2000/svg" viewBox="0 0 24 24"><defs><style>.cls-1{opacity:0.3;}</style></defs><g id="business"><g id="graph-up"><rect class="cls-1" x="2" y="2" width="20.03" height="20" rx="5.96"/><path d="M12.38,19.34a.75.75,0,0,1-.75-.75V14.44a.75.75,0,0,1,1.5,0v4.15A.76.76,0,0,1,12.38,19.34Z"/><path d="M7.56,19.34a.76.76,0,0,1-.75-.75V15.72a.75.75,0,0,1,1.5,0v2.87A.75.75,0,0,1,7.56,19.34Z"/><path d="M17.13,19.34a.76.76,0,0,1-.75-.75V11.77a.75.75,0,0,1,1.5,0v6.82A.75.75,0,0,1,17.13,19.34Z"/><path d="M17.13,8.77A.75.75,0,0,1,16.38,8V6.4H14.8a.75.75,0,0,1,0-1.5h2.33a.74.74,0,0,1,.75.75V8A.74.74,0,0,1,17.13,8.77Z"/><path d="M7.81,12.08a.75.75,0,0,1-.75-.73.73.73,0,0,1,.72-.77h0c.21,0,5.06-.22,8.74-5.37a.75.75,0,0,1,1.22.87c-4.14,5.78-9.68,6-9.92,6Z"/></g></g></svg>