<svg xmlns="http://www.w3.org/2000/svg" viewBox="0 0 24 24"><defs><style>.cls-1{opacity:0.3;}</style></defs><g id="business"><g id="graph"><rect class="cls-1" x="2.03" y="2" width="20.06" height="20" rx="5.96"/><path d="M12.06,17.22a.76.76,0,0,1-.75-.75V7.53a.75.75,0,1,1,1.5,0v8.94A.76.76,0,0,1,12.06,17.22Z"/><path d="M6.44,14.57a.75.75,0,0,1-.75-.75V10.18a.75.75,0,0,1,1.5,0v3.64A.76.76,0,0,1,6.44,14.57Z"/><path d="M17.62,14.57a.75.75,0,0,1-.75-.75V10.18a.75.75,0,0,1,1.5,0v3.64A.76.76,0,0,1,17.62,14.57Z"/></g></g></svg>