<svg xmlns="http://www.w3.org/2000/svg" viewBox="0 0 24 24"><g id="technologies"><path fill="currentColor" id="artificial-intelligence" d="M20,15.88a2.18,2.18,0,0,1-.87.5,2.63,2.63,0,0,1-.84,0,33.63,33.63,0,0,1-3.74-.66,4.86,4.86,0,0,0-3.08.32,4.15,4.15,0,0,1-.53.32,1.86,1.86,0,0,1-.66.14,2.78,2.78,0,0,1-2.21-1,2.89,2.89,0,0,1-.38-2.5,4.15,4.15,0,0,1-2.15-.2,4,4,0,0,1-1.87-1.19C2.28,9.8,3.25,7.52,4.84,6.22A9.48,9.48,0,0,1,9.51,4.14v1L7.88,6.92a1.69,1.69,0,0,0-.5-.08A1.9,1.9,0,1,0,9,7.8L10.71,6a.75.75,0,0,0,.19-.49V4h.88c.46,0,1,.06,1.43.11v5l-.59.68a2.13,2.13,0,0,0-.57-.1,1.9,1.9,0,1,0,1.85,1.9,1.85,1.85,0,0,0-.22-.88l.74-.86a.69.69,0,0,0,.18-.47v-5a6.61,6.61,0,0,1,1.17.36,7.11,7.11,0,0,1,1.14.63v5.43a1.89,1.89,0,0,0-1.16,1.76,1.86,1.86,0,1,0,3.71,0,1.89,1.89,0,0,0-1.16-1.76V6.44a12.58,12.58,0,0,1,.95,1,7.24,7.24,0,0,1,1.83,4.36C21.09,13.3,21.24,14.83,20,15.88Zm-7.9-.06.14,0ZM11,16.35a3.87,3.87,0,0,0,.34-.21A3.87,3.87,0,0,1,11,16.35Zm-.2.08h0l.08,0Zm2.11-.76h0Zm.73,0h0Zm5.07.76h-.45l.38,0Zm-.55,1.41a21.55,21.55,0,0,1-2.91-.48l-1-.2a5.52,5.52,0,0,0-.92-.08,2.51,2.51,0,0,0-1.2.22l-.13.08a3.51,3.51,0,0,1-.46.27l.16.13a7.85,7.85,0,0,1,2.44,2c.28.45.49.94.74,1.41a1.75,1.75,0,0,0,.66.76.69.69,0,0,0,.9-.2,1,1,0,0,0,.08-.5c0-.74-.16-1.72.44-2.28.42-.39,1-.59,1.28-1.09ZM14.5,15.76l1.86.38ZM18.3,2.85a.7.7,0,1,0-1.39,0V5.34a10.5,10.5,0,0,1,1.39,1.1ZM10.9,4V2.85a.7.7,0,1,0-1.39,0V4.14A10.55,10.55,0,0,1,10.9,4Zm3.7-1.15a.7.7,0,1,0-1.39,0V4.12a10.89,10.89,0,0,1,1.39.23Z"/></g></svg>