<svg xmlns="http://www.w3.org/2000/svg" viewBox="0 0 24 24"><g id="technologies"><path fill="currentColor" id="electricity" d="M17.66,20.24a.69.69,0,0,1-.24,1,10.65,10.65,0,0,1-3.28,1.27,2,2,0,0,1-.48.05,2.37,2.37,0,0,1-1.5-.53,2.4,2.4,0,0,1-.88-1.86V15.8a3.08,3.08,0,0,1-2.43-3V10.48H8.66A1.45,1.45,0,0,1,7.22,9V9A1.44,1.44,0,0,1,8.66,7.53h6.61A1.43,1.43,0,0,1,16.7,9V9a1.44,1.44,0,0,1-1.43,1.44h-.19V12.8a3.08,3.08,0,0,1-2.43,3v4.32a1,1,0,0,0,.38.79,1,1,0,0,0,.83.2A9.24,9.24,0,0,0,16.72,20,.69.69,0,0,1,17.66,20.24ZM19.1,4a10.61,10.61,0,0,0-8.35-2.66,10.3,10.3,0,0,0-3.21.89.69.69,0,1,0,.58,1.25,8.73,8.73,0,0,1,2.78-.77,9.24,9.24,0,0,1,7.28,2.31A9.35,9.35,0,0,1,21.28,12a9.1,9.1,0,0,1-1,4.11.71.71,0,0,0,.32.93.66.66,0,0,0,.3.07.68.68,0,0,0,.62-.39A10.52,10.52,0,0,0,22.66,12,10.7,10.7,0,0,0,19.1,4ZM7.59,19.2A2.48,2.48,0,1,1,3,17.86a10.72,10.72,0,0,1-1.7-7,10.42,10.42,0,0,1,1.4-4.24.69.69,0,1,1,1.18.7A9.14,9.14,0,0,0,2.7,11,9.32,9.32,0,0,0,4.09,17a2.46,2.46,0,0,1,3.5,2.25Zm-1.38,0a1.1,1.1,0,1,0-1.1,1.1A1.1,1.1,0,0,0,6.21,19.2Zm4-11.71V4.63a.69.69,0,1,0-1.38,0V7.49s0,0,0,0h1.36S10.19,7.51,10.19,7.49Zm5,0V4.64a.69.69,0,1,0-1.38,0V7.5s0,0,0,0H15.2S15.21,7.51,15.21,7.5ZM19.41,18a.67.67,0,1,0,.66.66A.66.66,0,0,0,19.41,18ZM5.4,5.3a.67.67,0,1,0-.66-.66A.67.67,0,0,0,5.4,5.3Z"/></g></svg>