<svg xmlns="http://www.w3.org/2000/svg" viewBox="0 0 24 24"><g id="technologies"><path fill="currentColor" id="face-ID" d="M9,7.2a4.9,4.9,0,0,0-2.21,3.52.26.26,0,0,1-.51.06c-.62-2.07-1.05-5.67,3.21-6a6,6,0,0,1,5.14-.87,5.4,5.4,0,0,1,2.92,7.69.27.27,0,0,1-.5-.05c-.24-.88-1-2.25-3.48-2.08A5.37,5.37,0,0,1,9,7.2Zm9.24,4.72a1,1,0,0,1-.93.57,1,1,0,0,1-1-.76A2.1,2.1,0,0,0,14,10.2h-.77a6,6,0,0,1-4.35-2A4.13,4.13,0,0,0,7.6,10.81a1,1,0,0,1-1,.92,1,1,0,0,1-1-.73c0-.06,0-.12,0-.17a2.11,2.11,0,0,0-.32,1.39c.09.93.68,1.63,1.31,1.57a.9.9,0,0,0,.22-.06v.59A3.48,3.48,0,0,0,8,17l2.43,2a2.59,2.59,0,0,0,3.24.08l2.27-1.69a3.44,3.44,0,0,0,1.31-2.77v-.89a1,1,0,0,0,.23.06c.63.06,1.21-.64,1.3-1.57a2.14,2.14,0,0,0-.13-1A7.71,7.71,0,0,1,18.28,11.92Zm4.49,8.75V17.35a.77.77,0,0,0-1.54,0v3.32a.43.43,0,0,1-.43.43h-3a.77.77,0,0,0,0,1.54h3A2,2,0,0,0,22.77,20.67ZM7,21.87a.78.78,0,0,0-.77-.77h-3a.43.43,0,0,1-.43-.43V17.35a.77.77,0,1,0-1.54,0v3.32a2,2,0,0,0,2,2h3A.77.77,0,0,0,7,21.87ZM22.77,6.57V3.25a2,2,0,0,0-2-2h-3a.77.77,0,1,0,0,1.54h3a.43.43,0,0,1,.43.43V6.57a.77.77,0,1,0,1.54,0Zm-19.9,0V3.25a.43.43,0,0,1,.43-.43h3a.77.77,0,0,0,0-1.54h-3a2,2,0,0,0-2,2V6.57a.77.77,0,0,0,1.54,0Z"/></g></svg>