<svg xmlns="http://www.w3.org/2000/svg" viewBox="0 0 24 24"><g id="technologies"><path fill="currentColor" id="fingerprint-scanning" d="M12.28,20.84a.85.85,0,0,1-.52-.17.87.87,0,0,1-.18-1.21A9.38,9.38,0,0,0,13.21,16a.87.87,0,0,1,1.69.41A11.2,11.2,0,0,1,13,20.5.88.88,0,0,1,12.28,20.84Zm-2.51-1.9a7.8,7.8,0,0,0,2-5.18V9.43a.87.87,0,1,1,1.73,0v3.74a.87.87,0,0,0,1.74,0V9.43a2.61,2.61,0,0,0-5.21,0v4.33a6.08,6.08,0,0,1-1.52,4A.86.86,0,0,0,8.55,19a.83.83,0,0,0,.57.22A.87.87,0,0,0,9.77,18.94ZM7.41,16.4a.9.9,0,0,0,.86-.9V9.43a4.31,4.31,0,0,1,.27-1.52A.87.87,0,1,0,6.92,7.3a6.17,6.17,0,0,0-.38,2.13v6.15a.83.83,0,0,0,.86.82ZM10,6a4.38,4.38,0,0,1,1.44-.7.88.88,0,0,0,.61-1.07A.87.87,0,0,0,11,3.58a6,6,0,0,0-2,1A.87.87,0,0,0,8.8,5.78a.88.88,0,0,0,.69.34A.81.81,0,0,0,10,6Zm8,12.34a14.74,14.74,0,0,0,.71-4.53V9.43a6.07,6.07,0,0,0-4.08-5.74.87.87,0,0,0-1.11.54A.88.88,0,0,0,14,5.33a4.33,4.33,0,0,1,2.92,4.1v4.33a12.87,12.87,0,0,1-.63,4,.88.88,0,0,0,.56,1.09.84.84,0,0,0,.27,0A.85.85,0,0,0,18,18.29Zm5,2.61V17.53a.78.78,0,0,0-1.56,0V20.9a.43.43,0,0,1-.43.43H18a.78.78,0,0,0,0,1.56h3A2,2,0,0,0,22.93,20.9ZM7,22.11a.78.78,0,0,0-.78-.78h-3a.43.43,0,0,1-.43-.43V17.53a.79.79,0,0,0-1.57,0V20.9a2,2,0,0,0,2,2h3A.78.78,0,0,0,7,22.11ZM22.93,6.63V3.27a2,2,0,0,0-2-2H18a.78.78,0,0,0,0,1.56h3a.43.43,0,0,1,.43.43V6.63a.78.78,0,1,0,1.56,0Zm-20.12,0V3.27a.43.43,0,0,1,.43-.43h3a.78.78,0,0,0,0-1.56h-3a2,2,0,0,0-2,2V6.63a.79.79,0,0,0,1.57,0Z"/></g></svg>