<svg xmlns="http://www.w3.org/2000/svg" viewBox="0 0 24 24"><g id="weather"><g id="night-day"><path d="M15.16,7.27A5.68,5.68,0,0,1,15,16.82a5,5,0,0,1,.15-9.55Zm-5,4.8a6.36,6.36,0,0,1,3.27-5.56A5.42,5.42,0,0,0,12,6.31a5.69,5.69,0,0,0,0,11.38,5.58,5.58,0,0,0,1.3-.16A6.36,6.36,0,0,1,10.19,12.07ZM12.75,4V2.77a.75.75,0,1,0-1.5,0V4a.75.75,0,0,0,1.5,0Zm0,17.28V20.05a.75.75,0,1,0-1.5,0v1.18a.75.75,0,1,0,1.5,0ZM6.84,6.84a.75.75,0,0,0,0-1.06L6,5A.75.75,0,0,0,4.94,6l.84.83a.75.75,0,0,0,1.06,0ZM19.05,19.06a.75.75,0,0,0,0-1.06l-.84-.84a.75.75,0,1,0-1.06,1.06l.83.84a.79.79,0,0,0,.53.22A.75.75,0,0,0,19.05,19.06ZM4.7,12A.75.75,0,0,0,4,11.25H2.77a.75.75,0,1,0,0,1.5H4A.75.75,0,0,0,4.7,12ZM22,12a.76.76,0,0,0-.75-.75H20.05a.75.75,0,1,0,0,1.5h1.18A.76.76,0,0,0,22,12ZM6,19.06l.83-.84a.75.75,0,1,0-1.06-1.06L4.94,18a.75.75,0,0,0,0,1.06.76.76,0,0,0,1.07,0ZM18.22,6.84,19.06,6A.75.75,0,0,0,18,5l-.83.83a.75.75,0,0,0,0,1.06.75.75,0,0,0,1.06,0Z"/></g></g></svg>